<svg xmlns="http://www.w3.org/2000/svg" viewBox="0 0 1216 458" width="1216" height="458" font-family="system-ui,-apple-system,Segoe UI,sans-serif">
<rect x="0" y="0" width="1216" height="458" fill="#f3f6fb"/>
<rect x="2" y="136" width="1212" height="176" rx="14" fill="#e5eaf1"/>
<line x1="608" y1="4" x2="608" y2="454" stroke="#b3bdcb" stroke-width="1.2"/>
<rect x="895" y="165" width="34" height="10" fill="#aab8ca" stroke="#4f6179" stroke-width="1.2"/>
<rect x="889" y="70.8" width="46" height="10" fill="#aab8ca" stroke="#4f6179" stroke-width="1.2"/>
<rect x="971" y="165" width="22.0" height="10" fill="#aab8ca" stroke="#4f6179" stroke-width="1.2"/>
<rect x="965" y="70.8" width="34.0" height="10" fill="#aab8ca" stroke="#4f6179" stroke-width="1.2"/>
<text x="38" y="87" text-anchor="middle" font-size="32" font-weight="600" fill="#56657c">f</text>
<g transform="translate(0,136)">
<path d="M10,10 Q38,3 66,10 Q73,34 66,58 Q38,65 10,58 Q3,34 10,10 Z" fill="none" stroke="#c3cbd6" stroke-width="1.2" stroke-dasharray="3 4"/></g>
<g transform="translate(76,100) scale(1,-1)">
<path d="M12.0,41.4 C12.0,60 9.0,80 11.4,90 Q13.0,93.5 14.6,90 C17.0,80 28.0,60 28.0,41.4 Z" fill="#ffffff" stroke="#26344d" stroke-width="2" stroke-linejoin="round"/>
<path d="M30.0,41.4 C30.0,60 34.0,80 36.4,90 Q38.0,93.5 39.6,90 C42.0,80 46.0,60 46.0,41.4 Z" fill="#ffffff" stroke="#26344d" stroke-width="2" stroke-linejoin="round"/>
<path d="M48.0,41.4 C48.0,60 59.0,80 61.4,90 Q63.0,93.5 64.6,90 C67.0,80 64.0,60 64.0,41.4 Z" fill="#ffffff" stroke="#26344d" stroke-width="2" stroke-linejoin="round"/>
<path d="M12,41.4 C8,34 6,26 7,18 Q10,6 22,7 Q31,8 38,13 Q45,8 54,7 Q66,6 69,18 C70,26 68,34 64,41.4 Z" fill="#ffffff" stroke="#26344d" stroke-width="2" stroke-linejoin="round"/>
</g>
<g transform="translate(76,136)">
<clipPath id="oD17"><path d="M10,10 Q38,3 66,10 Q73,34 66,58 Q38,65 10,58 Q3,34 10,10 Z"/></clipPath>
<path d="M10,10 Q38,3 66,10 Q73,34 66,58 Q38,65 10,58 Q3,34 10,10 Z" fill="#ffffff"/>
<g clip-path="url(#oD17)">
<g stroke="#26344d" stroke-width="1.1" opacity="0.8"><line x1="25" y1="23" x2="0.0" y2="0.0"/><line x1="51" y1="23" x2="76.0" y2="0.0"/><line x1="25" y1="45" x2="0.0" y2="68.0"/><line x1="51" y1="45" x2="76.0" y2="68.0"/></g>
</g>
<path d="M33,23 L43,23 Q51,23 51,31 L51,37 Q51,45 43,45 L33,45 Q25,45 25,37 L25,31 Q25,23 33,23 Z" fill="#ffffff" stroke="#26344d" stroke-width="1.3"/>
<path d="M10,10 Q38,3 66,10 Q73,34 66,58 Q38,65 10,58 Q3,34 10,10 Z" fill="none" stroke="#26344d" stroke-width="1.9" stroke-linejoin="round"/>
</g>
<g transform="translate(152,100) scale(1,-1)">
<path d="M12.0,41.4 C12.0,60 9.0,80 11.4,90 Q13.0,93.5 14.6,90 C17.0,80 28.0,60 28.0,41.4 Z" fill="#ffffff" stroke="#26344d" stroke-width="2" stroke-linejoin="round"/>
<path d="M30.0,41.4 C30.0,60 34.0,80 36.4,90 Q38.0,93.5 39.6,90 C42.0,80 46.0,60 46.0,41.4 Z" fill="#ffffff" stroke="#26344d" stroke-width="2" stroke-linejoin="round"/>
<path d="M48.0,41.4 C48.0,60 59.0,80 61.4,90 Q63.0,93.5 64.6,90 C67.0,80 64.0,60 64.0,41.4 Z" fill="#ffffff" stroke="#26344d" stroke-width="2" stroke-linejoin="round"/>
<path d="M12,41.4 C8,34 6,26 7,18 Q10,6 22,7 Q31,8 38,13 Q45,8 54,7 Q66,6 69,18 C70,26 68,34 64,41.4 Z" fill="#aab8ca" stroke="#4f6179" stroke-width="2.6" stroke-linejoin="round"/>
</g>
<g transform="translate(152,136)">
<clipPath id="oD16"><path d="M10,10 Q38,3 66,10 Q73,34 66,58 Q38,65 10,58 Q3,34 10,10 Z"/></clipPath>
<path d="M10,10 Q38,3 66,10 Q73,34 66,58 Q38,65 10,58 Q3,34 10,10 Z" fill="#aab8ca"/>
<g clip-path="url(#oD16)">
<g stroke="#4f6179" stroke-width="1.1" opacity="0.8"><line x1="25" y1="23" x2="0.0" y2="0.0"/><line x1="51" y1="23" x2="76.0" y2="0.0"/><line x1="25" y1="45" x2="0.0" y2="68.0"/><line x1="51" y1="45" x2="76.0" y2="68.0"/></g>
</g>
<path d="M33,23 L43,23 Q51,23 51,31 L51,37 Q51,45 43,45 L33,45 Q25,45 25,37 L25,31 Q25,23 33,23 Z" fill="none" stroke="#4f6179" stroke-width="1.1"/>
<path d="M10,10 Q38,3 66,10 Q73,34 66,58 Q38,65 10,58 Q3,34 10,10 Z" fill="none" stroke="#4f6179" stroke-width="3.4" stroke-linejoin="round"/>
</g>
<g transform="translate(228,100) scale(1,-1)">
<path d="M23.0,41.4 C23.0,60 34.0,80 36.4,90 Q38.0,93.5 39.6,90 C42.0,80 53.0,60 53.0,41.4 Z" fill="#ffffff" stroke="#26344d" stroke-width="2" stroke-linejoin="round"/>
<path d="M23,41.4 C20,34 18,25 19,19 Q24,8 38,6 Q52,8 57,19 C58,25 56,34 53,41.4 Z" fill="#ffffff" stroke="#26344d" stroke-width="2" stroke-linejoin="round"/>
</g>
<g transform="translate(228,136)">
<clipPath id="oD15"><path d="M15,34 A23,27 0 1 0 61,34 A23,27 0 1 0 15,34 Z"/></clipPath>
<path d="M15,34 A23,27 0 1 0 61,34 A23,27 0 1 0 15,34 Z" fill="#ffffff"/>
<g clip-path="url(#oD15)">
<path d="M64,4 L64,64 L46,44 L46,24 Z" fill="#d32f2f" stroke="#8e1b1b" stroke-width="1.2" stroke-linejoin="round"/>
<g stroke="#26344d" stroke-width="1.1" opacity="0.8"><line x1="30" y1="24" x2="12" y2="4"/><line x1="46" y1="24" x2="64" y2="4"/><line x1="30" y1="44" x2="12" y2="64"/><line x1="46" y1="44" x2="64" y2="64"/></g>
</g>
<path d="M37,24 L39,24 Q46,24 46,31 L46,37 Q46,44 39,44 L37,44 Q30,44 30,37 L30,31 Q30,24 37,24 Z" fill="#d32f2f" stroke="#8e1b1b" stroke-width="1.4"/>
<path d="M15,34 A23,27 0 1 0 61,34 A23,27 0 1 0 15,34 Z" fill="none" stroke="#26344d" stroke-width="1.9" stroke-linejoin="round"/>
</g>
<g transform="translate(304,100) scale(1,-1)">
<path d="M23.0,41.4 C23.0,60 22.0,80 24.4,90 Q26.0,93.5 27.6,90 C30.0,80 37.0,60 37.0,41.4 Z" fill="#ffffff" stroke="#26344d" stroke-width="2" stroke-linejoin="round"/>
<path d="M39.0,41.4 C39.0,60 46.0,80 48.4,90 Q50.0,93.5 51.6,90 C54.0,80 53.0,60 53.0,41.4 Z" fill="#ffffff" stroke="#26344d" stroke-width="2" stroke-linejoin="round"/>
<path d="M23,41.4 C20,34 18,25 19,19 Q24,8 38,6 Q52,8 57,19 C58,25 56,34 53,41.4 Z" fill="#ffffff" stroke="#26344d" stroke-width="2" stroke-linejoin="round"/>
</g>
<g transform="translate(304,136)">
<clipPath id="oD14"><path d="M15,34 A23,27 0 1 0 61,34 A23,27 0 1 0 15,34 Z"/></clipPath>
<path d="M15,34 A23,27 0 1 0 61,34 A23,27 0 1 0 15,34 Z" fill="#ffffff"/>
<g clip-path="url(#oD14)">
<path d="M12,4 L12,64 L30,44 L30,24 Z" fill="#aab8ca" stroke="#4f6179" stroke-width="1.6" stroke-linejoin="round"/>
<g stroke="#26344d" stroke-width="1.1" opacity="0.8"><line x1="30" y1="24" x2="12" y2="4"/><line x1="46" y1="24" x2="64" y2="4"/><line x1="30" y1="44" x2="12" y2="64"/><line x1="46" y1="44" x2="64" y2="64"/></g>
</g>
<path d="M37,24 L39,24 Q46,24 46,31 L46,37 Q46,44 39,44 L37,44 Q30,44 30,37 L30,31 Q30,24 37,24 Z" fill="#aab8ca" stroke="#4f6179" stroke-width="1.6"/>
<path d="M15,34 A23,27 0 1 0 61,34 A23,27 0 1 0 15,34 Z" fill="none" stroke="#26344d" stroke-width="1.9" stroke-linejoin="round"/>
</g>
<g transform="translate(380,100) scale(1,-1)">
<path d="M25.0,41.4 C25.0,60 34.0,80 36.4,90 Q38.0,93.5 39.6,90 C42.0,80 51.0,60 51.0,41.4 Z" fill="#ffffff" stroke="#26344d" stroke-width="2" stroke-linejoin="round"/>
<path d="M25,41.4 C21,33 19,24 20,17 Q27,10 38,5 Q49,10 56,17 C57,24 55,33 51,41.4 Z" fill="#ffffff" stroke="#26344d" stroke-width="2" stroke-linejoin="round"/>
</g>
<g transform="translate(380,136)">
<clipPath id="oD13"><path d="M14,34 Q20,17 38,13 Q56,17 62,34 Q56,51 38,55 Q20,51 14,34 Z"/></clipPath>
<path d="M14,34 Q20,17 38,13 Q56,17 62,34 Q56,51 38,55 Q20,51 14,34 Z" fill="#ffffff"/>
<g clip-path="url(#oD13)">
<g stroke="#26344d" stroke-width="1.1" opacity="0.8"><line x1="28" y1="29" x2="11.0" y2="10.0"/><line x1="48" y1="29" x2="65.0" y2="10.0"/><line x1="28" y1="39" x2="11.0" y2="58.0"/><line x1="48" y1="39" x2="65.0" y2="58.0"/></g>
</g>
<path d="M33,29 L43,29 Q48,29 48,34 L48,34 Q48,39 43,39 L33,39 Q28,39 28,34 L28,34 Q28,29 33,29 Z" fill="#ffffff" stroke="#26344d" stroke-width="1.3"/>
<line x1="29" y1="34.0" x2="47" y2="34.0" stroke="#26344d" stroke-width="1.4"/>
<path d="M14,34 Q20,17 38,13 Q56,17 62,34 Q56,51 38,55 Q20,51 14,34 Z" fill="none" stroke="#26344d" stroke-width="1.9" stroke-linejoin="round"/>
</g>
<g transform="translate(456,100) scale(1,-1)">
<path d="M26.0,41.4 C26.0,60 34.0,80 36.4,90 Q38.0,93.5 39.6,90 C42.0,80 50.0,60 50.0,41.4 Z" fill="#ffffff" stroke="#26344d" stroke-width="2" stroke-linejoin="round"/>
<path d="M26,41.4 C22,32 20,20 20,10 Q20,7 23,7 L53,7 Q56,7 56,10 C56,20 54,32 50,41.4 Z" fill="#ffffff" stroke="#26344d" stroke-width="2" stroke-linejoin="round"/>
</g>
<g transform="translate(456,136)">
<clipPath id="oD12"><path d="M11,28 Q38,12 65,28 Q62,46 38,51 Q14,46 11,28 Z"/></clipPath>
<path d="M11,28 Q38,12 65,28 Q62,46 38,51 Q14,46 11,28 Z" fill="#ffffff"/>
<g clip-path="url(#oD12)">
<path d="M68.0,9.0 L68.0,54.0 L53,37 L53,29 Z" fill="#aab8ca" stroke="#4f6179" stroke-width="1.6" stroke-linejoin="round"/>
<g stroke="#26344d" stroke-width="1.1" opacity="0.8"><line x1="23" y1="29" x2="8.0" y2="9.0"/><line x1="53" y1="29" x2="68.0" y2="9.0"/><line x1="23" y1="37" x2="8.0" y2="54.0"/><line x1="53" y1="37" x2="68.0" y2="54.0"/></g>
</g>
<path d="M26,29 L50,29 Q53,29 53,32 L53,34 Q53,37 50,37 L26,37 Q23,37 23,34 L23,32 Q23,29 26,29 Z" fill="#ffffff" stroke="#26344d" stroke-width="1.3"/>
<line x1="24" y1="33.0" x2="52" y2="33.0" stroke="#26344d" stroke-width="1.4"/>
<path d="M11,28 Q38,12 65,28 Q62,46 38,51 Q14,46 11,28 Z" fill="none" stroke="#26344d" stroke-width="1.9" stroke-linejoin="round"/>
</g>
<g transform="translate(532,100) scale(1,-1)">
<path d="M26.0,41.4 C26.0,60 34.0,80 36.4,90 Q38.0,93.5 39.6,90 C42.0,80 50.0,60 50.0,41.4 Z" fill="#ffffff" stroke="#26344d" stroke-width="2" stroke-linejoin="round"/>
<path d="M26,41.4 C22,32 20,20 20,10 Q20,7 23,7 L53,7 Q56,7 56,10 C56,20 54,32 50,41.4 Z" fill="#ffffff" stroke="#26344d" stroke-width="2" stroke-linejoin="round"/>
<rect x="27" y="10" width="22" height="28" rx="3" fill="#aab8ca" stroke="#4f6179" stroke-width="1.6"/>
</g>
<g transform="translate(532,136)">
<clipPath id="oD11"><path d="M11,28 Q38,12 65,28 Q62,46 38,51 Q14,46 11,28 Z"/></clipPath>
<path d="M11,28 Q38,12 65,28 Q62,46 38,51 Q14,46 11,28 Z" fill="#ffffff"/>
<g clip-path="url(#oD11)">
<g stroke="#26344d" stroke-width="1.1" opacity="0.8"><line x1="23" y1="29" x2="8.0" y2="9.0"/><line x1="53" y1="29" x2="68.0" y2="9.0"/><line x1="23" y1="37" x2="8.0" y2="54.0"/><line x1="53" y1="37" x2="68.0" y2="54.0"/></g>
</g>
<path d="M26,29 L50,29 Q53,29 53,32 L53,34 Q53,37 50,37 L26,37 Q23,37 23,34 L23,32 Q23,29 26,29 Z" fill="#ffffff" stroke="#26344d" stroke-width="1.3"/>
<line x1="24" y1="33.0" x2="52" y2="33.0" stroke="#26344d" stroke-width="1.4"/>
<path d="M11,28 Q38,12 65,28 Q62,46 38,51 Q14,46 11,28 Z" fill="none" stroke="#26344d" stroke-width="1.9" stroke-linejoin="round"/>
</g>
<g transform="translate(608,100) scale(1,-1)">
<path d="M26.0,41.4 C26.0,60 34.0,80 36.4,90 Q38.0,93.5 39.6,90 C42.0,80 50.0,60 50.0,41.4 Z" fill="#ffffff" stroke="#26344d" stroke-width="2" stroke-linejoin="round"/>
<path d="M26,41.4 C22,32 20,20 20,10 Q20,7 23,7 L53,7 Q56,7 56,10 C56,20 54,32 50,41.4 Z" fill="#ffffff" stroke="#26344d" stroke-width="2" stroke-linejoin="round"/>
</g>
<g transform="translate(608,136)">
<clipPath id="oD21"><path d="M11,28 Q38,12 65,28 Q62,46 38,51 Q14,46 11,28 Z"/></clipPath>
<path d="M11,28 Q38,12 65,28 Q62,46 38,51 Q14,46 11,28 Z" fill="#ffffff"/>
<g clip-path="url(#oD21)">
<path d="M8.0,9.0 L68.0,9.0 L53,29 L23,29 Z" fill="#d32f2f" stroke="#8e1b1b" stroke-width="1.2" stroke-linejoin="round"/>
<g stroke="#26344d" stroke-width="1.1" opacity="0.8"><line x1="23" y1="29" x2="8.0" y2="9.0"/><line x1="53" y1="29" x2="68.0" y2="9.0"/><line x1="23" y1="37" x2="8.0" y2="54.0"/><line x1="53" y1="37" x2="68.0" y2="54.0"/></g>
</g>
<path d="M26,29 L50,29 Q53,29 53,32 L53,34 Q53,37 50,37 L26,37 Q23,37 23,34 L23,32 Q23,29 26,29 Z" fill="#ffffff" stroke="#26344d" stroke-width="1.3"/>
<line x1="24" y1="33.0" x2="52" y2="33.0" stroke="#26344d" stroke-width="1.4"/>
<path d="M11,28 Q38,12 65,28 Q62,46 38,51 Q14,46 11,28 Z" fill="none" stroke="#26344d" stroke-width="1.9" stroke-linejoin="round"/>
</g>
<g transform="translate(684,100) scale(1,-1)">
<path d="M26.0,41.4 C26.0,60 34.0,80 36.4,90 Q38.0,93.5 39.6,90 C42.0,80 50.0,60 50.0,41.4 Z" fill="#ffffff" stroke="#26344d" stroke-width="2" stroke-linejoin="round"/>
<path d="M26,41.4 C22,32 20,20 20,10 Q20,7 23,7 L53,7 Q56,7 56,10 C56,20 54,32 50,41.4 Z" fill="#ffffff" stroke="#26344d" stroke-width="2" stroke-linejoin="round"/>
</g>
<g transform="translate(684,136)">
<clipPath id="oD22"><path d="M11,28 Q38,12 65,28 Q62,46 38,51 Q14,46 11,28 Z"/></clipPath>
<path d="M11,28 Q38,12 65,28 Q62,46 38,51 Q14,46 11,28 Z" fill="#ffffff"/>
<g clip-path="url(#oD22)">
<g stroke="#26344d" stroke-width="1.1" opacity="0.8"><line x1="23" y1="29" x2="8.0" y2="9.0"/><line x1="53" y1="29" x2="68.0" y2="9.0"/><line x1="23" y1="37" x2="8.0" y2="54.0"/><line x1="53" y1="37" x2="68.0" y2="54.0"/></g>
</g>
<path d="M26,29 L50,29 Q53,29 53,32 L53,34 Q53,37 50,37 L26,37 Q23,37 23,34 L23,32 Q23,29 26,29 Z" fill="#ffffff" stroke="#26344d" stroke-width="1.3"/>
<line x1="24" y1="33.0" x2="52" y2="33.0" stroke="#26344d" stroke-width="1.4"/>
<path d="M11,28 Q38,12 65,28 Q62,46 38,51 Q14,46 11,28 Z" fill="none" stroke="#26344d" stroke-width="1.9" stroke-linejoin="round"/>
</g>
<g transform="translate(760,100) scale(1,-1)">
<path d="M25.0,41.4 C25.0,60 34.0,80 36.4,90 Q38.0,93.5 39.6,90 C42.0,80 51.0,60 51.0,41.4 Z" fill="#ffffff" stroke="#26344d" stroke-width="2" stroke-linejoin="round"/>
<path d="M25,41.4 C21,33 19,24 20,17 Q27,10 38,5 Q49,10 56,17 C57,24 55,33 51,41.4 Z" fill="#ffffff" stroke="#26344d" stroke-width="2" stroke-linejoin="round"/>
</g>
<g transform="translate(760,136)">
<clipPath id="oD23"><path d="M14,34 Q20,17 38,13 Q56,17 62,34 Q56,51 38,55 Q20,51 14,34 Z"/></clipPath>
<path d="M14,34 Q20,17 38,13 Q56,17 62,34 Q56,51 38,55 Q20,51 14,34 Z" fill="#ffffff"/>
<g clip-path="url(#oD23)">
<g stroke="#26344d" stroke-width="1.1" opacity="0.8"><line x1="28" y1="29" x2="11.0" y2="10.0"/><line x1="48" y1="29" x2="65.0" y2="10.0"/><line x1="28" y1="39" x2="11.0" y2="58.0"/><line x1="48" y1="39" x2="65.0" y2="58.0"/></g>
</g>
<path d="M33,29 L43,29 Q48,29 48,34 L48,34 Q48,39 43,39 L33,39 Q28,39 28,34 L28,34 Q28,29 33,29 Z" fill="#ffffff" stroke="#26344d" stroke-width="1.3"/>
<line x1="29" y1="34.0" x2="47" y2="34.0" stroke="#26344d" stroke-width="1.4"/>
<path d="M14,34 Q20,17 38,13 Q56,17 62,34 Q56,51 38,55 Q20,51 14,34 Z" fill="none" stroke="#26344d" stroke-width="1.9" stroke-linejoin="round"/>
</g>
<g transform="translate(836,100) scale(1,-1)">
<path d="M23.0,41.4 C23.0,60 22.0,80 24.4,90 Q26.0,93.5 27.6,90 C30.0,80 37.0,60 37.0,41.4 Z" fill="#ffffff" stroke="#26344d" stroke-width="2" stroke-linejoin="round"/>
<path d="M39.0,41.4 C39.0,60 46.0,80 48.4,90 Q50.0,93.5 51.6,90 C54.0,80 53.0,60 53.0,41.4 Z" fill="#ffffff" stroke="#26344d" stroke-width="2" stroke-linejoin="round"/>
<path d="M23,41.4 C20,34 18,25 19,19 Q24,8 38,6 Q52,8 57,19 C58,25 56,34 53,41.4 Z" fill="#aab8ca" stroke="#4f6179" stroke-width="2.6" stroke-linejoin="round"/>
</g>
<g transform="translate(836,136)">
<clipPath id="oD24"><path d="M15,34 A23,27 0 1 0 61,34 A23,27 0 1 0 15,34 Z"/></clipPath>
<path d="M15,34 A23,27 0 1 0 61,34 A23,27 0 1 0 15,34 Z" fill="#aab8ca"/>
<g clip-path="url(#oD24)">
<g stroke="#4f6179" stroke-width="1.1" opacity="0.8"><line x1="30" y1="24" x2="12" y2="4"/><line x1="46" y1="24" x2="64" y2="4"/><line x1="30" y1="44" x2="12" y2="64"/><line x1="46" y1="44" x2="64" y2="64"/></g>
</g>
<path d="M37,24 L39,24 Q46,24 46,31 L46,37 Q46,44 39,44 L37,44 Q30,44 30,37 L30,31 Q30,24 37,24 Z" fill="none" stroke="#4f6179" stroke-width="1.1"/>
<path d="M15,34 A23,27 0 1 0 61,34 A23,27 0 1 0 15,34 Z" fill="none" stroke="#4f6179" stroke-width="3.4" stroke-linejoin="round"/>
</g>
<g transform="translate(912,100) scale(1,-1)">
<path d="M23,41.4 C20,34 18,25 19,19 Q24,8 38,6 Q52,8 57,19 C58,25 56,34 53,41.4 Z" fill="#aab8ca" stroke="#4f6179" stroke-width="2.6" stroke-linejoin="round"/>
</g>
<g transform="translate(912,136)">
<clipPath id="oD25"><path d="M15,34 A23,27 0 1 0 61,34 A23,27 0 1 0 15,34 Z"/></clipPath>
<path d="M15,34 A23,27 0 1 0 61,34 A23,27 0 1 0 15,34 Z" fill="#aab8ca"/>
<g clip-path="url(#oD25)">
<g stroke="#4f6179" stroke-width="1.1" opacity="0.8"><line x1="30" y1="24" x2="12" y2="4"/><line x1="46" y1="24" x2="64" y2="4"/><line x1="30" y1="44" x2="12" y2="64"/><line x1="46" y1="44" x2="64" y2="64"/></g>
</g>
<path d="M37,24 L39,24 Q46,24 46,31 L46,37 Q46,44 39,44 L37,44 Q30,44 30,37 L30,31 Q30,24 37,24 Z" fill="none" stroke="#4f6179" stroke-width="1.1"/>
<path d="M15,34 A23,27 0 1 0 61,34 A23,27 0 1 0 15,34 Z" fill="none" stroke="#4f6179" stroke-width="3.4" stroke-linejoin="round"/>
</g>
<g transform="translate(988,100) scale(1,-1)">
<path d="M12.0,41.4 C12.0,60 9.0,80 11.4,90 Q13.0,93.5 14.6,90 C17.0,80 28.0,60 28.0,41.4 Z" fill="#ffffff" stroke="#26344d" stroke-width="2" stroke-linejoin="round"/>
<path d="M30.0,41.4 C30.0,60 34.0,80 36.4,90 Q38.0,93.5 39.6,90 C42.0,80 46.0,60 46.0,41.4 Z" fill="#ffffff" stroke="#26344d" stroke-width="2" stroke-linejoin="round"/>
<path d="M48.0,41.4 C48.0,60 59.0,80 61.4,90 Q63.0,93.5 64.6,90 C67.0,80 64.0,60 64.0,41.4 Z" fill="#ffffff" stroke="#26344d" stroke-width="2" stroke-linejoin="round"/>
<path d="M12,41.4 C8,34 6,26 7,18 Q10,6 22,7 Q31,8 38,13 Q45,8 54,7 Q66,6 69,18 C70,26 68,34 64,41.4 Z" fill="#aab8ca" stroke="#4f6179" stroke-width="2.6" stroke-linejoin="round"/>
</g>
<g transform="translate(988,136)">
<clipPath id="oD26"><path d="M10,10 Q38,3 66,10 Q73,34 66,58 Q38,65 10,58 Q3,34 10,10 Z"/></clipPath>
<path d="M10,10 Q38,3 66,10 Q73,34 66,58 Q38,65 10,58 Q3,34 10,10 Z" fill="#aab8ca"/>
<g clip-path="url(#oD26)">
<g stroke="#4f6179" stroke-width="1.1" opacity="0.8"><line x1="25" y1="23" x2="0.0" y2="0.0"/><line x1="51" y1="23" x2="76.0" y2="0.0"/><line x1="25" y1="45" x2="0.0" y2="68.0"/><line x1="51" y1="45" x2="76.0" y2="68.0"/></g>
</g>
<path d="M33,23 L43,23 Q51,23 51,31 L51,37 Q51,45 43,45 L33,45 Q25,45 25,37 L25,31 Q25,23 33,23 Z" fill="none" stroke="#4f6179" stroke-width="1.1"/>
<path d="M10,10 Q38,3 66,10 Q73,34 66,58 Q38,65 10,58 Q3,34 10,10 Z" fill="none" stroke="#4f6179" stroke-width="3.4" stroke-linejoin="round"/>
</g>
<g transform="translate(1064,100) scale(1,-1)">
<path d="M12.0,41.4 C12.0,60 9.0,80 11.4,90 Q13.0,93.5 14.6,90 C17.0,80 28.0,60 28.0,41.4 Z" fill="#ffffff" stroke="#26344d" stroke-width="2" stroke-linejoin="round"/>
<path d="M30.0,41.4 C30.0,60 34.0,80 36.4,90 Q38.0,93.5 39.6,90 C42.0,80 46.0,60 46.0,41.4 Z" fill="#ffffff" stroke="#26344d" stroke-width="2" stroke-linejoin="round"/>
<path d="M48.0,41.4 C48.0,60 59.0,80 61.4,90 Q63.0,93.5 64.6,90 C67.0,80 64.0,60 64.0,41.4 Z" fill="#ffffff" stroke="#26344d" stroke-width="2" stroke-linejoin="round"/>
<path d="M12,41.4 C8,34 6,26 7,18 Q10,6 22,7 Q31,8 38,13 Q45,8 54,7 Q66,6 69,18 C70,26 68,34 64,41.4 Z" fill="#ffffff" stroke="#26344d" stroke-width="2" stroke-linejoin="round"/>
</g>
<g transform="translate(1064,136)">
<clipPath id="oD27"><path d="M10,10 Q38,3 66,10 Q73,34 66,58 Q38,65 10,58 Q3,34 10,10 Z"/></clipPath>
<path d="M10,10 Q38,3 66,10 Q73,34 66,58 Q38,65 10,58 Q3,34 10,10 Z" fill="#ffffff"/>
<g clip-path="url(#oD27)">
<g stroke="#26344d" stroke-width="1.1" opacity="0.8"><line x1="25" y1="23" x2="0.0" y2="0.0"/><line x1="51" y1="23" x2="76.0" y2="0.0"/><line x1="25" y1="45" x2="0.0" y2="68.0"/><line x1="51" y1="45" x2="76.0" y2="68.0"/></g>
</g>
<path d="M33,23 L43,23 Q51,23 51,31 L51,37 Q51,45 43,45 L33,45 Q25,45 25,37 L25,31 Q25,23 33,23 Z" fill="#ffffff" stroke="#26344d" stroke-width="1.3"/>
<path d="M10,10 Q38,3 66,10 Q73,34 66,58 Q38,65 10,58 Q3,34 10,10 Z" fill="none" stroke="#26344d" stroke-width="1.9" stroke-linejoin="round"/>
</g>
<text x="1178" y="87" text-anchor="middle" font-size="32" font-weight="600" fill="#56657c">f</text>
<g transform="translate(1140,136)">
<path d="M10,10 Q38,3 66,10 Q73,34 66,58 Q38,65 10,58 Q3,34 10,10 Z" fill="none" stroke="#c3cbd6" stroke-width="1.2" stroke-dasharray="3 4"/></g>
<g transform="translate(0,244)">
<path d="M10,58Q38,65 66,58Q73,34 66,10Q38,3 10,10Q3,34 10,58Z" fill="none" stroke="#c3cbd6" stroke-width="1.2" stroke-dasharray="3 4"/></g>
<text x="38" y="383" text-anchor="middle" font-size="32" font-weight="600" fill="#56657c">f</text>
<g transform="translate(76,244)">
<clipPath id="oD47"><path d="M10,58Q38,65 66,58Q73,34 66,10Q38,3 10,10Q3,34 10,58Z"/></clipPath>
<path d="M10,58Q38,65 66,58Q73,34 66,10Q38,3 10,10Q3,34 10,58Z" fill="#aab8ca"/>
<g clip-path="url(#oD47)">
<g stroke="#4f6179" stroke-width="1.1" opacity="0.8"><line x1="25" y1="23" x2="0.0" y2="0.0"/><line x1="51" y1="23" x2="76.0" y2="0.0"/><line x1="25" y1="45" x2="0.0" y2="68.0"/><line x1="51" y1="45" x2="76.0" y2="68.0"/></g>
</g>
<path d="M33,23 L43,23 Q51,23 51,31 L51,37 Q51,45 43,45 L33,45 Q25,45 25,37 L25,31 Q25,23 33,23 Z" fill="none" stroke="#4f6179" stroke-width="1.1"/>
<path d="M10,58Q38,65 66,58Q73,34 66,10Q38,3 10,10Q3,34 10,58Z" fill="none" stroke="#4f6179" stroke-width="3.4" stroke-linejoin="round"/>
</g>
<g transform="translate(76,344)">
<path d="M12.0,41.4 C12.0,60 9.0,80 11.4,90 Q13.0,93.5 14.6,90 C17.0,80 37.0,60 37.0,41.4 Z" fill="#ffffff" stroke="#26344d" stroke-width="2" stroke-linejoin="round"/>
<path d="M39.0,41.4 C39.0,60 59.0,80 61.4,90 Q63.0,93.5 64.6,90 C67.0,80 64.0,60 64.0,41.4 Z" fill="#ffffff" stroke="#26344d" stroke-width="2" stroke-linejoin="round"/>
<path d="M12,41.4 C8,34 6,26 7,18 Q10,6 22,7 Q31,8 38,13 Q45,8 54,7 Q66,6 69,18 C70,26 68,34 64,41.4 Z" fill="#aab8ca" stroke="#4f6179" stroke-width="2.6" stroke-linejoin="round"/>
<line x1="24.5" y1="43" x2="13.0" y2="89" stroke="#e07b16" stroke-width="3.6" stroke-linecap="round"/>
<line x1="24.5" y1="43" x2="18.8" y2="66" stroke="#6b737b" stroke-width="4.6" stroke-linecap="round"/>
<line x1="51.5" y1="43" x2="63.0" y2="89" stroke="#e07b16" stroke-width="3.6" stroke-linecap="round"/>
<line x1="51.5" y1="43" x2="57.2" y2="66" stroke="#6b737b" stroke-width="4.6" stroke-linecap="round"/>
</g>
<g transform="translate(152,244)">
<clipPath id="oD46"><path d="M10,58Q38,65 66,58Q73,34 66,10Q38,3 10,10Q3,34 10,58Z"/></clipPath>
<path d="M10,58Q38,65 66,58Q73,34 66,10Q38,3 10,10Q3,34 10,58Z" fill="#ffffff"/>
<g clip-path="url(#oD46)">
<path d="M76.0,0.0 L76.0,68.0 L51,45 L51,23 Z" fill="#d32f2f" stroke="#8e1b1b" stroke-width="1.2" stroke-linejoin="round"/>
<path d="M0.0,0.0 L0.0,68.0 L25,45 L25,23 Z" fill="#d32f2f" stroke="#8e1b1b" stroke-width="1.2" stroke-linejoin="round"/>
<g stroke="#26344d" stroke-width="1.1" opacity="0.8"><line x1="25" y1="23" x2="0.0" y2="0.0"/><line x1="51" y1="23" x2="76.0" y2="0.0"/><line x1="25" y1="45" x2="0.0" y2="68.0"/><line x1="51" y1="45" x2="76.0" y2="68.0"/></g>
</g>
<path d="M33,23 L43,23 Q51,23 51,31 L51,37 Q51,45 43,45 L33,45 Q25,45 25,37 L25,31 Q25,23 33,23 Z" fill="#d32f2f" stroke="#8e1b1b" stroke-width="1.4"/>
<path d="M10,58Q38,65 66,58Q73,34 66,10Q38,3 10,10Q3,34 10,58Z" fill="none" stroke="#26344d" stroke-width="1.9" stroke-linejoin="round"/>
</g>
<g transform="translate(152,344)">
<path d="M12.0,41.4 C12.0,60 9.0,80 11.4,90 Q13.0,93.5 14.6,90 C17.0,80 37.0,60 37.0,41.4 Z" fill="#ffffff" stroke="#26344d" stroke-width="2" stroke-linejoin="round"/>
<path d="M39.0,41.4 C39.0,60 59.0,80 61.4,90 Q63.0,93.5 64.6,90 C67.0,80 64.0,60 64.0,41.4 Z" fill="#ffffff" stroke="#26344d" stroke-width="2" stroke-linejoin="round"/>
<path d="M12,41.4 C8,34 6,26 7,18 Q10,6 22,7 Q31,8 38,13 Q45,8 54,7 Q66,6 69,18 C70,26 68,34 64,41.4 Z" fill="#ffffff" stroke="#26344d" stroke-width="2" stroke-linejoin="round"/>
<g stroke="#b70000" stroke-width="2" stroke-linecap="round"><line x1="12" y1="10" x2="64" y2="90"/><line x1="64" y1="10" x2="12" y2="90"/></g>
</g>
<g transform="translate(228,244)">
<clipPath id="oD45"><path d="M15,34 A23,27 0 1 0 61,34 A23,27 0 1 0 15,34 Z"/></clipPath>
<path d="M15,34 A23,27 0 1 0 61,34 A23,27 0 1 0 15,34 Z" fill="#ffffff"/>
<g clip-path="url(#oD45)">
<g stroke="#26344d" stroke-width="1.1" opacity="0.8"><line x1="30" y1="24" x2="12" y2="4"/><line x1="46" y1="24" x2="64" y2="4"/><line x1="30" y1="44" x2="12" y2="64"/><line x1="46" y1="44" x2="64" y2="64"/></g>
</g>
<path d="M37,24 L39,24 Q46,24 46,31 L46,37 Q46,44 39,44 L37,44 Q30,44 30,37 L30,31 Q30,24 37,24 Z" fill="#ffffff" stroke="#26344d" stroke-width="1.3"/>
<path d="M15,34 A23,27 0 1 0 61,34 A23,27 0 1 0 15,34 Z" fill="none" stroke="#26344d" stroke-width="1.9" stroke-linejoin="round"/>
</g>
<g transform="translate(228,344)">
<path d="M23.0,41.4 C23.0,60 34.0,80 36.4,90 Q38.0,93.5 39.6,90 C42.0,80 53.0,60 53.0,41.4 Z" fill="#ffffff" stroke="#26344d" stroke-width="2" stroke-linejoin="round"/>
<path d="M23,41.4 C20,34 18,25 19,19 Q24,8 38,6 Q52,8 57,19 C58,25 56,34 53,41.4 Z" fill="#ffffff" stroke="#26344d" stroke-width="2" stroke-linejoin="round"/>
<line x1="38.0" y1="43" x2="38.0" y2="89" stroke="#e07b16" stroke-width="3.6" stroke-linecap="round"/>
<circle cx="38.0" cy="89" r="6.5" fill="#d32f2f" opacity="0.85"/>
</g>
<g transform="translate(304,244)">
<clipPath id="oD44"><path d="M15,34 A23,27 0 1 0 61,34 A23,27 0 1 0 15,34 Z"/></clipPath>
<path d="M15,34 A23,27 0 1 0 61,34 A23,27 0 1 0 15,34 Z" fill="#ffffff"/>
<g clip-path="url(#oD44)">
<g stroke="#26344d" stroke-width="1.1" opacity="0.8"><line x1="30" y1="24" x2="12" y2="4"/><line x1="46" y1="24" x2="64" y2="4"/><line x1="30" y1="44" x2="12" y2="64"/><line x1="46" y1="44" x2="64" y2="64"/></g>
</g>
<path d="M37,24 L39,24 Q46,24 46,31 L46,37 Q46,44 39,44 L37,44 Q30,44 30,37 L30,31 Q30,24 37,24 Z" fill="#ffffff" stroke="#26344d" stroke-width="1.3"/>
<path d="M15,34 A23,27 0 1 0 61,34 A23,27 0 1 0 15,34 Z" fill="none" stroke="#26344d" stroke-width="1.9" stroke-linejoin="round"/>
</g>
<g transform="translate(304,344)">
<path d="M23.0,41.4 C23.0,60 34.0,80 36.4,90 Q38.0,93.5 39.6,90 C42.0,80 53.0,60 53.0,41.4 Z" fill="#ffffff" stroke="#26344d" stroke-width="2" stroke-linejoin="round"/>
<path d="M23,41.4 C20,34 18,25 19,19 Q24,8 38,6 Q52,8 57,19 C58,25 56,34 53,41.4 Z" fill="#ffffff" stroke="#26344d" stroke-width="2" stroke-linejoin="round"/>
</g>
<g transform="translate(380,244)">
<clipPath id="oD43"><path d="M14,34Q20,51 38,55Q56,51 62,34Q56,17 38,13Q20,17 14,34Z"/></clipPath>
<path d="M14,34Q20,51 38,55Q56,51 62,34Q56,17 38,13Q20,17 14,34Z" fill="#ffffff"/>
<g clip-path="url(#oD43)">
<g stroke="#26344d" stroke-width="1.1" opacity="0.8"><line x1="28" y1="29" x2="11.0" y2="10.0"/><line x1="48" y1="29" x2="65.0" y2="10.0"/><line x1="28" y1="39" x2="11.0" y2="58.0"/><line x1="48" y1="39" x2="65.0" y2="58.0"/></g>
</g>
<path d="M33,29 L43,29 Q48,29 48,34 L48,34 Q48,39 43,39 L33,39 Q28,39 28,34 L28,34 Q28,29 33,29 Z" fill="#ffffff" stroke="#26344d" stroke-width="1.3"/>
<line x1="29" y1="34.0" x2="47" y2="34.0" stroke="#26344d" stroke-width="1.4"/>
<path d="M14,34Q20,51 38,55Q56,51 62,34Q56,17 38,13Q20,17 14,34Z" fill="none" stroke="#26344d" stroke-width="1.9" stroke-linejoin="round"/>
</g>
<g transform="translate(380,344)">
<path d="M25.0,41.4 C25.0,60 34.0,80 36.4,90 Q38.0,93.5 39.6,90 C42.0,80 51.0,60 51.0,41.4 Z" fill="#ffffff" stroke="#26344d" stroke-width="2" stroke-linejoin="round"/>
<path d="M25,41.4 C21,33 19,24 20,17 Q27,10 38,5 Q49,10 56,17 C57,24 55,33 51,41.4 Z" fill="#ffffff" stroke="#26344d" stroke-width="2" stroke-linejoin="round"/>
</g>
<g transform="translate(456,244)">
<clipPath id="oD42"><path d="M11,40Q38,56 65,40Q62,22 38,17Q14,22 11,40Z"/></clipPath>
<path d="M11,40Q38,56 65,40Q62,22 38,17Q14,22 11,40Z" fill="#ffffff"/>
<g clip-path="url(#oD42)">
<g stroke="#26344d" stroke-width="1.1" opacity="0.8"><line x1="23" y1="29" x2="8.0" y2="14.0"/><line x1="53" y1="29" x2="68.0" y2="14.0"/><line x1="23" y1="37" x2="8.0" y2="59.0"/><line x1="53" y1="37" x2="68.0" y2="59.0"/></g>
</g>
<path d="M26,29 L50,29 Q53,29 53,32 L53,34 Q53,37 50,37 L26,37 Q23,37 23,34 L23,32 Q23,29 26,29 Z" fill="#ffffff" stroke="#26344d" stroke-width="1.3"/>
<line x1="24" y1="33.0" x2="52" y2="33.0" stroke="#26344d" stroke-width="1.4"/>
<path d="M11,40Q38,56 65,40Q62,22 38,17Q14,22 11,40Z" fill="none" stroke="#26344d" stroke-width="1.9" stroke-linejoin="round"/>
</g>
<g transform="translate(456,344)">
<path d="M26.0,41.4 C26.0,60 34.0,80 36.4,90 Q38.0,93.5 39.6,90 C42.0,80 50.0,60 50.0,41.4 Z" fill="#ffffff" stroke="#26344d" stroke-width="2" stroke-linejoin="round"/>
<path d="M26,41.4 C22,32 20,20 20,10 Q20,7 23,7 L53,7 Q56,7 56,10 C56,20 54,32 50,41.4 Z" fill="#ffffff" stroke="#26344d" stroke-width="2" stroke-linejoin="round"/>
</g>
<g transform="translate(532,244)">
<clipPath id="oD41"><path d="M11,40Q38,56 65,40Q62,22 38,17Q14,22 11,40Z"/></clipPath>
<path d="M11,40Q38,56 65,40Q62,22 38,17Q14,22 11,40Z" fill="#ffffff"/>
<g clip-path="url(#oD41)">
<g stroke="#26344d" stroke-width="1.1" opacity="0.8"><line x1="23" y1="29" x2="8.0" y2="14.0"/><line x1="53" y1="29" x2="68.0" y2="14.0"/><line x1="23" y1="37" x2="8.0" y2="59.0"/><line x1="53" y1="37" x2="68.0" y2="59.0"/></g>
</g>
<path d="M26,29 L50,29 Q53,29 53,32 L53,34 Q53,37 50,37 L26,37 Q23,37 23,34 L23,32 Q23,29 26,29 Z" fill="#ffffff" stroke="#26344d" stroke-width="1.3"/>
<line x1="24" y1="33.0" x2="52" y2="33.0" stroke="#26344d" stroke-width="1.4"/>
<path d="M11,40Q38,56 65,40Q62,22 38,17Q14,22 11,40Z" fill="none" stroke="#26344d" stroke-width="1.9" stroke-linejoin="round"/>
</g>
<g transform="translate(532,344)">
<path d="M26.0,41.4 C26.0,60 34.0,80 36.4,90 Q38.0,93.5 39.6,90 C42.0,80 50.0,60 50.0,41.4 Z" fill="#ffffff" stroke="#26344d" stroke-width="2" stroke-linejoin="round"/>
<path d="M26,41.4 C22,32 20,20 20,10 Q20,7 23,7 L53,7 Q56,7 56,10 C56,20 54,32 50,41.4 Z" fill="#ffffff" stroke="#26344d" stroke-width="2" stroke-linejoin="round"/>
</g>
<g transform="translate(608,244)">
<clipPath id="oD31"><path d="M11,40Q38,56 65,40Q62,22 38,17Q14,22 11,40Z"/></clipPath>
<path d="M11,40Q38,56 65,40Q62,22 38,17Q14,22 11,40Z" fill="#ffffff"/>
<g clip-path="url(#oD31)">
<g stroke="#26344d" stroke-width="1.1" opacity="0.8"><line x1="23" y1="29" x2="8.0" y2="14.0"/><line x1="53" y1="29" x2="68.0" y2="14.0"/><line x1="23" y1="37" x2="8.0" y2="59.0"/><line x1="53" y1="37" x2="68.0" y2="59.0"/></g>
</g>
<path d="M26,29 L50,29 Q53,29 53,32 L53,34 Q53,37 50,37 L26,37 Q23,37 23,34 L23,32 Q23,29 26,29 Z" fill="#ffffff" stroke="#26344d" stroke-width="1.3"/>
<line x1="24" y1="33.0" x2="52" y2="33.0" stroke="#26344d" stroke-width="1.4"/>
<path d="M11,40Q38,56 65,40Q62,22 38,17Q14,22 11,40Z" fill="none" stroke="#26344d" stroke-width="1.9" stroke-linejoin="round"/>
</g>
<g transform="translate(608,344)">
<path d="M26.0,41.4 C26.0,60 34.0,80 36.4,90 Q38.0,93.5 39.6,90 C42.0,80 50.0,60 50.0,41.4 Z" fill="#ffffff" stroke="#26344d" stroke-width="2" stroke-linejoin="round"/>
<path d="M26,41.4 C22,32 20,20 20,10 Q20,7 23,7 L53,7 Q56,7 56,10 C56,20 54,32 50,41.4 Z" fill="#ffffff" stroke="#26344d" stroke-width="2" stroke-linejoin="round"/>
</g>
<g transform="translate(684,244)">
<clipPath id="oD32"><path d="M11,40Q38,56 65,40Q62,22 38,17Q14,22 11,40Z"/></clipPath>
<path d="M11,40Q38,56 65,40Q62,22 38,17Q14,22 11,40Z" fill="#ffffff"/>
<g clip-path="url(#oD32)">
<g stroke="#26344d" stroke-width="1.1" opacity="0.8"><line x1="23" y1="29" x2="8.0" y2="14.0"/><line x1="53" y1="29" x2="68.0" y2="14.0"/><line x1="23" y1="37" x2="8.0" y2="59.0"/><line x1="53" y1="37" x2="68.0" y2="59.0"/></g>
</g>
<path d="M26,29 L50,29 Q53,29 53,32 L53,34 Q53,37 50,37 L26,37 Q23,37 23,34 L23,32 Q23,29 26,29 Z" fill="#ffffff" stroke="#26344d" stroke-width="1.3"/>
<line x1="24" y1="33.0" x2="52" y2="33.0" stroke="#26344d" stroke-width="1.4"/>
<path d="M11,40Q38,56 65,40Q62,22 38,17Q14,22 11,40Z" fill="none" stroke="#26344d" stroke-width="1.9" stroke-linejoin="round"/>
</g>
<g transform="translate(684,344)">
<path d="M26.0,41.4 C26.0,60 34.0,80 36.4,90 Q38.0,93.5 39.6,90 C42.0,80 50.0,60 50.0,41.4 Z" fill="#ffffff" stroke="#26344d" stroke-width="2" stroke-linejoin="round"/>
<path d="M26,41.4 C22,32 20,20 20,10 Q20,7 23,7 L53,7 Q56,7 56,10 C56,20 54,32 50,41.4 Z" fill="#ffffff" stroke="#26344d" stroke-width="2" stroke-linejoin="round"/>
</g>
<g transform="translate(760,244)">
<clipPath id="oD33"><path d="M14,34Q20,51 38,55Q56,51 62,34Q56,17 38,13Q20,17 14,34Z"/></clipPath>
<path d="M14,34Q20,51 38,55Q56,51 62,34Q56,17 38,13Q20,17 14,34Z" fill="#ffffff"/>
<g clip-path="url(#oD33)">
<path d="M11.0,10.0 L65.0,10.0 L48,29 L28,29 Z" fill="#d32f2f" stroke="#8e1b1b" stroke-width="1.2" stroke-linejoin="round"/>
<g stroke="#26344d" stroke-width="1.1" opacity="0.8"><line x1="28" y1="29" x2="11.0" y2="10.0"/><line x1="48" y1="29" x2="65.0" y2="10.0"/><line x1="28" y1="39" x2="11.0" y2="58.0"/><line x1="48" y1="39" x2="65.0" y2="58.0"/></g>
</g>
<path d="M33,29 L43,29 Q48,29 48,34 L48,34 Q48,39 43,39 L33,39 Q28,39 28,34 L28,34 Q28,29 33,29 Z" fill="#ffffff" stroke="#26344d" stroke-width="1.3"/>
<line x1="29" y1="34.0" x2="47" y2="34.0" stroke="#26344d" stroke-width="1.4"/>
<path d="M14,34Q20,51 38,55Q56,51 62,34Q56,17 38,13Q20,17 14,34Z" fill="none" stroke="#26344d" stroke-width="1.9" stroke-linejoin="round"/>
</g>
<g transform="translate(760,344)">
<path d="M25.0,41.4 C25.0,60 34.0,80 36.4,90 Q38.0,93.5 39.6,90 C42.0,80 51.0,60 51.0,41.4 Z" fill="#ffffff" stroke="#26344d" stroke-width="2" stroke-linejoin="round"/>
<path d="M25,41.4 C21,33 19,24 20,17 Q27,10 38,5 Q49,10 56,17 C57,24 55,33 51,41.4 Z" fill="#ffffff" stroke="#26344d" stroke-width="2" stroke-linejoin="round"/>
</g>
<g transform="translate(836,244)">
<clipPath id="oD34"><path d="M15,34 A23,27 0 1 0 61,34 A23,27 0 1 0 15,34 Z"/></clipPath>
<path d="M15,34 A23,27 0 1 0 61,34 A23,27 0 1 0 15,34 Z" fill="#ffffff"/>
<g clip-path="url(#oD34)">
<g stroke="#26344d" stroke-width="1.1" opacity="0.8"><line x1="30" y1="24" x2="12" y2="4"/><line x1="46" y1="24" x2="64" y2="4"/><line x1="30" y1="44" x2="12" y2="64"/><line x1="46" y1="44" x2="64" y2="64"/></g>
</g>
<path d="M37,24 L39,24 Q46,24 46,31 L46,37 Q46,44 39,44 L37,44 Q30,44 30,37 L30,31 Q30,24 37,24 Z" fill="#ffffff" stroke="#26344d" stroke-width="1.3"/>
<path d="M15,34 A23,27 0 1 0 61,34 A23,27 0 1 0 15,34 Z" fill="none" stroke="#26344d" stroke-width="1.9" stroke-linejoin="round"/>
</g>
<g transform="translate(836,344)">
<path d="M23.0,41.4 C23.0,60 34.0,80 36.4,90 Q38.0,93.5 39.6,90 C42.0,80 53.0,60 53.0,41.4 Z" fill="#ffffff" stroke="#26344d" stroke-width="2" stroke-linejoin="round"/>
<path d="M23,41.4 C20,34 18,25 19,19 Q24,8 38,6 Q52,8 57,19 C58,25 56,34 53,41.4 Z" fill="#ffffff" stroke="#26344d" stroke-width="2" stroke-linejoin="round"/>
</g>
<g transform="translate(912,244)">
<clipPath id="oD35"><path d="M15,34 A23,27 0 1 0 61,34 A23,27 0 1 0 15,34 Z"/></clipPath>
<path d="M15,34 A23,27 0 1 0 61,34 A23,27 0 1 0 15,34 Z" fill="#ffffff"/>
<g clip-path="url(#oD35)">
<g stroke="#26344d" stroke-width="1.1" opacity="0.8"><line x1="30" y1="24" x2="12" y2="4"/><line x1="46" y1="24" x2="64" y2="4"/><line x1="30" y1="44" x2="12" y2="64"/><line x1="46" y1="44" x2="64" y2="64"/></g>
</g>
<path d="M37,24 L39,24 Q46,24 46,31 L46,37 Q46,44 39,44 L37,44 Q30,44 30,37 L30,31 Q30,24 37,24 Z" fill="#ffffff" stroke="#26344d" stroke-width="1.3"/>
<path d="M15,34 A23,27 0 1 0 61,34 A23,27 0 1 0 15,34 Z" fill="none" stroke="#26344d" stroke-width="1.9" stroke-linejoin="round"/>
</g>
<g transform="translate(912,344)">
<path d="M23.0,41.4 C23.0,60 34.0,80 36.4,90 Q38.0,93.5 39.6,90 C42.0,80 53.0,60 53.0,41.4 Z" fill="#ffffff" stroke="#26344d" stroke-width="2" stroke-linejoin="round"/>
<path d="M23,41.4 C20,34 18,25 19,19 Q24,8 38,6 Q52,8 57,19 C58,25 56,34 53,41.4 Z" fill="#ffffff" stroke="#26344d" stroke-width="2" stroke-linejoin="round"/>
</g>
<g transform="translate(988,244)">
<clipPath id="oD36"><path d="M10,58Q38,65 66,58Q73,34 66,10Q38,3 10,10Q3,34 10,58Z"/></clipPath>
<path d="M10,58Q38,65 66,58Q73,34 66,10Q38,3 10,10Q3,34 10,58Z" fill="#aab8ca"/>
<g clip-path="url(#oD36)">
<g stroke="#4f6179" stroke-width="1.1" opacity="0.8"><line x1="25" y1="23" x2="0.0" y2="0.0"/><line x1="51" y1="23" x2="76.0" y2="0.0"/><line x1="25" y1="45" x2="0.0" y2="68.0"/><line x1="51" y1="45" x2="76.0" y2="68.0"/></g>
</g>
<path d="M33,23 L43,23 Q51,23 51,31 L51,37 Q51,45 43,45 L33,45 Q25,45 25,37 L25,31 Q25,23 33,23 Z" fill="none" stroke="#4f6179" stroke-width="1.1"/>
<path d="M10,58Q38,65 66,58Q73,34 66,10Q38,3 10,10Q3,34 10,58Z" fill="none" stroke="#4f6179" stroke-width="3.4" stroke-linejoin="round"/>
</g>
<g transform="translate(988,344)">
<path d="M28.0,41.4 L31.0,47.1 L29.2,52.9 L32.2,58.6 L30.4,64.3 L33.5,70.1 L31.7,75.8 L34.7,81.5 L32.9,87.3 L35.9,93.0 L40.1,93.0 L43.1,87.3 L41.3,81.5 L44.3,75.8 L42.5,70.1 L45.6,64.3 L43.8,58.6 L46.8,52.9 L45.0,47.1 L48.0,41.4 Z" fill="#dfe4e8" stroke="#6b737b" stroke-width="1.5" stroke-linejoin="round"/>
<path d="M12,41.4 C8,34 6,26 7,18 Q10,6 22,7 Q31,8 38,13 Q45,8 54,7 Q66,6 69,18 C70,26 68,34 64,41.4 Z" fill="#aab8ca" stroke="#4f6179" stroke-width="2.6" stroke-linejoin="round"/>
</g>
<g transform="translate(1064,244)">
<clipPath id="oD37"><path d="M10,58Q38,65 66,58Q73,34 66,10Q38,3 10,10Q3,34 10,58Z"/></clipPath>
<path d="M10,58Q38,65 66,58Q73,34 66,10Q38,3 10,10Q3,34 10,58Z" fill="#ffffff"/>
<g clip-path="url(#oD37)">
<g stroke="#26344d" stroke-width="1.1" opacity="0.8"><line x1="25" y1="23" x2="0.0" y2="0.0"/><line x1="51" y1="23" x2="76.0" y2="0.0"/><line x1="25" y1="45" x2="0.0" y2="68.0"/><line x1="51" y1="45" x2="76.0" y2="68.0"/></g>
</g>
<path d="M33,23 L43,23 Q51,23 51,31 L51,37 Q51,45 43,45 L33,45 Q25,45 25,37 L25,31 Q25,23 33,23 Z" fill="#ffffff" stroke="#26344d" stroke-width="1.3"/>
<path d="M10,58Q38,65 66,58Q73,34 66,10Q38,3 10,10Q3,34 10,58Z" fill="none" stroke="#26344d" stroke-width="1.9" stroke-linejoin="round"/>
</g>
<g transform="translate(1064,344)">
<path d="M12.0,41.4 C12.0,60 9.0,80 11.4,90 Q13.0,93.5 14.6,90 C17.0,80 37.0,60 37.0,41.4 Z" fill="#ffffff" stroke="#26344d" stroke-width="2" stroke-linejoin="round"/>
<path d="M39.0,41.4 C39.0,60 59.0,80 61.4,90 Q63.0,93.5 64.6,90 C67.0,80 64.0,60 64.0,41.4 Z" fill="#ffffff" stroke="#26344d" stroke-width="2" stroke-linejoin="round"/>
<path d="M12,41.4 C8,34 6,26 7,18 Q10,6 22,7 Q31,8 38,13 Q45,8 54,7 Q66,6 69,18 C70,26 68,34 64,41.4 Z" fill="#ffffff" stroke="#26344d" stroke-width="2" stroke-linejoin="round"/>
</g>
<g transform="translate(1140,244)">
<path d="M10,58Q38,65 66,58Q73,34 66,10Q38,3 10,10Q3,34 10,58Z" fill="none" stroke="#5f6e85" stroke-width="1.7" stroke-dasharray="0.1 4" stroke-linecap="round"/></g>
<g transform="translate(1140,354)">
<path d="M12,41.4 C8,34 6,26 7,18 Q10,6 22,7 Q31,8 38,13 Q45,8 54,7 Q66,6 69,18 C70,26 68,34 64,41.4 Z" fill="none" stroke="#5f6e85" stroke-width="1.7" stroke-dasharray="0.1 4" stroke-linecap="round"/><path d="M12.0,41.4 C12.0,60 9.0,80 11.4,90 Q13.0,93.5 14.6,90 C17.0,80 37.0,60 37.0,41.4 Z" fill="none" stroke="#5f6e85" stroke-width="1.7" stroke-dasharray="0.1 4" stroke-linecap="round"/><path d="M39.0,41.4 C39.0,60 59.0,80 61.4,90 Q63.0,93.5 64.6,90 C67.0,80 64.0,60 64.0,41.4 Z" fill="none" stroke="#5f6e85" stroke-width="1.7" stroke-dasharray="0.1 4" stroke-linecap="round"/>
</g>
<text x="38" y="218" text-anchor="middle" font-size="14" font-weight="600" fill="#34425a">18</text>
<text x="38" y="238" text-anchor="middle" font-size="14" font-weight="600" fill="#34425a">48</text>
<text x="114" y="218" text-anchor="middle" font-size="14" font-weight="600" fill="#34425a">17</text>
<text x="114" y="238" text-anchor="middle" font-size="14" font-weight="600" fill="#34425a">47</text>
<rect x="173" y="203.5" width="34" height="19" rx="9.5" fill="#26344d"/><text x="190" y="218" text-anchor="middle" font-size="14" font-weight="700" fill="#ffffff">16</text>
<text x="190" y="238" text-anchor="middle" font-size="14" font-weight="600" fill="#34425a">46</text>
<text x="266" y="218" text-anchor="middle" font-size="14" font-weight="600" fill="#34425a">15</text>
<text x="266" y="238" text-anchor="middle" font-size="14" font-weight="600" fill="#34425a">45</text>
<text x="342" y="218" text-anchor="middle" font-size="14" font-weight="600" fill="#34425a">14</text>
<text x="342" y="238" text-anchor="middle" font-size="14" font-weight="600" fill="#34425a">44</text>
<text x="418" y="218" text-anchor="middle" font-size="14" font-weight="600" fill="#34425a">13</text>
<text x="418" y="238" text-anchor="middle" font-size="14" font-weight="600" fill="#34425a">43</text>
<text x="494" y="218" text-anchor="middle" font-size="14" font-weight="600" fill="#34425a">12</text>
<text x="494" y="238" text-anchor="middle" font-size="14" font-weight="600" fill="#34425a">42</text>
<text x="570" y="218" text-anchor="middle" font-size="14" font-weight="600" fill="#34425a">11</text>
<text x="570" y="238" text-anchor="middle" font-size="14" font-weight="600" fill="#34425a">41</text>
<text x="646" y="218" text-anchor="middle" font-size="14" font-weight="600" fill="#34425a">21</text>
<text x="646" y="238" text-anchor="middle" font-size="14" font-weight="600" fill="#34425a">31</text>
<text x="722" y="218" text-anchor="middle" font-size="14" font-weight="600" fill="#34425a">22</text>
<text x="722" y="238" text-anchor="middle" font-size="14" font-weight="600" fill="#34425a">32</text>
<text x="798" y="218" text-anchor="middle" font-size="14" font-weight="600" fill="#34425a">23</text>
<text x="798" y="238" text-anchor="middle" font-size="14" font-weight="600" fill="#34425a">33</text>
<text x="874" y="218" text-anchor="middle" font-size="14" font-weight="600" fill="#34425a">24</text>
<text x="874" y="238" text-anchor="middle" font-size="14" font-weight="600" fill="#34425a">34</text>
<text x="950" y="218" text-anchor="middle" font-size="14" font-weight="600" fill="#34425a">25</text>
<text x="950" y="238" text-anchor="middle" font-size="14" font-weight="600" fill="#34425a">35</text>
<text x="1026" y="218" text-anchor="middle" font-size="14" font-weight="600" fill="#34425a">26</text>
<text x="1026" y="238" text-anchor="middle" font-size="14" font-weight="600" fill="#34425a">36</text>
<text x="1102" y="218" text-anchor="middle" font-size="14" font-weight="600" fill="#34425a">27</text>
<text x="1102" y="238" text-anchor="middle" font-size="14" font-weight="600" fill="#34425a">37</text>
<text x="1178" y="218" text-anchor="middle" font-size="14" font-weight="600" fill="#34425a">28</text>
<text x="1178" y="238" text-anchor="middle" font-size="14" font-weight="600" fill="#34425a">38</text>
<text x="190" y="115" text-anchor="middle" font-size="12" font-weight="600" font-family="ui-monospace,SFMono-Regular,Menlo,Consolas,monospace" fill="#26344d">K G</text>
<text x="266" y="115" text-anchor="middle" font-size="12" font-weight="600" font-family="ui-monospace,SFMono-Regular,Menlo,Consolas,monospace" fill="#b3261e">c mo</text>
<text x="342" y="115" text-anchor="middle" font-size="12" font-weight="600" font-family="ui-monospace,SFMono-Regular,Menlo,Consolas,monospace" fill="#26344d">Kst do</text>
<text x="494" y="115" text-anchor="middle" font-size="12" font-weight="600" font-family="ui-monospace,SFMono-Regular,Menlo,Consolas,monospace" fill="#26344d">Am m</text>
<text x="570" y="115" text-anchor="middle" font-size="12" font-weight="600" font-family="ui-monospace,SFMono-Regular,Menlo,Consolas,monospace" fill="#26344d">V Ker</text>
<text x="646" y="115" text-anchor="middle" font-size="12" font-weight="600" font-family="ui-monospace,SFMono-Regular,Menlo,Consolas,monospace" fill="#b3261e">c v</text>
<text x="874" y="115" text-anchor="middle" font-size="12" font-weight="600" font-family="ui-monospace,SFMono-Regular,Menlo,Consolas,monospace" fill="#26344d">K Kst</text>
<text x="950" y="115" text-anchor="middle" font-size="12" font-weight="600" font-family="ui-monospace,SFMono-Regular,Menlo,Consolas,monospace" fill="#26344d">B Kst</text>
<text x="1026" y="115" text-anchor="middle" font-size="12" font-weight="600" font-family="ui-monospace,SFMono-Regular,Menlo,Consolas,monospace" fill="#26344d">B Kst</text>
<text x="114" y="323" text-anchor="middle" font-size="12" font-weight="600" font-family="ui-monospace,SFMono-Regular,Menlo,Consolas,monospace" fill="#26344d">K Ker</text>
<text x="114" y="337" text-anchor="middle" font-size="12" font-weight="600" font-family="ui-monospace,SFMono-Regular,Menlo,Consolas,monospace" fill="#26344d">WF St</text>
<text x="190" y="323" text-anchor="middle" font-size="12" font-weight="600" font-family="ui-monospace,SFMono-Regular,Menlo,Consolas,monospace" fill="#b3261e">c mod</text>
<text x="190" y="337" text-anchor="middle" font-size="12" font-weight="600" font-family="ui-monospace,SFMono-Regular,Menlo,Consolas,monospace" fill="#b3261e">x</text>
<text x="266" y="337" text-anchor="middle" font-size="12" font-weight="600" font-family="ui-monospace,SFMono-Regular,Menlo,Consolas,monospace" fill="#26344d">WF</text>
<text x="798" y="323" text-anchor="middle" font-size="12" font-weight="600" font-family="ui-monospace,SFMono-Regular,Menlo,Consolas,monospace" fill="#b3261e">c l</text>
<text x="1026" y="323" text-anchor="middle" font-size="12" font-weight="600" font-family="ui-monospace,SFMono-Regular,Menlo,Consolas,monospace" fill="#26344d">K Ker</text>
<text x="1026" y="337" text-anchor="middle" font-size="12" font-weight="600" font-family="ui-monospace,SFMono-Regular,Menlo,Consolas,monospace" fill="#26344d">i</text>
</svg>