<?xml version='1.0' encoding='utf-8'?>
<!-- Created by Zoltan Dul in 2026 - free to use with MIT license. Part of React Odontogram Modul - https://github.com/ZoliQua/React-Odontogram-Modul - SVG Version: 2.5.0 -->
<!-- toothgen: drawn=18 template=18_occl src=16_occl view=occlusal ratio=1.291 target=1.29 source="Bild 65 (p. 85) 1.24 / Bild 69 (p. 87) 1.34" -->
<svg data-tooth-template="18_occl" xmlns="http://www.w3.org/2000/svg" id="molar_x5F_tooth" version="1.1" viewBox="7.00 2.13 34.77 37.51">
  <style>
    [data-active="0"] { display: none; }
  </style>
  <defs>
    <linearGradient id="toothgen-18_occl-linear-gradient-16-occl-0" x1="8" y1="-2065.3" x2="39.9" y2="-2065.3" gradientTransform="translate(0 -2044.4678) scale(1 -1)" gradientUnits="userSpaceOnUse" data-active="1">
      <stop offset="0" stop-color="#f0eff0" data-active="1" />
      <stop offset="1" stop-color="#e2d4c8" data-active="1" />
      </linearGradient>
    <linearGradient id="toothgen-18_occl-linear-gradient-16-occl-1" x1="5.8" y1="-2065.3" x2="39.9" y2="-2065.3" gradientTransform="translate(0 -2044.4678) scale(1 -1)" gradientUnits="userSpaceOnUse" data-active="1">
      <stop offset="0" stop-color="#f0eff0" data-active="1" />
      <stop offset="1" stop-color="#e2d4c8" data-active="1" />
      </linearGradient>
    <linearGradient id="toothgen-18_occl-linear-gradient-16-occl-2" x1="7.9" y1="-2065.4" x2="40.8" y2="-2065.4" gradientTransform="translate(0 -2044.4678) scale(1 -1)" gradientUnits="userSpaceOnUse" data-active="1">
      <stop offset="0" stop-color="#f0eff0" data-active="1" />
      <stop offset="1" stop-color="#e2d4c8" data-active="1" />
      </linearGradient>
    <linearGradient id="toothgen-18_occl-linear-gradient-16-occl-3" x1="5.8" y1="-2065.4" x2="40.8" y2="-2065.4" gradientTransform="translate(0 -2044.4678) scale(1 -1)" gradientUnits="userSpaceOnUse" data-active="1">
      <stop offset="0" stop-color="#f0eff0" data-active="1" />
      <stop offset="1" stop-color="#e2d4c8" data-active="1" />
      </linearGradient>
    <linearGradient id="toothgen-18_occl-linear-gradient-16-occl-4" x1="5.8" y1="-2065.4" x2="40.8" y2="-2065.4" gradientTransform="translate(0 -2044.4678) scale(1 -1)" gradientUnits="userSpaceOnUse" data-active="1">
      <stop offset="0" stop-color="#f0eff0" data-active="1" />
      <stop offset="1" stop-color="#e2d4c8" data-active="1" />
      </linearGradient>
    <linearGradient id="toothgen-18_occl-linear-gradient-16-occl-5" x1="37.3" y1="-2069.4" x2="30.4" y2="-2057.3" gradientTransform="translate(0 -2044.4678) scale(1 -1)" gradientUnits="userSpaceOnUse" data-active="1">
      <stop offset="0" stop-color="#f0eff0" data-active="1" />
      <stop offset="1" stop-color="#e2d4c8" data-active="1" />
      </linearGradient>
    <linearGradient id="toothgen-18_occl-linear-gradient-16-occl-6" x1="10.7" y1="-2051.9" x2="21.2" y2="-2062.3" gradientTransform="translate(0 -2044.4678) scale(1 -1)" gradientUnits="userSpaceOnUse" data-active="1">
      <stop offset="0" stop-color="#f0eff0" data-active="1" />
      <stop offset="1" stop-color="#e2d4c8" data-active="1" />
      </linearGradient>
    <linearGradient id="toothgen-18_occl-linear-gradient-16-occl-7" x1="28.6" y1="-2047.7" x2="28.6" y2="-2063.4" gradientTransform="translate(0 -2044.4678) scale(1 -1)" gradientUnits="userSpaceOnUse" data-active="1">
      <stop offset="0" stop-color="#f0f0f0" data-active="1" />
      <stop offset="1" stop-color="#e2d4c8" data-active="1" />
      </linearGradient>
    <linearGradient id="toothgen-18_occl-linear-gradient-16-occl-8" x1="30.7" y1="-2081.8" x2="19.7" y2="-2062.6" gradientTransform="translate(0 -2044.4678) scale(1 -1)" gradientUnits="userSpaceOnUse" data-active="1">
      <stop offset="0" stop-color="#f0eff0" data-active="1" />
      <stop offset="1" stop-color="#e2d4c8" data-active="1" />
      </linearGradient>
    <linearGradient id="toothgen-18_occl-linear-gradient-16-occl-9" x1="32.2" y1="-2075.9" x2="32.2" y2="-2062.7" gradientTransform="translate(0 -2044.4678) scale(1 -1)" gradientUnits="userSpaceOnUse" data-active="1">
      <stop offset="0" stop-color="#f0eff0" data-active="1" />
      <stop offset="1" stop-color="#e2d4c8" data-active="1" />
      </linearGradient>
    <linearGradient id="toothgen-18_occl-linear-gradient-16-occl-10" x1="6.7" y1="-2074.8" x2="15.5" y2="-2069.7" gradientTransform="translate(0 -2044.4678) scale(1 -1)" gradientUnits="userSpaceOnUse" data-active="1">
      <stop offset="0" stop-color="#f0eff0" data-active="1" />
      <stop offset="1" stop-color="#e2d4c8" data-active="1" />
      </linearGradient>
    <linearGradient id="toothgen-18_occl-linear-gradient-16-occl-11" x1="23.5" y1="3100.8" x2="23.5" y2="3122" gradientTransform="translate(0 -3090.7732)" gradientUnits="userSpaceOnUse" data-active="1">
      <stop offset="0" stop-color="#c8c9c9" data-active="1" />
      <stop offset="1" stop-color="#828282" data-active="1" />
      </linearGradient>
    <linearGradient id="toothgen-18_occl-linear-gradient-16-occl-12" x1="15.3" y1="-2064.8" x2="31.7" y2="-2064.8" gradientTransform="translate(0 -2044.4678) scale(1 -1)" gradientUnits="userSpaceOnUse" data-active="1">
      <stop offset=".3" stop-color="#cf0" stop-opacity=".5" data-active="1" />
      <stop offset="1" stop-color="#b4c500" data-active="1" />
      </linearGradient>
    <radialGradient id="toothgen-18_occl-radial-gradient-16-occl-0" cx="24.3" cy="23.7" fx="24.3" fy="23.7" r="17.8" gradientTransform="translate(0 42.6) scale(1 -1)" gradientUnits="userSpaceOnUse" data-active="1">
      <stop offset="0" stop-color="var(--odon-rest-metal-ceramic-0, #feff5f)" data-active="1" />
      <stop offset="0" stop-color="var(--odon-rest-metal-ceramic-1, #f9fc60)" data-active="1" />
      <stop offset=".2" stop-color="var(--odon-rest-metal-ceramic-2, #edf564)" data-active="1" />
      <stop offset=".4" stop-color="var(--odon-rest-metal-ceramic-3, #d8ea6b)" data-active="1" />
      <stop offset=".5" stop-color="var(--odon-rest-metal-ceramic-4, #bbd975)" data-active="1" />
      <stop offset=".6" stop-color="var(--odon-rest-metal-ceramic-5, #95c482)" data-active="1" />
      <stop offset=".8" stop-color="var(--odon-rest-metal-ceramic-6, #68ab91)" data-active="1" />
      <stop offset=".9" stop-color="var(--odon-rest-metal-ceramic-7, #328da3)" data-active="1" />
      <stop offset="1" stop-color="var(--odon-rest-metal-ceramic-8, #0071b5)" data-active="1" />
      </radialGradient>
    <radialGradient id="toothgen-18_occl-radial-gradient-16-occl-1" cx="23.5" cy="21.8" fx="23.5" fy="21.8" r="17.8" gradientTransform="translate(0 42.6) scale(1 -1)" gradientUnits="userSpaceOnUse" data-active="1">
      <stop offset="0" stop-color="var(--odon-rest-metal-ceramic-0, #feff5f)" data-active="1" />
      <stop offset="0" stop-color="var(--odon-rest-metal-ceramic-1, #f9fc60)" data-active="1" />
      <stop offset=".2" stop-color="var(--odon-rest-metal-ceramic-2, #edf564)" data-active="1" />
      <stop offset=".4" stop-color="var(--odon-rest-metal-ceramic-3, #d8ea6b)" data-active="1" />
      <stop offset=".5" stop-color="var(--odon-rest-metal-ceramic-4, #bbd975)" data-active="1" />
      <stop offset=".6" stop-color="var(--odon-rest-metal-ceramic-5, #95c482)" data-active="1" />
      <stop offset=".8" stop-color="var(--odon-rest-metal-ceramic-6, #68ab91)" data-active="1" />
      <stop offset=".9" stop-color="var(--odon-rest-metal-ceramic-7, #328da3)" data-active="1" />
      <stop offset="1" stop-color="var(--odon-rest-metal-ceramic-8, #0071b5)" data-active="1" />
      </radialGradient>
    <radialGradient id="toothgen-18_occl-radial-gradient-16-occl-2" cx="24.3" cy="23.7" fx="24.3" fy="23.7" r="17.8" gradientTransform="translate(0 42.6) scale(1 -1)" gradientUnits="userSpaceOnUse" data-active="1">
      <stop offset="0" stop-color="var(--odon-rest-emax-0, #fff)" data-active="1" />
      <stop offset="0" stop-color="var(--odon-rest-emax-1, #fdf3ea)" data-active="1" />
      <stop offset=".2" stop-color="var(--odon-rest-emax-2, #f9d8b9)" data-active="1" />
      <stop offset=".3" stop-color="var(--odon-rest-emax-3, #f5c18f)" data-active="1" />
      <stop offset=".4" stop-color="var(--odon-rest-emax-4, #f2ae6c)" data-active="1" />
      <stop offset=".6" stop-color="var(--odon-rest-emax-5, #f09f52)" data-active="1" />
      <stop offset=".7" stop-color="var(--odon-rest-emax-6, #ef953f)" data-active="1" />
      <stop offset=".9" stop-color="var(--odon-rest-emax-7, #ee8f33)" data-active="1" />
      <stop offset="1" stop-color="var(--odon-rest-emax-8, #ee8d30)" data-active="1" />
      </radialGradient>
    <radialGradient id="toothgen-18_occl-radial-gradient-16-occl-3" cx="23.4" cy="47.6" fx="23.4" fy="47.6" r="17.8" gradientTransform="translate(0 -26.8)" gradientUnits="userSpaceOnUse" data-active="1">
      <stop offset="0" stop-color="var(--odon-rest-emax-0, #fff)" data-active="1" />
      <stop offset="0" stop-color="var(--odon-rest-emax-1, #fdf3ea)" data-active="1" />
      <stop offset=".2" stop-color="var(--odon-rest-emax-2, #f9d8b9)" data-active="1" />
      <stop offset=".3" stop-color="var(--odon-rest-emax-3, #f5c18f)" data-active="1" />
      <stop offset=".4" stop-color="var(--odon-rest-emax-4, #f2ae6c)" data-active="1" />
      <stop offset=".6" stop-color="var(--odon-rest-emax-5, #f09f52)" data-active="1" />
      <stop offset=".7" stop-color="var(--odon-rest-emax-6, #ef953f)" data-active="1" />
      <stop offset=".9" stop-color="var(--odon-rest-emax-7, #ee8f33)" data-active="1" />
      <stop offset="1" stop-color="var(--odon-rest-emax-8, #ee8d30)" data-active="1" />
      </radialGradient>
    <radialGradient id="toothgen-18_occl-radial-gradient-16-occl-4" cx="23.7" cy="21.8" fx="23.7" fy="21.8" r="17.5" gradientTransform="translate(0 42.6) scale(1 -1)" gradientUnits="userSpaceOnUse" data-active="1">
      <stop offset="0" stop-color="var(--odon-rest-emax-0, #fff)" data-active="1" />
      <stop offset="0" stop-color="var(--odon-rest-emax-1, #fdf3ea)" data-active="1" />
      <stop offset=".2" stop-color="var(--odon-rest-emax-2, #f9d8b9)" data-active="1" />
      <stop offset=".3" stop-color="var(--odon-rest-emax-3, #f5c18f)" data-active="1" />
      <stop offset=".4" stop-color="var(--odon-rest-emax-4, #f2ae6c)" data-active="1" />
      <stop offset=".6" stop-color="var(--odon-rest-emax-5, #f09f52)" data-active="1" />
      <stop offset=".7" stop-color="var(--odon-rest-emax-6, #ef953f)" data-active="1" />
      <stop offset=".9" stop-color="var(--odon-rest-emax-7, #ee8f33)" data-active="1" />
      <stop offset="1" stop-color="var(--odon-rest-emax-8, #ee8d30)" data-active="1" />
      </radialGradient>
    <radialGradient id="toothgen-18_occl-radial-gradient-16-occl-5" cx="23.7" cy="21.9" fx="23.7" fy="21.9" r="17.5" gradientTransform="translate(0 42.6) scale(1 -1)" gradientUnits="userSpaceOnUse" data-active="1">
      <stop offset="0" stop-color="var(--odon-rest-emax-0, #fff)" data-active="1" />
      <stop offset="0" stop-color="var(--odon-rest-emax-1, #fdf3ea)" data-active="1" />
      <stop offset=".2" stop-color="var(--odon-rest-emax-2, #f9d8b9)" data-active="1" />
      <stop offset=".3" stop-color="var(--odon-rest-emax-3, #f5c18f)" data-active="1" />
      <stop offset=".4" stop-color="var(--odon-rest-emax-4, #f2ae6c)" data-active="1" />
      <stop offset=".6" stop-color="var(--odon-rest-emax-5, #f09f52)" data-active="1" />
      <stop offset=".7" stop-color="var(--odon-rest-emax-6, #ef953f)" data-active="1" />
      <stop offset=".9" stop-color="var(--odon-rest-emax-7, #ee8f33)" data-active="1" />
      <stop offset="1" stop-color="var(--odon-rest-emax-8, #ee8d30)" data-active="1" />
      </radialGradient>
    <radialGradient id="toothgen-18_occl-radial-gradient-16-occl-6" cx="24.1" cy="33.9" fx="24.1" fy="33.9" r="12.3" gradientTransform="translate(0 42.6) scale(1 -1)" gradientUnits="userSpaceOnUse" data-active="1">
      <stop offset="0" stop-color="var(--odon-rest-emax-0, #fff)" data-active="1" />
      <stop offset="0" stop-color="var(--odon-rest-emax-1, #fdf3ea)" data-active="1" />
      <stop offset=".2" stop-color="var(--odon-rest-emax-2, #f9d8b9)" data-active="1" />
      <stop offset=".3" stop-color="var(--odon-rest-emax-3, #f5c18f)" data-active="1" />
      <stop offset=".4" stop-color="var(--odon-rest-emax-4, #f2ae6c)" data-active="1" />
      <stop offset=".6" stop-color="var(--odon-rest-emax-5, #f09f52)" data-active="1" />
      <stop offset=".7" stop-color="var(--odon-rest-emax-6, #ef953f)" data-active="1" />
      <stop offset=".9" stop-color="var(--odon-rest-emax-7, #ee8f33)" data-active="1" />
      <stop offset="1" stop-color="var(--odon-rest-emax-8, #ee8d30)" data-active="1" />
      </radialGradient>
    </defs>
  <g id="base" data-active="1">
    <path id="bone-base" d="M-99,-99Z" data-active="1" style="fill: #fdecc5;" />
    <g id="gum-base" data-active="1">
      <path id="gum-line-2" d="M-99,-99Z" data-active="1" style="fill: #f79f9a;" />
      <path id="gum-line-1" d="M-99,-99Z" data-active="1" style="fill: #f79f9a;" />
      </g>
    </g>
  <g id="tooth-variants" data-active="1">
    <path id="tooth-broken-mesial-distal" d="M22.97,3.84c.82-.1,1.72-.16,2.63-.2.93.02,1.86.15,2.74.34,1.14.31,2.29.89,3.28,1.67.62.44,1.16.84,1.77,1.35.91.75,1.79,1.68,2.45,2.92.71,1.05,1.35,2.2,1.72,3.46.11.25-.75.19-1.59.14-.81-.06-1.61-.12-1.57.19.01.35.4,1.07.85,1.77.49.69,1.01,1.39,1.07,1.73.13.69-1.52,1.62-1.38,2.35.22,1.13,2.12,1.8,2.26,3.02.05.31-.44,1.05-.95,1.81-.48.79-.93,1.61-.87,1.96.1,1.15,2.81,1.96,2.68,2.96-.21.94-3.23,1.09-3.57,1.95-.32.88,4.23,1.66,3.63,2.54-1.35,2.25-3.68,3.51-5.86,4.01-.42.05-.87.06-1.34.01-.47-.09-.94-.19-1.38-.3-.64-.17-1.26-.3-1.85-.41-.57-.07-1.11-.05-1.64.03-.45.13-.91.26-1.37.41-.46.16-.92.23-1.37.25-.83.2-1.69.11-2.54.25-.73-.02-1.5-.02-2.25-.09-.79-.03-1.6-.09-2.4-.33-1.41-.35-2.66-1.14-3.76-2.2-.28-.33,3.52-2.64,3.16-4.71-.42-2.25-3.93-1.38-4-2.63.02-.66.05-1.4.22-2.22.23-.83.6-1.73,1.2-2.66,1.2-1.76,1.97-2.19,2.23-3.04.89-2.29-2.12-1.53-1.29-3.37.69-1.72,1.37-1.78,1.84-3.25.36-1.5.46-4.38.61-4.55.97-1.56,2.29-3.01,3.71-3.8.9-.57,1.91-1.11,2.89-1.34h0Z" data-active="1" style="display: none; fill: url(#toothgen-18_occl-linear-gradient-16-occl-0); stroke: #c8c8c8; stroke-miterlimit: 10;" />
    <path id="tooth-broken-mesial" d="M22.97,3.84c.82-.1,1.72-.16,2.63-.2.93.02,1.86.15,2.74.34,1.14.31,2.29.89,3.28,1.67.62.44,1.16.84,1.77,1.35.91.75,1.79,1.68,2.45,2.92.71,1.05,1.35,2.2,1.72,3.46.11.25-.75.19-1.59.14-.81-.06-1.61-.12-1.57.19.01.35.4,1.07.85,1.77.49.69,1.01,1.39,1.07,1.73.13.69-1.52,1.62-1.38,2.35.22,1.13,2.12,1.8,2.26,3.02.05.31-.44,1.05-.95,1.81-.48.79-.93,1.61-.87,1.96.1,1.15,2.81,1.96,2.68,2.96-.21.94-3.23,1.09-3.57,1.95-.32.88,4.23,1.66,3.63,2.54-1.35,2.25-3.68,3.51-5.86,4.01-.42.05-.87.06-1.34.01-.47-.09-.94-.19-1.38-.3-.64-.17-1.26-.3-1.85-.41-.57-.07-1.11-.05-1.64.03-.45.13-.91.26-1.37.41-.46.16-.92.23-1.37.25-.83.2-1.69.11-2.54.25-.73-.02-1.5-.02-2.25-.09-.79-.03-1.6-.09-2.4-.33-1.41-.35-2.66-1.14-3.76-2.2-.66-.61-1.27-1.31-1.83-2.06-.59-.77-1.08-1.63-1.44-2.59-.27-.72-.45-1.49-.62-2.25-.06-.4-.06-.81.02-1.25.12-.45.27-.9.41-1.34.25-.84.69-1.93,1.15-3.06.45-1.08.95-2.18,1.33-3.13.5-1.06.93-2.09,1.35-3.07.39-.94.75-1.85,1.12-2.74.48-1.88,1.36-3.52,2.42-4.87.97-1.54,2.29-3,3.72-3.77.9-.56,1.9-1.11,2.88-1.35l.08-.01h0Z" data-active="1" style="display: none; fill: url(#toothgen-18_occl-linear-gradient-16-occl-1); stroke: #c8c8c8; stroke-miterlimit: 10;" />
    <path id="tooth-broken-distal" d="M22.97,3.84c.82-.1,1.72-.16,2.63-.2.93.02,1.86.15,2.74.34,1.14.31,2.29.89,3.28,1.67.62.44,1.16.84,1.77,1.35.91.75,1.79,1.68,2.45,2.92.71,1.05,1.35,2.2,1.72,3.46.22.49.38,1.06.62,1.64.5,1.44.9,2.76,1.18,4.23.29,1.53.45,2.32.57,3.54.18,1.67.23,3.28.32,4.99.01.59,0,1.19-.04,1.79-.08.59-.2,1.15-.37,1.69-.48.96-1.04,1.83-1.63,2.62-1.35,2.25-3.67,3.51-5.85,4.01-.42.05-.87.07-1.34.03-.47-.08-.94-.19-1.38-.29-.64-.17-1.26-.3-1.86-.41-.57-.07-1.12-.06-1.65.01-.45.12-.91.24-1.37.37-.46.16-.92.24-1.37.26-.83.2-1.68.11-2.54.25-.73-.02-1.49-.02-2.24-.09-.78-.04-1.59-.11-2.37-.35-1.4-.35-2.65-1.13-3.74-2.17-.66-.61.28-1.36,1.31-2.18,1.05-.84,2.2-1.72,1.86-2.52-.29-.6-1.27-.83-2.19-1.11-.92-.32-1.76-.69-1.82-1.49-.04-.53.15-1.45.41-2.39.35-.96.77-1.92.94-2.48.35-1.09,1.85-2.1,2.24-3.06.61-1.38-1.61-2.29-1.28-3.38.15-.53.6-1.17,1.02-1.75.38-.59.73-1.15.84-1.5.46-1.85-.52-3.21.61-4.55.97-1.55,2.29-3.01,3.71-3.8.9-.57,1.91-1.12,2.89-1.34l-.08.01Z" data-active="1" style="display: none; fill: url(#toothgen-18_occl-linear-gradient-16-occl-2); stroke: #c8c8c8; stroke-miterlimit: 10;" />
    <g id="tooth-crownprep" data-active="1" style="display: none;">
      <path id="tooth-crownprep-outer" d="M22.97,3.84c.82-.1,1.72-.16,2.63-.2.93.02,1.86.15,2.74.34,1.14.31,2.29.89,3.28,1.67.62.44,1.16.84,1.77,1.35.91.75,1.79,1.68,2.45,2.92.71,1.05,1.35,2.2,1.72,3.46.22.49.38,1.06.62,1.64.5,1.44.9,2.76,1.18,4.23.29,1.53.45,2.32.57,3.54.18,1.67.23,3.28.32,4.99.01.59,0,1.19-.04,1.79-.08.59-.2,1.15-.37,1.69-.48.96-1.04,1.83-1.63,2.62-1.35,2.25-3.67,3.51-5.85,4.01-.42.05-.87.07-1.34.03-.47-.08-.94-.19-1.38-.29-.64-.17-1.26-.3-1.86-.41-.57-.07-1.12-.06-1.65.01-.45.12-.91.24-1.37.37-.46.16-.92.24-1.37.26-.83.2-1.68.11-2.54.25-.73-.02-1.49-.02-2.24-.09-.78-.04-1.59-.11-2.37-.35-1.4-.35-2.65-1.13-3.74-2.17-.66-.61-1.26-1.3-1.82-2.05-.59-.76-1.09-1.62-1.45-2.56-.27-.72-.45-1.48-.63-2.25-.07-.39-.09-.8-.03-1.23.11-.45.25-.9.4-1.34.25-.85.69-1.94,1.16-3.07.45-1.08.95-2.19,1.33-3.14.5-1.06.93-2.1,1.35-3.08.4-.94.76-1.85,1.13-2.75.49-1.88,1.36-3.52,2.42-4.86.97-1.54,2.29-3,3.72-3.77.9-.57,1.9-1.12,2.88-1.35h0c0,0,0-.19,0-.19Z" data-active="1" style="fill: url(#toothgen-18_occl-linear-gradient-16-occl-3); stroke: #c8c8c8; stroke-miterlimit: 10;" />
      <path id="tooth-crownprep-inner" d="M23.94,8.03c.59-.1,1.24-.14,1.92-.13.68.06,1.36.2,1.99.39.83.19,1.71.64,2.41,1.14.41.31.88.72,1.28,1,.71.53,1.34,1.22,1.82,2.13.51.77.93,1.57,1.27,2.5.19.41.32.82.38,1.24.33,1,.67,1.95.81,3.03l.49,2.51c.19,1.13.38,2.41.26,3.64-.01.87-.07,1.76-.24,2.59-.27.76-.62,1.45-1.04,2.05-1.05,1.69-2.82,2.58-4.44,2.96-.59.12-1.28.07-1.98-.08-.48-.12-.95-.21-1.39-.29-.43-.06-.84-.06-1.24-.03-.32.05-.66.05-1,.08-.34.06-.68.11-1.01.21-.67.17-1.21.11-1.82.13-.54.06-1.1.09-1.66.02-.58-.04-1.16-.14-1.71-.38-1.08-.29-1.96-.83-2.8-1.67-.97-.93-1.82-2.05-2.42-3.42-.18-.57-.3-1.16-.34-1.76.06-.64.25-1.3.5-1.95.26-.82.57-1.6.89-2.35.31-.71.64-1.4.93-2.05.37-.77.69-1.49.98-2.18.25-.67.46-1.35.67-2.01.4-1.31,1-2.59,1.73-3.59.76-1.18,1.66-2.27,2.71-3.02.64-.48,1.46-.8,2.15-.84h0Z" data-active="1" style="fill: #eaeaea; stroke: #c8c8c8; stroke-miterlimit: 10;" />
      </g>
    </g>
  <g id="tooth" data-active="1">
    <g id="tooth-base" data-active="1">
      <path id="background-cusp" d="M38.36,33.69c-.55.75-1.09,1.54-1.81,2.14-.95.78-2.07,1.4-3.23,1.81-.63.22-1.31.35-1.97.33-.92-.03-1.78-.46-2.68-.6-.91-.15-1.83-.36-2.74-.27-.74.07-1.41.5-2.14.66-1.04.22-2.11.36-3.18.38-.99.02-1.98-.08-2.96-.22-.63-.09-1.26-.17-1.86-.38-.79-.28-1.57-.65-2.25-1.15-1.1-.82-2.01-1.88-2.85-2.96-.49-.63-.94-1.3-1.26-2.03-.22-.49-.29-1.02-.44-1.53-.16-.53-.48-1.03-.49-1.59-.03-1.15.52-2.25.88-3.34.29-.9.68-1.76,1.04-2.63.69-1.65,1.43-3.28,2.14-4.93.44-1.04.9-2.07,1.31-3.12.35-.9.55-1.87.99-2.74.45-.9,1.05-1.71,1.64-2.52.56-.78,1.11-1.58,1.81-2.25.62-.6,1.35-1.08,2.08-1.53.65-.4,1.31-.79,2.03-1.04.88-.31,1.81-.48,2.74-.55.71-.05,1.43-.01,2.14.11.81.14,1.61.37,2.36.71.78.36,1.49.86,2.19,1.37.92.67,1.87,1.34,2.63,2.19.91,1.03,1.61,2.24,2.25,3.45.53,1.01.92,2.1,1.31,3.18.39,1.08.77,2.17,1.04,3.29.4,1.66.68,3.35.88,5.04.11.94.12,1.9.16,2.85.05,1.2.22,2.41.11,3.62-.06.67-.19,1.35-.44,1.97-.18.46-.51.84-.77,1.26-.22.35-.41.71-.66,1.04Z" data-active="1" style="fill: url(#toothgen-18_occl-linear-gradient-16-occl-4); stroke: #c8c8c8; stroke-miterlimit: 10;" />
      <g id="cusps" data-active="1">
        <path d="M27.15,21.58c.41.2,1.07.41,1.66.61.69.31,1.35.51,2.11.73,1.2.45,2.59.75,3.81.93,1.08.2,1.94.41,2.94.61.9.2,1.85.3,2-1.27.02-.82-.35-1.74-.53-2.62-.17-.86-.42-2.16-.78-3.24-.47-1.63-.95-3.29-1.46-4.78-.16-.6-.36-1.31-.7-1.77-.45-.58-.77.25-1.07.88-.15.36-.29.72-.43.98-.49.98-1.13,1.78-1.83,2.48-.96.96-2.16,1.94-3.4,2.92-.68.48-1.32,1.03-1.99,1.62-.35.27-.64.55-.78.83-.3.39-.13.68.35.89h0l.01.2c0,0,.08,0,0,0h0Z" data-active="1" style="fill: url(#toothgen-18_occl-linear-gradient-16-occl-5);" />
        <path d="M16.3,25.73c.11.11.69.43,1.07-.04.36-.44.72-.89,1.09-1.34.36-.47.75-.95,1.21-1.45,1.01-.96,1.92-1.76,2.65-2.35.5-.37.99-.93,1.41-1.4.4-.48.32-.39.4-.58.15-.29.15-.58.15-.96l-.07-1.76c.02-2.31.22-4.61.36-7,0-.52.01-.93-.15-1.52-.16-.69-.32-1.68-.49-2.35-.16-.66-.24-.94-.79-.87l-2.49.71c-.41.32-.76.51-1.18.78-.28.23-.5.34-.78.75-.49.52-1.1,1.35-1.58,1.86-.35.39-.56.77-.87,1.29-.24.34-.49.76-.75,1.09-.34.41-.44.85-.62,1.29-.26.81-.42,1.26-.64,2.06-.25.6.12.86-.11,1.54-.07.3.36,2.23.78,4.32.18,1.14.37,2.36.54,3.41.19,1.11.47,1.93.67,2.17l.21.23h0Z" data-active="1" style="fill: url(#toothgen-18_occl-linear-gradient-16-occl-6);" />
        <path d="M30.2,17.6c.94-.72,1.36-1.17,2.26-1.96.62-.52,1.12-1.05,1.61-1.85.49-.71.78-1.42,1-2.23.26-1.11.45-1.86-.18-2.51-.37-.45-.68-.8-1.12-1.28-.72-.72-1.46-1.26-2.29-1.75-.63-.42-1.26-.87-1.92-1.3-.68-.42-1.4-.72-2.17-.84l-1.54.05c-.57.07-1.36.96-1.68.62-1.02-1.21-.45,2.5-.37,3.51,0,.71.07,1.51.07,2.22.04,1.88-.16,3.66-.22,5.53.02.69.04,1.42.2,2.05.34,1.37,1.39,2.32,2.55,2.04.96-.15,1.72-.48,2.43-1.04.39-.31.87-.9,1.31-1.26h0Z" data-active="1" style="fill: url(#toothgen-18_occl-linear-gradient-16-occl-7);" />
        <path d="M28.13,20.33c.16.1.26.28.43.47.65.77,1.76,2.14,2.9,3.6.99,1.38,2.03,2.77,2.64,3.53,1.08,1.41,0,0,0,0,1.13,1.13,3.46,3.48,4.33,4.4-.02.09-.16.72-.48.98-.31.26-.51.44-.88.72-.64.56-1.27,1.12-1.81,1.67-.52.56-.7.74-1.12.73-.92.17-1.85.31-2.7.38-.78-.02-1.4-.24-2.01-.22-.68-.05-1.34-.11-1.97-.14-.45-.01-.52-.36-.96-.32-.57-.08-1.12.5-1.69.64l-1.23.39c-.22.06-.38-.27-.53-.51-.23-.4-.53-.97-.76-1.46-.23-.48-.55-.95-.79-1.35-.25-.5-.41-.75-.59-1.27-.39-.78-.77-1.6-1.28-2.32-.67-.82-1.66-1.84-2.63-3.02-.31-.4-.47-.72-.62-.93l-.05-.46c-.01-.12,0,0,.1-.12.49-.54,1.04-1.14,1.61-1.77.58-.64,1.27-1.34,2.03-2.04.74-.63,1.45-1.19,2.09-1.68.58-.48,1.08-.94,1.51-1.36.39-.49.69-.7,1.21-.45.9.58,2.33,1.41,3.35,2.1h-.07c0,0-.02-.19-.02-.19Z" data-active="1" style="fill: url(#toothgen-18_occl-linear-gradient-16-occl-8);" />
        <path d="M26.6,19.42c-.15-.2.07-.09.22.01.42.14,1.2.39,2.18.66,1.02.24,2.29.56,3.6.87,2.62.62,5.26,1.29,6.34,1.6.16,0,.33,0,.44.21l.1.73c.18,1.69.33,3.58.25,5.46-.07.58-.15,1.14-.27,1.68-.15.52-.35,1-.59,1.45-.65,1.23-.79,1.04-1.39.37-1.05-1.14-2.82-2.88-3.84-4.07-.49-.52-.64-.93-1.16-1.58-.52-.79-1.05-1.57-1.56-2.35-.63-.86-1.29-1.69-1.87-2.47-.47-.6-.67-.89-1.08-1.18-.41-.39-.96-.79-1.35-1.28h0Z" data-active="1" style="fill: url(#toothgen-18_occl-linear-gradient-16-occl-9);" />
        <path d="M11.36,20.47c-.59,1.04-.91,1.95-1.18,2.9-.28.99-.53,2.04-.96,3.37-.12.5-.19.98-.17,1.43.06.43.16.84.27,1.25.2.81.46,1.6.85,2.37.49.97,1.11,1.97,1.93,2.73.27.25,1.41,1.07,1.67,1.29,1.01.63,1.55,1.15,2.73,1.47.88.26,1.66.18,2.58.38.71.19,1.41.12,2.11.22.54-.1,1.16-.05,1.7-.09.38-.09,1.05.01,1.19-.59.13-.6-.76-1.98-1.06-2.44-.54-.83-1.09-1.6-1.58-2.53-.39-.55-.76-1.08-1.16-1.6-.42-.53-.85-1.08-1.34-1.65-.52-.6-1.13-1.26-1.76-1.98-.31-.39-.6-.8-.86-1.23-.22-.45-.39-.92-.5-1.4-.08-1.15-.31-2.24-.51-3.05-.15-.66-.35-1.19-.36-2-.09-1.43.17-3.39-.19-4.53-.24-.61-.66-.53-.87.15-.51,1.28-1.29,3-2.07,4.37l-.53,1.14h0Z" data-active="1" style="fill: url(#toothgen-18_occl-linear-gradient-16-occl-10);" />
        </g>
      <g id="fissure" data-active="1">
        <path d="M28.94,36.08c-.31.47,1.16-1.5,1.82-2.21.46-1.2,1.38-2.28,1.71-3.42.41-1.63,1.26-2.9,1.09-4.46-.49-2.31,1.63-3.8,2.88-5.35.8-.96,1.67-5.15,1.24-4.3 M25.12,19.76c-.3.02-.8.96-1.11,1.17-1.31.92-4.75,3.44-5.3,4.92-.48,1.24-5.33,4.21-4.87,4 M34.04,23.58c-.82-.89-1.46-.96-2.38-1.77-.87-.67-1.77-1.18-2.78-1.77-.41-.41-.69-1.25-.7-2.16-.07-.98.6-.78.55-2.03.04-.53.15-2.25,0-2.76-.74-1.95.04-1.55-.14-2.31.01-.32.45-5.6.45-5.12 M14.42,21.89c-1.19.26,3.73-.74,5.12-.9.43,0,1.85-.07,2.3-.3.41-.14,1.51-.13,1.82-.32.27-.2,1.16-.61,1.46-.62 M17.13,15.24c-.81-.74,2.13,1.59,4.3,3.09.55.43,2.46.91,3.07,1.24.62.29.45.23.82-.01.56-.05.98.07,1.38-.14.59.17,1.11-.06,1.54-.61" data-active="1" style="fill: none; stroke: #9f9f9f; stroke-miterlimit: 10;" />
        <path d="M-99,-99Z" data-active="1" style="fill: none; stroke: #9f9f9f; stroke-miterlimit: 10;" />
        <path d="M-99,-99Z" data-active="1" style="fill: none; stroke: #9f9f9f; stroke-miterlimit: 10;" />
        <path d="M-99,-99Z" data-active="1" style="fill: none; stroke: #9f9f9f; stroke-miterlimit: 10;" />
        <path d="M-99,-99Z" data-active="1" style="fill: none; stroke: #9f9f9f; stroke-miterlimit: 10;" />
        </g>
      </g>
    </g>
  <g id="surfaces" data-active="1">
    <g id="caries" data-active="1">
      <path id="caries-lingual" d="M21.65,37.52c.85.27,2.28.1,3.44-.3.44-.1.86-.14,1.26-.14.4.04.79.1,1.16.15.76.16,1.42.18,1.89.03.98-.37.71-.21.72-.56-.18-.5-.91-1.08-1.9-1.67-.48-.29-1-.55-1.55-.76-.53-.15-1.08-.2-1.64-.17-2.25.48-4.7,1.23-5.3,1.65-.64.63,1.13,1.35,1.91,1.68h0Z" data-active="1" style="display: none; fill: #0a1018; stroke: #000; stroke-miterlimit: 10;" />
      <path id="caries-buccal" d="M22.12,7.02c.82.31,2.28.21,3.57.05,1.01-.03,1.92-.08,2.69-.22.74-.09,1.34-.32,1.75-.71.8-.78.58-.43.59-.84-.17-.54-.8-1.06-1.69-1.53-.46-.2-.99-.35-1.57-.44-.58-.05-1.2-.04-1.82.02-1.23.19-2.45.44-3.41.75-.91.44-1.59.85-1.85,1.1-.55.73,1.02,1.41,1.75,1.71h0Z" data-active="1" style="display: none; fill: #0a1018; stroke: #000; stroke-miterlimit: 10;" />
      <g id="caries-mesial" data-active="1" style="display: none;">
        <path id="mesial-shape" d="M38.75,30.07c.77.08,1.25-.93,1.34-2.56.07-1.57.05-3.58-.17-5.57-.28-1.9-.66-3.77-1.04-5.2-.37-1.37-.74-2.4-1.06-2.72-.49-.9-1.49-.2-2.17-.43-.55-.21-.87.54-1.11,1.5-.21.94-.29,2.1-.52,2.79-.03.7-.9,1.02-1.61,1.47-.7.43-1.23.99-.55,2.34,1.25,2.99,2.84,1.01,3.34,1.94.26.48.7,1.61,1.22,2.82.41,1.18.79,2.34,1.23,2.93l1,.79h0Z" data-active="1" style="fill: #0a1018; stroke: #000; stroke-miterlimit: 10;" />
        <path id="mesial-patch2" d="M37.18,22.25c-1.59.01-1.19,1.13-.33,1.91.87.8,2.14,1.21,2.35-.24.21-.94-1.08-1.77-1.78-1.67h-.32.08Z" data-active="1" style="fill: #fff;" />
        <path id="mesial-patch1" d="M37.71,15.87c-1.5-1.03-4.36.77-1.81,1.42,1.67.4,2.37-.58,1.83-1.34h0Z" data-active="1" style="fill: #fff;" />
        </g>
      <g id="caries-distal" data-active="1" style="display: none;">
        <path id="distal-shape" d="M14.22,27.76c.63-.11.88-.4.89-.8.01-.4-.2-.93-.37-1.58.06-1.39-.01-2.97.59-4.16.41-.83.91-1.69,1.36-2.48.43-.75.81-1.46.99-2.08.21-1.3-.01-2.22-1.37-2.15-.64.06-1.8-.31-2.33.36-.65.63-1.32,1.52-1.95,2.58-.65,1.11-1.23,2.4-1.69,3.71-.47,1.38-.8,2.78-.92,3.98-.06.63-.08,1.2.01,1.68.14.47.4.82.75,1.04,1.51.84,1.7,1,1.51,1.02-.19.02-.74-.1-.66.13h0c.13.67.86,1.06,1.47.8.62-.26.62-.26.8-.49l1.02-1.58h0Z" data-active="1" style="fill: #0a1018; stroke: #000; stroke-miterlimit: 10;" />
        <path id="distal-patch2" d="M15.32,18.95c.63-.31,1.03-1.03,1.09-1.65.03-.62-.27-1.16-.91-1.16-.65.01-1.12.79-1.27,1.53-.17.77,0,1.5.75,1.27l.35.01Z" data-active="1" style="fill: #fff;" />
        <path id="distal-patch1" d="M11.29,26.48c-.04.38.55.63.96.75.21,0,.74.23.72-.01-.12-.3-.38-.75-.61-1.2-.19-.45-.38-.88-.51-1.08-.51-.4-.7,1.15-.66,1.53,0,0,.1,0,0,0h0Z" data-active="1" style="fill: #fff;" />
        </g>
      <g id="caries-occlusal" data-active="1" style="display: none;">
        <path id="occlusal-shape" d="M17.15,28.82c.21.19.64.6,1.17,1.08.5.46,1.09.97,1.65,1.44.51.48.96,1,1.32,1.43.35.44.64.72.81.71.34-.05.02-1-.4-2.1-.49-1.02-1.17-2.09-1.19-2.56-.06-.95-.36-2.69.02-3.33.34-.66,1.04-1.63,1.84-2.44.81-.76,1.54-1.32,1.85-1.38.75-.21,2.13.65,3.57,1.65.74.53,1.5,1.1,2.16,1.57.6.41,1.16.73,1.57.85,1.37.35.83-.84.38-2.09-.53-1.25-.95-2.47.82-2.36,1.79.08,1.56-.77.81-1.77-.73-.94-1.89-2.01-2.11-2.66-.33-.9-1.19-.52-2.14-.06-.94.41-2.01.83-2.75.09-.4-.37-.66-.98-.86-1.63-.19-.62-.29-1.36-.39-2.09-.2-1.5-.37-2.84-1.04-2.75-.66.1-.76,1.81-.89,3.64-.07.92-.13,1.87-.26,2.64-.12.74-.34,1.31-.69,1.59-.36.29-.78.63-1.28.93-.55.3-1.15.62-1.74.88-1.18.56-2.23.83-2.72.28-1.02-1.05-.57-1.61-1.23-2.66-.69-1.02-1.15-.04-1.08.61l.09,4c0,.6,0,1.22-.01,1.86-.01.33-.02.67-.02,1.01.04.33.14.64.28.93l2.32,2.59.11-.02Z" data-active="1" style="fill: #0a1018; stroke: #000; stroke-miterlimit: 10;" />
        <path id="occlusal-patch2" d="M27.28,19.84c-.26,1.44.58,1.83,1.5,1.64.9-.2,1.81-.91,1.84-1.58.34-.69-.09-1.69-.7-1.94-1.02-.5-2.04.72-2.71,1.69h0l.01.19c0,0,.07,0,.07,0Z" data-active="1" style="fill: #fff; stroke: #000; stroke-miterlimit: 10; stroke-width: .2px;" />
        <path id="occlusal-patch1" d="M16.86,23.9c-.17.92.13,1.69.59,2,.49.29,1.03.17,1.33-.59.18-.5.24-1.41.29-2.24.17-.82.14-1.46-.31-1.45-.89,0-1.47.81-1.78,2.15l-.04.25h-.09Z" data-active="1" style="fill: #fff; stroke: #000; stroke-miterlimit: 10; stroke-width: .2px;" />
        </g>
      </g>
    <g id="subcaries" data-active="1">
      <path id="subcaries-lingual" d="M21.65,37.52c.85.27,2.28.1,3.44-.3.44-.1.86-.14,1.26-.14.4.04.79.1,1.16.15.76.16,1.42.18,1.89.03.98-.37.71-.21.72-.56-.18-.5-.91-1.08-1.9-1.67-.48-.29-1-.55-1.55-.76-.53-.15-1.08-.2-1.64-.17-2.25.48-4.7,1.23-5.3,1.65-.64.63,1.13,1.35,1.91,1.68h0Z" data-active="1" style="display: none; stroke: #000; stroke-miterlimit: 10; stroke-width: 2px;" />
      <path id="subcaries-buccal" d="M22.12,7.02c.82.31,2.28.21,3.57.05,1.01-.03,1.92-.08,2.69-.22.74-.09,1.34-.32,1.75-.71.8-.78.58-.43.59-.84-.17-.54-.8-1.06-1.69-1.53-.46-.2-.99-.35-1.57-.44-.58-.05-1.2-.04-1.82.02-1.23.19-2.45.44-3.41.75-.91.44-1.59.85-1.85,1.1-.55.73,1.02,1.41,1.75,1.71h0Z" data-active="1" style="display: none; stroke: #000; stroke-miterlimit: 10; stroke-width: 2px;" />
      <path id="subcaries-mesial" d="M38.75,30.07c.77.08,1.25-.93,1.34-2.56.07-1.57.05-3.58-.17-5.57-.28-1.9-.66-3.77-1.04-5.2-.37-1.37-.74-2.4-1.06-2.72-.49-.9-1.49-.2-2.17-.43-.55-.21-.87.54-1.11,1.5-.21.94-.29,2.1-.52,2.79-.03.7-.9,1.02-1.61,1.47-.7.43-1.23.99-.55,2.34,1.25,2.99,2.84,1.01,3.34,1.94.26.48.7,1.61,1.22,2.82.41,1.18.79,2.34,1.23,2.93l1,.79h0Z" data-active="1" style="display: none; stroke: #000; stroke-miterlimit: 10; stroke-width: 2px;" />
      <path id="subcaries-distal" d="M14.22,27.76c.63-.11.88-.4.89-.8.01-.4-.2-.93-.37-1.58.06-1.39-.01-2.97.59-4.16.41-.83.91-1.69,1.36-2.48.43-.75.81-1.46.99-2.08.21-1.3-.01-2.22-1.37-2.15-.64.06-1.8-.31-2.33.36-.65.63-1.32,1.52-1.95,2.58-.65,1.11-1.23,2.4-1.69,3.71-.47,1.38-.8,2.78-.92,3.98-.06.63-.08,1.2.01,1.68.14.47.4.82.75,1.04,1.51.84,1.7,1,1.51,1.02-.19.02-.74-.1-.66.13h0c.13.67.86,1.06,1.47.8.62-.26.62-.26.8-.49l1.02-1.58h0Z" data-active="1" style="display: none; stroke: #000; stroke-miterlimit: 10; stroke-width: 2px;" />
      <path id="subcaries-occlusal" d="M17.15,28.82c.21.19.64.6,1.17,1.08.5.46,1.09.97,1.65,1.44.51.48.96,1,1.32,1.43.35.44.64.72.81.71.34-.05.02-1-.4-2.1-.49-1.02-1.17-2.09-1.19-2.56-.06-.95-.36-2.69.02-3.33.34-.66,1.04-1.63,1.84-2.44.81-.76,1.54-1.32,1.85-1.38.75-.21,2.13.65,3.57,1.65.74.53,1.5,1.1,2.16,1.57.6.41,1.16.73,1.57.85,1.37.35.83-.84.38-2.09-.53-1.25-.95-2.47.82-2.36,1.79.08,1.56-.77.81-1.77-.73-.94-1.89-2.01-2.11-2.66-.33-.9-1.19-.52-2.14-.06-.94.41-2.01.83-2.75.09-.4-.37-.66-.98-.86-1.63-.19-.62-.29-1.36-.39-2.09-.2-1.5-.37-2.84-1.04-2.75-.66.1-.76,1.81-.89,3.64-.07.92-.13,1.87-.26,2.64-.12.74-.34,1.31-.69,1.59-.36.29-.78.63-1.28.93-.55.3-1.15.62-1.74.88-1.18.56-2.23.83-2.72.28-1.02-1.05-.57-1.61-1.23-2.66-.69-1.02-1.15-.04-1.08.61l.09,4c0,.6,0,1.22-.01,1.86-.01.33-.02.67-.02,1.01.04.33.14.64.28.93l2.32,2.59.11-.02Z" data-active="1" style="display: none; stroke: #000; stroke-miterlimit: 10; stroke-width: 2px;" />
      </g>
    <g id="fillings" data-active="1">
      <g id="amalgam" data-active="1">
        <path id="filling-amalgam-occlusal" d="M17.15,28.82c.21.19.64.6,1.17,1.08.5.46,1.09.97,1.65,1.44.51.48.96,1,1.32,1.43.35.44.64.72.81.71.34-.05.02-1-.4-2.1-.49-1.02-1.17-2.09-1.19-2.56-.06-.95-.36-2.69.02-3.33.34-.66,1.04-1.63,1.84-2.44.81-.76,1.54-1.32,1.85-1.38.75-.21,2.13.65,3.57,1.65.74.53,1.5,1.1,2.16,1.57.6.41,1.16.73,1.57.85,1.37.35.83-.84.38-2.09-.53-1.25-.95-2.47.82-2.36,1.79.08,1.56-.77.81-1.77-.73-.94-1.89-2.01-2.11-2.66-.33-.9-1.19-.52-2.14-.06-.94.41-2.01.83-2.75.09-.4-.37-.66-.98-.86-1.63-.19-.62-.29-1.36-.39-2.09-.2-1.5-.37-2.84-1.04-2.75-.66.1-.76,1.81-.89,3.64-.07.92-.13,1.87-.26,2.64-.12.74-.34,1.31-.69,1.59-.36.29-.78.63-1.28.93-.55.3-1.15.62-1.74.88-1.18.56-2.23.83-2.72.28-1.02-1.05-.57-1.61-1.23-2.66-.69-1.02-1.15-.04-1.08.61l.09,4c0,.6,0,1.22-.01,1.86-.01.33-.02.67-.02,1.01.04.33.14.64.28.93l2.32,2.59.11-.02Z" data-active="1" style="display: none; fill: var(--odon-fill-amalgam, #aaa); stroke: #c8c8c8; stroke-miterlimit: 10;" />
        <path id="filling-amalgam-lingual" d="M21.65,37.52c.85.27,2.28.1,3.44-.3.44-.1.86-.14,1.26-.14.4.04.79.1,1.16.15.76.16,1.42.18,1.89.03.98-.37.71-.21.72-.56-.18-.5-.91-1.08-1.9-1.67-.48-.29-1-.55-1.55-.76-.53-.15-1.08-.2-1.64-.17-2.25.48-4.7,1.23-5.3,1.65-.64.63,1.13,1.35,1.91,1.68h0Z" data-active="1" style="display: none; fill: var(--odon-fill-amalgam, #aaa); stroke: #c8c8c8; stroke-miterlimit: 10;" />
        <path id="filling-amalgam-buccal" d="M22.12,7.02c.82.31,2.28.21,3.57.05,1.01-.03,1.92-.08,2.69-.22.74-.09,1.34-.32,1.75-.71.8-.78.58-.43.59-.84-.17-.54-.8-1.06-1.69-1.53-.46-.2-.99-.35-1.57-.44-.58-.05-1.2-.04-1.82.02-1.23.19-2.45.44-3.41.75-.91.44-1.59.85-1.85,1.1-.55.73,1.02,1.41,1.75,1.71h0Z" data-active="1" style="display: none; fill: var(--odon-fill-amalgam, #aaa); stroke: #c8c8c8; stroke-miterlimit: 10;" />
        <path id="filling-amalgam-mesial" d="M38.75,30.07c.77.08,1.25-.93,1.34-2.56.07-1.57.05-3.58-.17-5.57-.28-1.9-.66-3.77-1.04-5.2-.37-1.37-.74-2.4-1.06-2.72-.49-.9-1.49-.2-2.17-.43-.55-.21-.87.54-1.11,1.5-.21.94-.29,2.1-.52,2.79-.03.7-.9,1.02-1.61,1.47-.7.43-1.23.99-.55,2.34,1.25,2.99,2.84,1.01,3.34,1.94.26.48.7,1.61,1.22,2.82.41,1.18.79,2.34,1.23,2.93l1,.79h0Z" data-active="1" style="display: none; fill: var(--odon-fill-amalgam, #aaa); stroke: #c8c8c8; stroke-miterlimit: 10;" />
        <path id="filling-amalgam-distal" d="M14.22,27.76c.63-.11.88-.4.89-.8.01-.4-.2-.93-.37-1.58.06-1.39-.01-2.97.59-4.16.41-.83.91-1.69,1.36-2.48.43-.75.81-1.46.99-2.08.21-1.3-.01-2.22-1.37-2.15-.64.06-1.8-.31-2.33.36-.65.63-1.32,1.52-1.95,2.58-.65,1.11-1.23,2.4-1.69,3.71-.47,1.38-.8,2.78-.92,3.98-.06.63-.08,1.2.01,1.68.14.47.4.82.75,1.04,1.51.84,1.7,1,1.51,1.02-.19.02-.74-.1-.66.13h0c.13.67.86,1.06,1.47.8.62-.26.62-.26.8-.49l1.02-1.58h0Z" data-active="1" style="display: none; fill: var(--odon-fill-amalgam, #aaa); stroke: #c8c8c8; stroke-miterlimit: 10;" />
        </g>
      <g id="composite" data-active="1">
        <path id="filling-composite-occlusal" d="M17.15,28.82c.21.19.64.6,1.17,1.08.5.46,1.09.97,1.65,1.44.51.48.96,1,1.32,1.43.35.44.64.72.81.71.34-.05.02-1-.4-2.1-.49-1.02-1.17-2.09-1.19-2.56-.06-.95-.36-2.69.02-3.33.34-.66,1.04-1.63,1.84-2.44.81-.76,1.54-1.32,1.85-1.38.75-.21,2.13.65,3.57,1.65.74.53,1.5,1.1,2.16,1.57.6.41,1.16.73,1.57.85,1.37.35.83-.84.38-2.09-.53-1.25-.95-2.47.82-2.36,1.79.08,1.56-.77.81-1.77-.73-.94-1.89-2.01-2.11-2.66-.33-.9-1.19-.52-2.14-.06-.94.41-2.01.83-2.75.09-.4-.37-.66-.98-.86-1.63-.19-.62-.29-1.36-.39-2.09-.2-1.5-.37-2.84-1.04-2.75-.66.1-.76,1.81-.89,3.64-.07.92-.13,1.87-.26,2.64-.12.74-.34,1.31-.69,1.59-.36.29-.78.63-1.28.93-.55.3-1.15.62-1.74.88-1.18.56-2.23.83-2.72.28-1.02-1.05-.57-1.61-1.23-2.66-.69-1.02-1.15-.04-1.08.61l.09,4c0,.6,0,1.22-.01,1.86-.01.33-.02.67-.02,1.01.04.33.14.64.28.93l2.32,2.59.11-.02Z" data-active="1" style="display: none; fill: var(--odon-fill-composite, #2f7a4d); stroke: #24603c; stroke-miterlimit: 10;" />
        <path id="filling-composite-lingual" d="M21.65,37.52c.85.27,2.28.1,3.44-.3.44-.1.86-.14,1.26-.14.4.04.79.1,1.16.15.76.16,1.42.18,1.89.03.98-.37.71-.21.72-.56-.18-.5-.91-1.08-1.9-1.67-.48-.29-1-.55-1.55-.76-.53-.15-1.08-.2-1.64-.17-2.25.48-4.7,1.23-5.3,1.65-.64.63,1.13,1.35,1.91,1.68h0Z" data-active="1" style="display: none; fill: var(--odon-fill-composite, #2f7a4d); stroke: #24603c; stroke-miterlimit: 10;" />
        <path id="filling-composite-buccal" d="M22.12,7.02c.82.31,2.28.21,3.57.05,1.01-.03,1.92-.08,2.69-.22.74-.09,1.34-.32,1.75-.71.8-.78.58-.43.59-.84-.17-.54-.8-1.06-1.69-1.53-.46-.2-.99-.35-1.57-.44-.58-.05-1.2-.04-1.82.02-1.23.19-2.45.44-3.41.75-.91.44-1.59.85-1.85,1.1-.55.73,1.02,1.41,1.75,1.71h0Z" data-active="1" style="display: none; fill: var(--odon-fill-composite, #2f7a4d); stroke: #24603c; stroke-miterlimit: 10;" />
        <path id="filling-composite-mesial" d="M38.75,30.07c.77.08,1.25-.93,1.34-2.56.07-1.57.05-3.58-.17-5.57-.28-1.9-.66-3.77-1.04-5.2-.37-1.37-.74-2.4-1.06-2.72-.49-.9-1.49-.2-2.17-.43-.55-.21-.87.54-1.11,1.5-.21.94-.29,2.1-.52,2.79-.03.7-.9,1.02-1.61,1.47-.7.43-1.23.99-.55,2.34,1.25,2.99,2.84,1.01,3.34,1.94.26.48.7,1.61,1.22,2.82.41,1.18.79,2.34,1.23,2.93l1,.79h0Z" data-active="1" style="display: none; fill: var(--odon-fill-composite, #2f7a4d); stroke: #24603c; stroke-miterlimit: 10;" />
        <path id="filling-composite-distal" d="M14.22,27.76c.63-.11.88-.4.89-.8.01-.4-.2-.93-.37-1.58.06-1.39-.01-2.97.59-4.16.41-.83.91-1.69,1.36-2.48.43-.75.81-1.46.99-2.08.21-1.3-.01-2.22-1.37-2.15-.64.06-1.8-.31-2.33.36-.65.63-1.32,1.52-1.95,2.58-.65,1.11-1.23,2.4-1.69,3.71-.47,1.38-.8,2.78-.92,3.98-.06.63-.08,1.2.01,1.68.14.47.4.82.75,1.04,1.51.84,1.7,1,1.51,1.02-.19.02-.74-.1-.66.13h0c.13.67.86,1.06,1.47.8.62-.26.62-.26.8-.49l1.02-1.58h0Z" data-active="1" style="display: none; fill: var(--odon-fill-composite, #2f7a4d); stroke: #24603c; stroke-miterlimit: 10;" />
        </g>
      <g id="gic" data-active="1">
        <path id="filling-gic-occlusal" d="M17.15,28.82c.21.19.64.6,1.17,1.08.5.46,1.09.97,1.65,1.44.51.48.96,1,1.32,1.43.35.44.64.72.81.71.34-.05.02-1-.4-2.1-.49-1.02-1.17-2.09-1.19-2.56-.06-.95-.36-2.69.02-3.33.34-.66,1.04-1.63,1.84-2.44.81-.76,1.54-1.32,1.85-1.38.75-.21,2.13.65,3.57,1.65.74.53,1.5,1.1,2.16,1.57.6.41,1.16.73,1.57.85,1.37.35.83-.84.38-2.09-.53-1.25-.95-2.47.82-2.36,1.79.08,1.56-.77.81-1.77-.73-.94-1.89-2.01-2.11-2.66-.33-.9-1.19-.52-2.14-.06-.94.41-2.01.83-2.75.09-.4-.37-.66-.98-.86-1.63-.19-.62-.29-1.36-.39-2.09-.2-1.5-.37-2.84-1.04-2.75-.66.1-.76,1.81-.89,3.64-.07.92-.13,1.87-.26,2.64-.12.74-.34,1.31-.69,1.59-.36.29-.78.63-1.28.93-.55.3-1.15.62-1.74.88-1.18.56-2.23.83-2.72.28-1.02-1.05-.57-1.61-1.23-2.66-.69-1.02-1.15-.04-1.08.61l.09,4c0,.6,0,1.22-.01,1.86-.01.33-.02.67-.02,1.01.04.33.14.64.28.93l2.32,2.59.11-.02Z" data-active="1" style="display: none; fill: var(--odon-fill-gic, #f9ae94); stroke: #f99; stroke-miterlimit: 10;" />
        <path id="filling-gic-lingual" d="M21.65,37.52c.85.27,2.28.1,3.44-.3.44-.1.86-.14,1.26-.14.4.04.79.1,1.16.15.76.16,1.42.18,1.89.03.98-.37.71-.21.72-.56-.18-.5-.91-1.08-1.9-1.67-.48-.29-1-.55-1.55-.76-.53-.15-1.08-.2-1.64-.17-2.25.48-4.7,1.23-5.3,1.65-.64.63,1.13,1.35,1.91,1.68h0Z" data-active="1" style="display: none; fill: var(--odon-fill-gic, #f9ae94); stroke: #f99; stroke-miterlimit: 10;" />
        <path id="filling-gic-buccal" d="M22.12,7.02c.82.31,2.28.21,3.57.05,1.01-.03,1.92-.08,2.69-.22.74-.09,1.34-.32,1.75-.71.8-.78.58-.43.59-.84-.17-.54-.8-1.06-1.69-1.53-.46-.2-.99-.35-1.57-.44-.58-.05-1.2-.04-1.82.02-1.23.19-2.45.44-3.41.75-.91.44-1.59.85-1.85,1.1-.55.73,1.02,1.41,1.75,1.71h0Z" data-active="1" style="display: none; fill: var(--odon-fill-gic, #f9ae94); stroke: #f99; stroke-miterlimit: 10;" />
        <path id="filling-gic-mesial" d="M38.75,30.07c.77.08,1.25-.93,1.34-2.56.07-1.57.05-3.58-.17-5.57-.28-1.9-.66-3.77-1.04-5.2-.37-1.37-.74-2.4-1.06-2.72-.49-.9-1.49-.2-2.17-.43-.55-.21-.87.54-1.11,1.5-.21.94-.29,2.1-.52,2.79-.03.7-.9,1.02-1.61,1.47-.7.43-1.23.99-.55,2.34,1.25,2.99,2.84,1.01,3.34,1.94.26.48.7,1.61,1.22,2.82.41,1.18.79,2.34,1.23,2.93l1,.79h0Z" data-active="1" style="display: none; fill: var(--odon-fill-gic, #f9ae94); stroke: #f99; stroke-miterlimit: 10;" />
        <path id="filling-gic-distal" d="M14.22,27.76c.63-.11.88-.4.89-.8.01-.4-.2-.93-.37-1.58.06-1.39-.01-2.97.59-4.16.41-.83.91-1.69,1.36-2.48.43-.75.81-1.46.99-2.08.21-1.3-.01-2.22-1.37-2.15-.64.06-1.8-.31-2.33.36-.65.63-1.32,1.52-1.95,2.58-.65,1.11-1.23,2.4-1.69,3.71-.47,1.38-.8,2.78-.92,3.98-.06.63-.08,1.2.01,1.68.14.47.4.82.75,1.04,1.51.84,1.7,1,1.51,1.02-.19.02-.74-.1-.66.13h0c.13.67.86,1.06,1.47.8.62-.26.62-.26.8-.49l1.02-1.58h0Z" data-active="1" style="display: none; fill: var(--odon-fill-gic, #f9ae94); stroke: #f99; stroke-miterlimit: 10;" />
        </g>
      <g id="temporary" data-active="1">
        <path id="filling-temporary-occlusal" d="M17.15,28.82c.21.19.64.6,1.17,1.08.5.46,1.09.97,1.65,1.44.51.48.96,1,1.32,1.43.35.44.64.72.81.71.34-.05.02-1-.4-2.1-.49-1.02-1.17-2.09-1.19-2.56-.06-.95-.36-2.69.02-3.33.34-.66,1.04-1.63,1.84-2.44.81-.76,1.54-1.32,1.85-1.38.75-.21,2.13.65,3.57,1.65.74.53,1.5,1.1,2.16,1.57.6.41,1.16.73,1.57.85,1.37.35.83-.84.38-2.09-.53-1.25-.95-2.47.82-2.36,1.79.08,1.56-.77.81-1.77-.73-.94-1.89-2.01-2.11-2.66-.33-.9-1.19-.52-2.14-.06-.94.41-2.01.83-2.75.09-.4-.37-.66-.98-.86-1.63-.19-.62-.29-1.36-.39-2.09-.2-1.5-.37-2.84-1.04-2.75-.66.1-.76,1.81-.89,3.64-.07.92-.13,1.87-.26,2.64-.12.74-.34,1.31-.69,1.59-.36.29-.78.63-1.28.93-.55.3-1.15.62-1.74.88-1.18.56-2.23.83-2.72.28-1.02-1.05-.57-1.61-1.23-2.66-.69-1.02-1.15-.04-1.08.61l.09,4c0,.6,0,1.22-.01,1.86-.01.33-.02.67-.02,1.01.04.33.14.64.28.93l2.32,2.59.11-.02Z" data-active="1" style="display: none; fill: var(--odon-fill-temporary, #fff); stroke: #eee; stroke-miterlimit: 10;" />
        <path id="filling-temporary-lingual" d="M21.65,37.52c.85.27,2.28.1,3.44-.3.44-.1.86-.14,1.26-.14.4.04.79.1,1.16.15.76.16,1.42.18,1.89.03.98-.37.71-.21.72-.56-.18-.5-.91-1.08-1.9-1.67-.48-.29-1-.55-1.55-.76-.53-.15-1.08-.2-1.64-.17-2.25.48-4.7,1.23-5.3,1.65-.64.63,1.13,1.35,1.91,1.68h0Z" data-active="1" style="display: none; fill: var(--odon-fill-temporary, #fff); stroke: #eee; stroke-miterlimit: 10;" />
        <path id="filling-temporary-buccal" d="M22.12,7.02c.82.31,2.28.21,3.57.05,1.01-.03,1.92-.08,2.69-.22.74-.09,1.34-.32,1.75-.71.8-.78.58-.43.59-.84-.17-.54-.8-1.06-1.69-1.53-.46-.2-.99-.35-1.57-.44-.58-.05-1.2-.04-1.82.02-1.23.19-2.45.44-3.41.75-.91.44-1.59.85-1.85,1.1-.55.73,1.02,1.41,1.75,1.71h0Z" data-active="1" style="display: none; fill: var(--odon-fill-temporary, #fff); stroke: #eee; stroke-miterlimit: 10;" />
        <path id="filling-temporary-mesial" d="M38.75,30.07c.77.08,1.25-.93,1.34-2.56.07-1.57.05-3.58-.17-5.57-.28-1.9-.66-3.77-1.04-5.2-.37-1.37-.74-2.4-1.06-2.72-.49-.9-1.49-.2-2.17-.43-.55-.21-.87.54-1.11,1.5-.21.94-.29,2.1-.52,2.79-.03.7-.9,1.02-1.61,1.47-.7.43-1.23.99-.55,2.34,1.25,2.99,2.84,1.01,3.34,1.94.26.48.7,1.61,1.22,2.82.41,1.18.79,2.34,1.23,2.93l1,.79h0Z" data-active="1" style="display: none; fill: var(--odon-fill-temporary, #fff); stroke: #eee; stroke-miterlimit: 10;" />
        <path id="filling-temporary-distal" d="M14.22,27.76c.63-.11.88-.4.89-.8.01-.4-.2-.93-.37-1.58.06-1.39-.01-2.97.59-4.16.41-.83.91-1.69,1.36-2.48.43-.75.81-1.46.99-2.08.21-1.3-.01-2.22-1.37-2.15-.64.06-1.8-.31-2.33.36-.65.63-1.32,1.52-1.95,2.58-.65,1.11-1.23,2.4-1.69,3.71-.47,1.38-.8,2.78-.92,3.98-.06.63-.08,1.2.01,1.68.14.47.4.82.75,1.04,1.51.84,1.7,1,1.51,1.02-.19.02-.74-.1-.66.13h0c.13.67.86,1.06,1.47.8.62-.26.62-.26.8-.49l1.02-1.58h0Z" data-active="1" style="display: none; fill: var(--odon-fill-temporary, #fff); stroke: #eee; stroke-miterlimit: 10;" />
        </g>
      <g id="defect" data-active="1">
        <polygon id="defect-occlusal" points="19.48,16.50 20.68,16.00 19.96,17.30 18.04,19.10 16.92,19.60 17.64,18.40 19.48,16.50" style="display: none; fill: #f5ff15; stroke: #2e3192; stroke-miterlimit: 10; stroke-width: .5px;" data-active="1" />
        <polygon id="defect-lingual" points="23.33,38.30 23.97,38.90 23.25,39.40 21.89,39.30 21.25,38.70 21.97,38.10 23.33,38.30" style="display: none; fill: #f5ff15; stroke: #2e3192; stroke-miterlimit: 10; stroke-width: .5px;" data-active="1" />
        <polygon id="defect-buccal" points="22.05,3.40 21.41,2.90 22.05,2.30 23.49,2.30 24.13,2.90 23.49,3.40 22.05,3.40" style="display: none; fill: #f5ff15; stroke: #2e3192; stroke-miterlimit: 10; stroke-width: .5px;" data-active="1" />
        <polygon id="defect-distal" points="10.11,20.60 9.55,21.90 9.23,20.50 9.55,17.60 10.19,16.30 10.43,17.80 10.11,20.60" style="display: none; fill: #f5ff15; stroke: #2e3192; stroke-miterlimit: 10; stroke-width: .5px;" data-active="1" />
        <polygon id="defect-mesial" points="37.91,21.60 37.43,23.00 37.03,21.60 37.03,18.70 37.43,17.30 37.91,18.70 37.91,21.60" style="display: none; fill: #f5ff15; stroke: #2e3192; stroke-miterlimit: 10; stroke-width: .5px;" data-active="1" />
        </g>
      </g>
    <g id="contact-point" data-active="1" style="display: none;">
      <g id="mesial-no-contact-point" data-active="1">
        <path d="M37.61,16.64c.61,1.31,1.31,2.76,2.05,4.29.79,1.61,1.51,3.28,2.24,4.94" data-active="1" style="fill: none; stroke: #aaa; stroke-miterlimit: 10; stroke-width: .5px;" />
        <path d="M39.16,26.43c.34-1.98.37-3.23.53-4.76.23-1.65.41-3.23.57-4.93" data-active="1" style="fill: none; stroke: #aaa; stroke-miterlimit: 10; stroke-width: .5px;" />
        </g>
      <g id="distal-no-contact-point" data-active="1">
        <path d="M10.05,17.22c-.04,1.46-.04,3.06-.05,4.79-.02.92-.04,1.89-.08,2.92-.02.53-.04,1.07-.04,1.62.04.54.15,1.06.3,1.56" data-active="1" style="fill: none; stroke: #aaa; stroke-miterlimit: 10; stroke-width: .5px;" />
        <path d="M6.92,28.26c.45-1.12.88-2.06,1.33-2.94.45-.86.86-1.63,1.42-2.47.55-.82,1.14-1.75,1.72-2.69.57-.91,1.11-1.82,1.6-2.67" data-active="1" style="fill: none; stroke: #aaa; stroke-miterlimit: 10; stroke-width: .5px;" />
        </g>
      </g>
    <g id="fissure-sealing" data-active="1" style="display: none;">
      <g id="fissure-sealing-occlusal" data-active="1">
        <path d="M28.94,36.08c-.31.47,1.16-1.5,1.82-2.21.46-1.2,1.38-2.28,1.71-3.42.41-1.63,1.26-2.9,1.09-4.46-.49-2.31,1.63-3.8,2.88-5.35.8-.96,1.67-5.15,1.24-4.3 M25.12,19.76c-.3.02-.8.96-1.11,1.17-1.31.92-4.75,3.44-5.3,4.92-.48,1.24-5.33,4.21-4.87,4 M34.04,23.58c-.82-.89-1.46-.96-2.38-1.77-.87-.67-1.77-1.18-2.78-1.77-.41-.41-.69-1.25-.7-2.16-.07-.98.6-.78.55-2.03.04-.53.15-2.25,0-2.76-.74-1.95.04-1.55-.14-2.31.01-.32.45-5.6.45-5.12 M14.42,21.89c-1.19.26,3.73-.74,5.12-.9.43,0,1.85-.07,2.3-.3.41-.14,1.51-.13,1.82-.32.27-.2,1.16-.61,1.46-.62 M17.13,15.24c-.81-.74,2.13,1.59,4.3,3.09.55.43,2.46.91,3.07,1.24.62.29.45.23.82-.01.56-.05.98.07,1.38-.14.59.17,1.11-.06,1.54-.61" data-active="1" style="fill: none; stroke: #3fb6ff; stroke-miterlimit: 10; stroke-width: 2px;" />
        <path d="M-99,-99Z" data-active="1" style="fill: none; stroke: #3fb6ff; stroke-miterlimit: 10; stroke-width: 2px;" />
        <path d="M-99,-99Z" data-active="1" style="fill: none; stroke: #3fb6ff; stroke-miterlimit: 10; stroke-width: 2px;" />
        <path d="M-99,-99Z" data-active="1" style="fill: none; stroke: #3fb6ff; stroke-miterlimit: 10; stroke-width: 2px;" />
        <path d="M-99,-99Z" data-active="1" style="fill: none; stroke: #3fb6ff; stroke-miterlimit: 10; stroke-width: 2px;" />
        </g>
      </g>
    </g>
  <g id="restorations" data-active="1">
    <g id="implant" data-active="1" style="display: none;">
      <g id="implant-base" data-active="1">
        <path d="M26.8,34.31l-2.03-.1-.48-1.74c-.6-.03-1.14.01-1.76-.24l-1.37,1.58-2.11-.8.28-1.99c-.68-.26-1.39-.63-2.02-1.07l-2.36.95-2.1-2.29,1.41-2.1c-.23-.46-.34-.93-.35-1.42.04-.5.1-1,.16-1.51l-1.72-.87.99-3.08,2.18-.66c.41-.74.77-1.36,1.21-2.04l-1.05-1.65,1.29-2.05,1.72.61c.4-.5.78-.94,1.27-1.53l-.45-2.25,1.65-1.65,1.23,1.36c.57-.49,1.1-.82,1.71-1.05l.56-2.35,2.25-.15.47,2.3c.62.32,1.15.56,1.73,1.05l1.33-1.36,1.59,1.81-.5,2.22c.37.56.67,1.08,1.03,1.78l1.59-.5,1.14,2.03-1.03,1.47c.35.67.63,1.27.92,1.97l1.88.62.54,2.75-1.65.74c-.06.85-.08,1.73-.17,2.53l1.57,2.03-1.37,2.45-2.13-.77c-.51.54-.96,1-1.58,1.46l.45,2.45-2.07,1.13-1.46-1.74c-.72-.03-1.32-.15-1.96-.37l-.46,1.78v.27c0,0,.07.02.07.02Z" data-active="1" style="fill: #145d2a;" />
        <path d="M27.19,32.08l-.16-.07-.45,1.7-1.52-.08-.4-1.63c0,0,0-.18-.15-.13-.67.17-1.36-.04-1.99-.21l-1.3,1.59-1.55-.59.2-1.95c-.87-.3-1.6-.76-2.35-1.27l-2.35.94-1.54-1.7,1.39-1.96c-.16-.25-.3-.5-.42-.76-.09-.27-.13-.56-.12-.87.07-.63.16-1.24.26-1.87l-1.66-.86.75-2.32,1.97-.57c.18.01.21-.09.27-.29.35-.84.82-1.53,1.27-2.29l-1.1-1.58.92-1.54,1.71.6c.5-.58,1.02-1.2,1.5-1.8l-.45-2.16,1.24-1.17,1.15,1.29c0,0,.14.06.21-.07.64-.53,1.24-.87,2.03-1.19l.57-2.35,1.69-.08.48,2.07c0,.1,0,.2.16.22.69.26,1.35.78,1.91,1.26l1.25-1.41,1.18,1.39-.5,2.22c.49.67.85,1.39,1.23,2.06l1.61-.52.84,1.5-1.03,1.47c.45.75.76,1.53,1.09,2.43l1.81.63.4,2.08-1.5.63c0,0,.01.1-.13.21.11.95-.07,1.84-.13,2.76-.1.94.04.24.04.24l1.4,1.78-1.02,1.81-2.11-.74c-.63.61-1.28,1.26-1.9,1.81l.45,2.34-1.54.83-1.37-1.67c-.81-.01-1.51-.07-2.25-.34h0c0,0,0,.16,0,.16Z" data-active="1" style="fill: #c8c8c8;" />
        <circle cx="23.5" cy="20.40" r="9.4" data-active="1" style="fill: #eaeaea; stroke: #1b3f1c; stroke-miterlimit: 10; stroke-width: .5px;" />
        <circle cx="23.5" cy="20.40" r="5.8" data-active="1" style="fill: #fff; stroke: #1b3f1c; stroke-miterlimit: 10; stroke-width: .5px;" />
        </g>
      <path id="implant-bar" d="M7.14,16.77c-1.24,1.87-2.2,3.86-2.87,5.83-.63,2.05-.89,4.01-.81,5.69.22,1.65.75,2.99,1.46,3.87.76.85,1.64,1.27,2.51,1.14,1,.08,2.2.09,3.56.04,1.39-.09,2.93-.27,4.57-.55,1.62-.33,3.28-.76,4.84-1.18,1.41-.26,2.77-.51,4.08-.81.63-.12,1.26-.17,1.89-.09.65.19,1.34.45,2.06.73.74.24,1.46.37,2.15.4.69.02,1.37.04,2.05.07,2.83.15,5.5.31,7.55.42,1.87-.03,3.09-.22,3.91-.57.8-.35,1.22-.86,1.43-1.57.37-1.43-.16-3.68-.22-6.89-.06-1.84-.35-3.56-.8-5.06-.44-1.46-1.04-2.73-1.75-3.71-1.24-1.48-2.61-2.07-3.99-2.31-1.32-.23-2.61-.15-3.69-.31-1.74-.12-3.3-.34-4.88-.53-.82-.13-1.64-.3-2.5-.45-.91-.04-1.84.09-2.8.34-1.02.32-1.99.63-2.93.88-.93.16-1.84.25-2.75.3-1.92-.05-3.93-.11-6.02.21-.9-.01-1.91.24-2.93.81-1.05.59-2.12,1.53-3.12,2.92h0l-.14.57.05-.19c0,0,.09-.01,0,0h0Z" data-active="1" style="display: none; fill: url(#toothgen-18_occl-linear-gradient-16-occl-11);" />
      <circle id="implant-healing-abutment" cx="23.4" cy="20.50" r="11.4" data-active="1" style="display: none; fill: #475563; stroke: #1b3f1c; stroke-miterlimit: 10; stroke-width: .5px;" />
      <circle id="implant-locator-screw" cx="23.5" cy="20.40" r="8.2" data-active="1" style="fill: url(#toothgen-18_occl-linear-gradient-16-occl-12); isolation: isolate; opacity: .8; stroke: #1b3f1c; stroke-miterlimit: 10; stroke-width: .5px;" />
      </g>
    <g id="prosthesis-implant" data-active="1" style="display: none;">
      <path id="prosthesis-implant-gum" d="M45.43,24.23c-.46,4.25-2.79,5.16-5.58,5.08-1.58-.09-3.3-.46-4.94-.78-1.68-.39-3.26-.71-4.6-.7-.85-.18-1.74-.28-2.67-.37-.48-.13-.95-.31-1.41-.47-.21-.06-.42-.08-.63-.07-.21.06-.42.14-.63.23-.89.28-1.84.54-2.91.89-1.16.4-2.38.78-3.63,1.1-2.55.55-5.2.81-7.6.45-1.12-.23-2.15-.62-3.04-1.2-.69-.63-1.2-1.45-1.54-2.47-.37-1.64-.48-3.72-.14-5.72.31-1.89,1.06-3.72,2.51-5.08,1.29-1.01,2.97-1.72,4.8-2.2,1.68-.48,3.54-.7,5.36-.81.87-.11,1.73-.25,2.59-.37.86-.2,1.72-.45,2.6-.65.91-.14,1.81-.22,2.65-.22.83.12,1.57.33,2.21.54,1.42.47,3.08.78,4.72,1.13.84.12,1.72.24,2.6.4.92.14,1.86.33,2.77.6,1.86.59,3.52,1.57,4.67,3.17,1.17,1.67,1.86,4,1.8,7.31l.06.41h0c0,0-.03-.21-.03-.21Z" data-active="1" style="fill: var(--odon-rest-denture-base, #f9ae94); stroke: #1b3f1c; stroke-miterlimit: 10; stroke-width: .5px;" />
      <path id="prosthesis-implant-crown" d="M23.39,6.61c.7-.14,1.45-.18,2.22-.18.78.05,1.56.18,2.32.32.99.21,1.95.68,2.79,1.33.54.45.95.75,1.48,1.16.77.64,1.52,1.45,2.06,2.46.58.85,1.16,1.82,1.45,2.91.2.41.34.91.5,1.4.45,1.18.75,2.31,1.01,3.6.27,1.34.39,1.94.43,3.06.22,1.48.26,2.8.33,4.28-.05.97-.16,1.97-.42,2.89-.32.87-.74,1.67-1.26,2.36-1.24,1.87-3.24,2.96-5.12,3.23-.69.02-1.55-.17-2.23-.26-.54-.1-1.05-.17-1.55-.21-.48-.01-.95.01-1.42.07-.79.26-1.57.3-2.3.3-.66.16-1.42.07-2.1.2-1.26.05-2.68.23-4.03-.2-1.18-.37-2.18-1.09-3.15-1.97-1.16-1.05-2.16-2.34-2.85-3.89-.27-.61-.4-1.27-.44-1.96.03-.72.16-1.45.3-2.16.18-.71.54-1.65.95-2.63.41-.93.85-1.88,1.19-2.67.42-.91.78-1.77,1.13-2.59.32-.79.61-1.57.92-2.34.47-1.56,1.23-2.94,2.09-4.06.87-1.3,1.97-2.46,3.16-3.27.77-.5,1.64-.84,2.47-1.04h0v-.21l.08-.02h0Z" data-active="1" style="fill: var(--odon-rest-denture-base, #f9ae94); stroke: #000; stroke-miterlimit: 10;" />
      </g>
    <g id="prosthesis" data-active="1" style="display: none;">
      <path id="prosthesis-connector" d="M45.43,24.23c-.46,4.25-2.79,5.16-5.58,5.08-1.58-.09-3.3-.46-4.94-.78-1.68-.39-3.26-.71-4.6-.7-.85-.18-1.74-.28-2.67-.37-.48-.13-.95-.31-1.41-.47-.21-.06-.42-.08-.63-.07-.21.06-.42.14-.63.23-.89.28-1.84.54-2.91.89-1.16.4-2.38.78-3.63,1.1-2.55.55-5.2.81-7.6.45-1.12-.23-2.15-.62-3.04-1.2-.69-.63-1.2-1.45-1.54-2.47-.37-1.64-.48-3.72-.14-5.72.31-1.89,1.06-3.72,2.51-5.08,1.29-1.01,2.97-1.72,4.8-2.2,1.68-.48,3.54-.7,5.36-.81.87-.11,1.73-.25,2.59-.37.86-.2,1.72-.45,2.6-.65.91-.14,1.81-.22,2.65-.22.83.12,1.57.33,2.21.54,1.42.47,3.08.78,4.72,1.13.84.12,1.72.24,2.6.4.92.14,1.86.33,2.77.6,1.86.59,3.52,1.57,4.67,3.17,1.17,1.67,1.86,4,1.8,7.31l.06.41h0c0,0-.03-.21-.03-.21Z" data-active="1" style="fill: var(--odon-rest-denture-base, #f9ae94); stroke: #1b3f1c; stroke-miterlimit: 10; stroke-width: .5px;" />
      <path id="prosthesis-crown" d="M22.97,3.84c.82-.1,1.72-.16,2.63-.2.93.02,1.86.15,2.74.34,1.14.31,2.29.89,3.28,1.67.62.44,1.16.84,1.77,1.35.91.75,1.79,1.68,2.45,2.92.71,1.05,1.35,2.2,1.72,3.46.22.49.38,1.06.62,1.64.5,1.44.9,2.76,1.18,4.23.29,1.53.45,2.32.57,3.54.18,1.67.23,3.28.32,4.99.01.59,0,1.19-.04,1.79-.08.59-.2,1.15-.37,1.69-.48.96-1.04,1.83-1.63,2.62-1.35,2.25-3.67,3.51-5.85,4.01-.42.05-.87.07-1.34.03-.47-.08-.94-.19-1.38-.29-.64-.17-1.26-.3-1.86-.41-.57-.07-1.12-.06-1.65.01-.45.12-.91.24-1.37.37-.46.16-.92.24-1.37.26-.83.2-1.68.11-2.54.25-.73-.02-1.49-.02-2.24-.09-.78-.04-1.59-.11-2.37-.35-1.4-.35-2.65-1.13-3.74-2.17-.66-.61-1.26-1.3-1.82-2.05-.59-.76-1.09-1.62-1.45-2.56-.27-.72-.45-1.48-.63-2.25-.07-.39-.09-.8-.03-1.23.11-.45.25-.9.4-1.34.25-.85.69-1.94,1.16-3.07.45-1.08.95-2.19,1.33-3.14.5-1.06.93-2.1,1.35-3.08.4-.94.76-1.85,1.13-2.75.49-1.88,1.36-3.52,2.42-4.86.97-1.54,2.29-3,3.72-3.77.9-.57,1.9-1.12,2.88-1.35h0c0,0,0-.19,0-.19Z" data-active="1" style="fill: var(--odon-rest-denture-tooth, #a8ddb9); stroke: #000; stroke-miterlimit: 10;" />
      </g>
    <g id="telescope" data-active="1">
      <path id="telescope-bridge-connector" d="M45.43,24.23c-.46,4.25-2.79,5.16-5.58,5.08-1.58-.09-3.3-.46-4.94-.78-1.68-.39-3.26-.71-4.6-.7-.85-.18-1.74-.28-2.67-.37-.48-.13-.95-.31-1.41-.47-.21-.06-.42-.08-.63-.07-.21.06-.42.14-.63.23-.89.28-1.84.54-2.91.89-1.16.4-2.38.78-3.63,1.1-2.55.55-5.2.81-7.6.45-1.12-.23-2.15-.62-3.04-1.2-.69-.63-1.2-1.45-1.54-2.47-.37-1.64-.48-3.72-.14-5.72.31-1.89,1.06-3.72,2.51-5.08,1.29-1.01,2.97-1.72,4.8-2.2,1.68-.48,3.54-.7,5.36-.81.87-.11,1.73-.25,2.59-.37.86-.2,1.72-.45,2.6-.65.91-.14,1.81-.22,2.65-.22.83.12,1.57.33,2.21.54,1.42.47,3.08.78,4.72,1.13.84.12,1.72.24,2.6.4.92.14,1.86.33,2.77.6,1.86.59,3.52,1.57,4.67,3.17,1.17,1.67,1.86,4,1.8,7.31l.06.41h0c0,0-.03-.21-.03-.21Z" data-active="1" style="display: none; fill: var(--odon-rest-telescope-connector, #0051bf); stroke: #1b3f1c; stroke-miterlimit: 10; stroke-width: .5px;" />
      <g id="telescope-crown" data-active="1" style="display: none;">
        <path id="telescope-crown-outside" d="M22.97,3.84c.82-.1,1.72-.16,2.63-.2.93.02,1.86.15,2.74.34,1.14.31,2.29.89,3.28,1.67.62.44,1.16.84,1.77,1.35.91.75,1.79,1.68,2.45,2.92.71,1.05,1.35,2.2,1.72,3.46.22.49.38,1.06.62,1.64.5,1.44.9,2.76,1.18,4.23.29,1.53.45,2.32.57,3.54.18,1.67.23,3.28.32,4.99.01.59,0,1.19-.04,1.79-.08.59-.2,1.15-.37,1.69-.48.96-1.04,1.83-1.63,2.62-1.35,2.25-3.67,3.51-5.85,4.01-.42.05-.87.07-1.34.03-.47-.08-.94-.19-1.38-.29-.64-.17-1.26-.3-1.86-.41-.57-.07-1.12-.06-1.65.01-.45.12-.91.24-1.37.37-.46.16-.92.24-1.37.26-.83.2-1.68.11-2.54.25-.73-.02-1.49-.02-2.24-.09-.78-.04-1.59-.11-2.37-.35-1.4-.35-2.65-1.13-3.74-2.17-.66-.61-1.26-1.3-1.82-2.05-.59-.76-1.09-1.62-1.45-2.56-.27-.72-.45-1.48-.63-2.25-.07-.39-.09-.8-.03-1.23.11-.45.25-.9.4-1.34.25-.85.69-1.94,1.16-3.07.45-1.08.95-2.19,1.33-3.14.5-1.06.93-2.1,1.35-3.08.4-.94.76-1.85,1.13-2.75.49-1.88,1.36-3.52,2.42-4.86.97-1.54,2.29-3,3.72-3.77.9-.57,1.9-1.12,2.88-1.35h0c0,0,0-.19,0-.19Z" data-active="1" style="fill: var(--odon-rest-telescope, #0051bf); stroke: #000; stroke-miterlimit: 10;" />
        <path id="telescope-crown-inside" d="M23.55,8.22c.62-.12,1.29-.15,1.98-.15.7.04,1.41.16,2.08.29.92.2,1.79.65,2.5,1.15.48.32.88.72,1.28,1,.71.53,1.33,1.32,1.89,2.15.51.77,1,1.66,1.28,2.59.19.41.32.82.47,1.23.35,1.09.7,2.05.93,3.23l.51,2.65c.19,1.25.39,2.56.29,3.82-.04.87-.16,1.76-.4,2.57-.3.76-.65,1.46-1.05,2.07-1.12,1.7-2.87,2.69-4.58,3.01-.69.04-1.38-.07-1.98-.21-.51-.13-.98-.22-1.43-.27-.43-.02-.84.02-1.24.08-.72.17-1.36.1-2.09.27-.74.17-1.27.12-1.88.13-1.09.17-2.34.23-3.48-.28-1.06-.31-1.95-.95-2.88-1.65-.99-.89-1.96-2.09-2.49-3.55-.19-.56-.3-1.14-.34-1.75.01-.63.14-1.3.39-2.01.27-.9.6-1.74.95-2.53.34-.75.7-1.45,1.04-2.13.38-.79.71-1.56,1.03-2.28.28-.7.53-1.39.77-2.04.42-1.4,1.03-2.68,1.85-3.74.77-1.16,1.73-2.35,2.78-2.97.71-.5,1.45-.8,2.21-.97h0l-.23.25c0,0-.15.03-.15.03Z" data-active="1" style="fill: var(--odon-rest-telescope-inner, #aaa); stroke: #ffffff; stroke-miterlimit: 10; stroke-width: 1.6; paint-order: stroke;" />
        </g>
      </g>
    <g id="zircon" data-active="1">
      <path id="zircon-bridge-connector" d="M45.43,24.23c-.46,4.25-2.79,5.16-5.58,5.08-1.58-.09-3.3-.46-4.94-.78-1.68-.39-3.26-.71-4.6-.7-.85-.18-1.74-.28-2.67-.37-.48-.13-.95-.31-1.41-.47-.21-.06-.42-.08-.63-.07-.21.06-.42.14-.63.23-.89.28-1.84.54-2.91.89-1.16.4-2.38.78-3.63,1.1-2.55.55-5.2.81-7.6.45-1.12-.23-2.15-.62-3.04-1.2-.69-.63-1.2-1.45-1.54-2.47-.37-1.64-.48-3.72-.14-5.72.31-1.89,1.06-3.72,2.51-5.08,1.29-1.01,2.97-1.72,4.8-2.2,1.68-.48,3.54-.7,5.36-.81.87-.11,1.73-.25,2.59-.37.86-.2,1.72-.45,2.6-.65.91-.14,1.81-.22,2.65-.22.83.12,1.57.33,2.21.54,1.42.47,3.08.78,4.72,1.13.84.12,1.72.24,2.6.4.92.14,1.86.33,2.77.6,1.86.59,3.52,1.57,4.67,3.17,1.17,1.67,1.86,4,1.8,7.31l.06.41h0c0,0-.03-.21-.03-.21Z" data-active="1" style="display: none; fill: var(--odon-rest-zircon, #cfe3ee); stroke: #1b3f1c; stroke-miterlimit: 10; stroke-width: .5px;" />
      <path id="zircon-crown" d="M22.97,3.84c.82-.1,1.72-.16,2.63-.2.93.02,1.86.15,2.74.34,1.14.31,2.29.89,3.28,1.67.62.44,1.16.84,1.77,1.35.91.75,1.79,1.68,2.45,2.92.71,1.05,1.35,2.2,1.72,3.46.22.49.38,1.06.62,1.64.5,1.44.9,2.76,1.18,4.23.29,1.53.45,2.32.57,3.54.18,1.67.23,3.28.32,4.99.01.59,0,1.19-.04,1.79-.08.59-.2,1.15-.37,1.69-.48.96-1.04,1.83-1.63,2.62-1.35,2.25-3.67,3.51-5.85,4.01-.42.05-.87.07-1.34.03-.47-.08-.94-.19-1.38-.29-.64-.17-1.26-.3-1.86-.41-.57-.07-1.12-.06-1.65.01-.45.12-.91.24-1.37.37-.46.16-.92.24-1.37.26-.83.2-1.68.11-2.54.25-.73-.02-1.49-.02-2.24-.09-.78-.04-1.59-.11-2.37-.35-1.4-.35-2.65-1.13-3.74-2.17-.66-.61-1.26-1.3-1.82-2.05-.59-.76-1.09-1.62-1.45-2.56-.27-.72-.45-1.48-.63-2.25-.07-.39-.09-.8-.03-1.23.11-.45.25-.9.4-1.34.25-.85.69-1.94,1.16-3.07.45-1.08.95-2.19,1.33-3.14.5-1.06.93-2.1,1.35-3.08.4-.94.76-1.85,1.13-2.75.49-1.88,1.36-3.52,2.42-4.86.97-1.54,2.29-3,3.72-3.77.9-.57,1.9-1.12,2.88-1.35h0c0,0,0-.19,0-.19Z" data-active="1" style="display: none; fill: var(--odon-rest-zircon, #cfe3ee); stroke: #000; stroke-miterlimit: 10;" />
      <path id="zircon-onlay" d="M22.97,3.84c1.66-.22,2.62,1.1,3.77,1.55.36.16,1,.75,1.61,1.39.6.68,1.18,1.39,1.49,1.69.49.45,1.84.55,3.13.67,1.28.07,2.53.16,2.86.76.71,1.05,1.35,2.2,1.72,3.46.22.49.38,1.06.62,1.64.5,1.44-.93,1.98-.65,3.39.29,1.48,2.28,3.16,2.4,4.38.18,1.67.55,3.28-1.8,2.11-1.35-.39-1.94-.03-2.05.81-.05.43,0,.97.1,1.57.06.58.14,1.2.25,1.82.39,2.48,1.25,5.24.82,6.1-.65,1.12-1.69,1.63-2.84,1.93-.57.16-1.16.25-1.75.34-.59.07-1.19.08-1.76.06-.31-.11-1.49-2.07-2.54-3.43-1.03-1.37-1.91-2.15-1.79.07.08,2.01.01,2.47-.23,2.55-.24.11-.67-.11-1.25.6-1.22,1.68-1.37.64-1.67.54-.41.1-1.18.27-2.01.33-.82,0-1.7-.15-2.34-.52-.54-.31-.85-1.27-1.12-2.35-.29-1.09-.51-2.3-.82-2.99-.28-.5-1.08-1.27-1.95-2.09-.93-.88-1.89-1.83-2.36-2.43-.22-.32-.56-.85-.89-1.54-.23-.71-.41-1.55-.52-2.41-.19-1.61-.3-3.17.09-4.12.5-1.06.93-2.09,1.35-3.07.39-.94.75-1.85,1.11-2.74.26-.93,1.54-1.53,2.94-1.91,1.34-.4,2.74-.73,3.44-1.07.46-.19.87-1.85,1.28-3.54.42-1.71.85-3.38,1.35-3.47h0c0,0,0-.19,0-.19Z" data-active="1" style="display: none; fill: var(--odon-rest-zircon, #cfe3ee); stroke: #000; stroke-miterlimit: 10;" />
      <path id="zircon-inlay" d="M22.97,3.84c.82-.1,1.52,1.85,2.15,3.97.63,2.14,1.18,4.48,1.73,4.78.68.41,1.55.8,2.17,1.34.93.78,6.17-5.25,6.82-4.01.71,1.05,1.35,2.2,1.72,3.46.22.49.38,1.06.62,1.64.24.71-.92.74-2.09.79-1.16.05-2.32.11-2.23.81.11.71,1.58,1.85,3.05,3.03,1.49,1.26,2.96,2.53,3.02,3.14.18,1.67.55,3.28-1.8,2.11-1.35-.39-1.94-.03-2.05.81-.05.43,0,.97.1,1.57.06.58.14,1.2.25,1.82.39,2.48,1.25,5.24.82,6.1-.65,1.12-2.91-2.31-5.31-6.1-1.19-1.87-2.41-3.8-3.47-5.28-1.17-1.48-2.1-2.39-2.63-2.25-.15.02-.23.49-.27,1.24-.03.74-.01,1.71.05,2.71.02.44.06.86.1,1.34.05.62.1,1.27.14,1.89.06,1.18.1,2.25.14,3.17.1,2.2-.04,3.08-.34,3.59-.29.53-.74.8-1.3,1.59-1.17,1.6-.65.76-.95.75-.41.1-1.18.27-2.01.33-.82,0-1.7-.15-2.34-.52-1.12-.57-.28-4.16-.69-5.56-.26-.47-.9-1.58-1.61-2.77-.4-.62-.82-1.26-1.19-1.84-.35-.62-.67-1.15-.92-1.46-.21-.32-.57-.78-.93-1.33-.35-.53-.79-1.11-1.18-1.69-.79-1.11-1.47-2.22-1.09-3.17.5-1.06.93-2.1,1.35-3.08.4-.94.76-1.86,1.13-2.75.27-.93,1.93.13,3.65,1.39,1.76,1.3,3.65,2.72,4.44,2.47.25-.06.4-.84.45-2.08.05-1.3.04-3,.02-4.68-.01-3.52-.03-7,.47-7.08h0c0,0,0-.19,0-.19Z" data-active="1" style="display: none; fill: var(--odon-rest-zircon, #cfe3ee); stroke: #000; stroke-miterlimit: 10;" />
      <path id="zircon-veneer" d="M28.35,3.98c1.14.31,2.29.89,3.28,1.67.62.44,1.16.84,1.77,1.35.91.75,1.79,1.68,2.45,2.92.71,1.05,1.35,2.2,1.72,3.46.22.49.38,1.06.62,1.64.12.36-1.46.65-3.84.9-1.16.12-2.46.18-3.81.16-1.31-.1-2.72-.36-4.25-.76-.84.01-1.65.1-2.4.27-.72.11-1.44.15-2.14.14-1.44-.1-2.83-.29-4.01-.49-2.39-.38-3.99-.78-3.81-1.23.49-1.88,1.36-3.52,2.42-4.86.97-1.54,2.29-2.99,3.72-3.77.9-.57,1.9-1.12,2.88-1.35h0c0,0,.89-.1,2-.24.56-.06,1.19-.1,1.78-.09.6.05,1.15.14,1.59.27Z" data-active="1" style="display: none; fill: var(--odon-rest-zircon, #cfe3ee); stroke: #000; stroke-miterlimit: 10;" />
      </g>
    <g id="metal" data-active="1">
      <path id="metal-bridge-connector" d="M45.43,24.23c-.46,4.25-2.79,5.16-5.58,5.08-1.58-.09-3.3-.46-4.94-.78-1.68-.39-3.26-.71-4.6-.7-.85-.18-1.74-.28-2.67-.37-.48-.13-.95-.31-1.41-.47-.21-.06-.42-.08-.63-.07-.21.06-.42.14-.63.23-.89.28-1.84.54-2.91.89-1.16.4-2.38.78-3.63,1.1-2.55.55-5.2.81-7.6.45-1.12-.23-2.15-.62-3.04-1.2-.69-.63-1.2-1.45-1.54-2.47-.37-1.64-.48-3.72-.14-5.72.31-1.89,1.06-3.72,2.51-5.08,1.29-1.01,2.97-1.72,4.8-2.2,1.68-.48,3.54-.7,5.36-.81.87-.11,1.73-.25,2.59-.37.86-.2,1.72-.45,2.6-.65.91-.14,1.81-.22,2.65-.22.83.12,1.57.33,2.21.54,1.42.47,3.08.78,4.72,1.13.84.12,1.72.24,2.6.4.92.14,1.86.33,2.77.6,1.86.59,3.52,1.57,4.67,3.17,1.17,1.67,1.86,4,1.8,7.31l.06.41h0c0,0-.03-.21-.03-.21Z" data-active="1" style="display: none; fill: var(--odon-rest-metal, #0051bf); stroke: #1b3f1c; stroke-miterlimit: 10; stroke-width: .5px;" />
      <path id="metal-crown" d="M22.97,3.84c.82-.1,1.72-.16,2.63-.2.93.02,1.86.15,2.74.34,1.14.31,2.29.89,3.28,1.67.62.44,1.16.84,1.77,1.35.91.75,1.79,1.68,2.45,2.92.71,1.05,1.35,2.2,1.72,3.46.22.49.38,1.06.62,1.64.5,1.44.9,2.76,1.18,4.23.29,1.53.45,2.32.57,3.54.18,1.67.23,3.28.32,4.99.01.59,0,1.19-.04,1.79-.08.59-.2,1.15-.37,1.69-.48.96-1.04,1.83-1.63,2.62-1.35,2.25-3.67,3.51-5.85,4.01-.42.05-.87.07-1.34.03-.47-.08-.94-.19-1.38-.29-.64-.17-1.26-.3-1.86-.41-.57-.07-1.12-.06-1.65.01-.45.12-.91.24-1.37.37-.46.16-.92.24-1.37.26-.83.2-1.68.11-2.54.25-.73-.02-1.49-.02-2.24-.09-.78-.04-1.59-.11-2.37-.35-1.4-.35-2.65-1.13-3.74-2.17-.66-.61-1.26-1.3-1.82-2.05-.59-.76-1.09-1.62-1.45-2.56-.27-.72-.45-1.48-.63-2.25-.07-.39-.09-.8-.03-1.23.11-.45.25-.9.4-1.34.25-.85.69-1.94,1.16-3.07.45-1.08.95-2.19,1.33-3.14.5-1.06.93-2.1,1.35-3.08.4-.94.76-1.85,1.13-2.75.49-1.88,1.36-3.52,2.42-4.86.97-1.54,2.29-3,3.72-3.77.9-.57,1.9-1.12,2.88-1.35h0c0,0,0-.19,0-.19Z" data-active="1" style="display: none; fill: var(--odon-rest-metal, #0051bf); stroke: #000; stroke-miterlimit: 10;" />
      </g>
    <g id="metal-ceramic" data-active="1">
      <path id="metal-ceramic-bridge-connector" d="M45.43,24.23c-.46,4.25-2.79,5.16-5.58,5.08-1.58-.09-3.3-.46-4.94-.78-1.68-.39-3.26-.71-4.6-.7-.85-.18-1.74-.28-2.67-.37-.48-.13-.95-.31-1.41-.47-.21-.06-.42-.08-.63-.07-.21.06-.42.14-.63.23-.89.28-1.84.54-2.91.89-1.16.4-2.38.78-3.63,1.1-2.55.55-5.2.81-7.6.45-1.12-.23-2.15-.62-3.04-1.2-.69-.63-1.2-1.45-1.54-2.47-.37-1.64-.48-3.72-.14-5.72.31-1.89,1.06-3.72,2.51-5.08,1.29-1.01,2.97-1.72,4.8-2.2,1.68-.48,3.54-.7,5.36-.81.87-.11,1.73-.25,2.59-.37.86-.2,1.72-.45,2.6-.65.91-.14,1.81-.22,2.65-.22.83.12,1.57.33,2.21.54,1.42.47,3.08.78,4.72,1.13.84.12,1.72.24,2.6.4.92.14,1.86.33,2.77.6,1.86.59,3.52,1.57,4.67,3.17,1.17,1.67,1.86,4,1.8,7.31l.06.41h0c0,0-.03-.21-.03-.21Z" data-active="1" style="display: none; fill: url(#toothgen-18_occl-radial-gradient-16-occl-0); stroke: #1b3f1c; stroke-miterlimit: 10; stroke-width: .5px;" />
      <path id="metal-ceramic-crown" d="M22.97,3.84c.82-.1,1.72-.16,2.63-.2.93.02,1.86.15,2.74.34,1.14.31,2.29.89,3.28,1.67.62.44,1.16.84,1.77,1.35.91.75,1.79,1.68,2.45,2.92.71,1.05,1.35,2.2,1.72,3.46.22.49.38,1.06.62,1.64.5,1.44.9,2.76,1.18,4.23.29,1.53.45,2.32.57,3.54.18,1.67.23,3.28.32,4.99.01.59,0,1.19-.04,1.79-.08.59-.2,1.15-.37,1.69-.48.96-1.04,1.83-1.63,2.62-1.35,2.25-3.67,3.51-5.85,4.01-.42.05-.87.07-1.34.03-.47-.08-.94-.19-1.38-.29-.64-.17-1.26-.3-1.86-.41-.57-.07-1.12-.06-1.65.01-.45.12-.91.24-1.37.37-.46.16-.92.24-1.37.26-.83.2-1.68.11-2.54.25-.73-.02-1.49-.02-2.24-.09-.78-.04-1.59-.11-2.37-.35-1.4-.35-2.65-1.13-3.74-2.17-.66-.61-1.26-1.3-1.82-2.05-.59-.76-1.09-1.62-1.45-2.56-.27-.72-.45-1.48-.63-2.25-.07-.39-.09-.8-.03-1.23.11-.45.25-.9.4-1.34.25-.85.69-1.94,1.16-3.07.45-1.08.95-2.19,1.33-3.14.5-1.06.93-2.1,1.35-3.08.4-.94.76-1.85,1.13-2.75.49-1.88,1.36-3.52,2.42-4.86.97-1.54,2.29-3,3.72-3.77.9-.57,1.9-1.12,2.88-1.35h0c0,0,0-.19,0-.19Z" data-active="1" style="display: none; fill: url(#toothgen-18_occl-radial-gradient-16-occl-1); stroke: #000; stroke-miterlimit: 10;" />
      </g>
    <g id="gold" data-active="1">
      <path id="gold-bridge-connector" d="M45.43,24.23c-.46,4.25-2.79,5.16-5.58,5.08-1.58-.09-3.3-.46-4.94-.78-1.68-.39-3.26-.71-4.6-.7-.85-.18-1.74-.28-2.67-.37-.48-.13-.95-.31-1.41-.47-.21-.06-.42-.08-.63-.07-.21.06-.42.14-.63.23-.89.28-1.84.54-2.91.89-1.16.4-2.38.78-3.63,1.1-2.55.55-5.2.81-7.6.45-1.12-.23-2.15-.62-3.04-1.2-.69-.63-1.2-1.45-1.54-2.47-.37-1.64-.48-3.72-.14-5.72.31-1.89,1.06-3.72,2.51-5.08,1.29-1.01,2.97-1.72,4.8-2.2,1.68-.48,3.54-.7,5.36-.81.87-.11,1.73-.25,2.59-.37.86-.2,1.72-.45,2.6-.65.91-.14,1.81-.22,2.65-.22.83.12,1.57.33,2.21.54,1.42.47,3.08.78,4.72,1.13.84.12,1.72.24,2.6.4.92.14,1.86.33,2.77.6,1.86.59,3.52,1.57,4.67,3.17,1.17,1.67,1.86,4,1.8,7.31l.06.41h0c0,0-.03-.21-.03-.21Z" data-active="1" style="display: none; fill: var(--odon-rest-gold, #e0a80d); stroke: #1b3f1c; stroke-miterlimit: 10; stroke-width: .5px;" />
      <path id="gold-crown" d="M22.97,3.84c.82-.1,1.72-.16,2.63-.2.93.02,1.86.15,2.74.34,1.14.31,2.29.89,3.28,1.67.62.44,1.16.84,1.77,1.35.91.75,1.79,1.68,2.45,2.92.71,1.05,1.35,2.2,1.72,3.46.22.49.38,1.06.62,1.64.5,1.44.9,2.76,1.18,4.23.29,1.53.45,2.32.57,3.54.18,1.67.23,3.28.32,4.99.01.59,0,1.19-.04,1.79-.08.59-.2,1.15-.37,1.69-.48.96-1.04,1.83-1.63,2.62-1.35,2.25-3.67,3.51-5.85,4.01-.42.05-.87.07-1.34.03-.47-.08-.94-.19-1.38-.29-.64-.17-1.26-.3-1.86-.41-.57-.07-1.12-.06-1.65.01-.45.12-.91.24-1.37.37-.46.16-.92.24-1.37.26-.83.2-1.68.11-2.54.25-.73-.02-1.49-.02-2.24-.09-.78-.04-1.59-.11-2.37-.35-1.4-.35-2.65-1.13-3.74-2.17-.66-.61-1.26-1.3-1.82-2.05-.59-.76-1.09-1.62-1.45-2.56-.27-.72-.45-1.48-.63-2.25-.07-.39-.09-.8-.03-1.23.11-.45.25-.9.4-1.34.25-.85.69-1.94,1.16-3.07.45-1.08.95-2.19,1.33-3.14.5-1.06.93-2.1,1.35-3.08.4-.94.76-1.85,1.13-2.75.49-1.88,1.36-3.52,2.42-4.86.97-1.54,2.29-3,3.72-3.77.9-.57,1.9-1.12,2.88-1.35h0c0,0,0-.19,0-.19Z" data-active="1" style="display: none; fill: var(--odon-rest-gold, #e0a80d); stroke: #000; stroke-miterlimit: 10;" />
      <path id="gold-onlay" d="M22.97,3.84c1.66-.22,2.62,1.1,3.77,1.55.36.16,1,.75,1.61,1.39.6.68,1.18,1.39,1.49,1.69.49.45,1.84.55,3.13.67,1.28.07,2.53.16,2.86.76.71,1.05,1.35,2.2,1.72,3.46.22.49.38,1.06.62,1.64.5,1.44-.93,1.98-.65,3.39.29,1.48,2.28,3.16,2.4,4.38.18,1.67.55,3.28-1.8,2.11-1.35-.39-1.94-.03-2.05.81-.05.43,0,.97.1,1.57.06.58.14,1.2.25,1.82.39,2.48,1.25,5.24.82,6.1-.65,1.12-1.69,1.63-2.84,1.93-.57.16-1.16.25-1.75.34-.59.07-1.19.08-1.76.06-.31-.11-1.49-2.07-2.54-3.43-1.03-1.37-1.91-2.15-1.79.07.08,2.01.01,2.47-.23,2.55-.24.11-.67-.11-1.25.6-1.22,1.68-1.37.64-1.67.54-.41.1-1.18.27-2.01.33-.82,0-1.7-.15-2.34-.52-.54-.31-.85-1.27-1.12-2.35-.29-1.09-.51-2.3-.82-2.99-.28-.5-1.08-1.27-1.95-2.09-.93-.88-1.89-1.83-2.36-2.43-.22-.32-.56-.85-.89-1.54-.23-.71-.41-1.55-.52-2.41-.19-1.61-.3-3.17.09-4.12.5-1.06.93-2.09,1.35-3.07.39-.94.75-1.85,1.11-2.74.26-.93,1.54-1.53,2.94-1.91,1.34-.4,2.74-.73,3.44-1.07.46-.19.87-1.85,1.28-3.54.42-1.71.85-3.38,1.35-3.47h0c0,0,0-.19,0-.19Z" data-active="1" style="display: none; fill: var(--odon-rest-gold, #e0a80d); stroke: #000; stroke-miterlimit: 10;" />
      <path id="gold-inlay" d="M22.97,3.84c.82-.1,1.52,1.85,2.15,3.97.63,2.14,1.18,4.48,1.73,4.78.68.41,1.55.8,2.17,1.34.93.78,6.17-5.25,6.82-4.01.71,1.05,1.35,2.2,1.72,3.46.22.49.38,1.06.62,1.64.24.71-.92.74-2.09.79-1.16.05-2.32.11-2.23.81.11.71,1.58,1.85,3.05,3.03,1.49,1.26,2.96,2.53,3.02,3.14.18,1.67.55,3.28-1.8,2.11-1.35-.39-1.94-.03-2.05.81-.05.43,0,.97.1,1.57.06.58.14,1.2.25,1.82.39,2.48,1.25,5.24.82,6.1-.65,1.12-2.91-2.31-5.31-6.1-1.19-1.87-2.41-3.8-3.47-5.28-1.17-1.48-2.1-2.39-2.63-2.25-.15.02-.23.49-.27,1.24-.03.74-.01,1.71.05,2.71.02.44.06.86.1,1.34.05.62.1,1.27.14,1.89.06,1.18.1,2.25.14,3.17.1,2.2-.04,3.08-.34,3.59-.29.53-.74.8-1.3,1.59-1.17,1.6-.65.76-.95.75-.41.1-1.18.27-2.01.33-.82,0-1.7-.15-2.34-.52-1.12-.57-.28-4.16-.69-5.56-.26-.47-.9-1.58-1.61-2.77-.4-.62-.82-1.26-1.19-1.84-.35-.62-.67-1.15-.92-1.46-.21-.32-.57-.78-.93-1.33-.35-.53-.79-1.11-1.18-1.69-.79-1.11-1.47-2.22-1.09-3.17.5-1.06.93-2.1,1.35-3.08.4-.94.76-1.86,1.13-2.75.27-.93,1.93.13,3.65,1.39,1.76,1.3,3.65,2.72,4.44,2.47.25-.06.4-.84.45-2.08.05-1.3.04-3,.02-4.68-.01-3.52-.03-7,.47-7.08h0c0,0,0-.19,0-.19Z" data-active="1" style="display: none; fill: var(--odon-rest-gold, #e0a80d); stroke: #000; stroke-miterlimit: 10;" />
      <path id="gold-veneer" d="M28.35,3.98c1.14.31,2.29.89,3.28,1.67.62.44,1.16.84,1.77,1.35.91.75,1.79,1.68,2.45,2.92.71,1.05,1.35,2.2,1.72,3.46.22.49.38,1.06.62,1.64.12.36-1.46.65-3.84.9-1.16.12-2.46.18-3.81.16-1.31-.1-2.72-.36-4.25-.76-.84.01-1.65.1-2.4.27-.72.11-1.44.15-2.14.14-1.44-.1-2.83-.29-4.01-.49-2.39-.38-3.99-.78-3.81-1.23.49-1.88,1.36-3.52,2.42-4.86.97-1.54,2.29-2.99,3.72-3.77.9-.57,1.9-1.12,2.88-1.35h0c0,0,.89-.1,2-.24.56-.06,1.19-.1,1.78-.09.6.05,1.15.14,1.59.27Z" data-active="1" style="display: none; fill: var(--odon-rest-gold, #e0a80d); stroke: #000; stroke-miterlimit: 10;" />
      </g>
    <g id="emax" data-active="1">
      <path id="emax-bridge-connector" d="M45.43,24.23c-.46,4.25-2.79,5.16-5.58,5.08-1.58-.09-3.3-.46-4.94-.78-1.68-.39-3.26-.71-4.6-.7-.85-.18-1.74-.28-2.67-.37-.48-.13-.95-.31-1.41-.47-.21-.06-.42-.08-.63-.07-.21.06-.42.14-.63.23-.89.28-1.84.54-2.91.89-1.16.4-2.38.78-3.63,1.1-2.55.55-5.2.81-7.6.45-1.12-.23-2.15-.62-3.04-1.2-.69-.63-1.2-1.45-1.54-2.47-.37-1.64-.48-3.72-.14-5.72.31-1.89,1.06-3.72,2.51-5.08,1.29-1.01,2.97-1.72,4.8-2.2,1.68-.48,3.54-.7,5.36-.81.87-.11,1.73-.25,2.59-.37.86-.2,1.72-.45,2.6-.65.91-.14,1.81-.22,2.65-.22.83.12,1.57.33,2.21.54,1.42.47,3.08.78,4.72,1.13.84.12,1.72.24,2.6.4.92.14,1.86.33,2.77.6,1.86.59,3.52,1.57,4.67,3.17,1.17,1.67,1.86,4,1.8,7.31l.06.41h0c0,0-.03-.21-.03-.21Z" data-active="1" style="display: none; fill: url(#toothgen-18_occl-radial-gradient-16-occl-2); stroke: #1b3f1c; stroke-miterlimit: 10; stroke-width: .5px;" />
      <path id="emax-crown" d="M22.97,3.84c.82-.1,1.72-.16,2.63-.2.93.02,1.86.15,2.74.34,1.14.31,2.29.89,3.28,1.67.62.44,1.16.84,1.77,1.35.91.75,1.79,1.68,2.45,2.92.71,1.05,1.35,2.2,1.72,3.46.22.49.38,1.06.62,1.64.5,1.44.9,2.76,1.18,4.23.29,1.53.45,2.32.57,3.54.18,1.67.23,3.28.32,4.99.01.59,0,1.19-.04,1.79-.08.59-.2,1.15-.37,1.69-.48.96-1.04,1.83-1.63,2.62-1.35,2.25-3.67,3.51-5.85,4.01-.42.05-.87.07-1.34.03-.47-.08-.94-.19-1.38-.29-.64-.17-1.26-.3-1.86-.41-.57-.07-1.12-.06-1.65.01-.45.12-.91.24-1.37.37-.46.16-.92.24-1.37.26-.83.2-1.68.11-2.54.25-.73-.02-1.49-.02-2.24-.09-.78-.04-1.59-.11-2.37-.35-1.4-.35-2.65-1.13-3.74-2.17-.66-.61-1.26-1.3-1.82-2.05-.59-.76-1.09-1.62-1.45-2.56-.27-.72-.45-1.48-.63-2.25-.07-.39-.09-.8-.03-1.23.11-.45.25-.9.4-1.34.25-.85.69-1.94,1.16-3.07.45-1.08.95-2.19,1.33-3.14.5-1.06.93-2.1,1.35-3.08.4-.94.76-1.85,1.13-2.75.49-1.88,1.36-3.52,2.42-4.86.97-1.54,2.29-3,3.72-3.77.9-.57,1.9-1.12,2.88-1.35h0c0,0,0-.19,0-.19Z" data-active="1" style="display: none; fill: url(#toothgen-18_occl-radial-gradient-16-occl-3); stroke: #000; stroke-miterlimit: 10;" />
      <path id="emax-onlay" d="M22.97,3.84c1.66-.22,2.62,1.1,3.77,1.55.36.16,1,.75,1.61,1.39.6.68,1.18,1.39,1.49,1.69.49.45,1.84.55,3.13.67,1.28.07,2.53.16,2.86.76.71,1.05,1.35,2.2,1.72,3.46.22.49.38,1.06.62,1.64.5,1.44-.93,1.98-.65,3.39.29,1.48,2.28,3.16,2.4,4.38.18,1.67.55,3.28-1.8,2.11-1.35-.39-1.94-.03-2.05.81-.05.43,0,.97.1,1.57.06.58.14,1.2.25,1.82.39,2.48,1.25,5.24.82,6.1-.65,1.12-1.69,1.63-2.84,1.93-.57.16-1.16.25-1.75.34-.59.07-1.19.08-1.76.06-.31-.11-1.49-2.07-2.54-3.43-1.03-1.37-1.91-2.15-1.79.07.08,2.01.01,2.47-.23,2.55-.24.11-.67-.11-1.25.6-1.22,1.68-1.37.64-1.67.54-.41.1-1.18.27-2.01.33-.82,0-1.7-.15-2.34-.52-.54-.31-.85-1.27-1.12-2.35-.29-1.09-.51-2.3-.82-2.99-.28-.5-1.08-1.27-1.95-2.09-.93-.88-1.89-1.83-2.36-2.43-.22-.32-.56-.85-.89-1.54-.23-.71-.41-1.55-.52-2.41-.19-1.61-.3-3.17.09-4.12.5-1.06.93-2.09,1.35-3.07.39-.94.75-1.85,1.11-2.74.26-.93,1.54-1.53,2.94-1.91,1.34-.4,2.74-.73,3.44-1.07.46-.19.87-1.85,1.28-3.54.42-1.71.85-3.38,1.35-3.47h0c0,0,0-.19,0-.19Z" data-active="1" style="display: none; fill: url(#toothgen-18_occl-radial-gradient-16-occl-4); stroke: #000; stroke-miterlimit: 10;" />
      <path id="emax-inlay" d="M22.97,3.84c.82-.1,1.52,1.85,2.15,3.97.63,2.14,1.18,4.48,1.73,4.78.68.41,1.55.8,2.17,1.34.93.78,6.17-5.25,6.82-4.01.71,1.05,1.35,2.2,1.72,3.46.22.49.38,1.06.62,1.64.24.71-.92.74-2.09.79-1.16.05-2.32.11-2.23.81.11.71,1.58,1.85,3.05,3.03,1.49,1.26,2.96,2.53,3.02,3.14.18,1.67.55,3.28-1.8,2.11-1.35-.39-1.94-.03-2.05.81-.05.43,0,.97.1,1.57.06.58.14,1.2.25,1.82.39,2.48,1.25,5.24.82,6.1-.65,1.12-2.91-2.31-5.31-6.1-1.19-1.87-2.41-3.8-3.47-5.28-1.17-1.48-2.1-2.39-2.63-2.25-.15.02-.23.49-.27,1.24-.03.74-.01,1.71.05,2.71.02.44.06.86.1,1.34.05.62.1,1.27.14,1.89.06,1.18.1,2.25.14,3.17.1,2.2-.04,3.08-.34,3.59-.29.53-.74.8-1.3,1.59-1.17,1.6-.65.76-.95.75-.41.1-1.18.27-2.01.33-.82,0-1.7-.15-2.34-.52-1.12-.57-.28-4.16-.69-5.56-.26-.47-.9-1.58-1.61-2.77-.4-.62-.82-1.26-1.19-1.84-.35-.62-.67-1.15-.92-1.46-.21-.32-.57-.78-.93-1.33-.35-.53-.79-1.11-1.18-1.69-.79-1.11-1.47-2.22-1.09-3.17.5-1.06.93-2.1,1.35-3.08.4-.94.76-1.86,1.13-2.75.27-.93,1.93.13,3.65,1.39,1.76,1.3,3.65,2.72,4.44,2.47.25-.06.4-.84.45-2.08.05-1.3.04-3,.02-4.68-.01-3.52-.03-7,.47-7.08h0c0,0,0-.19,0-.19Z" data-active="1" style="display: none; fill: url(#toothgen-18_occl-radial-gradient-16-occl-5); stroke: #000; stroke-miterlimit: 10;" />
      <path id="emax-veneer" d="M28.35,3.98c1.14.31,2.29.89,3.28,1.67.62.44,1.16.84,1.77,1.35.91.75,1.79,1.68,2.45,2.92.71,1.05,1.35,2.2,1.72,3.46.22.49.38,1.06.62,1.64.12.36-1.46.65-3.84.9-1.16.12-2.46.18-3.81.16-1.31-.1-2.72-.36-4.25-.76-.84.01-1.65.1-2.4.27-.72.11-1.44.15-2.14.14-1.44-.1-2.83-.29-4.01-.49-2.39-.38-3.99-.78-3.81-1.23.49-1.88,1.36-3.52,2.42-4.86.97-1.54,2.29-2.99,3.72-3.77.9-.57,1.9-1.12,2.88-1.35h0c0,0,.89-.1,2-.24.56-.06,1.19-.1,1.78-.09.6.05,1.15.14,1.59.27Z" data-active="1" style="display: none; fill: url(#toothgen-18_occl-radial-gradient-16-occl-6); stroke: #000; stroke-miterlimit: 10;" />
      </g>
    <g id="gradia" data-active="1">
      <path id="gradia-bridge-connector" d="M45.43,24.23c-.46,4.25-2.79,5.16-5.58,5.08-1.58-.09-3.3-.46-4.94-.78-1.68-.39-3.26-.71-4.6-.7-.85-.18-1.74-.28-2.67-.37-.48-.13-.95-.31-1.41-.47-.21-.06-.42-.08-.63-.07-.21.06-.42.14-.63.23-.89.28-1.84.54-2.91.89-1.16.4-2.38.78-3.63,1.1-2.55.55-5.2.81-7.6.45-1.12-.23-2.15-.62-3.04-1.2-.69-.63-1.2-1.45-1.54-2.47-.37-1.64-.48-3.72-.14-5.72.31-1.89,1.06-3.72,2.51-5.08,1.29-1.01,2.97-1.72,4.8-2.2,1.68-.48,3.54-.7,5.36-.81.87-.11,1.73-.25,2.59-.37.86-.2,1.72-.45,2.6-.65.91-.14,1.81-.22,2.65-.22.83.12,1.57.33,2.21.54,1.42.47,3.08.78,4.72,1.13.84.12,1.72.24,2.6.4.92.14,1.86.33,2.77.6,1.86.59,3.52,1.57,4.67,3.17,1.17,1.67,1.86,4,1.8,7.31l.06.41h0c0,0-.03-.21-.03-.21Z" data-active="1" style="display: none; fill: var(--odon-rest-gradia, #57b285); stroke: #1b3f1c; stroke-miterlimit: 10; stroke-width: .5px;" />
      <path id="gradia-crown" d="M22.97,3.84c.82-.1,1.72-.16,2.63-.2.93.02,1.86.15,2.74.34,1.14.31,2.29.89,3.28,1.67.62.44,1.16.84,1.77,1.35.91.75,1.79,1.68,2.45,2.92.71,1.05,1.35,2.2,1.72,3.46.22.49.38,1.06.62,1.64.5,1.44.9,2.76,1.18,4.23.29,1.53.45,2.32.57,3.54.18,1.67.23,3.28.32,4.99.01.59,0,1.19-.04,1.79-.08.59-.2,1.15-.37,1.69-.48.96-1.04,1.83-1.63,2.62-1.35,2.25-3.67,3.51-5.85,4.01-.42.05-.87.07-1.34.03-.47-.08-.94-.19-1.38-.29-.64-.17-1.26-.3-1.86-.41-.57-.07-1.12-.06-1.65.01-.45.12-.91.24-1.37.37-.46.16-.92.24-1.37.26-.83.2-1.68.11-2.54.25-.73-.02-1.49-.02-2.24-.09-.78-.04-1.59-.11-2.37-.35-1.4-.35-2.65-1.13-3.74-2.17-.66-.61-1.26-1.3-1.82-2.05-.59-.76-1.09-1.62-1.45-2.56-.27-.72-.45-1.48-.63-2.25-.07-.39-.09-.8-.03-1.23.11-.45.25-.9.4-1.34.25-.85.69-1.94,1.16-3.07.45-1.08.95-2.19,1.33-3.14.5-1.06.93-2.1,1.35-3.08.4-.94.76-1.85,1.13-2.75.49-1.88,1.36-3.52,2.42-4.86.97-1.54,2.29-3,3.72-3.77.9-.57,1.9-1.12,2.88-1.35h0c0,0,0-.19,0-.19Z" data-active="1" style="display: none; fill: var(--odon-rest-gradia, #57b285); stroke: #000; stroke-miterlimit: 10;" />
      <path id="gradia-onlay" d="M22.97,3.84c1.66-.22,2.62,1.1,3.77,1.55.36.16,1,.75,1.61,1.39.6.68,1.18,1.39,1.49,1.69.49.45,1.84.55,3.13.67,1.28.07,2.53.16,2.86.76.71,1.05,1.35,2.2,1.72,3.46.22.49.38,1.06.62,1.64.5,1.44-.93,1.98-.65,3.39.29,1.48,2.28,3.16,2.4,4.38.18,1.67.55,3.28-1.8,2.11-1.35-.39-1.94-.03-2.05.81-.05.43,0,.97.1,1.57.06.58.14,1.2.25,1.82.39,2.48,1.25,5.24.82,6.1-.65,1.12-1.69,1.63-2.84,1.93-.57.16-1.16.25-1.75.34-.59.07-1.19.08-1.76.06-.31-.11-1.49-2.07-2.54-3.43-1.03-1.37-1.91-2.15-1.79.07.08,2.01.01,2.47-.23,2.55-.24.11-.67-.11-1.25.6-1.22,1.68-1.37.64-1.67.54-.41.1-1.18.27-2.01.33-.82,0-1.7-.15-2.34-.52-.54-.31-.85-1.27-1.12-2.35-.29-1.09-.51-2.3-.82-2.99-.28-.5-1.08-1.27-1.95-2.09-.93-.88-1.89-1.83-2.36-2.43-.22-.32-.56-.85-.89-1.54-.23-.71-.41-1.55-.52-2.41-.19-1.61-.3-3.17.09-4.12.5-1.06.93-2.09,1.35-3.07.39-.94.75-1.85,1.11-2.74.26-.93,1.54-1.53,2.94-1.91,1.34-.4,2.74-.73,3.44-1.07.46-.19.87-1.85,1.28-3.54.42-1.71.85-3.38,1.35-3.47h0c0,0,0-.19,0-.19Z" data-active="1" style="display: none; fill: var(--odon-rest-gradia, #57b285); stroke: #000; stroke-miterlimit: 10;" />
      <path id="gradia-inlay" d="M22.97,3.84c.82-.1,1.52,1.85,2.15,3.97.63,2.14,1.18,4.48,1.73,4.78.68.41,1.55.8,2.17,1.34.93.78,6.17-5.25,6.82-4.01.71,1.05,1.35,2.2,1.72,3.46.22.49.38,1.06.62,1.64.24.71-.92.74-2.09.79-1.16.05-2.32.11-2.23.81.11.71,1.58,1.85,3.05,3.03,1.49,1.26,2.96,2.53,3.02,3.14.18,1.67.55,3.28-1.8,2.11-1.35-.39-1.94-.03-2.05.81-.05.43,0,.97.1,1.57.06.58.14,1.2.25,1.82.39,2.48,1.25,5.24.82,6.1-.65,1.12-2.91-2.31-5.31-6.1-1.19-1.87-2.41-3.8-3.47-5.28-1.17-1.48-2.1-2.39-2.63-2.25-.15.02-.23.49-.27,1.24-.03.74-.01,1.71.05,2.71.02.44.06.86.1,1.34.05.62.1,1.27.14,1.89.06,1.18.1,2.25.14,3.17.1,2.2-.04,3.08-.34,3.59-.29.53-.74.8-1.3,1.59-1.17,1.6-.65.76-.95.75-.41.1-1.18.27-2.01.33-.82,0-1.7-.15-2.34-.52-1.12-.57-.28-4.16-.69-5.56-.26-.47-.9-1.58-1.61-2.77-.4-.62-.82-1.26-1.19-1.84-.35-.62-.67-1.15-.92-1.46-.21-.32-.57-.78-.93-1.33-.35-.53-.79-1.11-1.18-1.69-.79-1.11-1.47-2.22-1.09-3.17.5-1.06.93-2.1,1.35-3.08.4-.94.76-1.86,1.13-2.75.27-.93,1.93.13,3.65,1.39,1.76,1.3,3.65,2.72,4.44,2.47.25-.06.4-.84.45-2.08.05-1.3.04-3,.02-4.68-.01-3.52-.03-7,.47-7.08h0c0,0,0-.19,0-.19Z" data-active="1" style="display: none; fill: var(--odon-rest-gradia, #57b285); stroke: #000; stroke-miterlimit: 10;" />
      <path id="gradia-veneer" d="M28.35,3.98c1.14.31,2.29.89,3.28,1.67.62.44,1.16.84,1.77,1.35.91.75,1.79,1.68,2.45,2.92.71,1.05,1.35,2.2,1.72,3.46.22.49.38,1.06.62,1.64.12.36-1.46.65-3.84.9-1.16.12-2.46.18-3.81.16-1.31-.1-2.72-.36-4.25-.76-.84.01-1.65.1-2.4.27-.72.11-1.44.15-2.14.14-1.44-.1-2.83-.29-4.01-.49-2.39-.38-3.99-.78-3.81-1.23.49-1.88,1.36-3.52,2.42-4.86.97-1.54,2.29-2.99,3.72-3.77.9-.57,1.9-1.12,2.88-1.35h0c0,0,.89-.1,2-.24.56-.06,1.19-.1,1.78-.09.6.05,1.15.14,1.59.27Z" data-active="1" style="display: none; fill: var(--odon-rest-gradia, #57b285); stroke: #000; stroke-miterlimit: 10;" />
      </g>
    <g id="temporary-restorations" data-active="1">
      <path id="temporary-bridge-connector" d="M45.43,24.23c-.46,4.25-2.79,5.16-5.58,5.08-1.58-.09-3.3-.46-4.94-.78-1.68-.39-3.26-.71-4.6-.7-.85-.18-1.74-.28-2.67-.37-.48-.13-.95-.31-1.41-.47-.21-.06-.42-.08-.63-.07-.21.06-.42.14-.63.23-.89.28-1.84.54-2.91.89-1.16.4-2.38.78-3.63,1.1-2.55.55-5.2.81-7.6.45-1.12-.23-2.15-.62-3.04-1.2-.69-.63-1.2-1.45-1.54-2.47-.37-1.64-.48-3.72-.14-5.72.31-1.89,1.06-3.72,2.51-5.08,1.29-1.01,2.97-1.72,4.8-2.2,1.68-.48,3.54-.7,5.36-.81.87-.11,1.73-.25,2.59-.37.86-.2,1.72-.45,2.6-.65.91-.14,1.81-.22,2.65-.22.83.12,1.57.33,2.21.54,1.42.47,3.08.78,4.72,1.13.84.12,1.72.24,2.6.4.92.14,1.86.33,2.77.6,1.86.59,3.52,1.57,4.67,3.17,1.17,1.67,1.86,4,1.8,7.31l.06.41h0c0,0-.03-.21-.03-.21Z" data-active="1" style="display: none; fill: var(--odon-rest-temporary, #fff); stroke: #1b3f1c; stroke-miterlimit: 10; stroke-width: .5px;" />
      <path id="temporary-crown" d="M22.97,3.84c.82-.1,1.72-.16,2.63-.2.93.02,1.86.15,2.74.34,1.14.31,2.29.89,3.28,1.67.62.44,1.16.84,1.77,1.35.91.75,1.79,1.68,2.45,2.92.71,1.05,1.35,2.2,1.72,3.46.22.49.38,1.06.62,1.64.5,1.44.9,2.76,1.18,4.23.29,1.53.45,2.32.57,3.54.18,1.67.23,3.28.32,4.99.01.59,0,1.19-.04,1.79-.08.59-.2,1.15-.37,1.69-.48.96-1.04,1.83-1.63,2.62-1.35,2.25-3.67,3.51-5.85,4.01-.42.05-.87.07-1.34.03-.47-.08-.94-.19-1.38-.29-.64-.17-1.26-.3-1.86-.41-.57-.07-1.12-.06-1.65.01-.45.12-.91.24-1.37.37-.46.16-.92.24-1.37.26-.83.2-1.68.11-2.54.25-.73-.02-1.49-.02-2.24-.09-.78-.04-1.59-.11-2.37-.35-1.4-.35-2.65-1.13-3.74-2.17-.66-.61-1.26-1.3-1.82-2.05-.59-.76-1.09-1.62-1.45-2.56-.27-.72-.45-1.48-.63-2.25-.07-.39-.09-.8-.03-1.23.11-.45.25-.9.4-1.34.25-.85.69-1.94,1.16-3.07.45-1.08.95-2.19,1.33-3.14.5-1.06.93-2.1,1.35-3.08.4-.94.76-1.85,1.13-2.75.49-1.88,1.36-3.52,2.42-4.86.97-1.54,2.29-3,3.72-3.77.9-.57,1.9-1.12,2.88-1.35h0c0,0,0-.19,0-.19Z" data-active="1" style="display: none; fill: var(--odon-rest-temporary, #fff); stroke: #000; stroke-miterlimit: 10;" />
      <path id="temporary-onlay" d="M22.97,3.84c1.66-.22,2.62,1.1,3.77,1.55.36.16,1,.75,1.61,1.39.6.68,1.18,1.39,1.49,1.69.49.45,1.84.55,3.13.67,1.28.07,2.53.16,2.86.76.71,1.05,1.35,2.2,1.72,3.46.22.49.38,1.06.62,1.64.5,1.44-.93,1.98-.65,3.39.29,1.48,2.28,3.16,2.4,4.38.18,1.67.55,3.28-1.8,2.11-1.35-.39-1.94-.03-2.05.81-.05.43,0,.97.1,1.57.06.58.14,1.2.25,1.82.39,2.48,1.25,5.24.82,6.1-.65,1.12-1.69,1.63-2.84,1.93-.57.16-1.16.25-1.75.34-.59.07-1.19.08-1.76.06-.31-.11-1.49-2.07-2.54-3.43-1.03-1.37-1.91-2.15-1.79.07.08,2.01.01,2.47-.23,2.55-.24.11-.67-.11-1.25.6-1.22,1.68-1.37.64-1.67.54-.41.1-1.18.27-2.01.33-.82,0-1.7-.15-2.34-.52-.54-.31-.85-1.27-1.12-2.35-.29-1.09-.51-2.3-.82-2.99-.28-.5-1.08-1.27-1.95-2.09-.93-.88-1.89-1.83-2.36-2.43-.22-.32-.56-.85-.89-1.54-.23-.71-.41-1.55-.52-2.41-.19-1.61-.3-3.17.09-4.12.5-1.06.93-2.09,1.35-3.07.39-.94.75-1.85,1.11-2.74.26-.93,1.54-1.53,2.94-1.91,1.34-.4,2.74-.73,3.44-1.07.46-.19.87-1.85,1.28-3.54.42-1.71.85-3.38,1.35-3.47h0c0,0,0-.19,0-.19Z" data-active="1" style="display: none; fill: var(--odon-rest-temporary, #fff); stroke: #000; stroke-miterlimit: 10;" />
      <path id="temporary-inlay" d="M22.97,3.84c.82-.1,1.52,1.85,2.15,3.97.63,2.14,1.18,4.48,1.73,4.78.68.41,1.55.8,2.17,1.34.93.78,6.17-5.25,6.82-4.01.71,1.05,1.35,2.2,1.72,3.46.22.49.38,1.06.62,1.64.24.71-.92.74-2.09.79-1.16.05-2.32.11-2.23.81.11.71,1.58,1.85,3.05,3.03,1.49,1.26,2.96,2.53,3.02,3.14.18,1.67.55,3.28-1.8,2.11-1.35-.39-1.94-.03-2.05.81-.05.43,0,.97.1,1.57.06.58.14,1.2.25,1.82.39,2.48,1.25,5.24.82,6.1-.65,1.12-2.91-2.31-5.31-6.1-1.19-1.87-2.41-3.8-3.47-5.28-1.17-1.48-2.1-2.39-2.63-2.25-.15.02-.23.49-.27,1.24-.03.74-.01,1.71.05,2.71.02.44.06.86.1,1.34.05.62.1,1.27.14,1.89.06,1.18.1,2.25.14,3.17.1,2.2-.04,3.08-.34,3.59-.29.53-.74.8-1.3,1.59-1.17,1.6-.65.76-.95.75-.41.1-1.18.27-2.01.33-.82,0-1.7-.15-2.34-.52-1.12-.57-.28-4.16-.69-5.56-.26-.47-.9-1.58-1.61-2.77-.4-.62-.82-1.26-1.19-1.84-.35-.62-.67-1.15-.92-1.46-.21-.32-.57-.78-.93-1.33-.35-.53-.79-1.11-1.18-1.69-.79-1.11-1.47-2.22-1.09-3.17.5-1.06.93-2.1,1.35-3.08.4-.94.76-1.86,1.13-2.75.27-.93,1.93.13,3.65,1.39,1.76,1.3,3.65,2.72,4.44,2.47.25-.06.4-.84.45-2.08.05-1.3.04-3,.02-4.68-.01-3.52-.03-7,.47-7.08h0c0,0,0-.19,0-.19Z" data-active="1" style="display: none; fill: var(--odon-rest-temporary, #fff); stroke: #000; stroke-miterlimit: 10;" />
      <path id="temporary-veneer" d="M28.35,3.98c1.14.31,2.29.89,3.28,1.67.62.44,1.16.84,1.77,1.35.91.75,1.79,1.68,2.45,2.92.71,1.05,1.35,2.2,1.72,3.46.22.49.38,1.06.62,1.64.12.36-1.46.65-3.84.9-1.16.12-2.46.18-3.81.16-1.31-.1-2.72-.36-4.25-.76-.84.01-1.65.1-2.4.27-.72.11-1.44.15-2.14.14-1.44-.1-2.83-.29-4.01-.49-2.39-.38-3.99-.78-3.81-1.23.49-1.88,1.36-3.52,2.42-4.86.97-1.54,2.29-2.99,3.72-3.77.9-.57,1.9-1.12,2.88-1.35h0c0,0,.89-.1,2-.24.56-.06,1.19-.1,1.78-.09.6.05,1.15.14,1.59.27Z" data-active="1" style="display: none; fill: var(--odon-rest-temporary, #fff); stroke: #000; stroke-miterlimit: 10;" />
      </g>
    </g>
  <g id="ortho" data-active="1">
    <g id="missing-closed" data-active="1" style="display: none;">
      <path d="M13.23,6.13c2.18,1.21,3.98,2.43,5.42,3.61,1.41,1.17,2.56,2.37,3.49,3.59.93,1.25,1.59,2.57,2.06,3.85.45,1.32.6,2.71.46,4.13-.08.73-.22,1.46-.42,2.19-.16.71-.35,1.39-.56,2.06-.19.64-.44,1.25-.8,1.92-.4.71-.88,1.45-1.42,2.19-1.05,1.44-2.36,2.92-4.03,4.56-.83.81-1.73,1.61-2.69,2.41-.96.74-1.99,1.45-3.09,2.13" data-active="1" style="fill: none; stroke: #000; stroke-miterlimit: 10; stroke-width: 2px;" />
      <path d="M39.43,37.61c-2.32-1.22-4.3-2.51-5.95-3.87-1.65-1.45-3-2.89-4.07-4.39-2.09-2.78-3-5.63-2.95-8.5.03-2.83,1.08-5.6,2.95-8.14.95-1.25,2.07-2.48,3.37-3.64,1.32-1.2,2.83-2.38,4.57-3.58" data-active="1" style="fill: none; stroke: #000; stroke-miterlimit: 10; stroke-width: 2px;" />
      </g>
    <path id="ortho-ring" d="M23.21,3.52c.79-.1,1.66-.16,2.57-.18.92.03,1.85.17,2.73.38,1.13.32,2.28.89,3.2,1.64.62.44,1.17.84,1.71,1.33.92.75,1.8,1.68,2.39,2.93.63,1.07,1.25,2.23,1.67,3.5.28.49.36,1.07.6,1.64.48,1.43.89,2.74,1.16,4.2.29,1.52.44,2.3.48,3.51.22,1.66.17,3.26.31,4.95.02,1.18-.06,2.39-.32,3.51-.43.99-.98,1.87-1.54,2.66-1.37,2.25-3.7,3.5-5.8,4.01-.42.06-.85.08-1.3.05-.46-.07-.93-.17-1.41-.29-.64-.17-1.25-.29-1.83-.39-.56-.07-1.09-.07-1.62-.02-.45.1-.89.2-1.32.32-.44.15-.88.23-1.32.26-.75.18-1.68.12-2.45.26-.73-.01-1.47-.01-2.19-.09-.74-.05-1.49-.14-2.23-.4-1.38-.35-2.63-1.13-3.72-2.17-.66-.6-1.28-1.29-1.83-2.03-.58-.77-1.05-1.63-1.37-2.59-.28-.72-.51-1.48-.68-2.26-.04-.41-.01-.84.07-1.28.12-.45.25-.9.38-1.33.25-.84.68-1.92,1.13-3.04.44-1.07.92-2.16,1.26-3.1.5-1.05.92-2.06,1.34-3.03.38-.93.72-1.84,1.06-2.74.46-1.89,1.33-3.51,2.36-4.88.48-.77,1.02-1.54,1.63-2.19.62-.65,1.29-1.21,1.99-1.67.91-.59,1.92-1.12,2.84-1.3h0v-.19c0,0-.23.03-.23.03Z" data-active="1" style="display: none; fill: none; stroke: #737373; stroke-miterlimit: 10; stroke-width: 2px;" />
    <g id="ortho-bracket" style="display: none;" data-active="1">
      <ellipse cx="24.4" cy="3.40" rx="5.4" ry="1.6" style="fill: #bfbfbf;" data-active="1" />
      <path d="M25.85,5.22l-2.31.33c-.46-.01-.85-.45-.86-1.07,0-.59.32-1.3.94-1.49,1.06-.14,2.12-.27,3.2-.33,1.07.05,2.11.22,3.11.47.51.14.95.87.94,1.59-.01.72-.37,1.22-.95,1.04l-2.04-.51" style="fill: none; stroke: #737373; stroke-linecap: round; stroke-linejoin: round; stroke-width: .8px;" data-active="1" />
      </g>
    <g id="arrows" data-active="1">
      <g id="arrow-distal" style="display: none;" data-active="1">
        <line x1="4.7" y1="16.8" x2="1.2" y2="20.4" style="fill: none; stroke: #2e3192; stroke-miterlimit: 10; stroke-width: .8px;" data-active="1" />
        <line x1="7.2" y1="20.6" x2="1.1" y2="20.6" style="fill: none; stroke: #2e3192; stroke-miterlimit: 10; stroke-width: .8px;" data-active="1" />
        <line x1="4.7" y1="24.2" x2="1.2" y2="20.6" style="fill: none; stroke: #2e3192; stroke-miterlimit: 10; stroke-width: .8px;" data-active="1" />
        </g>
      <g id="arrow-mesial" style="display: none;" data-active="1">
        <line x1="43.3" y1="24.2" x2="47.6" y2="20.6" style="fill: none; stroke: #2e3192; stroke-miterlimit: 10; stroke-width: .8px;" data-active="1" />
        <line x1="40.2" y1="20.4" x2="47.8" y2="20.4" style="fill: none; stroke: #2e3192; stroke-miterlimit: 10; stroke-width: .8px;" data-active="1" />
        <line x1="43.3" y1="16.8" x2="47.6" y2="20.4" style="fill: none; stroke: #2e3192; stroke-miterlimit: 10; stroke-width: .8px;" data-active="1" />
        </g>
      <g id="arrow-rotation" style="display: none;" data-active="1">
        <path d="M41.97,38.59c-.17,0-.67-.38-.82-1.03-.14-.66-.04-.84.05-1.03" style="fill: none; stroke: #2e3192; stroke-miterlimit: 10; stroke-width: .8px;" data-active="1" />
        <path d="M40.99,34.18c1.18-1.22,5.13-.73,4.3,2.09-.55,3.27-6.85,0-2.82-.38" style="fill: none; stroke: #2e3192; stroke-miterlimit: 10; stroke-width: .8px;" data-active="1" />
        </g>
      </g>
    </g>
  <g id="plan" data-active="1">
    <g id="extraction-plan" data-active="1" style="display: none;">
      <path d="M11.46,38.4c.16-.27.72-.95,1.59-1.96.89-1.1,2.13-2.61,3.58-4.34,1.47-1.75,3.14-3.75,4.88-5.75.77-1.05,1.62-2.15,2.61-3.23,1-1.03,1.93-2.04,2.74-3.01.74-.91,1.45-1.74,2.18-2.54.76-.89,1.51-1.77,2.23-2.61,1.44-1.66,2.77-3.22,3.94-4.58,2.5-2.89,4.28-4.96,4.49-5.28" data-active="1" style="fill: none; stroke: #b70000; stroke-miterlimit: 10; stroke-width: 3px;" />
      <path d="M13.53,5.18c.33.26.9.83,1.63,1.64.73.8,1.61,1.84,2.55,2.97.91,1.14,1.93,2.47,3,3.85,1.08,1.4,2.22,2.9,3.39,4.29,1.17,1.54,2.41,3.22,3.72,4.9,1.36,1.79,2.47,3.4,3.6,4.95,2.12,3,3.89,5.59,4.73,6.98.56.98,1.22,1.85,2.06,2.62" data-active="1" style="fill: none; stroke: #b70000; stroke-miterlimit: 10; stroke-width: 3px;" />
      </g>
    <g id="crown-needed" data-active="1" style="display: none;">
      <path id="crown-needed-shape" d="M22.98,3.27c.82-.11,1.73-.17,2.67-.2.94.02,1.9.15,2.77.35,1.21.32,2.37.87,3.36,1.64.62.44,1.17.84,1.78,1.35.92.75,1.88,1.68,2.47,2.93.7,1.07,1.32,2.24,1.73,3.52.28.49.35,1.07.59,1.65.48,1.43.88,2.73,1.17,4.27.31,1.61.43,2.29.46,3.49.24,1.65.18,3.24.33,5.03.03,1.17-.04,2.4-.3,3.55-.19.54-.44,1.02-.73,1.47-.29.44-.57.87-.85,1.29-1.38,2.24-3.81,3.49-5.98,4.1-.46.06-.91.08-1.37.05-.47-.08-.94-.18-1.43-.3-.68-.19-1.31-.32-1.9-.43-.57-.07-1.12-.06-1.68,0-.45.12-.91.26-1.36.4-.46.16-.92.23-1.37.25-.83.2-1.69.11-2.54.25-.77-.02-1.54-.01-2.28-.08-.78-.02-1.58-.09-2.38-.33-1.41-.35-2.77-1.13-3.87-2.19-.71-.61-1.32-1.31-1.88-2.07-.58-.79-1.05-1.69-1.4-2.71-.26-.73-.48-1.49-.66-2.27-.04-.41,0-.84.1-1.28.13-.45.27-.9.4-1.33.25-.83.68-1.91,1.15-3.04.45-1.08.96-2.2,1.35-3.19.5-1.05.92-2.07,1.35-3.05.4-.94.77-1.88,1.15-2.82.46-1.89,1.43-3.51,2.46-4.97.49-.77,1.05-1.53,1.69-2.18.64-.65,1.36-1.22,2.1-1.66.91-.57,1.99-1.11,2.98-1.32h0v-.19l-.23.04c0,0,.15-.02.15-.02Z" data-active="1" style="fill: #c83014; stroke: #000; stroke-miterlimit: 10;" />
      <path id="crown-needed-path" d="M24.08,3.9c-.61.98-1.19,2.05-1.75,3.16-.54,1.11-1.07,2.21-1.6,3.25-.53.95-1.06,1.87-1.6,2.74-.61.78-1.24,1.54-1.87,2.31-.51.64-1.58,1.32-2.48,2.07-.95.79-1.65,1.68-1.31,2.6.54.69,1.34.35,2.14-.25.78-.57,1.53-1.36,2.04-1.74.62-.48,1.17-.98,1.65-1.51.45-.54.86-1.11,1.27-1.69.76-1.25,1.49-2.63,2.27-4.09.84-1.53,1.81-2.93,2.95-4.15.57-.58,1.18-1.09,1.84-1.53.65-.4,1.32-.67,2.02-.81.44-.06.8.05.94.3.14.25.14.76-.01,1.22-.6,1.73-1.59,3.43-2.81,5.03-.64.88-1.33,1.79-2.03,2.7-.71.95-1.44,1.97-2.09,3.05-.65.91-1.38,1.71-2.13,2.5-.46.37-.97.76-1.48,1.17-.54.45-1.07.92-1.59,1.42-1.01,1.04-1.91,2.1-2.74,3.2-.42.56-.74,1.11-.94,1.63-.18.5-.35,1.01-.49,1.5-.58,1.82-.94,3.23-1.11,4.29-.16,1.03-.18,1.76-.09,2.23.17.93.84.86,1.77.16,1.87-1.44,4.76-5.32,6.44-8.69.32-.66.67-1.4,1.14-2.21.55-.8,1.15-1.62,1.75-2.41,1.06-1.51,2.02-3.09,3.02-4.55,1.93-2.85,4.04-5.55,6.01-7.28,1.25-.73,1.62.02,1.61,1.09.01,1.03-.31,2.39-.52,3.01-.32,1.55-1.08,3.01-2.07,4.48-.5.74-1.04,1.46-1.58,2.18-.53.75-1.08,1.57-1.69,2.43-.69.85-1.46,1.64-2.18,2.36-.36.32-.69.62-.99.89-.28.27-.51.61-.73,1.02-.92,1.61-1.56,3.29-1.59,4.98.26,1.23.96,1.13,1.88.24.22-.21.46-.41.71-.61.25-.16.53-.33.83-.5.62-.36,1.3-.9,1.99-1.58.7-.73,1.44-1.59,2.2-2.48.39-.46.77-.92,1.11-1.4.31-.5.57-1.01.8-1.5.84-1.9,1.48-3.36,1.88-3.92.62-.95,2.5-3.21,2.99-1.06.19.94.2,1.93.09,2.96-.13,1.05-.41,2.14-.74,3.24-.16.57-.33,1.13-.54,1.69-.24.54-.54,1.05-.89,1.51-.82.81-1.6,1.53-2.23,2.23-.73,1.05-1.61,2.1-1.81,3.38.39,1.36,2.2.3,4.13-1.25,1.06-.73,2.22-1.56,3.12-2.32.77-.87,1.24-1.66,1.41-1.99" data-active="1" style="fill: #feffbf; stroke: #1b3f1c; stroke-miterlimit: 10;" />
      </g>
    <g id="crown-replace" data-active="1" style="display: none;">
      <path id="crown-replace-shape" d="M23.05,4.32c.78-.1,1.66-.16,2.57-.19.92.03,1.85.16,2.73.36,1.14.31,2.22.87,3.2,1.65.62.44,1.09.84,1.69,1.34.91.76,1.79,1.58,2.38,2.8.64,1.04,1.29,2.09,1.75,3.34.3.49.38,1.07.61,1.56.48,1.35.89,2.68,1.15,4.05.27,1.43.43,2.22.46,3.44.19,1.56.15,3.17.28,4.76,0,1.12-.08,2.28-.34,3.36-.41.97-.95,1.83-1.52,2.62-1.38,2.15-3.64,3.41-5.82,3.81-.85.06-1.74-.03-2.62-.22-.64-.17-1.25-.28-1.82-.38-.56-.06-1.09-.06-1.63-.01-.45.11-.89.21-1.33.33-.44.14-.88.21-1.32.24-.75.19-1.67.12-2.45.26-.74,0-1.48.01-2.2-.05-.76-.02-1.52-.08-2.27-.29-1.4-.35-2.64-1.07-3.63-2.14-.66-.56-1.24-1.23-1.78-1.95-.56-.75-1.02-1.59-1.38-2.49-.28-.72-.5-1.45-.68-2.2-.05-.39-.03-.8.04-1.22.11-.44.23-.87.36-1.31.25-.84.67-1.9,1.11-2.98.43-1.04.89-2.09,1.22-2.98.49-1.01.9-2,1.32-2.95.39-.91.75-1.8,1.12-2.69.49-1.78,1.35-3.43,2.41-4.68.98-1.43,2.22-2.89,3.64-3.69.9-.58,1.91-1.12,2.82-1.32h0v-.2l-.23.03c0,0,.15-.02.15-.02Z" data-active="1" style="fill: none; stroke: #c83014; stroke-miterlimit: 10; stroke-width: 3px;" />
      </g>
    </g>
  </svg>
