<?xml version='1.0' encoding='utf-8'?>
<!-- Created by Zoltan Dul in 2026 - free to use with MIT license. Part of React Odontogram Modul - https://github.com/ZoliQua/React-Odontogram-Modul - SVG Version: 2.5.0 -->
<!-- toothgen: template=52 src=11 roots=1 apex=4.30 cej=34.80 occl=56.70 root_frac=0.5820 length=52.40 source="derived from 12, Bild 83 (overview)" -->
<svg data-tooth-template="52" data-root-count="1" xmlns="http://www.w3.org/2000/svg" id="incisor_x5F_tooth" version="1.1" viewBox="0.0 0.0 39.7 64.7">
  <style>
    [data-active="0"] { display: none; }
  </style>
  <defs>
    <linearGradient id="toothgen-52-linear-gradient-11-0" x1="18.9" y1="5075.6" x2="22.2" y2="5075.6" gradientTransform="translate(0 -5054.6587)" gradientUnits="userSpaceOnUse" data-active="1">
      <stop offset=".2" stop-color="#ff422a" stop-opacity=".5" data-active="1" />
      <stop offset="1" stop-color="#000" data-active="1" />
      </linearGradient>
    <linearGradient id="toothgen-52-linear-gradient-11-1" x1="-20940.4" y1="-5727.6" x2="-20937.1" y2="-5727.6" gradientTransform="translate(-20728.2156 -6363.5836) rotate(-178.2)" gradientUnits="userSpaceOnUse" data-active="1">
      <stop offset=".2" stop-color="#ff422a" stop-opacity=".5" data-active="1" />
      <stop offset="1" stop-color="#000" data-active="1" />
      </linearGradient>
    <linearGradient id="toothgen-52-linear-gradient-11-2" x1="-162.4" y1="5399.8" x2="-159.1" y2="5399.8" gradientTransform="translate(11.1779 -5385.7996) rotate(-1.8)" gradientUnits="userSpaceOnUse" data-active="1">
      <stop offset=".2" stop-color="#ff422a" stop-opacity=".5" data-active="1" />
      <stop offset="1" stop-color="#000" data-active="1" />
      </linearGradient>
    <linearGradient id="toothgen-52-linear-gradient-11-3" x1="-20612.6" y1="-6345.1" x2="-20609.3" y2="-6345.1" gradientTransform="translate(-20760.2214 -5752.7168) rotate(178.4)" gradientUnits="userSpaceOnUse" data-active="1">
      <stop offset=".2" stop-color="#ff422a" stop-opacity=".5" data-active="1" />
      <stop offset="1" stop-color="#000" data-active="1" />
      </linearGradient>
    <linearGradient id="toothgen-52-linear-gradient-11-4" x1="-2021.8" y1="7829.2" x2="-2018.5" y2="7829.2" gradientTransform="translate(-294.3261 -8067.5315) rotate(-16.7)" gradientUnits="userSpaceOnUse" data-active="1">
      <stop offset=".2" stop-color="#ff422a" stop-opacity=".5" data-active="1" />
      <stop offset="1" stop-color="#000" data-active="1" />
      </linearGradient>
    <linearGradient id="toothgen-52-linear-gradient-11-5" x1="-21076.3" y1="216.4" x2="-21073" y2="216.4" gradientTransform="translate(-19839.0975 -11953.7511) rotate(-148.4) scale(1.1 1)" gradientUnits="userSpaceOnUse" data-active="1">
      <stop offset=".2" stop-color="#ff422a" stop-opacity=".5" data-active="1" />
      <stop offset="1" stop-color="#000" data-active="1" />
      </linearGradient>
    <linearGradient id="toothgen-52-linear-gradient-11-6" x1="-21074.7" y1="218.9" x2="-21071.3" y2="218.9" gradientTransform="translate(-19839.0975 -11953.7511) rotate(-148.4) scale(1.1 1)" gradientUnits="userSpaceOnUse" data-active="1">
      <stop offset=".2" stop-color="#ff422a" stop-opacity=".5" data-active="1" />
      <stop offset="1" stop-color="#000" data-active="1" />
      </linearGradient>
    <linearGradient id="toothgen-52-linear-gradient-11-7" x1="-7796.3" y1="10959.3" x2="-7792.9" y2="10959.3" gradientTransform="translate(-2361.8395 -13702.9537) rotate(-47.9) scale(1.1 1)" gradientUnits="userSpaceOnUse" data-active="1">
      <stop offset=".2" stop-color="#ff422a" stop-opacity=".5" data-active="1" />
      <stop offset="1" stop-color="#000" data-active="1" />
      </linearGradient>
    <linearGradient id="toothgen-52-linear-gradient-11-8" x1="18.3" y1="5076.6" x2="22.7" y2="5076.6" gradientTransform="translate(0 -5054.6587)" gradientUnits="userSpaceOnUse" data-active="1">
      <stop offset=".2" stop-color="#ff422a" stop-opacity=".5" data-active="1" />
      <stop offset="1" stop-color="#000" data-active="1" />
      </linearGradient>
    <linearGradient id="toothgen-52-linear-gradient-11-9" x1="-20940.6" y1="-5728.4" x2="-20936.2" y2="-5728.4" gradientTransform="translate(-20728.2156 -6363.5836) rotate(-178.2)" gradientUnits="userSpaceOnUse" data-active="1">
      <stop offset=".2" stop-color="#ff422a" stop-opacity=".5" data-active="1" />
      <stop offset="1" stop-color="#000" data-active="1" />
      </linearGradient>
    <linearGradient id="toothgen-52-linear-gradient-11-10" x1="-163.1" y1="5400.5" x2="-158.7" y2="5400.5" gradientTransform="translate(11.1779 -5385.7996) rotate(-1.8)" gradientUnits="userSpaceOnUse" data-active="1">
      <stop offset=".2" stop-color="#ff422a" stop-opacity=".5" data-active="1" />
      <stop offset="1" stop-color="#000" data-active="1" />
      </linearGradient>
    <linearGradient id="toothgen-52-linear-gradient-11-11" x1="-20612.6" y1="-6345.7" x2="-20608.2" y2="-6345.7" gradientTransform="translate(-20760.2214 -5752.7168) rotate(178.4)" gradientUnits="userSpaceOnUse" data-active="1">
      <stop offset=".2" stop-color="#ff422a" stop-opacity=".5" data-active="1" />
      <stop offset="1" stop-color="#000" data-active="1" />
      </linearGradient>
    <linearGradient id="toothgen-52-linear-gradient-11-12" x1="-2663.7" y1="8405.7" x2="-2659.3" y2="8405.7" gradientTransform="translate(-860.3179 -8761.9733) rotate(-23.3)" gradientUnits="userSpaceOnUse" data-active="1">
      <stop offset=".2" stop-color="#ff422a" stop-opacity=".5" data-active="1" />
      <stop offset=".7" stop-color="#9b0402" data-active="1" />
      <stop offset="1" stop-color="#6b0000" data-active="1" />
      </linearGradient>
    <linearGradient id="toothgen-52-linear-gradient-11-13" x1="-21076.9" y1="212.8" x2="-21072.7" y2="212.8" gradientTransform="translate(-19839.0975 -11953.7511) rotate(-148.4) scale(1.1 1)" gradientUnits="userSpaceOnUse" data-active="1">
      <stop offset=".2" stop-color="#ff422a" stop-opacity=".5" data-active="1" />
      <stop offset="1" stop-color="#000" data-active="1" />
      </linearGradient>
    <linearGradient id="toothgen-52-linear-gradient-11-14" x1="-21075.1" y1="216.7" x2="-21070.8" y2="216.7" gradientTransform="translate(-19839.0975 -11953.7511) rotate(-148.4) scale(1.1 1)" gradientUnits="userSpaceOnUse" data-active="1">
      <stop offset=".2" stop-color="#ff422a" stop-opacity=".5" data-active="1" />
      <stop offset="1" stop-color="#000" data-active="1" />
      </linearGradient>
    <linearGradient id="toothgen-52-linear-gradient-11-15" x1="-7795.4" y1="10959.4" x2="-7791.4" y2="10959.4" gradientTransform="translate(-2361.8395 -13702.9537) rotate(-47.9) scale(1.1 1)" gradientUnits="userSpaceOnUse" data-active="1">
      <stop offset=".2" stop-color="red" stop-opacity=".5" data-active="1" />
      <stop offset="1" stop-color="#b40000" data-active="1" />
      </linearGradient>
    <linearGradient id="toothgen-52-linear-gradient-11-16" x1="20.3" y1="3066.7" x2="20.3" y2="3076.4" gradientTransform="translate(0 -3026.6587)" gradientUnits="userSpaceOnUse" data-active="1">
      <stop offset=".2" stop-color="#cf0" stop-opacity=".5" data-active="1" />
      <stop offset="1" stop-color="#b4c500" data-active="1" />
      </linearGradient>
    <linearGradient id="toothgen-52-linear-gradient-11-17" x1="20" y1="3062.9" x2="20" y2="3070.4" gradientTransform="translate(0 -3026.6587)" gradientUnits="userSpaceOnUse" data-active="1">
      <stop offset="0" stop-color="#c8c9c9" data-active="1" />
      <stop offset="1" stop-color="#828282" data-active="1" />
      </linearGradient>
    <radialGradient id="toothgen-52-radial-gradient-11-0" cx="21.1" cy="3077.7" fx="21.1" fy="3077.7" r="11.5" gradientTransform="matrix(1,0,0,1.04822,0,1.04740) translate(-.4 -3026.6587)" gradientUnits="userSpaceOnUse" data-active="1">
      <stop offset="0" stop-color="#fff" data-active="1" />
      <stop offset="0" stop-color="#ececec" data-active="1" />
      <stop offset=".3" stop-color="#cfcfcf" data-active="1" />
      <stop offset=".6" stop-color="#bababa" data-active="1" />
      <stop offset=".8" stop-color="#aeaeae" data-active="1" />
      <stop offset="1" stop-color="#aaa" data-active="1" />
      </radialGradient>
    <radialGradient id="toothgen-52-radial-gradient-11-1" cx="-793.3" cy="3078.8" fx="-793.3" fy="3078.8" r="10.2" gradientTransform="matrix(1,0,0,1.04822,0,1.04740) translate(1130.7437 -3026.6587) scale(1.4 1)" gradientUnits="userSpaceOnUse" data-active="1">
      <stop offset="0" stop-color="#fff" data-active="1" />
      <stop offset="0" stop-color="#fefefe" data-active="1" />
      <stop offset=".2" stop-color="#f8d6d4" data-active="1" />
      <stop offset=".3" stop-color="#f2b5b2" data-active="1" />
      <stop offset=".5" stop-color="#ee9b98" data-active="1" />
      <stop offset=".6" stop-color="#eb8985" data-active="1" />
      <stop offset=".8" stop-color="#e97e79" data-active="1" />
      <stop offset="1" stop-color="#e97b76" data-active="1" />
      </radialGradient>
    <linearGradient id="toothgen-52-linear-gradient-11-18" x1="19.5" y1="3084" x2="19.5" y2="3074.3" gradientTransform="translate(0 -3026.6587)" gradientUnits="userSpaceOnUse" data-active="1">
      <stop offset="0" stop-color="#f9ae94" data-active="1" />
      <stop offset=".5" stop-color="#cd986a" data-active="1" />
      <stop offset="1" stop-color="#f9ae94" data-active="1" />
      </linearGradient>
    <radialGradient id="toothgen-52-radial-gradient-11-2" cx="19.5" cy="18.5" fx="19.5" fy="18.5" r="13.1" gradientTransform="matrix(1,0,0,1.04822,0,1.04740) translate(0 70.9) scale(1 -1)" gradientUnits="userSpaceOnUse" data-active="1">
      <stop offset="0" stop-color="#feff5f" data-active="1" />
      <stop offset="0" stop-color="#f9fc60" data-active="1" />
      <stop offset=".2" stop-color="#ecf564" data-active="1" />
      <stop offset=".4" stop-color="#d7e96c" data-active="1" />
      <stop offset=".5" stop-color="#b8d876" data-active="1" />
      <stop offset=".6" stop-color="#92c283" data-active="1" />
      <stop offset=".8" stop-color="#62a893" data-active="1" />
      <stop offset=".9" stop-color="#2b89a6" data-active="1" />
      <stop offset="1" stop-color="#0071b5" data-active="1" />
      </radialGradient>
    <radialGradient id="toothgen-52-radial-gradient-11-3" cx="19.7" cy="18.3" fx="19.7" fy="18.3" r="13.2" gradientTransform="matrix(1,0,0,1.04822,0,1.04740) translate(0 70.9) scale(1 -1)" gradientUnits="userSpaceOnUse" data-active="1">
      <stop offset="0" stop-color="#feff5f" data-active="1" />
      <stop offset="0" stop-color="#f9fc60" data-active="1" />
      <stop offset=".2" stop-color="#edf564" data-active="1" />
      <stop offset=".4" stop-color="#d9ea6b" data-active="1" />
      <stop offset=".5" stop-color="#bcda75" data-active="1" />
      <stop offset=".6" stop-color="#97c581" data-active="1" />
      <stop offset=".8" stop-color="#6aac90" data-active="1" />
      <stop offset=".9" stop-color="#368fa2" data-active="1" />
      <stop offset="1" stop-color="#0071b5" data-active="1" />
      </radialGradient>
    <radialGradient id="toothgen-52-radial-gradient-11-4" cx="19.5" cy="18.5" fx="19.5" fy="18.5" r="13.1" gradientTransform="matrix(1,0,0,1.04822,0,1.04740) translate(0 70.9) scale(1 -1)" gradientUnits="userSpaceOnUse" data-active="1">
      <stop offset="0" stop-color="#fff" data-active="1" />
      <stop offset="0" stop-color="#fdf3ea" data-active="1" />
      <stop offset=".2" stop-color="#f9d8b9" data-active="1" />
      <stop offset=".3" stop-color="#f5c18f" data-active="1" />
      <stop offset=".4" stop-color="#f2ae6c" data-active="1" />
      <stop offset=".6" stop-color="#f09f52" data-active="1" />
      <stop offset=".7" stop-color="#ef953f" data-active="1" />
      <stop offset=".9" stop-color="#ee8f33" data-active="1" />
      <stop offset="1" stop-color="#ee8d30" data-active="1" />
      </radialGradient>
    <radialGradient id="toothgen-52-radial-gradient-11-5" cx="19.7" cy="18.3" fx="19.7" fy="18.3" r="13.2" gradientTransform="matrix(1,0,0,1.04822,0,1.04740) translate(0 70.9) scale(1 -1)" gradientUnits="userSpaceOnUse" data-active="1">
      <stop offset="0" stop-color="#fff" data-active="1" />
      <stop offset="0" stop-color="#fdf3ea" data-active="1" />
      <stop offset=".2" stop-color="#f9d8b9" data-active="1" />
      <stop offset=".3" stop-color="#f5c18f" data-active="1" />
      <stop offset=".4" stop-color="#f2ae6c" data-active="1" />
      <stop offset=".6" stop-color="#f09f52" data-active="1" />
      <stop offset=".7" stop-color="#ef953f" data-active="1" />
      <stop offset=".9" stop-color="#ee8f33" data-active="1" />
      <stop offset="1" stop-color="#ee8d30" data-active="1" />
      </radialGradient>
    <radialGradient id="toothgen-52-radial-gradient-11-6" cx="20.2" cy="1056.2" fx="20.2" fy="1056.2" r="8.2" gradientTransform="matrix(1,0,0,1.04822,0,1.04740) translate(0 -998.7)" gradientUnits="userSpaceOnUse" data-active="1">
      <stop offset="0" stop-color="#fff" data-active="1" />
      <stop offset="0" stop-color="#fdf3ea" data-active="1" />
      <stop offset=".2" stop-color="#f9d8b9" data-active="1" />
      <stop offset=".3" stop-color="#f5c18f" data-active="1" />
      <stop offset=".4" stop-color="#f2ae6c" data-active="1" />
      <stop offset=".6" stop-color="#f09f52" data-active="1" />
      <stop offset=".7" stop-color="#ef953f" data-active="1" />
      <stop offset=".9" stop-color="#ee8f33" data-active="1" />
      <stop offset="1" stop-color="#ee8d30" data-active="1" />
      </radialGradient>
    <radialGradient id="toothgen-52-radial-gradient-11-7" cx="19.8" cy="1057.3" fx="19.8" fy="1057.3" r="11.5" gradientTransform="matrix(1,0,0,1.04822,0,1.04740) translate(0 70.9) scale(1 -1)" gradientUnits="userSpaceOnUse" data-active="1">
      <stop offset="0" stop-color="#fff" data-active="1" />
      <stop offset="0" stop-color="#fdf3ea" data-active="1" />
      <stop offset=".2" stop-color="#f9d8b9" data-active="1" />
      <stop offset=".3" stop-color="#f5c18f" data-active="1" />
      <stop offset=".4" stop-color="#f2ae6c" data-active="1" />
      <stop offset=".6" stop-color="#f09f52" data-active="1" />
      <stop offset=".7" stop-color="#ef953f" data-active="1" />
      <stop offset=".9" stop-color="#ee8f33" data-active="1" />
      <stop offset="1" stop-color="#ee8d30" data-active="1" />
      </radialGradient>
    </defs>
  <g id="base" data-active="1">
    <path id="bone-base" d="M1.99,-24.30L37.62,-24.30L37.62,22.70L1.99,22.70Z" data-active="1" style="fill: #fdecc5;" />
    <path id="gum-base" d="M1.99,20.70L37.62,20.70L37.62,37.70L34.62,37.70C31.15,37.70 27.68,37.30 24.21,36.80L15.40,36.80C11.93,37.30 8.46,37.70 4.99,37.70L1.99,37.70Z" data-active="1" style="fill: #f79f9a;" />
    </g>
  <g id="mods" data-active="1">
    <path id="parodontal" d="M13.86,31.87c-.03.8-.06,1.65-.05,2.41,0,.66.03,1.2.15,1.62.23.82.77,1.52,1.89,1.83,2.74.63,5.67,1.46,8.22-.21.61-.42,1.16-.85,1.58-1.34.21-.23.38-.48.5-.79.12-.33.2-.74.22-1.25.12-3.01,0-6.36.07-9.09.06-2.31.06-4.9-.39-7.23-.53-2.33-1.51-4.4-3.24-5.66-2.78-1.36-6.87-1.05-8.18,2.73-.78,2.57-.96,5.32-.94,8.15.05,2.83.23,5.74.16,8.62,0,0,.01.21.01.21Z" data-active="1" style="display: none; fill: #ffa46a;" />
    <g id="inflammation" data-active="1">
      <g id="cysta" data-active="1" style="display: none;">
        <path id="cysta-outside" d="M11.99,5.55c-1.09,1.26-1.63,3.56-1.59,5.79.18,2.23,1.09,4.38,2.4,5.32,2.59,1.89,3.91,1.89,5.61,2.1,1.62.21,3.86.08,5.88-.88,2.05-.96,3.88-2.74,4.47-5.83.27-3.77-1.17-6.13-3.11-7.51-1.89-1.38-4.44-1.77-6.52-1.61-2.22,0-5.33.52-7.07,2.73h0Z" data-active="1" style="fill: #ffa46a;" />
        <path id="cysta-inside" d="M13.09,6.08c-.94,1.15-1.38,3.22-1.32,5.2.15,1.98.89,3.87,1.95,4.65,2.1,1.57,3.43,1.57,4.76,1.89,2.8.31,7.74-.42,8.85-5.87.31-3.51-.88-5.66-2.52-6.91-1.6-1.24-3.78-1.59-5.6-1.48-1.85,0-4.52.42-6.04,2.41h-.07,0Z" data-active="1" style="fill: #feffd5;" />
        </g>
      <g id="granuloma" data-active="1" style="display: none;">
        <path id="granuloma-outside" d="M13.87,4.93c-.82,1.05-1.19,2.99-1.15,4.86.08,1.87.71,3.68,1.75,4.47,2.09,1.57,3.04,1.57,4.38,1.78,1.3.16,3.08.05,4.66-.73,1.59-.79,2.97-2.25,3.33-4.82.16-3.25-.92-5.27-2.41-6.45-1.47-1.18-3.45-1.52-5.08-1.42-1.7,0-4.15.42-5.49,2.31Z" data-active="1" style="fill: #ffa46a;" />
        <path id="granuloma-inside" d="M14.67,5.66c-1.44,1.78-1.13,6.29.44,7.55,1.6,1.26,2.63,1.26,3.66,1.36,2.22.31,5.97-.31,6.64-4.51.54-5.35-3.39-6.6-6.05-6.39-1.41,0-3.48.31-4.61,1.89h0Z" data-active="1" style="fill: #feffd5;" />
        </g>
      <g id="abscess" data-active="1" style="display: none;">
        <path id="abscess-inside" d="M13.44,6.5c-.72.73-1.79-1.68-4.48,1.26-2.96,2.94,3.15,2.1,3.3,4.72.33,2.62-1.8,2.94-1.31,3.35.5.42,5.2-1.89,5.59-1.78.88.42,1.59.42,2.31.52,1.03.1,2.39,0,3.58-.42,1.2-.42,2.07.31,2.63-.42.56-.73,5.97-.63,5.78-1.47-.22-.84-3.63-3.04-3.59-3.56.07-.94,2.43-3.46,2.27-4.09-.15-.63-4.69,1.78-5.16,1.26-.46-.52-.25-1.78-.55-1.99-.52-.31-1.33,0-1.93-.21-.59-.21-1.7-.42-2.44-.42-.74,0-1.85.21-2.89.63-1.04.42-1.34.94-1.79,1.57l-1.02-1.05-.29,1.99h0Z" data-active="1" style="fill: #feffd5; stroke: #ffa46a; stroke-miterlimit: 10;" />
        </g>
      </g>
    <g id="mobility" data-active="1" style="display: none;">
      <path id="tooth-mobility-2" d="M23.9,16.35l2.66-1.78c-.85,1.89-1.64,3.77-2.51,5.66l2.88-1.89c-1.16,2.2-2.23,4.51-3.25,6.81,1.02-.42,2.06-.94,3.18-1.36-.95,1.68-1.93,3.35-2.79,5.03.62-.31,1.24-.52,1.86-.73-.58,1.36-1.11,2.62-1.69,3.88.74-.63,1.54-1.05,2.34-1.36-.66,1.26-1.23,2.68-1.76,4.01.51-.28,1.02-.48,1.54-.58-.29.49-.56.93-.84,1.32-.27.35-.54.66-.83.98" data-active="1" style="fill: none; stroke: #f99; stroke-miterlimit: 10; stroke-width: .8px;" />
      <path id="tooth-mobility-1" d="M14.12,16.35c.94-.31,1.89,0,2.7.84-1.13,1.26-2.22,2.41-3.28,3.46,1.12-.1,2.19,0,3.34.52-.98,1.15-1.92,2.41-2.81,3.77.78,0,1.58.31,2.3.73-.64.94-1.27,1.78-1.81,2.73.54,0,1.16.31,1.71.73-.6,1.26-1.13,2.62-1.59,4.14.63-.22,1.27-.45,1.91-.67-.47.61-.91,1.29-1.31,2-.41.6-.8,1.16-1.15,1.73.51.13,1.08.13,1.59,0" data-active="1" style="fill: none; stroke: #f99; stroke-miterlimit: 10; stroke-width: .8px;" />
      </g>
    </g>
  <g id="tooth-variants" data-active="1">
    <path id="no-tooth-after-extraction" d="M19.23,36.09c1.15-.38,4.84.8,5.03-.45-.04-.38-.08-.87-.11-1.49-.02-.69-.04-1.47-.05-2.27,0-1.56.03-3.29.07-5.1.08-3.62.1-7.56-.18-11.11-.95-7.1-2.52-12.63-5.59-10.85-1.55.89-2.49,2.57-3.07,4.74-.59,2.17-.68,4.82-.49,7.67.25,2.85.71,5.89,1.05,8.83.31,2.94.48,5.78.29,8.28-.03.75.29,1.28.84,1.56.55.27,1.33.34,2.22.13h0Z" data-active="1" style="display: none; fill: #fff; stroke: #f99; stroke-miterlimit: 10; stroke-width: .2px;" />
    <path id="tooth-under-gum" d="M17.43,4.19c-.62,2.31-.47,4.72-.47,7.13.05,2.2.07,4.3.19,6.5.04,1.57-.06,3.04-.38,4.4-.28,1.78-.44,4.09-.21,5.97.24,2.83,1.19,5.2,2.91,4.75,1.73-.45,4.82-.55,4.67-3.07-.12-2.52-.2-5.56-.94-7.86-.81-2.31-.13-.31-.2-.52-.41-1.05-.89-2.62-.87-3.77-.11-3.04-1.24-6.39-2.03-9.33-.31-1.68-.83-3.14-1.93-4.09" data-active="1" style="display: none; fill: #ebebeb; stroke: #c8c9c9; stroke-miterlimit: 10;" />
    <path id="tooth-broken-incisal" d="M18.24,3.98c-.91,2.36-1.46,4.93-1.83,7.56-.31,2.63-.34,5.33-.36,7.95.03,4.82-.12,9.43-.21,14.33-.04.79-.12,1.45-.22,1.98-.1.49-.23,1.01-.38,1.53-.3,1.04-.7,2.05-1.18,3.03-1.02,2.43-1.97,5.7-2.1,8.55-.19,3.48.83,6.54,3.44,7.44,2.61.9,0-4.17.57-4.45,2.17-.97,3.57,1.04,4.14,1.04.57,0,2.61-.97,3.38-1.18,2.68-.7.51,4.8,1.59,4.52,1.08-.28,2.48-1.18,2.48-2.64,0-3.76-.19-8.21-1.47-11.82-1.27-3.62-.19-.56-.32-.83-.7-1.67-1.34-4.1-1.21-5.7.04-.68.06-1.5.07-2.42.02-.9.02-1.79.02-2.68,0-1.78-.06-3.59-.15-5.4-.23-3.62-.73-7.23-1.13-10.64-.38-3.77-1.4-7.34-3.66-9.75" data-active="1" style="display: none; fill: #ebebeb; stroke: #c8c9c9; stroke-miterlimit: 10;" />
    <path id="tooth-broken-mesial-distal-incisal" d="M18.24,3.98c-.91,2.36-1.46,4.93-1.83,7.56-.31,2.63-.34,5.33-.36,7.95.03,4.82-.12,9.43-.21,14.33-.04.79-.12,1.45-.22,1.98-.1.49-.23,1.01-.38,1.53-.3,1.04-.7,2.05-1.18,3.03-.45,1.04,1.47,3.13,1.15,4.38-.32,1.25-.83,1.18-.76,1.81,0,.97.83,2.02.76,2.99,0,.7-2.61.9-2.55,1.6.19,1.88.57,3.41,1.47,4.38.89.97,1.85-1.18,3.19-1.18,1.34,0,1.15-2.43,1.97-2.43.83,0,2.42,2.02,3.19,1.95.76-.07,1.91,2.71,2.87,2.43,2.29-.7,1.91-1.11,1.91-2.5,0-1.39-1.97-1.88-2.04-3.2-.06-1.32.89-1.53.89-2.23,0-.7-.96-1.46-1.08-2.16-.19-1.32,1.53-3.13,1.15-4.31-1.27-3.62-.19-.56-.32-.83-.7-1.67-1.34-4.1-1.21-5.7.04-.66.06-1.47.07-2.38.02-.91.02-1.79.01-2.69,0-1.78-.06-3.59-.15-5.4-.23-3.62-.71-7.23-1.11-10.64-.37-3.77-1.4-7.34-3.66-9.75" data-active="1" style="display: none; fill: #ebebeb; stroke: #c8c9c9; stroke-miterlimit: 10;" />
    <path id="tooth-broken-mesial-distal" d="M18.24,3.98c-.91,2.36-1.46,4.93-1.83,7.56-.31,2.63-.34,5.33-.36,7.95.03,4.82-.12,9.43-.21,14.33-.04.79-.12,1.45-.22,1.98-.1.49-.23,1.01-.38,1.53-.3,1.04-.7,2.05-1.18,3.03-.45,1.04,1.47,3.13,1.15,4.38-.32,1.25-.83,1.18-.76,1.81,0,.97.83,2.02.76,2.99,0,.7-2.61.9-2.55,1.6.32,3.27,1.27,5.56,4.52,5.56,3.25,0,5.92.28,8.22-.42,2.29-.7,1.91-1.11,1.91-2.5,0-1.39-1.97-1.88-2.04-3.2-.06-1.32.89-1.53.89-2.23,0-.7-.96-1.46-1.08-2.16-.19-1.32,1.53-3.13,1.15-4.31-1.27-3.62-.19-.56-.32-.83-.7-1.67-1.34-4.1-1.21-5.7.04-.66.06-1.47.07-2.38.02-.91.02-1.79.02-2.69,0-1.78-.05-3.59-.15-5.4-.22-3.62-.71-7.23-1.1-10.64-.37-3.77-1.41-7.34-3.67-9.75" data-active="1" style="display: none; fill: #ebebeb; stroke: #c8c9c9; stroke-miterlimit: 10;" />
    <path id="tooth-broken-mesial-incisal" d="M18.24,3.98c-.91,2.36-1.46,4.93-1.83,7.56-.31,2.63-.34,5.33-.36,7.95.03,4.82-.12,9.43-.21,14.33-.04.79-.12,1.45-.22,1.98-.1.49-.23,1.01-.38,1.53-.3,1.04-.7,2.05-1.18,3.03-1.02,2.43-1.97,5.7-2.1,8.55-.19,4.17,1.27,7.72,5.16,7.72h4.27c1.59,0-.64-4.45.32-4.66,1.53-.42,2.42-.35,2.42-1.81,0-1.46,3.5.49,3.44-.7-.13-2.92-.51-5.08-1.4-7.65-.89-2.57-.19-.56-.32-.83-.7-1.67-1.34-4.1-1.21-5.7.04-.68.06-1.5.07-2.42.02-.9.02-1.79.02-2.68,0-1.78-.05-3.59-.15-5.4-.23-3.62-.72-7.23-1.12-10.64-.38-3.77-1.41-7.34-3.66-9.75" data-active="1" style="display: none; fill: #ebebeb; stroke: #c8c9c9; stroke-miterlimit: 10;" />
    <path id="tooth-broken-mesial" d="M18.24,3.98c-.91,2.36-1.46,4.93-1.83,7.56-.31,2.63-.34,5.33-.36,7.95.03,4.82-.12,9.43-.21,14.33-.04.79-.12,1.45-.22,1.98-.1.49-.23,1.01-.38,1.53-.3,1.04-.7,2.05-1.18,3.03-1.02,2.43-1.97,5.7-2.1,8.55-.19,4.17,1.27,7.72,5.16,7.72,3.89,0,5.92.28,8.22-.42,2.29-.7,1.91-1.11,1.91-2.5,0-1.39-1.97-1.88-2.04-3.2-.06-1.32.89-1.53.89-2.23,0-.7-.96-1.46-1.08-2.16-.19-1.32,1.53-3.13,1.15-4.31-1.27-3.62-.19-.56-.32-.83-.7-1.67-1.34-4.1-1.21-5.7.04-.68.06-1.5.07-2.42.02-.9.02-1.79.02-2.68,0-1.78-.05-3.59-.15-5.4-.23-3.62-.72-7.23-1.12-10.64-.38-3.77-1.41-7.34-3.66-9.75" data-active="1" style="display: none; fill: #ebebeb; stroke: #c8c9c9; stroke-miterlimit: 10;" />
    <path id="tooth-broken-distal-incisal" d="M18.24,3.98c-.91,2.36-1.46,4.93-1.83,7.56-.31,2.63-.34,5.33-.36,7.95.03,4.82-.12,9.43-.21,14.33-.04.79-.12,1.45-.22,1.98-.1.49-.23,1.01-.38,1.53-.3,1.04-.7,2.05-1.18,3.03-.83,1.95-1.59,4.45-1.91,6.82-.32,2.36.45.9.45,1.46,0,.9,2.55.14,2.68.9.13.77,2.1,0,2.42.63.76,1.74-1.78,6.47.38,6.47,3.89,0,9.62.77,9.62-2.99,0-3.76-.19-8.21-1.47-11.82-1.27-3.62-.19-.56-.32-.83-.7-1.67-1.34-4.1-1.21-5.7.04-.68.06-1.5.07-2.42.02-.9.02-1.79.02-2.68.01-1.78-.05-3.59-.14-5.4-.23-3.62-.71-7.23-1.11-10.64-.38-3.77-1.41-7.34-3.67-9.75" data-active="1" style="display: none; fill: #ebebeb; stroke: #c8c9c9; stroke-miterlimit: 10;" />
    <path id="tooth-broken-distal" d="M18.24,3.98c-.91,2.36-1.46,4.93-1.83,7.56-.31,2.63-.34,5.33-.36,7.95.03,4.82-.12,9.43-.21,14.33-.04.79-.12,1.45-.22,1.98-.1.49-.23,1.01-.38,1.53-.3,1.04-.7,2.05-1.18,3.03-.51,1.18.38,2.71,0,4.1-.38,1.39-.57,2.99-.7,3.69-.13.7-.64.97-.7,1.81,0,1.25,1.78,0,2.04,1.04.57,2.5-.38,5.63,2.36,5.63,3.89,0,10.51.77,10.51-2.99,0-3.76-.19-8.21-1.47-11.82-1.27-3.62-.19-.56-.32-.83-.7-1.67-1.34-4.1-1.21-5.7.04-.68.06-1.5.07-2.42.02-.9.02-1.79.02-2.68,0-1.78-.06-3.59-.15-5.4-.23-3.62-.73-7.23-1.13-10.64-.38-3.77-1.4-7.34-3.66-9.75" data-active="1" style="display: none; fill: #ebebeb; stroke: #c8c9c9; stroke-miterlimit: 10;" />
    <path id="tooth-crownprep" d="M18.24,3.98c-.91,2.36-1.46,4.93-1.83,7.56-.31,2.63-.34,5.33-.36,7.95.03,4.82-.12,9.43-.21,14.33-.04.79-.12,1.45-.22,1.98-.1.49-.23,1.01-.38,1.53-.3,1.04-.7,2.05-1.18,3.03-.25.7-1.02,2.99-1.27,3.76-.25.77,3.06,0,3.25.42.25.7-.13,2.23-.13,3.13.38.63.89.9,3.82.9,2.93,0,4.33.42,4.65-.97.32-1.39-.13-1.88,0-2.64.13-.77,2.68.28,2.55-.35-.19-.9-.45-1.88-.76-2.71-1.27-3.62-.19-.56-.32-.83-.7-1.67-1.34-4.1-1.21-5.7.04-.66.06-1.47.07-2.38.02-.91.02-1.79.01-2.69,0-1.78-.06-3.59-.15-5.4-.23-3.62-.71-7.23-1.11-10.64-.37-3.77-1.4-7.34-3.66-9.75" data-active="1" style="display: none; fill: #ebebeb; stroke: #c8c9c9; stroke-miterlimit: 10;" />
    <path id="tooth-radix" d="M18.24,3.98c-.91,2.36-1.46,4.93-1.83,7.56-.31,2.63-.34,5.33-.36,7.95.03,4.82-.12,9.43-.21,14.33-.04.79-.12,1.45-.22,1.98-.1.49-.23,1.01-.38,1.53-.3,1.04-.7,2.05-1.18,3.03-.25.7-1.02,2.99-1.27,3.76-.25.77,3.76-.21,7.52-.28,3.76-.07,6.56.49,6.5.21-.19-.9-.32-1.32-.64-2.16-1.27-3.62-.19-.56-.32-.83-.7-1.67-1.34-4.1-1.21-5.7.04-.66.06-1.47.07-2.38.02-.91.02-1.79.01-2.69,0-1.78-.06-3.59-.15-5.4-.23-3.62-.71-7.23-1.11-10.64-.37-3.77-1.4-7.34-3.66-9.75" data-active="1" style="display: none; fill: #ebebeb; stroke: #c8c9c9; stroke-miterlimit: 10;" />
    </g>
  <g id="tooth" data-active="1">
    <path id="tooth-base" d="M18.84,4.3c-.91,2.36-1.6,4.85-2.11,7.4-.47,2.56-.66,5.18-.67,7.8.03,4.82-.12,9.43-.21,14.33-.04.79-.12,1.45-.22,1.98-.1.49-.23,1.01-.38,1.53-.3,1.04-.7,2.05-1.18,3.03-1.02,2.43-1.97,5.7-2.1,8.55-.19,4.17,1.27,7.72,5.16,7.72,3.89,0,10.51.77,10.51-2.99,0-3.76-.19-8.21-1.47-11.82-1.27-3.62-.19-.56-.32-.83-.7-1.67-1.34-4.1-1.21-5.7.04-.68.06-1.5.07-2.42.02-.9.02-1.79.02-2.68,0-1.78-.05-3.59-.15-5.4-.23-3.62-.72-7.23-1.12-10.64-.38-3.77-1.11-7.44-3.36-9.85" data-active="1" style="fill: #ebebeb; stroke: #c8c9c9; stroke-miterlimit: 10;" />
    <path id="tooth-base-beauty" d="M17.19,53.79c1.27-.49,2.23-.7,3.25-.42,1.59.21,2.61,1.04,3.5,2.09-.96-.35-1.97-.42-3.12-.28-1.34.21-2.29.42-3.31,0-.38-.21-.57-.83-.32-1.32h0Z" data-active="1" style="fill: #fefefe;" />
    <g id="tooth-inflam-pulp" data-active="1" style="display: none;">
      <path id="tooth-inflam-pulp-base" d="M20.58,5.59c.39,0,.57,3.06.29,5.11-.23,2.35-.09,8.78.04,11.34.19,5.92-.01,5.31.05,11.6.01.79.04,1.43.08,1.94.04.44.09.81.14,1.17.11.77.24,1.41.35,1.98.23,1.12.39,1.88.22,2.52-.4,1.97-3.27,2.24-3.41.27-.07-.98.12-2.3.35-3.78.12-.74.25-1.48.36-2.23.06-.46.11-.98.16-1.58.05-.63.09-1.28.12-1.88.26-4.8-.23-9.91-.08-11.14.31-3.37.06-7.66-.1-10.62-.14-2.96-.68-3.58.03-4.39,0,0-.47-1.02,1.47-.41h0Z" data-active="1" style="fill: #ff422a;" />
      <path id="pulp-inflam-path-8" d="M21.64,23.06h0l.01-.21c-.15-.21-.38-.31-.53-.31-.46,0-1.01,0-1.47.1-.46.1-.76.42-.22.73.53.31,1.6.31,2.21-.31Z" data-active="1" style="fill: url(#toothgen-52-linear-gradient-11-0);" />
      <path id="pulp-inflam-path-7" d="M18.22,20.75h0v.21c.16.21.32.31.55.31.47.1,1.02,0,1.5,0,.47,0,.79-.31.24-.73-.55-.42-1.67-.42-2.29.21Z" data-active="1" style="fill: url(#toothgen-52-linear-gradient-11-1);" />
      <path id="pulp-inflam-path-6" d="M21.76,18.13h0v-.21c-.16-.21-.41-.31-.56-.31-.49,0-1.07,0-1.56.21-.49.21-.81.42-.16.73.65.31,1.71.21,2.36-.42,0,0-.09,0,0,0h0Z" data-active="1" style="fill: url(#toothgen-52-linear-gradient-11-2);" />
      <path id="pulp-inflam-path-5" d="M17.98,16.25h0v.21c.17.21.41.31.58.31.5,0,1.07,0,1.56-.21.5-.21.83-.42.17-.73-.66-.31-1.75-.21-2.41.31h.09,0Z" data-active="1" style="fill: url(#toothgen-52-linear-gradient-11-3);" />
      <path id="pulp-inflam-path-4" d="M21.73,13.21h0c0,0,0-.1-.09-.21-.17-.1-.41-.1-.67-.1-.5,0-1,.42-1.5.73-.5.31-.67.63,0,.73.67.1,1.76-.31,2.25-1.15Z" data-active="1" style="fill: url(#toothgen-52-linear-gradient-11-4);" />
      <path id="pulp-inflam-path-3" d="M18.33,9.85h0v.21c0,.31.24.52.4.73.41.42.99.73,1.49.94.5.21.92.21.49-.52-.41-.73-1.4-1.47-2.3-1.47h-.09Z" data-active="1" style="fill: url(#toothgen-52-linear-gradient-11-5);" />
      <path id="pulp-inflam-path-2" d="M18.22,6.71h0v.21c-.01.31.23.52.39.73.39.42.95.73,1.43.94.48.21.89.21.48-.52-.41-.73-1.35-1.47-2.21-1.47h-.08Z" data-active="1" style="fill: url(#toothgen-52-linear-gradient-11-6);" />
      <path id="pulp-inflam-path-1" d="M21.62,6.81h-.16c-.24,0-.39.21-.63.31-.4.42-.71,1.05-1.03,1.68-.32.63-.33,1.05.25.73.56-.31,1.36-1.47,1.49-2.62h.08Z" data-active="1" style="fill: url(#toothgen-52-linear-gradient-11-7);" />
      </g>
    <path id="tooth-healthy-pulp" d="M20.58,5.59c.39,0,.57,3.06.29,5.11-.23,2.35-.09,8.78.04,11.34.19,5.92-.01,5.31.05,11.6.01.79.04,1.43.08,1.94.04.44.09.81.14,1.17.11.77.24,1.41.35,1.98.23,1.12.39,1.88.22,2.52-.4,1.97-3.27,2.24-3.41.27-.07-.98.12-2.3.35-3.78.12-.74.25-1.48.36-2.23.06-.46.11-.98.16-1.58.05-.63.09-1.28.12-1.88.26-4.8-.23-9.91-.08-11.14.31-3.37.06-7.66-.1-10.62-.14-2.96-.68-3.58.03-4.39,0,0-.47-1.02,1.47-.41h0Z" data-active="1" style="fill: #fcc5bc;" />
    <path id="tooth-bruxism-wear" d="M15.91,54.34c.51,1.18.89.7,1.72.21.25-.14.51-.42.76-.14.57,1.18.76.9,1.72.35.51-.21,1.4-.9,1.72,0,.25.7.51.42.89,0,.32-.28.96-1.04,1.27-.56.19.21.38,1.04.76.9.32-.14.7-1.25,1.08-1.11.19.14.38.56.64.83.19.28.45.56.38.77-.32.56-1.21.63-1.78.83-2.87.7-5.92.77-8.85.42-1.02,0-3.76-.21-1.91-1.95.51-.49,1.21-.77,1.47-.56,0,0,.13,0,.13,0Z" data-active="1" style="display: none; fill: #fff; stroke: #aaa; stroke-miterlimit: 10; stroke-width: .5px;" />
    <path id="tooth-bruxism-neck-wear" d="M22.03,45.3c-.25-1.18-.45-.7-.89-.21-.13.14-.25.42-.38.14-.25-1.18-.38-.9-.89-.35-.25.21-.76.9-.89,0-.13-.7-.25-.42-.45,0-.19.28-.51,1.04-.7.56-.06-.21-.19-1.04-.38-.9-.19.14-.38,1.25-.57,1.11-.06-.14-.19-.56-.32-.83-.06-.28-.19-.56-.19-.77.19-.56.64-.63.96-.83,1.53-.63,3.06-.7,4.59-.28.51,0,1.91.28.96,1.95-.25.49-.64.77-.76.56h-.06c0,0,0-.14,0-.14Z" data-active="1" style="display: none; fill: #fff; stroke: #aaa; stroke-miterlimit: 10; stroke-width: .5px;" />
    </g>
  <g id="milktooth" data-active="1" style="display: none;">
    <path id="milktooth-base" d="M18.24,3.98c-.91,2.36-1.46,4.93-1.83,7.56-.31,2.63-.34,5.33-.36,7.95.03,4.82-.12,9.43-.21,14.33-.04.79-.12,1.45-.22,1.98-.1.49-.23,1.01-.38,1.53-.3,1.04-.7,2.05-1.18,3.03-1.02,2.43-1.97,5.7-2.1,8.55-.19,4.17,1.27,7.72,5.16,7.72,3.89,0,10.51.77,10.51-2.99,0-3.76-.19-8.21-1.47-11.82-1.27-3.62-.19-.56-.32-.83-.7-1.67-1.34-4.1-1.21-5.7.04-.68.06-1.5.07-2.42.02-.9.02-1.79.02-2.68,0-1.78-.05-3.59-.15-5.4-.23-3.62-.72-7.23-1.12-10.64-.38-3.77-1.41-7.34-3.66-9.75" data-active="1" style="fill: #fff; stroke: #c8c9c9; stroke-miterlimit: 10;" />
    <path id="milktooth-beauty" d="M17.19,53.79c1.27-.49,2.23-.7,3.25-.42,1.59.21,2.61,1.04,3.5,2.09-.96-.35-1.97-.42-3.12-.28-1.34.21-2.29.42-3.31,0-.38-.21-.57-.83-.32-1.32h0Z" data-active="1" style="fill: #eaeaea;" />
    <g id="milktooth-inflam-pulp" data-active="1" style="display: none;">
      <path id="tooth-inflam-pulp-base1" d="M20.58,5.63c.54,0,.74,3.26.37,5.42-.31,2.46-.11,9.29.02,11.94.25,6.23-.02,5.62.11,12.14.2,4.32,1.54,6.22,1.07,7.57-.54,2.1-4.35,2.37-4.55.27-.1-1.05.15-2.44.47-3.98.16-.78.33-1.59.49-2.42.08-.38.15-.77.22-1.22.06-.53.12-1.12.16-1.78.31-5.16-.36-10.47-.15-11.8.37-3.58.02-8.07-.12-11.23-.12-3.17-.89-3.78.05-4.6,0,0-.62-1.12,1.94-.41h-.08,0Z" data-active="1" style="fill: #b70000;" />
      <path id="pulp-inflam-path-81" d="M21.98,24.11h0l.01-.21c-.22-.21-.52-.31-.67-.31-.61,0-1.29,0-1.89.1-.6.1-.98.42-.3.73.68.31,2.09.31,2.93-.31,0,0-.08,0-.08,0Z" data-active="1" style="fill: url(#toothgen-52-linear-gradient-11-8);" />
      <path id="pulp-inflam-path-71" d="M17.45,21.59h0l.01.21c.24.21.4.31.71.31.62.1,1.32,0,1.94,0,.62,0,1.02-.31.32-.73-.71-.42-2.2-.42-3.05.21h.08Z" data-active="1" style="fill: url(#toothgen-52-linear-gradient-11-9);" />
      <path id="pulp-inflam-path-61" d="M22.14,18.87h0l.01-.21c-.24-.21-.56-.31-.72-.31-.65,0-1.39,0-2.03.21-.65.21-1.05.42-.24.73.8.31,2.25.21,3.15-.42h-.16Z" data-active="1" style="fill: url(#toothgen-52-linear-gradient-11-10);" />
      <path id="pulp-inflam-path-51" d="M17.08,16.88h0v.21c.25.21.58.31.74.31.66,0,1.4,0,2.05-.21.66-.21,1.08-.42.25-.73-.83-.31-2.32-.21-3.22.31h.17Z" data-active="1" style="fill: url(#toothgen-52-linear-gradient-11-11);" />
      <path id="pulp-inflam-path-41" d="M23.02,11.11h0l-.17-.21h-.91c-.66,0-1.23.63-1.89,1.15-.67.52-.83.84,0,.84.84,0,2.24-.73,2.81-1.78,0,0,.17,0,.17,0Z" data-active="1" style="fill: url(#toothgen-52-linear-gradient-11-12);" />
      <path id="pulp-inflam-path-31" d="M16.54,13.31h0v.21c0,.31.34.52.59.73.58.42,1.34.73,2.01.94.67.21,1.24.21.67-.52-.58-.73-1.93-1.57-3.09-1.57h-.09v.21c0,0-.08,0,0,0h0Z" data-active="1" style="fill: url(#toothgen-52-linear-gradient-11-13);" />
      <path id="pulp-inflam-path-21" d="M16.98,8.7h0l-.01.21c-.01.31.31.52.54.73.56.42,1.29.73,1.95.94.66.21,1.23.21.66-.52-.57-.73-1.85-1.57-2.97-1.57h-.08l-.01.21h0Z" data-active="1" style="fill: url(#toothgen-52-linear-gradient-11-14);" />
      <path id="pulp-inflam-path-11" d="M22.62,5.97h-.24c-.31,0-.54.21-.86.31-.54.42-.93,1.15-1.33,1.78-.4.63-.4,1.15.33.73.72-.42,1.81-1.57,1.94-2.73h.16Z" data-active="1" style="fill: url(#toothgen-52-linear-gradient-11-15);" />
      </g>
    <path id="milktooth-healthy-pulp" d="M20.65,5.63c.54,0,.82,3.26.37,5.42-.31,2.46-.11,9.29.01,11.94.31,6.23-.03,5.62.1,12.14.2,4.32,1.54,6.22,1.13,7.57-.54,2.1-4.55,2.37-4.68.27-.07-1.05.18-2.44.5-3.98.16-.78.33-1.59.5-2.42.08-.38.16-.77.23-1.22.07-.53.13-1.12.18-1.78.38-5.16-.35-10.47-.14-11.8.45-3.58.03-8.07-.12-11.23-.12-3.17-.9-3.78.05-4.6,0,0-.62-1.12,2.02-.41h-.16Z" data-active="1" style="fill: #fcc5bc;" />
    </g>
  <g id="endos" data-active="1">
    <path id="endo-medical-filling" d="M20.11,8.91c.64,2.52.71,7.97.91,11.32.07,2.25.43,6.84.76,11.43.04.57.09,1.17.13,1.78.05.58.1,1.11.14,1.57.1.77.19,1.41.28,2.08.17,1.33.29,2.46.34,3.21.06,3.34-5.29,4.03-4.97-.97.1-1.1.21-2.47.33-3.91.03-.42.06-.91.09-1.48.03-.61.05-1.26.08-1.88.05-1.22.09-2.46.13-3.7.17-4.95.38-9.85.51-12.95,0-1.05.5-9.75,1.26-6.71h0v.21Z" data-active="1" style="display: none; fill: #fff; stroke: #f9ae94; stroke-miterlimit: 10; stroke-width: .2px;" />
    <path id="endo-filling-incomplete" d="M22.09,42.45c1.08-1.25.38-3.06.25-4.59-.09-.56-.17-1.12-.24-1.67-.07-.52-.14-1.13-.2-1.89-.11-1.82-.2-3.62-.28-5.41-.17-3.58-.41-7.14-.97-10.44-1.01-2.73-1.51,3.98-1.51,4.82-.11,2.52-.27,5.14-.44,7.76-.04.66-.09,1.31-.14,2-.05.69-.1,1.33-.15,1.89-.11.9-.22,1.69-.33,2.53-.13,1.67-.64,3.76.7,5.01.83.77,2.36.77,3.19,0,0,0,.13,0,.13,0Z" data-active="1" style="display: none; fill: #388aca;" />
    <path id="endo-filling" d="M20.11,8.91c.64,2.52.71,7.97.91,11.32.07,2.25.23,6.45.39,10.65.04,1.05.09,2.14.14,3.2.03.48.05.9.08,1.26.03.33.05.62.08.9.1,1.22.2,2.31.26,3.07-.25,2.85-1.47,4.94-3.25,3.27-1.78-1.67-1.15-2.02-.96-3.13.32-2.3,0,.28.25-3.89.05-.59.1-1.32.14-2.17.04-.9.09-1.77.13-2.63.08-1.72.15-3.47.23-5.2.16-3.46.32-6.87.42-9.96,0-1.05.5-9.75,1.26-6.71h0v.21-.21c0,0-.08,0-.08,0Z" data-active="1" style="display: none; fill: #388aca;" />
    <path id="endo-glass-pin" d="M20.12,15.51c.54,1.89.66,5.66.77,7.97.08,1.57.26,4.56.44,7.55.05.75.09,1.5.14,2.27.05.74.1,1.39.15,1.91.1.85.18,1.57.22,2.09,0,2.36,3.57,7.3,1.08,9.46-2.29,2.02-8.22,1.39-7.64-2.78.57-3.34,2.48-5.98,2.74-9.55.33-4.67.64-9.91.87-14.41-.01-.73.36-6.92,1.23-4.82h0v.21h0Z" data-active="1" style="display: none; fill: #c8c9c9;" />
    <path id="endo-metal-pin" d="M20.12,15.51c.54,1.89.66,5.66.77,7.97.08,1.57.26,4.56.44,7.55.05.75.09,1.5.14,2.27.05.74.1,1.39.15,1.91.1.85.18,1.57.22,2.09,0,2.36,3.57,7.3,1.08,9.46-2.29,2.02-8.22,1.39-7.64-2.78.57-3.34,2.48-5.98,2.74-9.55.33-4.67.64-9.91.87-14.41-.01-.73.36-6.92,1.23-4.82h0v.21h0Z" data-active="1" style="display: none; fill: #3951a3;" />
    <path id="endo-resorption" d="M13.34,11.22c0,0,.82-1.89,1.67-3.77.79-1.89,1.57-3.77,1.75-3.77l4.89.21c.63,0,1.41,2.12,2.09,4.26.72,2.14,1.26,4.28,1.22,4.34l-.47,1.99c-.17.73-.5,1.36-.91,1.99l-1.7,2.41c-1.02,1.47-2.61,1.57-3.7.21l-2.41-2.83c-.16-.21-.33-.52-.49-.73l-2.1-4.4h.16Z" data-active="1" style="display: none; fill: #fdecc5;" />
    <path id="endo-resection" d="M15.02,10.69c0,0,.79-1.83,1.59-3.67.76-1.83,1.52-3.67,1.71-3.67l4.89.21c.63,0,1.41,2.04,2.11,4.1.76,2.06,1.33,4.13,1.3,4.18l-.31,6.6-11.39-.21-.04-7.76h.16c0,0-.01.21-.01.21Z" data-active="1" style="display: none; fill: #fdecc5;" />
    </g>
  <g id="surfaces" data-active="1">
    <g id="subcaries" data-active="1">
      <path id="subcaries-buccal" d="M17.51,47.81c.51.77,1.34,1.04,2.1,1.11,1.21.14,2.1-.77,2.68-2.09.25-.49.38-.83.38-1.39-.38-2.78-5.48-2.09-6.12-.9-.38.83.57,2.5.96,3.2h0Z" data-active="1" style="display: none; fill: #0a1018; stroke: #000; stroke-miterlimit: 10;" />
      <path id="subcaries-mesial" d="M23.88,37.16c-2.87-.35-2.93,9.39-1.72,10.85,1.15,2.64,4.33,2.64,5.03-.42.57-2.36-1.21-9.39-3.25-10.43,0,0-.06,0,0,0h0Z" data-active="1" style="display: none; fill: #0a1018; stroke: #000; stroke-miterlimit: 10;" />
      <path id="subcaries-distal" d="M13.81,50.59c1.66,0,2.93-3.76,3.44-5.63.89-2.64,1.08-5.98-1.47-5.98-3.25.21-4.91,10.5-2.04,11.61,0,0,.06,0,0,0h0Z" data-active="1" style="display: none; fill: #0a1018; stroke: #000; stroke-miterlimit: 10;" />
      <path id="subcaries-occlusal" d="M13.68,54c.38,2.71,4.59,3.06,6.94,2.92,2.1,0,5.03,0,6.12-2.16,1.53-4.03-4.01-6.33-7.45-6.12-2.48.14-5.29,2.78-5.61,5.22h0c0,0,0,.14,0,.14Z" data-active="1" style="display: none; fill: #0a1018; stroke: #000; stroke-miterlimit: 10;" />
      </g>
    <g id="caries" data-active="1">
      <path id="caries-root" d="M15.88,32.29c-.32,1.6,1.33,1.9,3.21,1.78,1.88-.13,4.01-.72,4.62-1,1.87-.56,1.1-2.03,1.16-4.13.08-1.57-.77-1.07-1.76-.18-.96.89-2.04,2.18-2.59,2.18-2.15,0-2.8-2.52-4.5-3.04-1.73-.52.14,2.94-.14,4.4Z" data-active="1" style="display: none; fill: #0a1018; stroke: #000; stroke-miterlimit: 10;" />
      <path id="caries-subcrown" d="M12.92,42.87c-.7,2.02,2.48-.9,3.69-1.25,1.85-.35,4.14-2.23,4.01-3.62-.51-2.71-5.61-2.29-6.18-.49,0,0-1.53,5.36-1.53,5.36Z" data-active="1" style="display: none; fill: #0a1018; stroke: #000; stroke-miterlimit: 10;" />
      <path id="caries-buccal" d="M17.12,48.5c.7.77,1.85,1.11,2.93,1.18,1.72.14,2.93-.77,3.82-2.16.32-.49.57-.9.57-1.46-.51-2.92-7.71-2.16-8.66-.97-.57.9.83,2.64,1.34,3.34h.06-.06Z" data-active="1" style="display: none; fill: #0a1018; stroke: #000; stroke-miterlimit: 10;" />
      <g id="caries-mesial" data-active="1" style="display: none;">
        <path id="mesial-shape" d="M24.45,38.97c-2.42-.28-2.48,8-1.47,9.25.96,2.23,3.69,2.23,4.27-.35.51-2.02-1.02-8-2.74-8.9h-.06Z" data-active="1" style="fill: #0a1018; stroke: #000; stroke-miterlimit: 10;" />
        <path id="mesial-patch2" d="M24.77,43.49c2.04,0-.51-2.99-1.08-1.18-.19.63.45,1.18.89,1.18h.19Z" data-active="1" style="fill: #fff;" />
        <path id="mesial-patch1" d="M24.26,48.22c.83.97,2.93-.35,1.4-1.04-1.02-.42-1.59.35-1.4.97h0Z" data-active="1" style="fill: #fff;" />
        </g>
      <g id="caries-distal" data-active="1" style="display: none;">
        <path id="distal-shape" d="M13.11,51.28c1.47,0,2.55-3.27,2.99-4.87.76-2.3.96-5.22-1.27-5.22-2.8.21-4.27,9.11-1.78,10.08h.06Z" data-active="1" style="fill: #0a1018; stroke: #000; stroke-miterlimit: 10;" />
        <path id="distal-patch2" d="M14.89,45.3c.64-.28.64-1.81-.13-1.81-.76,0-.76,1.95,0,1.81h.13Z" data-active="1" style="fill: #fff;" />
        <path id="distal-patch1" d="M12.92,48.85c.13.21.38.42.57.56.19,0,.51.21.45,0-.13-.35-.51-1.25-.76-1.46-.45-.28-.38.63-.32.83h.06Z" data-active="1" style="fill: #fff;" />
        </g>
      <g id="caries-occlusal" data-active="1" style="display: none;">
        <path id="occlusal-shape" d="M14.51,54.41c.32,2.36,4.01,2.71,6.12,2.57,1.85,0,4.4,0,5.35-1.88,1.34-3.55-3.5-5.56-6.56-5.36-2.17.14-4.65,2.43-4.91,4.59h0Z" data-active="1" style="fill: #0a1018; stroke: #000; stroke-miterlimit: 10;" />
        <path id="occlusal-patch2" d="M21.07,54.41c-.83,2.16,3.38,1.18,3.82.14.51-.56.32-1.46-.38-1.67-1.21-.42-2.61.63-3.44,1.46h0Z" data-active="1" style="fill: #fff; stroke: #000; stroke-miterlimit: 10; stroke-width: .2px;" />
        <path id="occlusal-patch1" d="M16.23,54.41c-.19,1.11.89,1.95,1.59.9.45-.63.57-2.23-.32-2.3-.64,0-1.21.49-1.27,1.25v.14Z" data-active="1" style="fill: #fff; stroke: #000; stroke-miterlimit: 10; stroke-width: .2px;" />
        </g>
      </g>
    <g id="fillings" data-active="1">
      <g id="amalgam" data-active="1">
        <path id="filling-amalgam-occlusal" d="M14.64,54.07c.32,2.36,4.01,2.71,6.12,2.57,1.85,0,4.4,0,5.35-1.88,1.34-3.55-3.5-5.56-6.56-5.36-2.17.14-4.65,2.43-4.91,4.59h0Z" data-active="1" style="display: none; fill: #aaa; stroke: #aaa; stroke-miterlimit: 10;" />
        <path id="filling-amalgam-buccal" d="M19.42,48.43c1.27,0,1.72-2.09,1.97-3.2.32-1.74-2.29-1.39-3.06-.7-1.27.97-.51,3.69,1.02,3.89h.13-.06Z" data-active="1" style="display: none; fill: #aaa; stroke: #aaa; stroke-miterlimit: 10;" />
        <path id="filling-amalgam-mesial" d="M24.2,38.07c-2.42-.28-2.48,8-1.47,9.25.96,2.23,3.69,2.23,4.27-.35.51-2.02-1.02-8-2.74-8.9h-.06Z" data-active="1" style="display: none; fill: #aaa; stroke: #aaa; stroke-miterlimit: 10;" />
        <path id="filling-amalgam-distal" d="M13.94,49.89c1.47,0,2.55-3.27,2.99-4.87.76-2.3.96-5.22-1.27-5.22-2.8.21-4.27,9.11-1.78,10.08h.06Z" data-active="1" style="display: none; fill: #aaa; stroke: #aaa; stroke-miterlimit: 10;" />
        </g>
      <g id="composite" data-active="1">
        <path id="filling-composite-occlusal" d="M14.51,54.14c.32,2.36,4.01,2.71,6.12,2.57,1.85,0,4.4,0,5.35-1.88,1.34-3.55-3.5-5.56-6.56-5.36-2.17.14-4.65,2.43-4.91,4.59h0Z" data-active="1" style="display: none; fill: #feffbf; stroke: #feffbf; stroke-miterlimit: 10;" />
        <path id="filling-composite-buccal" d="M19.29,48.43c1.27,0,1.72-2.09,1.97-3.2.32-1.74-2.29-1.39-3.06-.7-1.27.97-.51,3.69,1.02,3.89h.13-.06Z" data-active="1" style="display: none; fill: #feffbf; stroke: #feffbf; stroke-miterlimit: 10;" />
        <path id="filling-composite-mesial" d="M24.07,38.07c-2.42-.28-2.48,8-1.47,9.25.96,2.23,3.69,2.23,4.27-.35.51-2.02-1.02-8-2.74-8.9h-.06Z" data-active="1" style="display: none; fill: #feffbf; stroke: #feffbf; stroke-miterlimit: 10;" />
        <path id="filling-composite-distal" d="M13.81,49.96c1.47,0,2.55-3.27,2.99-4.87.76-2.3.96-5.22-1.27-5.22-2.8.21-4.27,9.11-1.78,10.08h.06Z" data-active="1" style="display: none; fill: #feffbf; stroke: #feffbf; stroke-miterlimit: 10;" />
        </g>
      <g id="gic" data-active="1">
        <path id="filling-gic-occlusal" d="M14.64,54.07c.32,2.36,4.01,2.71,6.12,2.57,1.85,0,4.4,0,5.35-1.88,1.34-3.55-3.5-5.56-6.56-5.36-2.17.14-4.65,2.43-4.91,4.59h0Z" data-active="1" style="display: none; fill: #f9ae94; stroke: #f99; stroke-miterlimit: 10;" />
        <path id="filling-gic-buccal" d="M19.42,48.43c1.27,0,1.72-2.09,1.97-3.2.32-1.74-2.29-1.39-3.06-.7-1.27.97-.51,3.69,1.02,3.89h.13-.06Z" data-active="1" style="display: none; fill: #f9ae94; stroke: #f99; stroke-miterlimit: 10;" />
        <path id="filling-gic-mesial" d="M24.2,38.07c-2.42-.28-2.48,8-1.47,9.25.96,2.23,3.69,2.23,4.27-.35.51-2.02-1.02-8-2.74-8.9h-.06Z" data-active="1" style="display: none; fill: #f9ae94; stroke: #f99; stroke-miterlimit: 10;" />
        <path id="filling-gic-distal" d="M13.94,49.89c1.47,0,2.55-3.27,2.99-4.87.76-2.3.96-5.22-1.27-5.22-2.8.21-4.27,9.11-1.78,10.08h.06Z" data-active="1" style="display: none; fill: #f9ae94; stroke: #f99; stroke-miterlimit: 10;" />
        </g>
      <g id="temporary" data-active="1">
        <path id="filling-temporary-occlusal" d="M14.64,54.07c.32,2.36,4.01,2.71,6.12,2.57,1.85,0,4.4,0,5.35-1.88,1.34-3.55-3.5-5.56-6.56-5.36-2.17.14-4.65,2.43-4.91,4.59h0Z" data-active="1" style="display: none; fill: #fff; stroke: #eee; stroke-miterlimit: 10;" />
        <path id="filling-temporary-buccal" d="M19.42,48.43c1.27,0,1.72-2.09,1.97-3.2.32-1.74-2.29-1.39-3.06-.7-1.27.97-.51,3.69,1.02,3.89h.13-.06Z" data-active="1" style="display: none; fill: #fff; stroke: #eee; stroke-miterlimit: 10;" />
        <path id="filling-temporary-mesial" d="M24.2,38.07c-2.42-.28-2.48,8-1.47,9.25.96,2.23,3.69,2.23,4.27-.35.51-2.02-1.02-8-2.74-8.9h-.06Z" data-active="1" style="display: none; fill: #fff; stroke: #eee; stroke-miterlimit: 10;" />
        <path id="filling-temporary-distal" d="M13.94,49.89c1.47,0,2.55-3.27,2.99-4.87.76-2.3.96-5.22-1.27-5.22-2.8.21-4.27,9.11-1.78,10.08h.06Z" data-active="1" style="display: none; fill: #fff; stroke: #eee; stroke-miterlimit: 10;" />
        </g>
      <g id="defect" data-active="1">
        <polygon id="defect-occlusal" points="19.67,56.99 18.21,56.71 19.61,56.22 22.48,56.08 23.88,56.43 22.48,56.92 19.67,56.99" style="display: none; fill: #f5ff15; stroke: #2e3192; stroke-miterlimit: 10; stroke-width: .5px;" data-active="1" />
        <polygon id="defect-buccal" points="19.29,44.40 18.72,44.05 19.23,43.63 20.31,43.56 20.95,43.91 20.37,44.33 19.29,44.40" style="display: none; fill: #f5ff15; stroke: #2e3192; stroke-miterlimit: 10; stroke-width: .5px;" data-active="1" />
        <polygon id="defect-distal" points="13.17,43.91 12.47,44.68 12.47,43.63 13.24,41.82 13.88,41.06 13.88,42.10 13.17,43.91" style="display: none; fill: #f5ff15; stroke: #2e3192; stroke-miterlimit: 10; stroke-width: .5px;" data-active="1" />
        <polygon id="defect-mesial" points="27.19,43.91 27.00,45.02 26.49,44.12 26.04,42.17 26.23,41.13 26.74,41.96 27.19,43.91" style="display: none; fill: #f5ff15; stroke: #2e3192; stroke-miterlimit: 10; stroke-width: .5px;" data-active="1" />
        </g>
      </g>
    <g id="contact-point" data-active="1">
      <g id="mesial-no-contact-point" data-active="1" style="display: none;">
        <path d="M26.17,44.95c.7,1.67,1.59,3.55,2.55,5.36" data-active="1" style="fill: none; stroke: #aaa; stroke-miterlimit: 10; stroke-width: .5px;" />
        <path d="M26.43,50.66c.45-1.11.51-1.81.83-2.64.38-.97.7-2.09.96-3.13" data-active="1" style="fill: none; stroke: #aaa; stroke-miterlimit: 10; stroke-width: .5px;" />
        </g>
      <g id="distal-no-contact-point" data-active="1" style="display: none;">
        <path d="M11.01,45.72c.57,1.81,1.4,3.76,2.17,5.7" data-active="1" style="fill: none; stroke: #aaa; stroke-miterlimit: 10; stroke-width: .5px;" />
        <path d="M10.95,51.42c.57-1.04.64-1.74,1.02-2.5.51-.9.89-1.95,1.21-2.99" data-active="1" style="fill: none; stroke: #aaa; stroke-miterlimit: 10; stroke-width: .5px;" />
        </g>
      </g>
    </g>
  <g id="restorations" data-active="1">
    <path id="crown-leakage" d="M14.89,40.29c3.19-3.06,8.22-2.43,10.77,1.39,1.4,2.09-13.38,1.04-10.77-1.39Z" data-active="1" style="display: none; fill: #9e00e9; stroke: #9e00e9; stroke-miterlimit: 10;" />
    <g id="implant" data-active="1" style="display: none;">
      <path id="implant-locator-screw" d="M17.76,46.21c.57,1.04,2.42.63,3.44.7,2.04-.35,1.08-3.2,1.27-4.87,0-.49.13-1.11-.19-1.46-.13-.21-.45-.28-.64-.28-.96,0-2.17-.14-3.12.14-.83.21-.89.9-.89,1.74,0,1.39-.13,2.71.06,3.96v.14h0Z" data-active="1" style="fill: url(#toothgen-52-linear-gradient-11-16); stroke: #c8c9c9; stroke-miterlimit: 10; stroke-width: .2px;" />
      <path id="implant-connector" d="M15.91,41.55h0c.06.97.7,1.46,1.21,1.18.89-.49,1.02-1.39,2.17-1.46h2.1c.51,0,1.15,1.32,1.85,1.53.7.21.89-.42.83-1.11,0-1.32,0-3.89-.32-3.96-.32-.07-1.97,0-2.36,0h-2.87c-.64,0-1.72-.28-2.23.49-.51.77-.64,2.02-.51,2.78l.13.49h0Z" data-active="1" style="fill: url(#toothgen-52-linear-gradient-11-17);" />
      <path id="implant-bar" d="M11.58,50.45c3.69.21,13.38,0,17.46,0,4.08,0,1.78-1.53,1.91-2.85.13-1.32.13-2.23-.64-2.36-.76-.14-3.06,0-4.01,0-2.29,0-4.27,0-6.43.14-2.42,0-7.71.14-8.09,0-.7,0-1.34.49-1.4,1.18-.13,1.32-.13,3.83,1.15,3.69h0v.21h.06Z" data-active="1" style="fill: url(#toothgen-52-radial-gradient-11-0);" />
      <g id="implant-healing-abutment" data-active="1" style="display: none;">
        <path id="implant-healing-abutment-connector" d="M17.83,40.99c1.08.21,2.36-.14,3.44-.14,2.1,0,2.68-.83,2.17-3.89-.13-.67-.26-1.33-.39-2.17-.13-1.08-.25-2.34-.37-3.56-.22-2.42-.45-4.91-.72-7.22-.18-1.15-.37-2.31-.72-3.25-1.75-4.72-3.19,1.78-3.38,5.24-.12,1.78-.17,3.33-.25,4.83-.04.75-.09,1.5-.15,2.3-.07.79-.15,1.51-.26,2.15-.38,1.81-1.53,5.29.45,5.7h.19Z" data-active="1" style="fill: #a0a0a0; stroke: #8c8c8c; stroke-miterlimit: 10; stroke-width: .5px;" />
        <path d="M24.58,38.56h-5.86c-.89,0-3.19.14-3.19.14,0,0-.25.63-.45,1.18-.19.56-.19.83-.19,1.25v1.88c0,.21.13.35.13.49h.7c1.53-.21,3.12-.28,4.65-.28v-.14c.19,0-.45-.14-.57-.14.25.35-1.15,0-1.34,0-.32,0-.45-.35-.45-.7v-1.67c0-.42.38-.35.25-.42l-2.61.21c-.25,0-.45.14-.7,0l1.59-.35c2.04-.42,4.08-.21,6.05,0,.38,0,.76,0,1.21.14h.32c.13,0,.25,0,.32.14-.13-.14,0-1.74,0-1.74h.13Z" data-active="1" style="fill: #475563;" />
        <path d="M20.5,43.08v-.14h.13c.06,0,0,0,0-.14.32,0,1.27.21,1.66.14.06.21.32.14.45.14.38,0,1.47.14,1.59-.63.13-.77.13-1.25,0-1.88-.13-.63-.19-.28-.06-.42h.25c0,0,.13,0,.13.28v2.5c0,.14-.06.28-.13.42-.57,0-1.15-.14-1.78-.21h-2.29,0Z" data-active="1" style="fill: #8c8c8c;" />
        <path d="M20.31,40.16c-.06-.14-.19-.14-.32-.14l-.57.14c-.06-.14-.25-.14-.38,0-.06-.14-.57,0-.64,0l-2.61.21c-.25,0-.45.14-.7,0l1.59-.35c2.04-.42,4.08-.21,6.05,0,.06.21,0,.14.19.42.13.21.19.14.25.35.06.49,0,1.04,0,1.46,0,.42-.19.56-.45.63-.45,0-1.27.14-1.72,0-.45-.14-.89-.14-.89-.42v-.63c-.06-.28,0-1.04,0-1.39,0-.35.32-.49.19-.35h0Z" data-active="1" style="fill: #e8eef0;" />
        <path d="M22.28,42.94h.45c.25-.14.45-.42.45-.7v-1.32c0-.42-.57-.77-.96-.77-.19-.28.57,0,.51-.14.38,0,.76,0,1.21.14.45.14.19,0,.32,0-.13.14,0,.28.06.42.06.63.06,1.25,0,1.88-.06.63-1.21.7-1.59.63-.38-.07-.38,0-.45-.14h0Z" data-active="1" style="fill: #a0a0a0;" />
        <path d="M18.4,40.09c.06,0,.57-.14.64,0,.13-.14.32-.14.38,0,0,0-.13.14-.13.21,0,.7-.13,1.32,0,2.02.13.7.38.42.64.49.25.35-1.15,0-1.34,0-.32,0-.45-.35-.45-.7v-1.67c0-.56.38-.35.25-.42h0Z" data-active="1" style="fill: #6f7c86;" />
        <path d="M20.5,42.94c.19,0-.7-.21-.57-.14-.25,0-.57,0-.64-.49-.13-.63,0-1.32,0-2.02,0-.7.13-.14.13-.21l.57-.14c.13,0,.25,0,.32.14-.13.14-.19.28-.19.49v1.74c0,.63.32.42.45.49v.14h-.13c0,0,.06,0,0,0h0Z" data-active="1" style="fill: #a0a0a0;" />
        </g>
      <g id="implant-base" data-active="1">
        <path d="M17.95,38.56c-.06-.9-.13-1.88.13-2.72h3.57c.25.64.13,1.96.13,2.72h-3.82Z" data-active="1" style="fill: #bbc3c6;" />
        <path d="M18.45,12.79c-.16,0,.02-2.31.02-2.52.17-1.36.72-2.52,1.48-3.14.75-.63.15,0,.15-.31,1.28,0,2.51,1.15,2.97,3.25.46,2.1.04,1.26.13,1.89h-1.03c-.02-.84-.05-2.2-.67-2.41-.62-.21-.54,0-.54.31.01.84.02,1.57.18,2.2l-2.78.63h0Z" data-active="1" style="fill: #bac3c7;" />
        <path d="M18.08,35.84c-.25.84-.19,1.82-.13,2.72l-2.42.14c0-.49-.19-2.86.45-2.73.7-.13,1.4-.13,2.1-.13Z" data-active="1" style="fill: #a0a4a5;" />
        <path d="M18.46,35.5l-.01-2.33c.96-.34,1.92-.78,2.95-.78.02.61.03,1.22.05,1.8.02.52.04.98.06,1.38h-3.06Z" data-active="1" style="fill: #bac3c6;" />
        <path d="M20.18,6.71c0,0-.07.21-.15.31-.76.63-1.22,1.78-1.47,3.14-.25,1.36-.18,2.52-.02,2.52l-1.91.63c.09-1.15.04-2.31.31-3.46.27-1.15.91-2.31,1.67-2.83.75-.52,1.13-.42,1.65-.42h-.07Z" data-active="1" style="fill: #9ca3a6;" />
        <path d="M21.77,38.56c0-.77.13-2.09-.13-2.72h1.72c.13.64.19,2.03,0,2.72h-1.59Z" data-active="1" style="fill: #e8eef0;" />
        <path d="M18.39,33.06l.01,2.37c.06,0-2.17.14-2.17.14,0-.52,0-1.14.06-1.74.7-.43,1.4-.55,2.04-.88h.06,0Z" data-active="1" style="fill: #9ea3a4;" />
        <path d="M23.37,38.63c.13-.7.13-2.09,0-2.73h.89c.51.13.45,2.24.32,2.73h-1.21Z" data-active="1" style="fill: #bcc4c7;" />
        <path d="M21.52,35.5c-.02-.41-.04-.88-.06-1.41-.02-.58-.03-1.2-.05-1.8.39-.21.84-.21,1.23-.21.01.65.02,1.32.04,1.96.02.58.04,1.09.06,1.53h-1.21Z" data-active="1" style="fill: #e3eaeb;" />
        <path d="M22.73,35.57c-.02-.44-.04-.95-.06-1.53-.01-.64-.03-1.31-.04-1.96.32-.1.71-.1,1.1-.1.01.68.03,1.39.05,2.07.03.61.06,1.15.09,1.6h-1.15Z" data-active="1" style="fill: #b8c2c4;" />
        <path d="M18.44,31.13l-.02-1.15c.99-.31,1.98-.63,2.97-.73l-.02,1.15-2.93.73Z" data-active="1" style="fill: #b7c0c3;" />
        <path d="M18.45,28.09c-.08-.42-.02-.84-.03-1.26,1.03-.31,2-.52,2.97-.73l-.03,1.26-2.98.73c0,0,.07,0,0,0h0Z" data-active="1" style="fill: #b9c0c4;" />
        <path d="M18.46,25.05c-.22-.42-.01-.52-.17-1.15,1-.42,2.02-.63,3.11-.84l-.03,1.26c-.93.21-1.93.42-2.91.73Z" data-active="1" style="fill: #b8c0c3;" />
        <path d="M18.32,21.91l-.02-1.15c.98-.31,2.04-.63,3.1-.73l-.02,1.15-3.05.73Z" data-active="1" style="fill: #b7bfc3;" />
        <path d="M18.34,18.87l-.02-1.15c1.01-.31,2.03-.52,3.05-.73l-.02,1.26-3.09.63h.08Z" data-active="1" style="fill: #b9c1c5;" />
        <path d="M18.29,14.67c.95-.31,1.91-.63,2.94-.73l-.01,1.26c-.95.1-1.9.42-2.93.63l-.01-1.15Z" data-active="1" style="fill: #bac3c5;" />
        <path d="M18.45,32.5c0-.22-.01-.53-.07-.74-.13.21-.32.31-.39,0,1.1-.42,2.26-.73,3.44-.94.06.21-.01.52-.01.84l-2.97.74h0Z" data-active="1" style="fill: #b7c0c3;" />
        <path d="M18.48,29.45c-.14-.21-.01-.52-.01-.84,1-.31,2.01-.63,3.03-.73l-.02.84-2.93.73c0,0-.07,0,0,0h-.07Z" data-active="1" style="fill: #b9c0c3;" />
        <path d="M18.42,29.98l.02,1.15-2.05.84-.04-1.15c.64-.42,1.36-.52,2.01-.73h.07Z" data-active="1" style="fill: #9a9fa1;" />
        <path d="M18.48,26.31c-.08-.31-.15-.42-.16-.73,1.05-.31,2.04-.63,3.03-.73l-.02.84-2.92.73h.07Z" data-active="1" style="fill: #bac0c3;" />
        <path d="M18.43,26.83c.01.42-.05.84.03,1.26l-2.06.73-.06-1.26c.66-.42,1.34-.52,2.02-.73,0,0,.07,0,0,0h.07Z" data-active="1" style="fill: #999fa1;" />
        <path d="M18.35,23.27l-.02-.84c1.03-.31,2.06-.52,3.11-.73l-.02.84c0,0-3.07.73-3.07.73Z" data-active="1" style="fill: #bac1c4;" />
        <path d="M18.28,20.23l-.01-.73c.99-.31,2.07-.52,3.07-.73l-.01.84-3.12.63c0,0,.08,0,.08,0Z" data-active="1" style="fill: #b9c0c3;" />
        <path d="M18.31,17.19l-.01-.84c.94-.42,1.97-.52,3-.73,0,.21.07.52-.01.84l-3.06.73h.08Z" data-active="1" style="fill: #bbc2c4;" />
        <path d="M18.29,23.9c.09.63.02.73.17,1.15l-2.01.73-.06-1.15c.62-.52,1.27-.42,1.9-.63h0Z" data-active="1" style="fill: #9ba0a2;" />
        <path d="M17.93,31.87c.07.21.26.21.39,0,.07.21.07.53.07.75-.77.33-1.53.56-2.29,1-.76.42-.26-.22-.33-.44-.01-.67,1.71-1.1,2.03-1.2h.13,0Z" data-active="1" style="fill: #a8aeb1;" />
        <path d="M18.39,28.62l.02.84-2.28.94c-.13,0-.28-.31-.28-.42-.03-.63,2.14-1.15,2.48-1.26h.07Z" data-active="1" style="fill: #a6abad;" />
        <path d="M18.29,20.75l.02,1.15-1.96.73-.06-1.26c.66-.42,1.33-.52,1.93-.63,0,0,.08,0,0,0h.08Z" data-active="1" style="fill: #9ba0a3;" />
        <path d="M21.23,12.16c-.09-.73-.17-1.47-.18-2.2-.01-.73.38-.42.54-.31.63.21.58,1.57.67,2.41l-1.03.21h0Z" data-active="1" style="fill: #e4e9ea;" />
        <path d="M18.37,14.15v-.84c.96-.31,1.91-.52,2.94-.63v.84l-2.95.63Z" data-active="1" style="fill: #bcc2c4;" />
        <path d="M18.33,25.58c.01.31.01.52.16.73-.82.21-1.5.52-2.31.84-.8.31-.29-.21-.29-.31-.11-.73,2.1-1.15,2.44-1.26Z" data-active="1" style="fill: #a6abad;" />
        <path d="M18.32,17.71l.02,1.15-1.9.73c-.01-.31-.04-.94.03-1.15.61-.42,1.23-.42,1.85-.63h0Z" data-active="1" style="fill: #9da2a4;" />
        <path d="M18.33,22.54l.02.84-2.27.84c-.14,0-.23-.31-.24-.42-.01-.1-.02-.31.12-.42.78-.42,1.57-.63,2.3-.84h.07Z" data-active="1" style="fill: #a5aaac;" />
        <path d="M18.29,14.67l.01,1.15-1.88.63-.02-1.15c.63-.31,1.27-.42,1.82-.63h.08Z" data-active="1" style="fill: #9ca1a3;" />
        <path d="M18.27,19.5l.01.73-2.16.84c-.15,0-.31-.21-.32-.31-.19-.73,2.23-1.15,2.46-1.15h0Z" data-active="1" style="fill: #a5aaac;" />
        <path d="M18.22,16.35l.01.84-2.17.73c-.16,0-.24-.21-.32-.31-.08-.1-.01-.42.22-.42.78-.31,1.48-.63,2.26-.73h0Z" data-active="1" style="fill: #a2a7a9;" />
        <path d="M18.37,13.31v.84c-.72.21-1.35.42-2.06.73-.71.31-.32-.1-.32-.31,0-.21,0-.31.16-.42.71-.42,1.43-.52,2.23-.84Z" data-active="1" style="fill: #a7abae;" />
        <path d="M21.44,30.4l.02-1.15c.34-.21.74-.21,1.14-.21.05.42-.03.84-.04,1.26l-1.18.21h0Z" data-active="1" style="fill: #e2e9eb;" />
        <path d="M21.44,27.36l.03-1.26,1.26-.21-.05,1.15c-.35.21-.76.21-1.17.31h0Z" data-active="1" style="fill: #e1e8e9;" />
        <path d="M21.4,23.06c.44,0,.88-.21,1.32-.21l-.06,1.26-1.22.21.03-1.26h0Z" data-active="1" style="fill: #e3e9ea;" />
        <path d="M21.37,21.28l.02-1.15c.38,0,.84-.21,1.22-.21.14.42-.03.84.11,1.15-.45,0-.9,0-1.35.21Z" data-active="1" style="fill: #e3e9ea;" />
        <path d="M22.62,30.19l.04-1.26c.33,0,.74-.1,1.14-.1-.02.42.02.84,0,1.26-.4.21-.79,0-1.12.1h-.07Z" data-active="1" style="fill: #b7bfc3;" />
        <path d="M21.35,18.24c-.07-.42.01-.84.02-1.26l1.26-.21-.03,1.15c-.31.1-.78.21-1.17.21h-.08Z" data-active="1" style="fill: #e4eaeb;" />
        <path d="M22.65,31.55l.02-.84c.33,0,1.66-.52,1.55.31-.1.84-1.19.52-1.57.52Z" data-active="1" style="fill: #b4bdc0;" />
        <path d="M22.68,28.51l.03-.84c.27,0,1.66-.52,1.55.21-.11.73-.16.42-.3.42h-1.28c0,0-.01.21-.01.21Z" data-active="1" style="fill: #b8c0c4;" />
        <path d="M21.23,13.94c.4,0,.8-.21,1.19-.21.08.42,0,.84.15,1.15-.4.1-.8.21-1.27.21v-1.26h-.08Z" data-active="1" style="fill: #e3e8e9;" />
        <path d="M22.68,27.04l.05-1.15c.28,0,.63-.1.98-.1-.03.42.02.84-.07,1.15-.35.21-.75,0-1.03.1h.07Z" data-active="1" style="fill: #b8c0c3;" />
        <path d="M22.61,25.47l.04-.84c.28,0,1.6-.52,1.55.21-.05.73-1.23.52-1.59.63Z" data-active="1" style="fill: #b5bdc1;" />
        <path d="M22.67,24.11l.06-1.26c.37,0,.67-.21,1.03-.1l-.07,1.15c-.37.1-.72,0-1.08.1h.07Z" data-active="1" style="fill: #b8c1c5;" />
        <path d="M22.67,22.33c-.07-.21.02-.52.03-.84.37,0,1.59-.42,1.63.21.03.63-1.15.63-1.59.63h-.07Z" data-active="1" style="fill: #bac0c3;" />
        <path d="M22.64,19.29c-.07-.21.02-.52-.05-.84.39,0,1.65-.52,1.62.21-.04.73-1.18.52-1.56.63Z" data-active="1" style="fill: #b6bec2;" />
        <path d="M22.65,21.07c-.06-.42.03-.84-.11-1.15.38,0,.69-.21,1.07-.1-.02.42.03.84-.06,1.15h-.98.08Z" data-active="1" style="fill: #b9c2c6;" />
        <path d="M21.41,31.76l.01-.84c.46,0,.85-.21,1.31-.21l-.02.84-1.23.21h-.06Z" data-active="1" style="fill: #e5e9eb;" />
        <path d="M22.56,16.25l.01-.84c.24,0,1.75-.52,1.58.31-.18.84-1.12.42-1.51.52h-.08Z" data-active="1" style="fill: #bbc2c5;" />
        <path d="M22.6,17.92l.03-1.15c.24,0,.55-.1.94,0-.01.31.06.73-.04,1.15-.32.31-.7,0-1.01.1h0Z" data-active="1" style="fill: #b6bfc2;" />
        <path d="M21.41,28.62l.02-.84c.41,0,.82-.21,1.23-.21l-.03.84-1.28.21h.07Z" data-active="1" style="fill: #e6ebec;" />
        <path d="M22.58,14.99c-.16-.31.01-.84-.15-1.15.32,0,.64-.21,1.03,0,0,.31.07.73-.01,1.15-.32.21-.64,0-.95.1h.08Z" data-active="1" style="fill: #bdc3c6;" />
        <path d="M21.41,25.58l.02-.84c.43,0,.86-.31,1.29-.21l-.04.84-1.27.21Z" data-active="1" style="fill: #e6eaeb;" />
        <path d="M22.43,13.31l-.01-.84c.32,0,1.66-.52,1.51.31-.16.84-1.11.42-1.51.42h0Z" data-active="1" style="fill: #bfc4c7;" />
        <path d="M21.42,22.54l.02-.84,1.27-.21-.03.84-1.33.21h0Z" data-active="1" style="fill: #e5eaeb;" />
        <path d="M21.33,19.5l.01-.84,1.32-.21c-.01.31-.02.52.05.84l-1.31.21h-.08Z" data-active="1" style="fill: #e6ebeb;" />
        <path d="M21.3,16.46l.01-.84c.4,0,.79-.21,1.27-.21l-.01.84-1.26.21Z" data-active="1" style="fill: #e6eaeb;" />
        <path d="M21.23,12.68c.4,0,.79-.21,1.19-.21l.01.84-1.19.21v-.84Z" data-active="1" style="fill: #e1e5e6;" />
        </g>
      <path id="peri-implant-bone-loss" d="M14.04,30.4c.22.92.44,1.77.66,2.59.21.83.43,1.52.66,2.07.45.88.95,1.55,1.46,2.12,1.04,1.13,2.15,1.65,3.11,1.65.96,0,2.07-.52,3.11-1.65.52-.57,1.02-1.23,1.46-2.12.22-.55.44-1.25.66-2.07.23-.82.45-1.68.67-2.59-.39,1.05-.79,1.97-1.22,2.8-.41.81-.86,1.42-1.33,1.85-.96.72-2.07,1.03-3.34,1.03-1.27,0-2.39-.32-3.34-1.03-.48-.43-.92-1.04-1.33-1.85-.42-.83-.82-1.75-1.21-2.8Z" data-active="1" style="display: none; fill: #d9534f;" />
      </g>
    <g id="prosthesis-implant" data-active="1">
      <g id="prosthesis-implant-gum" data-active="1" style="display: none; opacity: .5;">
        <path d="M30.5,52.74v-8.14c0-.56-.57-1.04-1.27-1.04h-18.92c-5.92,0-1.27.42-1.27.97,0,1.88-.19,6.05-.25,8.14-.06,2.09.57,1.04,1.34,1.04h19.18c3.89,0,1.27-.49,1.27-1.04h0Z" data-active="1" style="fill: url(#toothgen-52-radial-gradient-11-1);" />
        <path d="M30.44,52.74c0-2.71-.25-5.49-.32-8.14-.13-.83-1.78-.49-2.93-.63h-3.76c-2.61,0-8.73-.35-11.28-.28h-1.85c-.45,0-.89.7-.57,1.04,0,2.64,0,5.42-.25,8.07,0,0,0,.14.25.28.19,0,.32.14.7.14h1.85l3.76.21c2.48,0,8.85.28,11.28.35h1.85c.57,0,1.34-.28,1.34-.97h0Zm.13,0c0,.77-.83,1.11-1.47,1.11h-1.85c-2.36,0-8.79.28-11.28.35-1.21,0-4.46.14-5.61.14-.83.14-2.42-.35-2.29-2.02v-.49c0-2.36,0-4.8.19-7.16.06-1.39,1.15-1.25,2.04-1.11,5.8,0,12.93-.42,18.79-.42,5.86,0,1.72.35,1.85,1.39,0,2.78-.19,5.49-.32,8.21h-.06Z" data-active="1" style="fill: #ffa46a;" />
        </g>
      <path id="prosthesis-implant-crown" d="M24.39,58.38c-.51,1.32-3.82.9-4.97.9-1.15,0-2.36.14-2.99-.56-1.59-1.46-.51-7.02.89-8.35,1.72-1.67,4.91-1.39,6.24.63.76,1.11.83,2.92.89,4.38,0,.97.13,1.88,0,2.71v.21h-.06Z" data-active="1" style="display: none; fill: #f9ae94; stroke: #1b3f1c; stroke-miterlimit: 10;" />
      </g>
    <g id="prosthesis" data-active="1">
      <path id="prosthesis-connector" d="M16.36,52.19c3.82-.14,7.96.35,11.66-.35,1.91-.42,3.57-2.3,2.68-4.17-1.53-2.64-5.1-2.09-8.28-2.23h-6.75c-2.04,0-4.27,0-5.99,1.04-1.59,1.04-1.97,3.41-.57,4.59,1.97,1.46,4.52,1.04,7.13,1.11,0,0,.13,0,.13,0Z" data-active="1" style="display: none; fill: url(#toothgen-52-linear-gradient-11-18); stroke: #1b3f1c; stroke-miterlimit: 10; stroke-width: .2px;" />
      <path id="prosthesis-crown" d="M27.51,56.5c-.83,2.43-6.75,1.67-8.79,1.74-1.91,0-4.14.28-5.35-.97-2.8-2.71-.89-13.15,1.59-15.58,3.06-3.06,8.66-2.57,11.08,1.18,1.34,2.09,1.53,5.42,1.59,8.14,0,1.81.25,3.55,0,5.08l-.13.35h0Z" data-active="1" style="display: none; fill: #f9ae94; stroke: #1b3f1c; stroke-miterlimit: 10;" />
      </g>
    <g id="telescope" data-active="1">
      <path id="telescope-bridge-connector" d="M16.36,52.19c3.82-.14,7.96.35,11.66-.35,1.91-.42,3.57-2.3,2.68-4.17-1.53-2.64-5.1-2.09-8.28-2.23h-6.75c-2.04,0-4.27,0-5.99,1.04-1.59,1.04-1.97,3.41-.57,4.59,1.97,1.46,4.52,1.04,7.13,1.11,0,0,.13,0,.13,0Z" data-active="1" style="display: none; fill: #388aca; stroke: #1b3f1c; stroke-miterlimit: 10; stroke-width: .5px;" />
      <g id="telescope-crown" data-active="1" style="display: none;">
        <path id="telescope-crown-outside" d="M27.76,56.5c-.89,2.43-7.07,1.67-9.24,1.74-1.97,0-4.33.28-5.61-.97-2.93-2.71-.96-13.15,1.66-15.58,3.19-3.06,9.11-2.57,11.66,1.25,1.4,2.09,1.59,5.42,1.66,8.14,0,1.81.25,3.55,0,5.08,0,0-.13.35-.13.35Z" data-active="1" style="fill: #0051bf; stroke: #1b3f1c; stroke-miterlimit: 10;" />
        <path id="telescope-crown-inside" d="M26.36,55.18c-.76,1.95-5.8,1.39-7.58,1.46-1.66,0-3.57.21-4.59-.77-2.36-2.23-.76-10.78,1.4-12.8,2.61-2.5,7.45-2.09,9.56.97,1.15,1.74,1.27,4.45,1.4,6.68,0,1.46.25,2.92,0,4.17v.28h-.19Z" data-active="1" style="fill: #aaa; stroke: #ffffff; stroke-miterlimit: 10; stroke-width: 1.6; paint-order: stroke;" />
        </g>
      </g>
    <g id="zircon" data-active="1">
      <path id="zircon-bridge-connector" d="M16.36,52.19c3.82-.14,7.96.35,11.66-.35,1.91-.42,3.57-2.3,2.68-4.17-1.53-2.64-5.1-2.09-8.28-2.23h-6.75c-2.04,0-4.27,0-5.99,1.04-1.59,1.04-1.97,3.41-.57,4.59,1.97,1.46,4.52,1.04,7.13,1.11,0,0,.13,0,.13,0Z" data-active="1" style="display: none; fill: #feffbf; stroke: #1b3f1c; stroke-miterlimit: 10; stroke-width: .2px;" />
      <path id="zircon-crown" d="M27.76,56.5c-.89,2.43-7.07,1.67-9.24,1.74-1.97,0-4.33.28-5.61-.97-2.93-2.71-.96-13.15,1.66-15.58,3.19-3.06,9.11-2.57,11.66,1.25,1.4,2.09,1.59,5.42,1.66,8.14,0,1.81.25,3.55,0,5.08,0,0-.13.35-.13.35Z" data-active="1" style="display: none; fill: #feffbf; stroke: #1b3f1c; stroke-miterlimit: 10;" />
      <path id="zircon-inlay" d="M24.9,57.13c-.57,1.53-4.4.9-5.73.97-1.21,0-2.68,0-3.44-.7-1.78-1.74-.38-8.14,1.21-9.6,2.04-1.81,5.67-1.46,7.2.97.83,1.32.89,3.41.96,5.08,0,1.11.06,2.16-.06,3.13v.21h-.13Z" data-active="1" style="display: none; fill: #feffbf; stroke: #1b3f1c; stroke-miterlimit: 10;" />
      <path id="zircon-veneer" d="M26.68,55.73c-.83,2.16-6.18,1.32-8.03,1.32-1.85,0-3.76.14-4.91-.97-2.48-2.43-.57-11.48,1.78-13.49,2.87-2.57,8.03-2.02,10.19,1.39,1.15,1.81,1.27,4.73,1.34,7.16,0,1.6.13,3.06-.06,4.45l-.13.28h0l-.19-.14Z" data-active="1" style="display: none; fill: #feffbf; stroke: #1b3f1c; stroke-miterlimit: 10;" />
      </g>
    <g id="metal" data-active="1">
      <path id="metal-bridge-connector" d="M16.36,52.19c3.82-.14,7.96.35,11.66-.35,1.91-.42,3.57-2.3,2.68-4.17-1.53-2.64-5.1-2.09-8.28-2.23h-6.75c-2.04,0-4.27,0-5.99,1.04-1.59,1.04-1.97,3.41-.57,4.59,1.97,1.46,4.52,1.04,7.13,1.11,0,0,.13,0,.13,0Z" data-active="1" style="display: none; fill: #0051bf; stroke: #1b3f1c; stroke-miterlimit: 10; stroke-width: .2px;" />
      <path id="metal-crown" d="M27.76,56.5c-.89,2.43-7.07,1.67-9.24,1.74-1.97,0-4.33.28-5.61-.97-2.93-2.71-.96-13.15,1.66-15.58,3.19-3.06,9.11-2.57,11.66,1.25,1.4,2.09,1.59,5.42,1.66,8.14,0,1.81.25,3.55,0,5.08,0,0-.13.35-.13.35Z" data-active="1" style="display: none; fill: #0051bf; stroke: #1b3f1c; stroke-miterlimit: 10;" />
      </g>
    <g id="metal-ceramic" data-active="1">
      <path id="metal-ceramic-bridge-connector" d="M16.36,52.19c3.82-.14,7.96.35,11.66-.35,1.91-.42,3.57-2.3,2.68-4.17-1.53-2.64-5.1-2.09-8.28-2.23h-6.75c-2.04,0-4.27,0-5.99,1.04-1.59,1.04-1.97,3.41-.57,4.59,1.97,1.46,4.52,1.04,7.13,1.11,0,0,.13,0,.13,0Z" data-active="1" style="display: none; fill: url(#toothgen-52-radial-gradient-11-2); stroke: #1b3f1c; stroke-miterlimit: 10; stroke-width: .2px;" />
      <path id="metal-ceramic-crown" d="M27.76,56.5c-.89,2.43-7.07,1.67-9.24,1.74-1.97,0-4.33.28-5.61-.97-2.93-2.71-.96-13.15,1.66-15.58,3.19-3.06,9.11-2.57,11.66,1.25,1.4,2.09,1.59,5.42,1.66,8.14,0,1.81.25,3.55,0,5.08,0,0-.13.35-.13.35Z" data-active="1" style="display: none; fill: url(#toothgen-52-radial-gradient-11-3); stroke: #1b3f1c; stroke-miterlimit: 10;" />
      </g>
    <g id="gold" data-active="1">
      <path id="gold-bridge-connector" d="M16.36,52.19c3.82-.14,7.96.35,11.66-.35,1.91-.42,3.57-2.3,2.68-4.17-1.53-2.64-5.1-2.09-8.28-2.23h-6.75c-2.04,0-4.27,0-5.99,1.04-1.59,1.04-1.97,3.41-.57,4.59,1.97,1.46,4.52,1.04,7.13,1.11,0,0,.13,0,.13,0Z" data-active="1" style="display: none; fill: #ece614; stroke: #1b3f1c; stroke-miterlimit: 10; stroke-width: .2px;" />
      <path id="gold-crown" d="M27.76,56.5c-.89,2.43-7.07,1.67-9.24,1.74-1.97,0-4.33.28-5.61-.97-2.93-2.71-.96-13.15,1.66-15.58,3.19-3.06,9.11-2.57,11.66,1.25,1.4,2.09,1.59,5.42,1.66,8.14,0,1.81.25,3.55,0,5.08,0,0-.13.35-.13.35Z" data-active="1" style="display: none; fill: #ece614; stroke: #1b3f1c; stroke-miterlimit: 10;" />
      <path id="gold-inlay" d="M24.9,57.13c-.57,1.53-4.4.9-5.73.97-1.21,0-2.68,0-3.44-.7-1.78-1.74-.38-8.14,1.21-9.6,2.04-1.81,5.67-1.46,7.2.97.83,1.32.89,3.41.96,5.08,0,1.11.06,2.16-.06,3.13v.21h-.13Z" data-active="1" style="display: none; fill: #ece614; stroke: #1b3f1c; stroke-miterlimit: 10;" />
      <path id="gold-veneer" d="M26.68,55.73c-.83,2.16-6.18,1.32-8.03,1.32-1.85,0-3.76.14-4.91-.97-2.48-2.43-.57-11.48,1.78-13.49,2.87-2.57,8.03-2.02,10.19,1.39,1.15,1.81,1.27,4.73,1.34,7.16,0,1.6.13,3.06-.06,4.45l-.13.28h0l-.19-.14Z" data-active="1" style="display: none; fill: #ece614; stroke: #1b3f1c; stroke-miterlimit: 10;" />
      </g>
    <g id="emax" data-active="1">
      <path id="emax-bridge-connector" d="M16.36,52.19c3.82-.14,7.96.35,11.66-.35,1.91-.42,3.57-2.3,2.68-4.17-1.53-2.64-5.1-2.09-8.28-2.23h-6.75c-2.04,0-4.27,0-5.99,1.04-1.59,1.04-1.97,3.41-.57,4.59,1.97,1.46,4.52,1.04,7.13,1.11,0,0,.13,0,.13,0Z" data-active="1" style="display: none; fill: url(#toothgen-52-radial-gradient-11-4); stroke: #1b3f1c; stroke-miterlimit: 10; stroke-width: .2px;" />
      <path id="emax-crown" d="M27.76,56.5c-.89,2.43-7.07,1.67-9.24,1.74-1.97,0-4.33.28-5.61-.97-2.93-2.71-.96-13.15,1.66-15.58,3.19-3.06,9.11-2.57,11.66,1.25,1.4,2.09,1.59,5.42,1.66,8.14,0,1.81.25,3.55,0,5.08,0,0-.13.35-.13.35Z" data-active="1" style="display: none; fill: url(#toothgen-52-radial-gradient-11-5); stroke: #1b3f1c; stroke-miterlimit: 10;" />
      <path id="emax-inlay" d="M25.02,56.99c-.51,1.53-4.4,1.04-5.67,1.11-1.21,0-2.68.14-3.5-.56-1.78-1.67-.57-8.14,1.02-9.6,1.97-1.88,5.67-1.6,7.2.77.83,1.25,1.02,3.34,1.02,5.01,0,1.67.13,2.16,0,3.13v.21h-.13.06Z" data-active="1" style="display: none; fill: url(#toothgen-52-radial-gradient-11-6); stroke: #1b3f1c; stroke-miterlimit: 10;" />
      <path id="emax-veneer" d="M26.81,55.53c-.76,2.16-6.18,1.46-8.03,1.53-1.72,0-3.76.21-4.91-.83-2.55-2.36-.83-11.48,1.47-13.56,2.8-2.64,7.96-2.23,10.19,1.11,1.21,1.81,1.4,4.73,1.47,7.09,0,1.6.19,3.06,0,4.45l-.13.28h0Z" data-active="1" style="display: none; fill: url(#toothgen-52-radial-gradient-11-7); stroke: #1b3f1c; stroke-miterlimit: 10;" />
      </g>
    <g id="gradia" data-active="1">
      <path id="gradia-bridge-connector" d="M16.36,52.19c3.82-.14,7.96.35,11.66-.35,1.91-.42,3.57-2.3,2.68-4.17-1.53-2.64-5.1-2.09-8.28-2.23h-6.75c-2.04,0-4.27,0-5.99,1.04-1.59,1.04-1.97,3.41-.57,4.59,1.97,1.46,4.52,1.04,7.13,1.11,0,0,.13,0,.13,0Z" data-active="1" style="display: none; fill: #55ff98; stroke: #1b3f1c; stroke-miterlimit: 10; stroke-width: .2px;" />
      <path id="gradia-crown" d="M27.76,56.5c-.89,2.43-7.07,1.67-9.24,1.74-1.97,0-4.33.28-5.61-.97-2.93-2.71-.96-13.15,1.66-15.58,3.19-3.06,9.11-2.57,11.66,1.25,1.4,2.09,1.59,5.42,1.66,8.14,0,1.81.25,3.55,0,5.08,0,0-.13.35-.13.35Z" data-active="1" style="display: none; fill: #55ff98; stroke: #1b3f1c; stroke-miterlimit: 10;" />
      <path id="gradia-inlay" d="M25.02,56.99c-.51,1.53-4.4,1.04-5.67,1.11-1.21,0-2.68.14-3.5-.56-1.78-1.67-.57-8.14,1.02-9.6,1.97-1.88,5.67-1.6,7.2.77.83,1.25,1.02,3.34,1.02,5.01,0,1.67.13,2.16,0,3.13v.21h-.13.06Z" data-active="1" style="display: none; fill: #55ff98; stroke: #1b3f1c; stroke-miterlimit: 10;" />
      <path id="gradia-veneer" d="M26.81,55.53c-.76,2.16-6.18,1.46-8.03,1.53-1.72,0-3.76.21-4.91-.83-2.55-2.36-.83-11.48,1.47-13.56,2.8-2.64,7.96-2.23,10.19,1.11,1.21,1.81,1.4,4.73,1.47,7.09,0,1.6.19,3.06,0,4.45l-.13.28h0Z" data-active="1" style="display: none; fill: #55ff98; stroke: #1b3f1c; stroke-miterlimit: 10;" />
      </g>
    <g id="temporary-restorations" data-active="1">
      <path id="temporary-bridge-connector" d="M16.36,52.19c3.82-.14,7.96.35,11.66-.35,1.91-.42,3.57-2.3,2.68-4.17-1.53-2.64-5.1-2.09-8.28-2.23h-6.75c-2.04,0-4.27,0-5.99,1.04-1.59,1.04-1.97,3.41-.57,4.59,1.97,1.46,4.52,1.04,7.13,1.11,0,0,.13,0,.13,0Z" data-active="1" style="display: none; fill: #fff; stroke: #1b3f1c; stroke-miterlimit: 10; stroke-width: .2px;" />
      <path id="temporary-crown" d="M27.76,56.5c-.89,2.43-7.07,1.67-9.24,1.74-1.97,0-4.33.28-5.61-.97-2.93-2.71-.96-13.15,1.66-15.58,3.19-3.06,9.11-2.57,11.66,1.25,1.4,2.09,1.59,5.42,1.66,8.14,0,1.81.25,3.55,0,5.08,0,0-.13.35-.13.35Z" data-active="1" style="display: none; fill: #fff; stroke: #1b3f1c; stroke-miterlimit: 10;" />
      <path id="temporary-inlay" d="M25.02,56.99c-.51,1.53-4.4,1.04-5.67,1.11-1.21,0-2.68.14-3.5-.56-1.78-1.67-.57-8.14,1.02-9.6,1.97-1.88,5.67-1.6,7.2.77.83,1.25,1.02,3.34,1.02,5.01,0,1.67.13,2.16,0,3.13v.21h-.13.06Z" data-active="1" style="display: none; fill: #fff; stroke: #1b3f1c; stroke-miterlimit: 10;" />
      <path id="temporary-veneer" d="M26.81,55.53c-.76,2.16-6.18,1.46-8.03,1.53-1.72,0-3.76.21-4.91-.83-2.55-2.36-.83-11.48,1.47-13.56,2.8-2.64,7.96-2.23,10.19,1.11,1.21,1.81,1.4,4.73,1.47,7.09,0,1.6.19,3.06,0,4.45l-.13.28h0Z" data-active="1" style="display: none; fill: #fff; stroke: #1b3f1c; stroke-miterlimit: 10;" />
      </g>
    </g>
  <g id="ortho" data-active="1">
    <g id="missing-closed" data-active="1" style="display: none;">
      <path d="M8.87,8.38c.75,1.09,1.46,2.19,2.15,3.32.74,1.12,1.46,2.26,2.15,3.42,1.41,2.31,2.58,4.67,3.5,7.08.88,2.4,1.49,4.85,1.87,7.31.18,1.23.3,2.47.38,3.77.04.64.06,1.23.07,1.75.01.45.01.84,0,1.21-.16,6.59-3.09,13.23-8.31,19.14" data-active="1" style="fill: none; stroke: #000; stroke-miterlimit: 10; stroke-width: 2px;" />
      <path d="M28.65,54.48c-5.89-5.7-8.55-12.24-8.45-18.78.01-.42.02-.9.05-1.45.03-.62.07-1.28.12-1.93.11-1.25.26-2.49.47-3.74.44-2.48,1.09-4.96,1.98-7.4.93-2.44,2.06-4.86,3.35-7.22.62-1.18,1.24-2.35,1.86-3.51.59-1.16,1.2-2.3,1.84-3.43" data-active="1" style="fill: none; stroke: #000; stroke-miterlimit: 10; stroke-width: 2px;" />
      </g>
    <g id="ortho-ring" style="display: none;" data-active="1">
      <ellipse cx="19.5" cy="48.15" rx="2.8" ry="12.1" transform="translate(-32.1 70.4) rotate(-89.4)" style="fill: #bfbfbf;" data-active="1" />
      <line x1="9.9" y1="54.2" x2="29.4" y2="54.2" style="fill: none; stroke: #737373; stroke-linecap: round; stroke-linejoin: round; stroke-width: .8px;" data-active="1" />
      <line x1="9.9" y1="48.6" x2="29.4" y2="48.6" style="fill: none; stroke: #737373; stroke-linecap: round; stroke-linejoin: round; stroke-width: .8px;" data-active="1" />
      <line x1="8.7" y1="52.1" x2="30.5" y2="52.1" style="fill: none; stroke: #000; stroke-linecap: round; stroke-linejoin: round; stroke-width: .8px;" data-active="1" />
      <line x1="8.7" y1="50.3" x2="30.5" y2="50.3" style="fill: none; stroke: #000; stroke-linecap: round; stroke-linejoin: round; stroke-width: .8px;" data-active="1" />
      <path d="M26.49,46.21c.45,0,.89.14.89.49v2.92c0,.21-.32.42-.57.49h-.32" style="fill: none; stroke: #737373; stroke-linecap: round; stroke-linejoin: round; stroke-width: .8px;" data-active="1" />
      <path d="M12.79,50.1h-.32c-.25,0-.57-.21-.57-.49v-2.92c0-.28.38-.49.76-.49h.13" style="fill: none; stroke: #737373; stroke-linecap: round; stroke-linejoin: round; stroke-width: .8px;" data-active="1" />
      </g>
    <g id="ortho-bracket" style="display: none;" data-active="1">
      <ellipse cx="17.8" cy="47.95" rx="1.3" ry="4.4" style="fill: #bfbfbf;" data-active="1" />
      <ellipse cx="22.5" cy="47.88" rx="1.3" ry="4.4" style="fill: #bfbfbf;" data-active="1" />
      <line x1="19" y1="54.2" x2="21.3" y2="54.2" style="fill: none; stroke: #737373; stroke-linecap: round; stroke-linejoin: round; stroke-width: .8px;" data-active="1" />
      <line x1="19" y1="48.6" x2="21.3" y2="48.6" style="fill: none; stroke: #737373; stroke-linecap: round; stroke-linejoin: round; stroke-width: .8px;" data-active="1" />
      <path d="M20.82,47.32v-1.6c0-.35.32-.63.64-.63.32,0,.7.28.76.7v4.52c0,.42-.32.77-.64.77-.32,0-.7-.28-.7-.7v-1.53" style="fill: none; stroke: #737373; stroke-linecap: round; stroke-linejoin: round; stroke-width: .8px;" data-active="1" />
      <path d="M19.23,47.32v-1.6c0-.35-.32-.63-.64-.63-.32,0-.7.28-.76.7v4.52c0,.42.32.77.64.77.32,0,.7-.28.7-.7v-1.53" style="fill: none; stroke: #737373; stroke-linecap: round; stroke-linejoin: round; stroke-width: .8px;" data-active="1" />
      <line x1="16.9" y1="52.1" x2="23.4" y2="52.1" style="fill: none; stroke: #000; stroke-linecap: round; stroke-linejoin: round; stroke-width: .8px;" data-active="1" />
      <line x1="16.9" y1="50.3" x2="23.4" y2="50.3" style="fill: none; stroke: #000; stroke-linecap: round; stroke-linejoin: round; stroke-width: .8px;" data-active="1" />
      <path d="M22.28,46.21c.32,0,.64.14.64.49v2.92c0,.21-.19.42-.38.49h-.25" style="fill: none; stroke: #737373; stroke-linecap: round; stroke-linejoin: round; stroke-width: .8px;" data-active="1" />
      <path d="M17.76,50.1h-.25c-.19,0-.38-.21-.38-.49v-2.92c0-.28.25-.49.51-.49h.13" style="fill: none; stroke: #737373; stroke-linecap: round; stroke-linejoin: round; stroke-width: .8px;" data-active="1" />
      </g>
    <g id="arrows" data-active="1">
      <g id="arrow-distal" style="display: none;" data-active="1">
        <line x1="5.3" y1="61.4" x2="1.5" y2="64.8" style="fill: none; stroke: #2e3192; stroke-miterlimit: 10; stroke-width: .8px;" data-active="1" />
        <line x1="8.1" y1="64.9" x2="1.4" y2="64.9" style="fill: none; stroke: #2e3192; stroke-miterlimit: 10; stroke-width: .8px;" data-active="1" />
        <line x1="5.3" y1="68.3" x2="1.5" y2="64.9" style="fill: none; stroke: #2e3192; stroke-miterlimit: 10; stroke-width: .8px;" data-active="1" />
        </g>
      <g id="arrow-mesial" style="display: none;" data-active="1">
        <line x1="34.2" y1="68.8" x2="38.5" y2="65.1" style="fill: none; stroke: #2e3192; stroke-miterlimit: 10; stroke-width: .8px;" data-active="1" />
        <line x1="31.1" y1="65" x2="38.7" y2="65" style="fill: none; stroke: #2e3192; stroke-miterlimit: 10; stroke-width: .8px;" data-active="1" />
        <line x1="34.2" y1="61.4" x2="38.5" y2="65" style="fill: none; stroke: #2e3192; stroke-miterlimit: 10; stroke-width: .8px;" data-active="1" />
        </g>
      <g id="arrow-down" style="display: none;" data-active="1">
        <line x1="38.9" y1="40.2" x2="35.1" y2="34.2" style="fill: none; stroke: #2e3192; stroke-miterlimit: 10; stroke-width: .8px;" data-active="1" />
        <line x1="34.8" y1="44.5" x2="35.1" y2="33.9" style="fill: none; stroke: #2e3192; stroke-miterlimit: 10; stroke-width: .8px;" data-active="1" />
        <line x1="31" y1="40.1" x2="34.9" y2="34.1" style="fill: none; stroke: #2e3192; stroke-miterlimit: 10; stroke-width: .8px;" data-active="1" />
        </g>
      <g id="arrow-up" style="display: none;" data-active="1">
        <line x1="31" y1="38.2" x2="34.8" y2="44.3" style="fill: none; stroke: #2e3192; stroke-miterlimit: 10; stroke-width: .8px;" data-active="1" />
        <line x1="34.8" y1="33.9" x2="34.8" y2="44.5" style="fill: none; stroke: #2e3192; stroke-miterlimit: 10; stroke-width: .8px;" data-active="1" />
        <line x1="38.7" y1="38.3" x2="34.9" y2="44.3" style="fill: none; stroke: #2e3192; stroke-miterlimit: 10; stroke-width: .8px;" data-active="1" />
        </g>
      <g id="arrow-rotation" style="display: none;" data-active="1">
        <path d="M19.8,61.44c-.13,0-.51-.21-.7-.7-.19-.49-.13-.63-.06-.77" style="fill: none; stroke: #2e3192; stroke-miterlimit: 10; stroke-width: .8px;" data-active="1" />
        <path d="M18.59,58.24c.64-.97,3.89-.9,3.44,1.18-.06,2.43-5.1.63-2.17,0" style="fill: none; stroke: #2e3192; stroke-miterlimit: 10; stroke-width: .8px;" data-active="1" />
        </g>
      </g>
    </g>
  <g id="specials" data-active="1">
    <g id="fracture-vertical" style="display: none;" data-active="1">
      <line id="fracture-vertical-3" x1="28.9" y1="7.1" x2="9.6" y2="59.9" style="fill: none; stroke: #fdecc5; stroke-miterlimit: 10; stroke-width: 2px;" data-active="1" />
      <line id="fracture-vertical-2" x1="25.7" y1="15.6" x2="8.7" y2="62.5" style="fill: none; isolation: isolate; opacity: .6; stroke: #9e00e9; stroke-miterlimit: 10; stroke-width: .2px;" data-active="1" />
      <polyline id="fracture-vertical-1" points="25.28,18.76 21.87,19.39 23.09,25.68 20.57,25.68 21.54,28.83 19.53,28.93 21.21,33.50 17.94,32.95 19.80,37.58 16.42,37.79 17.89,42.73 15.79,42.38 16.42,46.62 14.83,46.42 15.28,49.41 13.75,49.61 15.02,52.40 12.54,52.12 13.62,55.11" style="fill: none; isolation: isolate; opacity: .4; stroke: #ed1c24; stroke-miterlimit: 10; stroke-width: .8px;" data-active="1" />
      </g>
    <g id="fracture-horizontal" style="display: none;" data-active="1">
      <line id="fracture-horizontal-3" x1="11.5" y1="11.7" x2="29.6" y2="31" style="fill: none; stroke: #fdecc5; stroke-miterlimit: 10; stroke-width: 2px;" data-active="1" />
      <line id="fracture-horizontal-2" x1="14.8" y1="15.3" x2="27.7" y2="29" style="fill: none; isolation: isolate; opacity: .6; stroke: #9e00e9; stroke-miterlimit: 10; stroke-width: .2px;" data-active="1" />
      <polyline id="fracture-horizontal-1" points="14.71,18.76 16.38,18.03 16.63,20.65 18.88,19.29 19.15,23.90 20.76,22.12 20.77,26.20 22.79,24.53 22.47,28.72 24.71,27.36 23.98,30.50 25.92,29.98" style="fill: none; isolation: isolate; opacity: .4; stroke: #ed1c24; stroke-miterlimit: 10; stroke-width: .8px;" data-active="1" />
      </g>
    <g id="parapulpal-pin" data-active="1" style="display: none;">
      <g id="parapulpal-pin-shape" data-active="1">
        <path d="M23.69,42.66c.06.35,0,.42,0,.56v.56c.06.28,0,.42,0,.56.06.21,0,.42,0,.56v1.67c.06.28.25.56.64.77.38.21.13.14.06.21-.06.07,0,.14,0,.21,0,.07,0,.14-.19.21-.76.14-1.59.14-2.36,0-.76-.14-.19,0-.19-.14v-.42c0-.14.57-.21.64-.7.06-.49,0-.49,0-.77l.13-3.48.13-3.06c0-.83.13-1.6.25-2.43.13-.81,0-.14.13-.21.06.14.06.21.13.35.19.83.25,1.67.32,2.5l.19,2.43v.14c.06.14,0,.35,0,.56h.13,0Z" data-active="1" style="fill: #0a0a0a;" />
        <path d="M22.73,45.16c-.06,0-.13-.14-.13-.21v-2.57l.13-2.71.13-1.53h.06v6.47c0,.21,0,.42-.19.56Z" data-active="1" style="fill: #f0edee;" />
        <path d="M23.3,44.75h0v-1.18h0v-.7h0v-4.52c0,.14.06.35.06.49v.35l.19,2.36v2.23l.13,1.25v.21h-.06c-.13-.14-.19-.28-.32-.42h0Z" data-active="1" style="fill: #eaeaea;" />
        <path d="M23.3,44.75v-.14c-.06,0-.19-7.3-.19-7.3v-.21l.13.49c0,0,.06.14,0,.14h0c-.06,0,0,.49,0,.56v4.31h0v1.95h0v.21c0,0,.06,0,0,0h0Z" data-active="1" style="fill: #9c9c9c;" />
        <path d="M22.73,45.93c.13.21.32.42.45.63.13.21,0,.21,0,.35-.13.28-.51.28-.89.35.57-.49.13-.77.57-1.32h-.13Z" data-active="1" style="fill: #c7c7c7;" />
        <path d="M23.62,45.93c.32.28.19.49.25.7v.14c0,.14.19.35.38.49h-.57c-.45-.14-.51-.56-.45-.7.06-.14.25-.42.38-.56h0Z" data-active="1" style="fill: #b5b4b6;" />
        <path d="M23.24,47.32c.25,0,1.08,0,1.27.14v.35h-.96c-.32,0-.25,0-.25-.14v-.28h-.06Z" data-active="1" style="fill: #bababa;" />
        <path d="M22.28,47.74v-.35h.83c0,.14,0,.28-.13.35-.13.07-.51,0-.76,0h.06Z" data-active="1" style="fill: #cdcdcd;" />
        <path d="M22.35,47.95h1.78-1.72c-.57,0,0,0-.06,0-.06,0,0,0,0,0Z" data-active="1" style="fill: #9da1a2;" />
        <path d="M22.28,47.39v.35h-.38v-.35c.13,0,.32,0,.45-.14h-.06v.14Z" data-active="1" style="fill: #8b8d8c;" />
        <path d="M22.92,45.44c.06,0,.13,0,.19.14l-.19.14c0,0-.13,0-.13-.14,0,0,.06,0,.13-.14Z" data-active="1" style="fill: #acaaac;" />
        <path d="M23.43,45.44h.13l-.13.14c-.06,0-.13,0-.19-.14h.19Z" data-active="1" style="fill: #b2b0b3;" />
        <path d="M22.73,45.58h.13c0,0-.06,0-.13.14h-.13c-.06,0,0,0,.13-.14Z" data-active="1" style="fill: #e4e1e2;" />
        <path d="M23.43,45.72c-.13.14-.06.14-.19.21v-.28l.19.14h0Z" data-active="1" style="fill: #8b8989;" />
        <path d="M22.73,45.3h.13v.14h-.19c0,0,0-.14.13-.14h-.06Z" data-active="1" style="fill: #e3e3e3;" />
        <path d="M23.49,45.72h.25c.06,0,0,0-.06.14,0,0-.13,0-.13-.14,0,0-.06,0,0,0h0Z" data-active="1" style="fill: #cacaca;" />
        <path d="M22.99,45.72c.06,0,.13,0,.19-.14v.28c-.06,0-.13,0-.19-.14Z" data-active="1" style="fill: #7a797b;" />
        <path d="M23.49,45.37h.19c0,0,0,.14-.06,0-.06-.14-.06,0-.13,0Z" data-active="1" style="fill: #d2d1d3;" />
        <path d="M22.99,45.37c.06,0,.13,0,.19-.14v.21h-.19Z" data-active="1" style="fill: #7f7e80;" />
        <path d="M23.24,45.44c0,0,0-.42,0-.14,0,0,.13,0,.06,0h-.13.06v.14Z" data-active="1" style="fill: #7c7b7f;" />
        </g>
      </g>
    <g id="calculus" data-active="1" style="display: none;">
      <path id="calculus-shape-8" d="M22.09,39.95c.25,0,.51-.14.57-.28.19-.14.25-.42-.06-.49-.45-.14-.89.56-.51.77h0Z" data-active="1" style="fill: #c4ff98;" />
      <path id="calculus-shape-7" d="M17.51,39.81c-.06.28.13.56.25.63.13.21.38.28.45,0,.13-.49-.51-.97-.7-.56h0Z" data-active="1" style="fill: #c4ff98;" />
      <path id="calculus-shape-6" d="M16.23,40.71c.32.14.7-.21.89-.42.25-.21.45-.63-.06-.77-.64-.21-1.34.83-.83,1.18h0Z" data-active="1" style="fill: #9e1f63;" />
      <path id="calculus-shape-5" d="M17.38,40.92c-.32.14-.38.7-.45.9,0,.35,0,.77.51.56.57-.28.51-1.6-.13-1.46h0Z" data-active="1" style="fill: #9e1f63;" />
      <path id="calculus-shape-4" d="M16.04,42.52c.32-.14.45-.63.45-.9.06-.35,0-.77-.51-.56-.64.28-.57,1.53,0,1.46h.06Z" data-active="1" style="fill: #9e1f63;" />
      <path id="calculus-shape-3" d="M23.11,39.32c-.06.35.25.77.38.9.25.28.57.42.7-.14.13-.7-.83-1.39-1.15-.83h0Z" data-active="1" style="fill: #9e1f63;" />
      <path id="calculus-shape-2" d="M22.22,41.69c.32,0,.57-.49.7-.7.19-.35.25-.7-.32-.7-.57,0-1.02,1.25-.45,1.39h.06Z" data-active="1" style="fill: #9e1f63;" />
      <path id="calculus-shape-1" d="M23.88,42.45c.32,0,.45-.63.51-.83.13-.35,0-.77-.45-.63-.64.21-.64,1.53-.06,1.46h0Z" data-active="1" style="fill: #9e1f63;" />
      </g>
    </g>
  <g id="plan" data-active="1">
    <g id="extraction-plan" data-active="1" style="display: none;">
      <path d="M10.88,55.46c.45-1.39,4.95-10.36,9.41-19.16.28-.5.56-1.05.83-1.71.28-.78.56-1.65.85-2.5.6-1.63,1.22-3.23,1.85-4.78,1.37-3.1,2.76-6.01,4-8.54,1.23-2.53,2.2-4.67,2.84-6.26.52-1.58.8-2.6.84-2.88" data-active="1" style="fill: none; stroke: #b70000; stroke-miterlimit: 10; stroke-width: 3px;" />
      <path d="M9.19,10.17c.21.46.57,1.45,1.09,2.85.59,1.4,1.38,3.2,2.31,5.3.95,2.09,1.99,4.47,3.04,7.02.97,2.54,1.91,5.25,2.77,8.07.21.7.41,1.33.61,1.87.2.46.4.88.6,1.31.4.92.8,1.83,1.19,2.73.78,1.8,1.53,3.55,2.21,5.16,1.37,3.23,2.47,5.92,3.03,7.44.38,1.04.76,2.09,1.27,2.99" data-active="1" style="fill: none; stroke: #b70000; stroke-miterlimit: 10; stroke-width: 3px;" />
      </g>
    <g id="crown-needed" data-active="1" style="display: none;">
      <path id="crown-needed-shape" d="M27.57,56.36c-.83,2.5-6.82,1.74-8.85,1.81-1.91,0-4.14.28-5.35-.97-2.8-2.78-.89-13.56,1.59-16.07,3.06-3.13,8.73-2.64,11.21,1.32,1.34,2.16,1.53,5.56,1.59,8.42,0,1.88.25,3.69,0,5.22l-.13.35h-.06,0Z" data-active="1" style="fill: #c83014; stroke: #1b3f1c; stroke-miterlimit: 10;" />
      <path id="crown-needed-path" d="M18.08,39.25c-1.4,2.09-2.93,4.17-4.27,6.19-.57.9-1.02,1.74-1.21,2.64,0,.14,0,.28.13.35.76,0,1.34-.97,1.91-1.6,1.53-1.88,2.87-4.45,4.71-5.91,1.21-.97,2.93-1.74,2.68-.49-1.27,4.73-6.82,8.35-8.41,12.87-.38.97-.76,2.43,0,2.78,1.53-.21,2.29-2.43,3.19-3.89,1.91-2.99,5.22-7.86,7.58-10.08,2.04-1.53,1.66,2.23.13,4.66-1.47,2.78-8.09,7.44-6.75,11.06,2.23.56,6.24-7.65,8.09-9.18,2.42-2.43,1.4,2.02,0,4.24-.76,1.46-2.17,2.85-2.8,4.38-.51,1.04.13,1.18.83.7,1.47-.83,2.87-2.5,4.01-3.89" data-active="1" style="fill: #feffbf; stroke: #1b3f1c; stroke-miterlimit: 10;" />
      </g>
    <g id="crown-replace" data-active="1" style="display: none;">
      <path id="crown-replace-shape" d="M28.08,55.87c-.89,2.43-7.07,1.67-9.24,1.74-1.97,0-4.33.28-5.61-.97-2.93-2.71-.96-13.15,1.66-15.58,3.19-3.06,9.11-2.57,11.66,1.25,1.4,2.09,1.59,5.42,1.66,8.14,0,1.81.25,3.55,0,5.08,0,0-.13.35-.13.35Z" data-active="1" style="fill: none; stroke: #c83014; stroke-miterlimit: 10; stroke-width: 3px;" />
      </g>
    </g>
  </svg>
