<?xml version='1.0' encoding='utf-8'?>
<!-- Created by Zoltan Dul in 2026 - free to use with MIT license. Part of React Odontogram Modul - https://github.com/ZoliQua/React-Odontogram-Modul - SVG Version: 2.5.0 -->
<!-- toothgen: template=53 src=13 roots=1 apex=6.03 cej=38.09 occl=64.30 root_frac=0.5503 length=58.27 source="Bild 89 (p. 111) / Bild 90 (p. 112) + Bild 83" -->
<svg data-tooth-template="53" data-root-count="1" xmlns="http://www.w3.org/2000/svg" id="canine_x5F_tooth" version="1.1" viewBox="0.0 0.0 40.3 72.3">
  <style>
    [data-active="0"] { display: none; }
  </style>
  <defs>
    <linearGradient id="toothgen-53-linear-gradient-13-0" x1="-1449.3" y1="-7062.7" x2="-1446" y2="-7062.7" gradientTransform="translate(-409.3105 -7174.3636) rotate(-15) scale(1 -1)" gradientUnits="userSpaceOnUse" data-active="1">
      <stop offset=".2" stop-color="#ff422a" stop-opacity=".5" data-active="1" />
      <stop offset="1" stop-color="#000" data-active="1" />
      </linearGradient>
    <linearGradient id="toothgen-53-linear-gradient-13-1" x1="-19771.3" y1="2798.8" x2="-19768" y2="2798.8" gradientTransform="translate(-18421.1455 -7639.5501) rotate(-165.5) scale(1 -1)" gradientUnits="userSpaceOnUse" data-active="1">
      <stop offset=".2" stop-color="#ff422a" stop-opacity=".5" data-active="1" />
      <stop offset="1" stop-color="#000" data-active="1" />
      </linearGradient>
    <linearGradient id="toothgen-53-linear-gradient-13-2" x1="-646" y1="-6089.8" x2="-642.7" y2="-6089.8" gradientTransform="translate(-114.0315 -6104.8782) rotate(-7.3) scale(1 -1)" gradientUnits="userSpaceOnUse" data-active="1">
      <stop offset=".2" stop-color="#ff422a" stop-opacity=".5" data-active="1" />
      <stop offset="1" stop-color="#000" data-active="1" />
      </linearGradient>
    <linearGradient id="toothgen-53-linear-gradient-13-3" x1="-19322.2" y1="4169.1" x2="-19318.9" y2="4169.1" gradientTransform="translate(-18727.7073 -6249.2921) rotate(-173.7) scale(1 -1)" gradientUnits="userSpaceOnUse" data-active="1">
      <stop offset=".2" stop-color="#ff422a" stop-opacity=".5" data-active="1" />
      <stop offset="1" stop-color="#000" data-active="1" />
      </linearGradient>
    <linearGradient id="toothgen-53-linear-gradient-13-4" x1="-1835.7" y1="-7518" x2="-1832.4" y2="-7518" gradientTransform="translate(-382.9208 -7716.8774) rotate(-16.7) scale(1 -1)" gradientUnits="userSpaceOnUse" data-active="1">
      <stop offset=".2" stop-color="#ff422a" stop-opacity=".5" data-active="1" />
      <stop offset="1" stop-color="#000" data-active="1" />
      </linearGradient>
    <linearGradient id="toothgen-53-linear-gradient-13-5" x1="-19163.5" y1="-602.2" x2="-19160.2" y2="-602.2" gradientTransform="translate(-18250.6134 -10523.7069) rotate(-148.4) scale(1.1 -1)" gradientUnits="userSpaceOnUse" data-active="1">
      <stop offset=".2" stop-color="#ff422a" stop-opacity=".5" data-active="1" />
      <stop offset="1" stop-color="#000" data-active="1" />
      </linearGradient>
    <linearGradient id="toothgen-53-linear-gradient-13-6" x1="-19161.5" y1="-605.4" x2="-19158.1" y2="-605.4" gradientTransform="translate(-18250.6134 -10523.7069) rotate(-148.4) scale(1.1 -1)" gradientUnits="userSpaceOnUse" data-active="1">
      <stop offset=".2" stop-color="#ff422a" stop-opacity=".5" data-active="1" />
      <stop offset="1" stop-color="#000" data-active="1" />
      </linearGradient>
    <linearGradient id="toothgen-53-linear-gradient-13-7" x1="-7085.1" y1="-10365" x2="-7081.6" y2="-10365" gradientTransform="translate(-2445.9563 -12726.4727) rotate(-47.9) scale(1.1 -1)" gradientUnits="userSpaceOnUse" data-active="1">
      <stop offset=".2" stop-color="#ff422a" stop-opacity=".5" data-active="1" />
      <stop offset="1" stop-color="#000" data-active="1" />
      </linearGradient>
    <linearGradient id="toothgen-53-linear-gradient-13-8" x1="19.6" y1="3027.3" x2="19.6" y2="3074.1" gradientTransform="translate(0 -3024.6587)" gradientUnits="userSpaceOnUse" data-active="1">
      <stop offset="0" stop-color="#ff422a" data-active="1" />
      <stop offset="1" stop-color="#9f0016" data-active="1" />
      </linearGradient>
    <linearGradient id="toothgen-53-linear-gradient-13-9" x1="-2412.6" y1="-7929.3" x2="-2409.3" y2="-7929.3" gradientTransform="translate(-1130.5926 -8184.7654) rotate(-24.9) scale(1 -1)" gradientUnits="userSpaceOnUse" data-active="1">
      <stop offset=".2" stop-color="#ff422a" stop-opacity=".5" data-active="1" />
      <stop offset="1" stop-color="#000" data-active="1" />
      </linearGradient>
    <linearGradient id="toothgen-53-linear-gradient-13-10" x1="-19981.7" y1="1071.8" x2="-19978.3" y2="1071.8" gradientTransform="translate(-17156.1351 -10246.7487) rotate(-152.2) scale(1 -1)" gradientUnits="userSpaceOnUse" data-active="1">
      <stop offset=".2" stop-color="#ff422a" stop-opacity=".5" data-active="1" />
      <stop offset="1" stop-color="#000" data-active="1" />
      </linearGradient>
    <linearGradient id="toothgen-53-linear-gradient-13-11" x1="-646" y1="-6089.8" x2="-642.7" y2="-6089.8" gradientTransform="translate(-114.0315 -6104.8782) rotate(-7.3) scale(1 -1)" gradientUnits="userSpaceOnUse" data-active="1">
      <stop offset=".2" stop-color="#ff422a" stop-opacity=".5" data-active="1" />
      <stop offset="1" stop-color="#000" data-active="1" />
      </linearGradient>
    <linearGradient id="toothgen-53-linear-gradient-13-12" x1="-19322.2" y1="4169.1" x2="-19318.9" y2="4169.1" gradientTransform="translate(-18727.7073 -6249.2921) rotate(-173.7) scale(1 -1)" gradientUnits="userSpaceOnUse" data-active="1">
      <stop offset=".2" stop-color="#ff422a" stop-opacity=".5" data-active="1" />
      <stop offset="1" stop-color="#000" data-active="1" />
      </linearGradient>
    <linearGradient id="toothgen-53-linear-gradient-13-13" x1="-1836" y1="-7518.9" x2="-1832.7" y2="-7518.9" gradientTransform="translate(-382.9208 -7716.8774) rotate(-16.7) scale(1 -1)" gradientUnits="userSpaceOnUse" data-active="1">
      <stop offset=".2" stop-color="#ff422a" stop-opacity=".5" data-active="1" />
      <stop offset="1" stop-color="#000" data-active="1" />
      </linearGradient>
    <linearGradient id="toothgen-53-linear-gradient-13-14" x1="-19163.6" y1="-601.5" x2="-19160.3" y2="-601.5" gradientTransform="translate(-18250.6134 -10523.7069) rotate(-148.4) scale(1.1 -1)" gradientUnits="userSpaceOnUse" data-active="1">
      <stop offset=".2" stop-color="#ff422a" stop-opacity=".5" data-active="1" />
      <stop offset="1" stop-color="#000" data-active="1" />
      </linearGradient>
    <linearGradient id="toothgen-53-linear-gradient-13-15" x1="-19161.5" y1="-605.4" x2="-19158.1" y2="-605.4" gradientTransform="translate(-18250.6134 -10523.7069) rotate(-148.4) scale(1.1 -1)" gradientUnits="userSpaceOnUse" data-active="1">
      <stop offset=".2" stop-color="#ff422a" stop-opacity=".5" data-active="1" />
      <stop offset="1" stop-color="#000" data-active="1" />
      </linearGradient>
    <linearGradient id="toothgen-53-linear-gradient-13-16" x1="-7086.4" y1="-10367.2" x2="-7082.9" y2="-10367.2" gradientTransform="translate(-2445.9563 -12726.4727) rotate(-47.9) scale(1.1 -1)" gradientUnits="userSpaceOnUse" data-active="1">
      <stop offset=".2" stop-color="#ff422a" stop-opacity=".5" data-active="1" />
      <stop offset="1" stop-color="#000" data-active="1" />
      </linearGradient>
    <linearGradient id="toothgen-53-linear-gradient-13-17" x1="19.4" y1="3062.5" x2="19.4" y2="3072.2" gradientTransform="translate(0 -3024.6587)" gradientUnits="userSpaceOnUse" data-active="1">
      <stop offset=".2" stop-color="#cf0" stop-opacity=".5" data-active="1" />
      <stop offset="1" stop-color="#b4c500" data-active="1" />
      </linearGradient>
    <linearGradient id="toothgen-53-linear-gradient-13-18" x1="19.2" y1="3058.7" x2="19.2" y2="3066.2" gradientTransform="translate(0 -3024.6587)" gradientUnits="userSpaceOnUse" data-active="1">
      <stop offset="0" stop-color="#c8c9c9" data-active="1" />
      <stop offset="1" stop-color="#828282" data-active="1" />
      </linearGradient>
    <radialGradient id="toothgen-53-radial-gradient-13-0" cx="20.9" cy="-3014.2" fx="20.9" fy="-3014.2" r="11.5" gradientTransform="matrix(1,0,0,1.14530,0,0.98568) translate(-.3 -2965.2292) scale(1 -1)" gradientUnits="userSpaceOnUse" data-active="1">
      <stop offset="0" stop-color="#fff" data-active="1" />
      <stop offset="0" stop-color="#ececec" data-active="1" />
      <stop offset=".3" stop-color="#cfcfcf" data-active="1" />
      <stop offset=".6" stop-color="#bababa" data-active="1" />
      <stop offset=".8" stop-color="#aeaeae" data-active="1" />
      <stop offset="1" stop-color="#aaa" data-active="1" />
      </radialGradient>
    <radialGradient id="toothgen-53-radial-gradient-13-1" cx="-524.6" cy="-3014.9" fx="-524.6" fy="-3014.9" r="10.2" gradientTransform="matrix(1,0,0,1.14530,0,0.98568) translate(754.2872 -2965.2292) scale(1.4 -1)" gradientUnits="userSpaceOnUse" data-active="1">
      <stop offset="0" stop-color="#fff" data-active="1" />
      <stop offset="0" stop-color="#fefefe" data-active="1" />
      <stop offset=".2" stop-color="#f8d6d4" data-active="1" />
      <stop offset=".3" stop-color="#f2b5b2" data-active="1" />
      <stop offset=".5" stop-color="#ee9b98" data-active="1" />
      <stop offset=".6" stop-color="#eb8985" data-active="1" />
      <stop offset=".8" stop-color="#e97e79" data-active="1" />
      <stop offset="1" stop-color="#e97b76" data-active="1" />
      </radialGradient>
    <linearGradient id="toothgen-53-linear-gradient-13-19" x1="19.1" y1="3080" x2="19.1" y2="3070.3" gradientTransform="translate(0 -3024.6587)" gradientUnits="userSpaceOnUse" data-active="1">
      <stop offset="0" stop-color="#f9ae94" data-active="1" />
      <stop offset=".5" stop-color="#cd986a" data-active="1" />
      <stop offset="1" stop-color="#f9ae94" data-active="1" />
      </linearGradient>
    <radialGradient id="toothgen-53-radial-gradient-13-2" cx="19.1" cy="20.3" fx="19.1" fy="20.3" r="13.2" gradientTransform="matrix(1,0,0,1.14530,0,0.98568) translate(0 70.8) scale(1 -1)" gradientUnits="userSpaceOnUse" data-active="1">
      <stop offset="0" stop-color="#feff5f" data-active="1" />
      <stop offset="0" stop-color="#f9fc60" data-active="1" />
      <stop offset=".2" stop-color="#edf564" data-active="1" />
      <stop offset=".4" stop-color="#d8ea6b" data-active="1" />
      <stop offset=".5" stop-color="#bbd975" data-active="1" />
      <stop offset=".6" stop-color="#95c482" data-active="1" />
      <stop offset=".8" stop-color="#68ab91" data-active="1" />
      <stop offset=".9" stop-color="#328da3" data-active="1" />
      <stop offset="1" stop-color="#0071b5" data-active="1" />
      </radialGradient>
    <radialGradient id="toothgen-53-radial-gradient-13-3" cx="19.6" cy="22.5" fx="19.6" fy="22.5" r="14.6" gradientTransform="matrix(1,0,0,1.14530,0,0.98568) translate(0 70.8) scale(1 -1)" gradientUnits="userSpaceOnUse" data-active="1">
      <stop offset="0" stop-color="#feff5f" data-active="1" />
      <stop offset="0" stop-color="#f9fc60" data-active="1" />
      <stop offset=".2" stop-color="#edf564" data-active="1" />
      <stop offset=".4" stop-color="#d8ea6b" data-active="1" />
      <stop offset=".5" stop-color="#bbd975" data-active="1" />
      <stop offset=".6" stop-color="#95c482" data-active="1" />
      <stop offset=".8" stop-color="#68ab91" data-active="1" />
      <stop offset=".9" stop-color="#328da3" data-active="1" />
      <stop offset="1" stop-color="#0071b5" data-active="1" />
      </radialGradient>
    <radialGradient id="toothgen-53-radial-gradient-13-4" cx="19.1" cy="20.3" fx="19.1" fy="20.3" r="13.2" gradientTransform="matrix(1,0,0,1.14530,0,0.98568) translate(0 70.8) scale(1 -1)" gradientUnits="userSpaceOnUse" data-active="1">
      <stop offset="0" stop-color="#fff" data-active="1" />
      <stop offset="0" stop-color="#fdf3ea" data-active="1" />
      <stop offset=".2" stop-color="#f9d8b9" data-active="1" />
      <stop offset=".3" stop-color="#f5c18f" data-active="1" />
      <stop offset=".4" stop-color="#f2ae6c" data-active="1" />
      <stop offset=".6" stop-color="#f09f52" data-active="1" />
      <stop offset=".7" stop-color="#ef953f" data-active="1" />
      <stop offset=".9" stop-color="#ee8f33" data-active="1" />
      <stop offset="1" stop-color="#ee8d30" data-active="1" />
      </radialGradient>
    <radialGradient id="toothgen-53-radial-gradient-13-5" cx="19.6" cy="22.5" fx="19.6" fy="22.5" r="14.6" gradientTransform="matrix(1,0,0,1.14530,0,0.98568) translate(0 70.8) scale(1 -1)" gradientUnits="userSpaceOnUse" data-active="1">
      <stop offset="0" stop-color="#fff" data-active="1" />
      <stop offset="0" stop-color="#fdf3ea" data-active="1" />
      <stop offset=".2" stop-color="#f9d8b9" data-active="1" />
      <stop offset=".3" stop-color="#f5c18f" data-active="1" />
      <stop offset=".4" stop-color="#f2ae6c" data-active="1" />
      <stop offset=".6" stop-color="#f09f52" data-active="1" />
      <stop offset=".7" stop-color="#ef953f" data-active="1" />
      <stop offset=".9" stop-color="#ee8f33" data-active="1" />
      <stop offset="1" stop-color="#ee8d30" data-active="1" />
      </radialGradient>
    <radialGradient id="toothgen-53-radial-gradient-13-6" cx="19.6" cy="-992.1" fx="19.6" fy="-992.1" r="9" gradientTransform="matrix(1,0,0,1.14530,0,0.98568) translate(0 -937.2) scale(1 -1)" gradientUnits="userSpaceOnUse" data-active="1">
      <stop offset="0" stop-color="#fff" data-active="1" />
      <stop offset="0" stop-color="#fdf3ea" data-active="1" />
      <stop offset=".2" stop-color="#f9d8b9" data-active="1" />
      <stop offset=".3" stop-color="#f5c18f" data-active="1" />
      <stop offset=".4" stop-color="#f2ae6c" data-active="1" />
      <stop offset=".6" stop-color="#f09f52" data-active="1" />
      <stop offset=".7" stop-color="#ef953f" data-active="1" />
      <stop offset=".9" stop-color="#ee8f33" data-active="1" />
      <stop offset="1" stop-color="#ee8d30" data-active="1" />
      </radialGradient>
    <radialGradient id="toothgen-53-radial-gradient-13-7" cx="19.8" cy="-985.9" fx="19.8" fy="-985.9" r="12.4" gradientTransform="matrix(1,0,0,1.14530,0,0.98568) translate(0 70.8) scale(1 -1)" gradientUnits="userSpaceOnUse" data-active="1">
      <stop offset="0" stop-color="#fff" data-active="1" />
      <stop offset="0" stop-color="#fdf3ea" data-active="1" />
      <stop offset=".2" stop-color="#f9d8b9" data-active="1" />
      <stop offset=".3" stop-color="#f5c18f" data-active="1" />
      <stop offset=".4" stop-color="#f2ae6c" data-active="1" />
      <stop offset=".6" stop-color="#f09f52" data-active="1" />
      <stop offset=".7" stop-color="#ef953f" data-active="1" />
      <stop offset=".9" stop-color="#ee8f33" data-active="1" />
      <stop offset="1" stop-color="#ee8d30" data-active="1" />
      </radialGradient>
    </defs>
  <g id="base" data-active="1">
    <path id="bone-base" d="M-0.05,-16.70L39.28,-16.70L39.28,30.30L-0.05,30.30Z" data-active="1" style="fill: #fdecc5;" />
    <path id="gum-base" d="M-0.05,28.30L39.28,28.30L39.28,45.30L36.28,45.30C33.03,45.30 29.78,42.96 26.54,40.09L12.69,40.09C9.44,42.96 6.19,45.30 2.95,45.30L-0.05,45.30Z" data-active="1" style="fill: #f79f9a;" />
    </g>
  <g id="mods" data-active="1">
    <path id="parodontal" d="M11.12,35c-.08.49-.21,1.1-.35,1.74-.15.61-.31,1.2-.45,1.72-.27.87-.4,1.62-.05,2.1.44.55,1.13.71,1.83.87,1.57.32,3.31.55,4.8.79,3.66.79,8.37.63,10.73-2.44.2-.38.27-.78.27-1.23,0-.5-.07-1.08-.16-1.71-.17-1.34-.44-2.63-.47-3.89-.31-3.84.51-9.13-.04-13.31-.37-2.09-1.11-3.9-2.47-5.11-1.37-1.21-3.28-1.82-6.02-1.5-2.21.31-3.78,1.42-4.91,3.01-1.08,1.59-1.66,3.65-1.95,5.88-.41,4.45.06,9.55-.69,12.76l.02.23h-.09,0Z" data-active="1" style="display: none; fill: #ffa46a;" />
    <g id="inflammation" data-active="1">
      <g id="cysta" data-active="1" style="display: none;">
        <path id="cysta-outside" d="M9.35,6.6c-1.45,1.37-2.17,3.89-2.13,6.33.07,1.22.4,2.41.96,3.43.59,1.02,1.35,1.86,2.25,2.38,3.55,2.06,5.35,2.06,7.69,2.29,2.22.23,5.29.09,8.06-.96,1.4-.52,2.74-1.27,3.84-2.31,1.09-1.04,1.92-2.37,2.23-4.06.18-2.06-.28-3.74-1.1-5.08-.76-1.35-1.86-2.37-3.16-3.12-2.6-1.5-6.12-1.93-9.01-1.76-3.04,0-7.3.57-9.64,2.98h0Z" data-active="1" style="fill: #ffa46a;" />
        <path id="cysta-inside" d="M10.86,7.17c-1.26,1.26-1.84,3.52-1.77,5.68.17,2.16,1.16,4.22,2.61,5.08,2.87,1.72,4.7,1.72,6.52,2.06,1.92.17,4.57.06,6.94-.84,1.2-.45,2.33-1.1,3.26-2.01.92-.91,1.61-2.07,1.89-3.56.31-3.84-1.31-6.18-3.53-7.54-2.18-1.36-5.14-1.73-7.58-1.62-2.53,0-6.18.46-8.23,2.63h-.1Z" data-active="1" style="fill: #feffd5;" />
        </g>
      <g id="granuloma" data-active="1" style="display: none;">
        <path id="granuloma-outside" d="M11.79,5.91c-1.09,1.15-1.57,3.26-1.5,5.31.09,2.05.92,4.02,2.34,4.88,2.85,1.72,4.16,1.72,6,1.95,1.79.17,4.22.06,6.4-.8,2.18-.86,4.05-2.46,4.49-5.27.12-1.78-.2-3.21-.79-4.37-.54-1.16-1.38-2.03-2.38-2.67-2.01-1.29-4.75-1.66-7.03-1.55-2.33,0-5.68.46-7.5,2.52Z" data-active="1" style="fill: #ffa46a;" />
        <path id="granuloma-inside" d="M13,6.71c-1.93,1.95-1.51,6.87.61,8.25,2.18,1.37,3.59,1.37,5.01,1.49,1.52.17,3.57.09,5.37-.62,1.8-.7,3.3-2.02,3.67-4.31.32-2.92-.85-4.72-2.52-5.77-1.66-1.05-3.92-1.33-5.74-1.22-1.93,0-4.76.34-6.29,2.06h-.1Z" data-active="1" style="fill: #feffd5;" />
        </g>
      <g id="abscess" data-active="1" style="display: none;">
        <path id="abscess-inside" d="M11.24,7.63c-.48.4-1.09-.06-2.02-.21-.93-.16-2.19-.01-4.05,1.59-4.04,3.21,4.29,2.29,4.45,5.15.41,2.86-2.51,3.21-1.84,3.66.68.46,7.13-2.06,7.68-1.95,1.2.46,2.18.46,3.16.57,1.42.11,3.27,0,4.9-.46,1.64-.46,2.83.34,3.6-.46.75-.8,8.15-.69,7.87-1.6-.32-.92-5-3.32-4.96-3.89.09-1.03,3.36-3.78,3.16-4.47-.2-.69-6.45,1.95-7.08,1.37-.62-.57-.32-1.95-.72-2.18-.71-.34-1.82,0-2.64-.23-.81-.23-2.33-.46-3.35-.46-1.01,0-2.53.23-3.95.69-1.42.46-1.82,1.03-2.44,1.72l-1.42-1.15-.34,2.18h0Z" data-active="1" style="fill: #feffd5; stroke: #ffa46a; stroke-miterlimit: 10;" />
        </g>
      </g>
    <g id="mobility" data-active="1" style="display: none;">
      <path id="tooth-mobility-2" d="M23.82,18.17l3.19-1.95c-1.03,2.06-1.98,4.12-3.03,6.18,1.19-.69,2.29-1.37,3.5-1.95-1.45,2.41-2.76,4.92-3.91,7.44,1.29-.46,2.51-1.03,3.84-1.49-1.17,1.83-2.28,3.66-3.33,5.5.75-.34,1.5-.57,2.26-.8-.67,1.49-1.38,2.86-2.06,4.24.91-.69,1.82-1.15,2.83-1.49-.4.69-.8,1.4-1.16,2.16-.35.77-.67,1.51-.93,2.17.61-.29,1.22-.5,1.92-.61-.35.51-.68.97-1.01,1.37-.33.37-.65.71-1,1.04" data-active="1" style="fill: none; stroke: #f99; stroke-miterlimit: 10; stroke-width: .8px;" />
      <path id="tooth-mobility-1" d="M11.88,17.13c1.08-.34,2.28,0,3.28,1.15-1.46,1.26-2.88,2.52-4.28,3.55,1.36,0,2.74.23,4.03.8-1.27,1.15-2.56,2.52-3.6,3.89,1,.11,1.92.46,2.84.92-.79.92-1.65,1.83-2.4,2.75.65,0,1.43.34,2.05,1.03-.72,1.26-1.42,2.75-2.12,4.24.79-.12,1.57-.35,2.36-.46-.59.58-1.14,1.31-1.65,2.11-.52.73-1.02,1.44-1.5,2.08.61.15,1.31.22,1.92.15" data-active="1" style="fill: none; stroke: #f99; stroke-miterlimit: 10; stroke-width: .8px;" />
      </g>
    </g>
  <g id="tooth-variants" data-active="1">
    <path id="no-tooth-after-extraction" d="M19.69,39.12c1.57-.48,7.15.96,6.63-.31-.16-.43-.31-.98-.43-1.66-.11-.73-.2-1.55-.27-2.38-.12-1.64-.15-3.47-.15-5.39.01-3.84.08-8.05-.2-11.84-.46-3.79-1.24-7.17-2.37-9.35-1.05-2.18-2.49-3.16-4.62-2.16-1.09.52-1.92,2.12-2.6,4.41-.72,2.29-1.2,5.26-1.41,8.52-.1,3.26.02,6.8.21,10.22.09,1.71.17,3.39.23,4.99.02.8.04,1.6.04,2.39,0,.77-.01,1.44-.03,2-.26,7.63,2.53,1.07,4.97.56Z" data-active="1" style="display: none; fill: #fff; stroke: #f99; stroke-miterlimit: 10; stroke-width: .2px;" />
    <path id="tooth-under-gum" d="M15.55,4.31c-.2.69-.41,1.49-.51,2.29-.1,2.86.28,5.96.42,8.7.58,3.55.06,6.76.64,10.19.3,2.18,1.52,3.89,2.58,5.61,1.19,2.41,3.19,6.26,5.42,4.24.92-.92,1.55-2.75,1.97-4.7.46-1.95.67-4.01.67-5.38-.02-1.95-.47-4.12-1.67-5.61-1.24-1.49-2.1-2.06-2.63-3.66-1.1-2.29-2.52-6.76-3.54-8.93-.51-1.26-1.42-2.06-2.43-2.75" data-active="1" style="display: none; fill: #ebebeb; stroke: #c8c9c9; stroke-miterlimit: 10;" />
    <path id="tooth-broken-incisal" d="M18.38,5.45c-.71,1.37-1.65,2.86-2.22,4.47-.97,2.86-1.55,6.01-1.92,9.16-.26,3.15-.36,6.3-.6,9.16,0,1.92-.14,3.73-.36,5.48-.12.88-.26,1.74-.42,2.64-.17.88-.37,1.66-.57,2.32-.82,2.26-1.67,4.55-2.1,7.09-.61,3.25.78,6.1,2.01,9.11.52,1.66,1.22,3.8,2.35,5.55,1.13,1.74,2.27-1.03,2.96-.4.7.63,0-2.85.96-2.77.96.08,2.09-2.46,2.88-2.69.61-.24.61,5.23,1.13,4.75.52-.48,1.83,1.9,2.44,1.11,2.27-3.09,3.75-7.45,4.19-10.14.44-2.85.44-6.18-1.05-8.88-.74-1.35-1.4-2.25-1.9-3.26-.25-.61-.45-1.28-.6-2.05-.14-.77-.23-1.57-.24-2.48-.18-2.69-.18-6.5-.24-10.29-.06-1.9-.16-3.79-.32-5.54-.19-1.75-.44-3.35-.76-4.67-.55-2.98-2.17-5.27-3.91-7.33" data-active="1" style="display: none; fill: #ebebeb; stroke: #c8c9c9; stroke-miterlimit: 10;" />
    <path id="tooth-broken-mesial-distal-incisal" d="M18.38,5.45c-.71,1.37-1.65,2.86-2.22,4.47-.97,2.86-1.55,6.01-1.92,9.16-.26,3.15-.36,6.3-.6,9.16,0,3.26-.43,6.21-1,9.16-.16.65-.34,1.22-.51,1.72-.17.45-.35.92-.51,1.41-.34.99-.65,1.99-.91,3.02-1.05,4.12,2.44,1.66,2.35,2.46-.26,1.35,1.83,2.06,2.18,3.33.35,1.27-.26,2.54,0,3.41.26.87-3.49,2.3-3.05,3.17.52,1.74,4.45-.55,5.58.95,1.13,1.51-1.13,2.93,0,3.41,1.13.48,2.01,3.72,3.58,3.25.87-.32-.35-1.98.44-2.77.78-.79,3.66-.87,4.36-1.98,1.31-2.14-1.31-.4-1.13-1.27.26-2.06-2.7-1.74-2.96-2.22-.26-.48.61-2.85.78-3.41.26-.87,4.27-.95,4.36-1.66.17-1.35,2.44-2.69,2.35-4.12-.09-1.43-.44-3.25-1.31-4.75-.61-1.11-1.26-2.02-1.8-3.06-.26-.63-.49-1.36-.66-2.19-.16-.83-.25-1.66-.27-2.58-.17-2.69-.16-6.5-.21-10.29-.06-1.9-.16-3.79-.31-5.54-.19-1.75-.45-3.35-.76-4.67-.56-2.98-2.18-5.27-3.92-7.33" data-active="1" style="display: none; fill: #ebebeb; stroke: #c8c9c9; stroke-miterlimit: 10;" />
    <path id="tooth-broken-mesial-distal" d="M18.38,5.45c-.71,1.37-1.65,2.86-2.22,4.47-.97,2.86-1.55,6.01-1.92,9.16-.26,3.15-.36,6.3-.6,9.16,0,3.26-.43,6.21-1,9.16-.16.65-.34,1.22-.51,1.72-.17.45-.35.92-.51,1.41-.34.99-.65,1.99-.91,3.02-1.05,4.12,2.44,1.66,2.35,2.46-.26,1.35,1.83,2.06,2.18,3.33.35,1.27-.26,2.54,0,3.41.26.87-3.49,2.3-3.05,3.17,1.22,4.04,3.66,9.43,8.98,7.69,1.83-.71,3.49-2.62,4.8-4.75,1.31-2.14-1.31-.4-1.13-1.27.26-2.06-2.7-1.74-2.96-2.22-.26-.48.61-2.85.78-3.41.26-.87,4.27-.95,4.36-1.66.17-1.35,2.44-2.69,2.35-4.12-.09-1.43-.44-3.25-1.31-4.75-.61-1.11-1.26-2.03-1.8-3.05-.27-.62-.49-1.34-.66-2.16-.16-.83-.26-1.67-.28-2.59-.18-2.69-.18-6.5-.24-10.29-.06-1.9-.16-3.79-.32-5.54-.19-1.75-.44-3.35-.76-4.67-.55-2.98-2.17-5.27-3.91-7.33" data-active="1" style="display: none; fill: #ebebeb; stroke: #c8c9c9; stroke-miterlimit: 10;" />
    <path id="tooth-broken-mesial-incisal" d="M18.38,5.45c-.71,1.37-1.65,2.86-2.22,4.47-.97,2.86-1.55,6.01-1.92,9.16-.26,3.15-.36,6.3-.6,9.16,0,1.92-.14,3.73-.36,5.48-.12.88-.26,1.74-.42,2.64-.17.88-.37,1.66-.57,2.32-.82,2.26-1.67,4.55-2.1,7.09-.61,3.25.78,6.1,2.01,9.11,1.22,4.04,3.66,10.46,8.98,8.72.78-.32-2.96-1.19-2.27-1.82.7-.63,1.57-.24,2.27-1.51.7-1.27.35-1.66.7-2.38.61-1.27,2.53-2.14,2.88-3.33.35-1.19-2.01-1.27-1.92-2.14.09-.71,2.53-3.65,2.62-4.36.09-.71,4.01-1.35,3.92-1.98-.09-1.66-.44-3.33-1.31-4.83-.61-1.11-1.26-2.02-1.8-3.07-.26-.65-.49-1.38-.65-2.22-.16-.82-.25-1.66-.27-2.57-.18-2.69-.17-6.5-.24-10.29-.06-1.9-.17-3.79-.33-5.54-.2-1.75-.45-3.35-.77-4.67-.55-2.98-2.16-5.27-3.9-7.33" data-active="1" style="display: none; fill: #ebebeb; stroke: #c8c9c9; stroke-miterlimit: 10;" />
    <path id="tooth-broken-mesial" d="M18.38,5.45c-.71,1.37-1.65,2.86-2.22,4.47-.97,2.86-1.55,6.01-1.92,9.16-.26,3.15-.36,6.3-.6,9.16,0,1.92-.14,3.73-.36,5.48-.12.88-.26,1.74-.42,2.64-.17.88-.37,1.66-.57,2.32-.82,2.26-1.67,4.55-2.1,7.09-.61,3.25.78,6.1,2.01,9.11,1.22,4.04,3.66,10.46,8.98,8.72,1.83-.71,3.49-2.62,4.8-4.75,1.31-2.14-1.31-.4-1.13-1.27.26-2.06-2.7-1.74-2.96-2.22-.26-.48.61-2.85.78-3.41.26-.87,4.27-.95,4.36-1.66.17-1.35,2.44-2.69,2.35-4.12-.09-1.43-.44-3.25-1.31-4.75-.61-1.11-1.26-2.03-1.8-3.05-.27-.62-.49-1.34-.66-2.16-.16-.83-.26-1.67-.28-2.59-.18-2.69-.18-6.5-.24-10.29-.06-1.9-.16-3.79-.32-5.54-.19-1.75-.44-3.35-.76-4.67-.55-2.98-2.17-5.27-3.91-7.33" data-active="1" style="display: none; fill: #ebebeb; stroke: #c8c9c9; stroke-miterlimit: 10;" />
    <path id="tooth-broken-distal-incisal" d="M18.38,5.45c-.71,1.37-1.65,2.86-2.22,4.47-.97,2.86-1.55,6.01-1.92,9.16-.26,3.15-.36,6.3-.6,9.16.01,3.38-.44,6.39-1.04,9.39-.17.64-.35,1.19-.53,1.68-.18.46-.35.96-.53,1.48-.34,1.03-.66,2.07-.93,3.16-1.05,4.36-.26,1.27-.44,1.9,0,.63-.17,1.27-.17,1.9,0,.63,0,1.35.26,1.98.17.63,4.97-.32,5.23.48.26.79.09,3.33.52,4.28.17.55,2.27,1.74,2.44,2.46.52,1.35-.26,2.38.52,3.65.78,1.27,1.4,0,2.35.48.96.48-1.74,3.17-.26,2.69,4.27-1.66,7.32-9.35,7.94-13.31.44-2.85.44-6.18-1.05-8.88-.74-1.35-1.4-2.26-1.9-3.23-.25-.58-.45-1.23-.6-2-.14-.78-.23-1.58-.25-2.5-.19-2.69-.19-6.5-.25-10.29-.15-3.79-.47-7.57-1.05-10.21-.55-2.98-2.17-5.27-3.91-7.33" data-active="1" style="display: none; fill: #ebebeb; stroke: #c8c9c9; stroke-miterlimit: 10;" />
    <path id="tooth-broken-distal" d="M18.38,5.45c-.71,1.37-1.65,2.86-2.22,4.47-.97,2.86-1.55,6.01-1.92,9.16-.26,3.15-.36,6.3-.6,9.16.01,3.44-.46,6.53-1.08,9.59-.18.63-.36,1.17-.55,1.66-.18.48-.36,1-.54,1.52-.35,1.04-.68,2.1-.94,3.19-1.05,4.36,1.48.71,1.4,1.27,0,1.51,4.71.87.96,4.36-.52.55,1.66.95,2.09,1.58.61.79,4.01,2.38,1.31,3.65.09.4-.61,1.58-.52,1.98.26.63-2.62.48-2.35,1.11,1.48,3.41,3.84,6.74,7.85,5.47,4.27-1.66,7.32-9.35,7.94-13.31.44-2.85.44-6.18-1.05-8.88-.74-1.35-1.4-2.25-1.9-3.26-.25-.61-.45-1.28-.6-2.05-.14-.77-.22-1.57-.24-2.48-.18-2.69-.17-6.5-.22-10.29-.06-1.9-.16-3.79-.31-5.54-.19-1.75-.44-3.35-.76-4.67-.56-2.98-2.17-5.27-3.91-7.33" data-active="1" style="display: none; fill: #ebebeb; stroke: #c8c9c9; stroke-miterlimit: 10;" />
    <path id="tooth-crownprep" d="M18.38,5.45c-1.97,3.21-3.07,7.04-3.78,10.98-.51,3.94-.54,7.97-.88,11.58,0,2.81-.25,5.24-.6,7.55-.1.61-.21,1.21-.32,1.77-.12.53-.25,1-.38,1.42-.26.74-.51,1.47-.75,2.26-.26,1.03-.96,2.3-.87,3.41.44.48,3.58-.71,4.62.4.78.79,0,1.9.26,2.77.7,2.3,3.84,1.43,5.93,1.35.44,0,1.4,0,1.74-.24,1.74-.95-.26-3.8.44-4.36.35-.24,3.58-.4,4.71-.95.57-.28-.15-1.72-1.06-3.43-.23-.4-.46-.8-.7-1.24-.23-.49-.46-1.05-.65-1.66-.37-1.31-.64-2.51-.68-3.46-.13-2.06-.15-4.7-.16-7.47-.04-2.78-.12-5.7-.34-8.33-.19-2.35-.6-4.58-1.38-6.61-.76-2.03-1.8-3.87-3.33-5.41" data-active="1" style="display: none; fill: #ebebeb; stroke: #c8c9c9; stroke-miterlimit: 10;" />
    <path id="tooth-radix" d="M18.38,5.45c-1.97,3.21-3.07,7.04-3.78,10.98-.51,3.94-.54,7.97-.88,11.58,0,2.81-.65,6.59-1.38,9.89-.83,2.31-1.59,4.23-1.55,4.78.44.48,7.32,6.18,8.98,6.58,2.01-.32,7.15-6.42,8.28-6.97.57-.28-.02-1.45-.8-2.83-.19-.33-.4-.7-.6-1.11-.2-.46-.39-.97-.56-1.53-.32-1.16-.56-2.26-.6-3.2-.13-2.06-.15-4.7-.15-7.47-.03-2.78-.11-5.7-.33-8.33-.19-2.35-.6-4.58-1.38-6.61-.76-2.03-1.8-3.87-3.33-5.41" data-active="1" style="display: none; fill: #ebebeb; stroke: #c8c9c9; stroke-miterlimit: 10;" />
    </g>
  <g id="tooth" data-active="1">
    <path id="tooth-base" d="M18.28,6.03c-.72,1.37-1.67,2.86-2.25,4.47-.97,2.86-1.53,6.01-1.88,9.16-.24,3.15-.33,6.3-.56,9.16,0,1.92-.14,3.73-.37,5.48-.12.88-.27,1.77-.44,2.67-.18.82-.38,1.53-.59,2.12-.82,2.26-1.67,4.55-2.1,7.09-.61,3.25.78,6.1,2.01,9.11,1.22,4.04,3.66,10.46,8.98,8.72,4.27-1.66,7.32-9.35,7.94-13.31.44-2.85.44-6.18-1.05-8.88-.74-1.35-1.4-2.28-1.9-3.2-.25-.55-.46-1.16-.61-1.9-.15-.78-.24-1.6-.26-2.52-.19-2.69-.2-6.5-.26-10.29-.14-3.79-.44-7.57-1.02-10.21-.55-2.98-2.17-5.27-3.92-7.33" data-active="1" style="fill: #ebebeb; stroke: #c8c9c9; stroke-miterlimit: 10;" />
    <path id="tooth-base-beauty" d="M26.32,55.45c-.26,1.74-1.92,3.49-3.23,4.83-.87.87-1.74,1.35-1.48.71v-.24c1.22-1.74,2.44-4.36,3.75-5.86.44-.32.78.16.87.48h.09Z" data-active="1" style="fill: #fefefe;" />
    <g id="tooth-inflam-pulp" data-active="1" style="display: none;">
      <path id="tooth-inflam-pulp-base" d="M20.46,11.27c.03,2.76-.51,5.62-.29,8.48.1,4.14.04,9.65.29,14-.01,1.38.23,2.66.53,4.02.15.64.32,1.21.48,1.72.16.45.31.9.42,1.4.37,1.98-.28,4.69-1.28,6.75-1.65,2.71-3.11-4.11-3.11-4.84-.09-1.18.2-2.39.56-3.55.18-.72.37-1.56.53-2.44.16-.85.29-1.67.36-2.44.16-4.45-.32-9.33.09-13.89.12-2.55.23-5.19-.41-8.17-.31-1.59-1.26-4.24.23-5.19,1.92-.74,1.59,2.44,1.71,3.82v.21h-.11Z" data-active="1" style="fill: #ff422a;" />
      <path id="pulp-inflam-path-8" d="M22.11,25.95h0l.01-.23c-.32-.11-.62-.23-.84-.11-.63.23-1.37.34-1.89.69-.52.34-.93.8-.1.92.82.11,2.16-.23,2.82-1.26Z" data-active="1" style="fill: url(#toothgen-53-linear-gradient-13-0);" />
      <path id="pulp-inflam-path-7" d="M16.36,23.43h0l.01.23c.12.23.35.46.67.57.65.23,1.39.34,2.03.46.64.11,1.06,0,.53-.69-.54-.69-2.17-1.03-3.13-.46h-.11Z" data-active="1" style="fill: url(#toothgen-53-linear-gradient-13-1);" />
      <path id="pulp-inflam-path-6" d="M22.6,20.68h0l.01-.23c-.22-.23-.56-.34-.77-.23-.67,0-1.46.11-2.12.46-.67.34-1.11.57-.12.8,1,.23,2.33,0,3.12-.8h0Z" data-active="1" style="fill: url(#toothgen-53-linear-gradient-13-2);" />
      <path id="pulp-inflam-path-5" d="M16.18,17.59h0v.23c.12.23.46.46.69.46.68,0,1.47.23,2.15,0,.68-.23,1.14-.34.35-.8-.79-.46-2.4-.57-3.3,0h.12Z" data-active="1" style="fill: url(#toothgen-53-linear-gradient-13-3);" />
      <path id="pulp-inflam-path-4" d="M22.65,13.13h0c0,0,0-.11-.12-.23-.23-.11-.56-.11-.9-.11-.68,0-1.35.46-2.03.8-.68.34-.91.69,0,.8.91.11,2.4-.34,3.06-1.26Z" data-active="1" style="fill: url(#toothgen-53-linear-gradient-13-4);" />
      <path id="pulp-inflam-path-3" d="M16.34,9.35h0l-.01.23c-.01.34.31.57.51.8.54.46,1.31.8,1.97,1.03.67.23,1.23.23.67-.57-.54-.8-1.85-1.6-3.04-1.6h-.11Z" data-active="1" style="fill: url(#toothgen-53-linear-gradient-13-5);" />
      <path id="pulp-inflam-path-2" d="M16.08,7.03h0,0c0,.01.32.01.53.01.54.01,1.28.01,1.91.02.64,0,1.18,0,.64-.01-.53-.01-1.81-.03-2.98-.03h-.11Z" data-active="1" style="fill: url(#toothgen-53-linear-gradient-13-6);" />
      <path id="pulp-inflam-path-1" d="M21.62,7.03h-.21c-.32,0-.53.04-.85.07-.54.09-.96.22-1.39.35-.43.13-.43.22.32.15.74-.07,1.82-.31,2.02-.58,0,0,.11,0,.11,0Z" data-active="1" style="fill: url(#toothgen-53-linear-gradient-13-7);" />
      </g>
    <path id="tooth-healthy-pulp" d="M20.46,11.27c.03,2.76-.51,5.62-.29,8.48.1,4.14.04,9.65.29,14-.01,1.38.23,2.66.53,4.02.15.64.32,1.21.48,1.72.16.45.31.9.42,1.4.37,1.98-.28,4.69-1.28,6.75-1.65,2.71-3.11-4.11-3.11-4.84-.09-1.18.2-2.39.56-3.55.18-.72.37-1.56.53-2.44.16-.85.29-1.67.36-2.44.16-4.45-.32-9.33.09-13.89.12-2.55.23-5.19-.41-8.17-.31-1.59-1.26-4.24.23-5.19,1.92-.74,1.59,2.44,1.71,3.82v.21h-.11Z" data-active="1" style="fill: #fcc5bc;" />
    <path id="tooth-bruxism-wear" d="M16.81,57.75c.26.63.44,2.14,1.05.79.17-.24.35-.63.61-.63.61.24.35,1.19.78,1.51.52.16,1.31-2.38,1.92-1.51.17.24.26.71.35.95.35.87.87-1.51,1.13-1.66.26-.4.44,0,.61.55.52,2.62.61,0,1.13-.79h.26c2.01,1.9.61,5.15-1.74,6.26-2.01,1.11-4.8,1.58-6.1.55-.78-.71-1.31-1.19-2.01-2.14-.7-1.19-2.79-4.52.09-4.6.87,0,1.48.16,1.83.63h.09Z" data-active="1" style="display: none; fill: #fff; stroke: #aaa; stroke-miterlimit: 10; stroke-width: .5px;" />
    <path id="tooth-bruxism-neck-wear" d="M22.92,51.72c-.26-.4-.44-1.19-1.05-.48-.17.16-.35.32-.61.32-.61-.16-.35-.71-.78-.87-.52,0-1.31,1.35-1.92.79-.61-.55-.26-.4-.35-.55-.35-.48-.87.79-1.13.87-.26.24-.44,0-.61-.32-.52-1.51-.61,0-1.13.4h-.26c-2.01-1.11-.52-2.93,1.83-3.49,2.01-.55,4.8-.79,6.1-.16.78.4,1.31.71,2.01,1.27.7.71,2.7,2.62-.17,2.62-2.88,0-1.48,0-1.83-.4h0Z" data-active="1" style="display: none; fill: #fff; stroke: #aaa; stroke-miterlimit: 10; stroke-width: .5px;" />
    </g>
  <g id="milktooth" data-active="1" style="display: none;">
    <path id="milktooth-base" d="M18.28,6.03c-.72,1.37-1.67,2.86-2.25,4.47-.97,2.86-1.53,6.01-1.88,9.16-.24,3.15-.33,6.3-.56,9.16,0,1.92-.14,3.73-.37,5.48-.12.88-.27,1.77-.44,2.67-.18.82-.38,1.53-.59,2.12-.82,2.26-1.67,4.55-2.1,7.09-.61,3.25.78,6.1,2.01,9.11,1.22,4.04,3.66,10.46,8.98,8.72,4.27-1.66,7.32-9.35,7.94-13.31.44-2.85.44-6.18-1.05-8.88-.74-1.35-1.4-2.28-1.9-3.2-.25-.55-.46-1.16-.61-1.9-.15-.78-.24-1.6-.26-2.52-.19-2.69-.2-6.5-.26-10.29-.14-3.79-.44-7.57-1.02-10.21-.55-2.98-2.17-5.27-3.92-7.33" data-active="1" style="fill: #fff; stroke: #c8c9c9; stroke-miterlimit: 10;" />
    <path id="milktooth-beauty" d="M26.32,55.45c-.26,1.74-1.92,3.49-3.23,4.83-.87.87-1.74,1.35-1.48.71v-.24c1.22-1.74,2.44-4.36,3.75-5.86.44-.32.78.16.87.48h.09Z" data-active="1" style="fill: #eaeaea;" />
    <g id="milktooth-inflam-pulp" data-active="1" style="display: none;">
      <path id="tooth-inflam-pulp-base1" d="M20.57,11.55c.03,3.1-.63,6.21-.41,9.43.09,4.6.03,10.71.36,15.53,0,.82.07,1.59.2,2.27.13.6.31,1.1.5,1.56.39.96.85,1.96,1.12,3.08.45,2.23-.37,5.19-1.65,7.48-2.11,3.04-3.94-4.52-3.94-5.34-.14-1.3.26-2.65.71-3.97.23-.66.47-1.28.68-1.88.21-.7.37-1.52.43-2.4.24-4.98-.47-10.32.11-15.36.1-2.79.34-5.78-.52-9-.4-1.71-1.56-4.71.36-5.78,2.45-.86,2.03,2.67,2.14,4.18v.22c0,0-.11,0,0,0h0Z" data-active="1" style="fill: url(#toothgen-53-linear-gradient-13-8);" />
      <path id="pulp-inflam-path-81" d="M22.31,26.18h0l.01-.23h-.84c-.63.34-1.26.57-1.78,1.03-.51.46-.81.92,0,.92.81,0,2.05-.69,2.6-1.72Z" data-active="1" style="fill: url(#toothgen-53-linear-gradient-13-9);" />
      <path id="pulp-inflam-path-71" d="M16.56,22.98h0l.01.23c.01.23.24.57.46.69.55.34,1.3.69,1.94.92.64.23,1.06.23.64-.57-.43-.8-1.86-1.49-2.93-1.26,0,0-.11,0,0,0h0Z" data-active="1" style="fill: url(#toothgen-53-linear-gradient-13-10);" />
      <path id="pulp-inflam-path-61" d="M22.6,20.68h0l.01-.23c-.22-.23-.56-.34-.77-.23-.67,0-1.46.11-2.12.46-.67.34-1.11.57-.12.8,1,.23,2.33,0,3.12-.8h0Z" data-active="1" style="fill: url(#toothgen-53-linear-gradient-13-11);" />
      <path id="pulp-inflam-path-51" d="M16.18,17.59h0v.23c.12.23.46.46.69.46.68,0,1.47.23,2.15,0,.68-.23,1.14-.34.35-.8-.79-.46-2.4-.57-3.3,0h.12Z" data-active="1" style="fill: url(#toothgen-53-linear-gradient-13-12);" />
      <path id="pulp-inflam-path-41" d="M22.67,14.27h0c0,0,0-.11-.12-.23-.23-.11-.57-.11-.91-.11-.68,0-1.36.46-2.05.8-.69.34-.92.69,0,.8.92.11,2.41-.34,3.08-1.26Z" data-active="1" style="fill: url(#toothgen-53-linear-gradient-13-13);" />
      <path id="pulp-inflam-path-31" d="M15.98,10.15h0l-.01.23c-.01.34.31.57.52.8.55.46,1.31.8,1.98,1.03.67.23,1.24.23.68-.57-.54-.8-1.86-1.6-3.06-1.6h-.11Z" data-active="1" style="fill: url(#toothgen-53-linear-gradient-13-14);" />
      <path id="pulp-inflam-path-21" d="M16.08,7.03h0,0c0,.01.32.01.53.01.54.01,1.28.01,1.91.02.64,0,1.18,0,.64-.01-.53-.01-1.81-.03-2.98-.03h-.11Z" data-active="1" style="fill: url(#toothgen-53-linear-gradient-13-15);" />
      <path id="pulp-inflam-path-11" d="M22.38,7.4h-.21c-.33,0-.54.23-.85.34-.54.46-.96,1.15-1.39,1.83-.44.69-.44,1.15.34.8.76-.34,1.83-1.6,2.01-2.98h.11Z" data-active="1" style="fill: url(#toothgen-53-linear-gradient-13-16);" />
      </g>
    <path id="milktooth-healthy-pulp" d="M20.28,20.97c.08,4.6.01,10.71.34,15.53,0,.82.07,1.59.2,2.27.13.6.31,1.1.51,1.56.4.96.88,1.96,1.21,3.08.46,2.23-.37,5.19-1.65,7.48-2.2,3.04-4.12-4.52-4.12-5.34-.14-1.3.26-2.65.72-3.97.23-.66.49-1.28.71-1.88.22-.7.4-1.52.49-2.4.24-4.98-.45-10.32.14-15.36.11-2.79.34-5.78-.53-9-.41-1.71-1.66-4.71.36-5.78,2.55-.86,2.13,2.67,2.26,4.18v.22c0,0-.84,6.21-.51,9.43,0,0-.12,0-.12,0Z" data-active="1" style="fill: #fcc5bc;" />
    </g>
  <g id="endos" data-active="1">
    <path id="endo-medical-filling" d="M19.4,7.98c.92,3.12,1.29,9.8,1.7,13.79.21,2.75.57,7.87.87,13,.08,1.28.17,2.63.27,3.83.11.95.21,1.73.3,2.5.19,1.58.35,2.95.46,3.92.26,4.25-5.58,4.92-5.41-1.42.09-1.4.16-3.05.23-4.81.05-2.54.06-5.3.05-8.03-.04-5.47-.06-10.89-.01-14.71.02-1.29.42-11.96,1.53-8.3h0c0,0,0,.22,0,.22Z" data-active="1" style="display: none; fill: #fff; stroke: #f9ae94; stroke-miterlimit: 10; stroke-width: .2px;" />
    <path id="endo-filling-incomplete" d="M19.39,21.37c.93,2.18,1.17,6.76,1.51,9.62.1.94.24,2.3.42,3.87.09.8.18,1.68.28,2.56.1.77.21,1.45.32,2.03.44,2.42.87,4.9,1.09,6.25.26,3.01-6.1,4.04-5.93-.32.17-1.94.44-4.75.66-7.6.19-4.07.31-8.05.3-10.68-.02-.92.16-8.36,1.35-5.84h0Z" data-active="1" style="display: none; fill: #388aca;" />
    <path id="endo-filling" d="M19.4,8c.92,3.02,1.29,9.58,1.7,13.57.22,2.69.57,7.73.88,12.78.08,1.26.17,2.57.26,3.82.05.55.1,1.03.15,1.44.05.38.1.74.15,1.13.19,1.55.35,2.9.46,3.85.26,4.25-6.1,5.74-5.93-.45.09-1.38.2-3.07.31-4.83.03-.51.06-1.11.08-1.79.02-.72.04-1.45.06-2.15.03-1.4.05-2.84.07-4.26.08-5.71.21-11.36.27-15.13.02-1.29.42-11.85,1.53-8.18h0c0,0,0,.22,0,.22Z" data-active="1" style="display: none; fill: #388aca;" />
    <path id="endo-glass-pin" d="M19.6,13.13c.87,2.18,1.18,6.64,1.46,9.39.17,1.83.53,5.33.84,8.83.15,1.75.31,3.51.45,5.12.08.8.15,1.47.22,2.01.07.47.12.85.17,1.15.17,2.91,5.23,8.77,1.92,11.54-3.05,2.62-11.16,2.14-10.55-3.09.31-2.06,1.09-3.92,1.82-5.81.37-.94.72-1.89.99-2.82.14-.46.25-.98.34-1.58.08-.69.14-1.47.15-2.29.23-5.51.56-11.69.68-16.96-.01-.92.36-8.13,1.51-5.73h0c0,0,0,.23,0,.23Z" data-active="1" style="display: none; fill: #c8c9c9;" />
    <path id="endo-metal-pin" d="M19.6,13.13c.87,2.18,1.18,6.64,1.46,9.39.17,1.83.53,5.33.84,8.83.15,1.75.31,3.51.45,5.12.08.8.15,1.47.22,2.01.07.47.12.85.17,1.15.17,2.91,5.23,8.77,1.92,11.54-3.05,2.62-11.16,2.14-10.55-3.09.31-2.06,1.09-3.92,1.82-5.81.37-.94.72-1.89.99-2.82.14-.46.25-.98.34-1.58.08-.69.14-1.47.15-2.29.23-5.51.56-11.69.68-16.96-.01-.92.36-8.13,1.51-5.73h0c0,0,0,.23,0,.23Z" data-active="1" style="display: none; fill: #3951a3;" />
    <path id="endo-resorption" d="M12.81,11.64c0,0,.91-2.06,1.8-4.12.81-2.06,1.65-4.12,1.85-4.12l5.37.23c.71,0,1.55,2.32,2.24,4.65.78,2.33,1.39,4.68,1.34,4.74l-.47,2.18c-.22.8-.55,1.49-.99,2.18l-1.89,2.63c-1.09,1.6-2.98,1.72-4.16.23l-2.64-3.09c-.22-.23-.44-.57-.55-.8l-2.2-4.81h.32,0Z" data-active="1" style="display: none; fill: #fdecc5;" />
    <path id="endo-resection" d="M12.4,12.9c0,0,.96-2.29,1.94-4.58.88-2.29,1.77-4.58,2.02-4.58h6.08c.76,0,1.77,2.49,2.68,5.03,1.01,2.53,1.85,5.11,1.86,5.28l-.06,8.25-14.08.23c-.15-1.58-.29-3.17-.39-4.75-.07-1.58-.09-3.17-.05-4.75h0Z" data-active="1" style="display: none; fill: #fdecc5;" />
    </g>
  <g id="surfaces" data-active="1">
    <g id="subcaries" data-active="1">
      <path id="subcaries-buccal" d="M17.07,52.44c.52.63,1.22.95,1.83.95,1.05,0,1.83-.79,2.35-2.06.52-1.27.35-.87.35-1.43-.44-2.69-4.88-1.74-5.41-.63-.35.87.52,2.38.96,3.01h0v.16h-.09Z" data-active="1" style="display: none; fill: #0a1018; stroke: #000; stroke-miterlimit: 10;" />
      <path id="subcaries-mesial" d="M26.49,38.88c-3.49-.79-4.97,9.59-3.75,11.34.96,3.01,4.97,3.41,6.28.24,1.13-2.46,0-10.22-2.35-11.57,0,0-.17,0-.17,0Z" data-active="1" style="display: none; fill: #0a1018; stroke: #000; stroke-miterlimit: 10;" />
      <path id="subcaries-distal" d="M12.71,53.15c2.01-.4,2.7-4.75,2.96-6.89.52-3.17.17-6.77-2.79-6.34-3.75.87-3.84,12.6-.26,13.31h.09,0Z" data-active="1" style="display: none; fill: #0a1018; stroke: #000; stroke-miterlimit: 10;" />
      <path id="subcaries-occlusal" d="M13.85,60.28c.96,2.85,4.27,4.6,6.19,4.44,1.83,0,5.23-2.3,6.02-4.6,1.13-4.44-4.8-6.02-7.67-5.63-2.09.24-4.71,2.22-4.8,4.91v.63l.26.4h0c0,0,0-.16,0-.16Z" data-active="1" style="display: none; fill: #0a1018; stroke: #000; stroke-miterlimit: 10;" />
      </g>
    <g id="caries" data-active="1">
      <path id="caries-root" d="M12.96,33.28c-.79,3.39,9.21,1.37,10.92.8,2.62-.57,1.13-2.41,1.21-4.7.09-1.72-.99-1.09-2.25-.03-1.22,1.06-2.59,2.55-3.32,2.55-3.01,0-3.52-2.98-5.95-3.55-2.47-.57-.26,3.44-.5,5.04h-.09Z" data-active="1" style="display: none; fill: #0a1018; stroke: #000; stroke-miterlimit: 10;" />
      <path id="caries-subcrown" d="M11.23,40.71c-.44,1.15,2.2.06,4.92-1.45.68-.38,1.36-.83,2-1.34.64-.57,1.24-1.2,1.75-1.82,1.04-1.21,1.73-2.24,1.67-2.81-.83-4.58-8.27-3.55-8.73-.34-.21,1.49-.44,3-.7,4.54-.15.67-.3,1.25-.45,1.75-.15.47-.31.97-.46,1.48h0Z" data-active="1" style="display: none; fill: #0a1018; stroke: #000; stroke-miterlimit: 10;" />
      <path id="caries-buccal" d="M17.07,52.44c.52.63,1.22.95,1.83.95,1.05,0,1.83-.79,2.35-2.06.52-1.27.35-.87.35-1.43-.44-2.69-4.88-1.74-5.41-.63-.35.87.52,2.38.96,3.01h0v.16h-.09Z" data-active="1" style="display: none; fill: #0a1018; stroke: #000; stroke-miterlimit: 10;" />
      <g id="caries-mesial" data-active="1" style="display: none;">
        <path id="mesial-shape" d="M26.75,40.15c-3.05-.6-4.36,8.48-3.31,9.99.87,2.62,4.36,3.01,5.49.24.96-2.14,0-8.96-2.09-10.22h-.09Z" data-active="1" style="fill: #0a1018; stroke: #000; stroke-miterlimit: 10;" />
        <path id="mesial-patch2" d="M26.84,46.02c2.79,0-.87-3.41-1.57-1.27-.26.71.7,1.35,1.31,1.27h.26Z" data-active="1" style="fill: #fff;" />
        <path id="mesial-patch1" d="M25.27,50.38c1.22,1.03,4.01-.55,1.83-1.27-1.4-.4-2.18.48-1.83,1.19h0Z" data-active="1" style="fill: #fff;" />
        </g>
      <g id="caries-distal" data-active="1" style="display: none;">
        <path id="distal-shape" d="M12.71,53.15c2.01-.32,2.7-4.2,2.96-6.1.52-2.77.17-6.02-2.79-5.63-3.75.79-3.84,11.09-.26,11.73,0,0,.09,0,0,0h0Z" data-active="1" style="fill: #0a1018; stroke: #000; stroke-miterlimit: 10;" />
        <path id="distal-patch2" d="M13.85,46.1c.78-.48.44-2.14-.52-1.98-.96.16-.61,2.38.35,2.06h.17Z" data-active="1" style="fill: #fff;" />
        <path id="distal-patch1" d="M11.93,50.46c.17.24.61.4.87.48.26,0,.7.16.61,0-.26-.4-.96-1.27-1.31-1.51-.7-.24-.35.79-.26,1.03,0,0,.09,0,.09,0Z" data-active="1" style="fill: #fff;" />
        </g>
      <g id="caries-occlusal" data-active="1" style="display: none;">
        <path id="occlusal-shape" d="M14.54,60.52c.87,2.46,3.75,4.04,5.41,3.88,1.57,0,4.53-1.98,5.23-4.04.96-3.88-4.19-5.23-6.71-4.91-1.83.24-4.1,1.9-4.19,4.28v.55l.26.32h0Z" data-active="1" style="fill: #0a1018; stroke: #000; stroke-miterlimit: 10;" />
        <path id="occlusal-patch2" d="M20.04,60.44c-.61,2.38,2.88,1.19,3.14,0,.44-.63.17-1.58-.44-1.82-1.05-.4-2.09.79-2.79,1.66h0v.16h.09Z" data-active="1" style="fill: #fff; stroke: #000; stroke-miterlimit: 10; stroke-width: .2px;" />
        <path id="occlusal-patch1" d="M16.03,60.52c-.09,1.19.87,2.06,1.4.95.35-.71.35-2.46-.35-2.46-.7,0-.96.55-.96,1.43v.16h-.09Z" data-active="1" style="fill: #fff; stroke: #000; stroke-miterlimit: 10; stroke-width: .2px;" />
        </g>
      </g>
    <g id="fillings" data-active="1">
      <g id="amalgam" data-active="1">
        <path id="filling-amalgam-occlusal" d="M14.37,60.6c.09.4.78,1.03.96,1.43,1.31,1.98,4.1,3.01,6.37,1.82,1.92-.95,4.19-3.09,3.75-5.23-1.4-4.83-12.73-4.36-11.34,1.11,0,0,.26.87.26.87Z" data-active="1" style="display: none; fill: #aaa; stroke: #aaa; stroke-miterlimit: 10;" />
        <path id="filling-amalgam-buccal" d="M18.9,52.91c1.57,0,2.01-1.98,2.27-3.09.35-1.66-2.88-1.19-3.75-.55-1.48.95-.44,3.49,1.4,3.57h.17-.09Z" data-active="1" style="display: none; fill: #aaa; stroke: #aaa; stroke-miterlimit: 10;" />
        <path id="filling-amalgam-mesial" d="M26.32,39.63c-3.14-.51-4.1,8.69-2.88,10.2,1.05,2.62,4.62,2.85,5.67,0,.87-2.22-.52-9.11-2.62-10.27h-.17Z" data-active="1" style="display: none; fill: #aaa; stroke: #aaa; stroke-miterlimit: 10;" />
        <path id="filling-amalgam-distal" d="M12.36,52.04c2.01-.32,2.7-4.28,2.88-6.18.52-2.77,0-6.01-2.96-5.55-3.75.87-3.66,11.17,0,11.73,0,0,.09,0,0,0h0Z" data-active="1" style="display: none; fill: #aaa; stroke: #aaa; stroke-miterlimit: 10;" />
        </g>
      <g id="composite" data-active="1">
        <path id="filling-composite-occlusal" d="M14.28,60.6c.09.4.78,1.03.96,1.43,1.31,1.98,4.1,3.01,6.37,1.82,1.92-.95,4.19-3.09,3.75-5.23-1.4-4.83-12.73-4.36-11.34,1.11,0,0,.26.87.26.87Z" data-active="1" style="display: none; fill: #feffbf; stroke: #feffbf; stroke-miterlimit: 10;" />
        <path id="filling-composite-buccal" d="M18.9,52.91c1.57,0,2.01-1.98,2.27-3.09.35-1.66-2.88-1.19-3.75-.55-1.48.95-.44,3.49,1.4,3.57h.17-.09Z" data-active="1" style="display: none; fill: #feffbf; stroke: #feffbf; stroke-miterlimit: 10;" />
        <path id="filling-composite-mesial" d="M26.66,39.77c-3.14-.58-4.45,8.62-3.23,10.13.96,2.62,4.53,3.01,5.67.24.96-2.22-.17-9.11-2.27-10.37,0,0-.17,0-.17,0Z" data-active="1" style="display: none; fill: #feffbf; stroke: #feffbf; stroke-miterlimit: 10;" />
        <path id="filling-composite-distal" d="M12.36,52.04c2.01-.32,2.7-4.28,2.88-6.18.52-2.77,0-6.01-2.96-5.55-3.75.87-3.66,11.17,0,11.73,0,0,.09,0,0,0h0Z" data-active="1" style="display: none; fill: #feffbf; stroke: #feffbf; stroke-miterlimit: 10;" />
        </g>
      <g id="gic" data-active="1">
        <path id="filling-gic-occlusal" d="M14.37,60.6c.09.4.78,1.03.96,1.43,1.31,1.98,4.1,3.01,6.37,1.82,1.92-.95,4.19-3.09,3.75-5.23-1.4-4.83-12.73-4.36-11.34,1.11,0,0,.26.87.26.87Z" data-active="1" style="display: none; fill: #f9ae94; stroke: #f99; stroke-miterlimit: 10;" />
        <path id="filling-gic-buccal" d="M18.9,52.91c1.57,0,2.01-1.98,2.27-3.09.35-1.66-2.88-1.19-3.75-.55-1.48.95-.44,3.49,1.4,3.57h.17-.09Z" data-active="1" style="display: none; fill: #f9ae94; stroke: #f99; stroke-miterlimit: 10;" />
        <path id="filling-gic-mesial" d="M26.32,39.63c-3.14-.51-4.1,8.69-2.88,10.2,1.05,2.62,4.62,2.85,5.67,0,.87-2.22-.52-9.11-2.62-10.27h-.17Z" data-active="1" style="display: none; fill: #f9ae94; stroke: #f99; stroke-miterlimit: 10;" />
        <path id="filling-gic-distal" d="M12.36,52.04c2.01-.32,2.7-4.28,2.88-6.18.52-2.77,0-6.01-2.96-5.55-3.75.87-3.66,11.17,0,11.73,0,0,.09,0,0,0h0Z" data-active="1" style="display: none; fill: #f9ae94; stroke: #f99; stroke-miterlimit: 10;" />
        </g>
      <g id="temporary" data-active="1">
        <path id="filling-temporary-occlusal" d="M14.37,60.6c.09.4.78,1.03.96,1.43,1.31,1.98,4.1,3.01,6.37,1.82,1.92-.95,4.19-3.09,3.75-5.23-1.4-4.83-12.73-4.36-11.34,1.11,0,0,.26.87.26.87Z" data-active="1" style="display: none; fill: #fff; stroke: #eee; stroke-miterlimit: 10;" />
        <path id="filling-temporary-buccal" d="M18.9,52.91c1.57,0,2.01-1.98,2.27-3.09.35-1.66-2.88-1.19-3.75-.55-1.48.95-.44,3.49,1.4,3.57h.17-.09Z" data-active="1" style="display: none; fill: #fff; stroke: #eee; stroke-miterlimit: 10;" />
        <path id="filling-temporary-mesial" d="M26.32,39.63c-3.14-.51-4.1,8.69-2.88,10.2,1.05,2.62,4.62,2.85,5.67,0,.87-2.22-.52-9.11-2.62-10.27h-.17Z" data-active="1" style="display: none; fill: #fff; stroke: #eee; stroke-miterlimit: 10;" />
        <path id="filling-temporary-distal" d="M12.36,52.04c2.01-.32,2.7-4.28,2.88-6.18.52-2.77,0-6.01-2.96-5.55-3.75.87-3.66,11.17,0,11.73,0,0,.09,0,0,0h0Z" data-active="1" style="display: none; fill: #fff; stroke: #eee; stroke-miterlimit: 10;" />
        </g>
      <g id="defect" data-active="1">
        <polygon id="defect-occlusal" points="18.47,64.56 17.33,64.17 18.47,63.69 20.74,63.61 21.96,64.01 20.82,64.48 18.47,64.56" style="display: none; fill: #f5ff15; stroke: #2e3192; stroke-miterlimit: 10; stroke-width: .5px;" data-active="1" />
        <polygon id="defect-buccal" points="18.47,49.43 17.60,49.03 18.38,48.48 19.86,48.40 20.65,48.79 19.95,49.27 18.47,49.43" style="display: none; fill: #f5ff15; stroke: #2e3192; stroke-miterlimit: 10; stroke-width: .5px;" data-active="1" />
        <polygon id="defect-distal" points="10.01,47.76 9.49,48.87 9.05,47.76 9.05,45.46 9.49,44.35 10.01,45.46 10.01,47.76" style="display: none; fill: #f5ff15; stroke: #2e3192; stroke-miterlimit: 10; stroke-width: .5px;" data-active="1" />
        <polygon id="defect-mesial" points="29.80,46.02 29.63,47.21 28.84,46.18 28.32,43.96 28.50,42.77 29.28,43.80 29.80,46.02" style="display: none; fill: #f5ff15; stroke: #2e3192; stroke-miterlimit: 10; stroke-width: .5px;" data-active="1" />
        </g>
      </g>
    <g id="contact-point" data-active="1">
      <g id="mesial-no-contact-point" data-active="1" style="display: none;">
        <path d="M27.8,43.72c.96,1.9,2.18,4.04,3.49,6.1" data-active="1" style="fill: none; stroke: #aaa; stroke-miterlimit: 10; stroke-width: .5px;" />
        <path d="M28.23,50.22c.61-1.27.7-2.06,1.13-3.01.52-1.11.96-2.38,1.31-3.57" data-active="1" style="fill: none; stroke: #aaa; stroke-miterlimit: 10; stroke-width: .5px;" />
        </g>
      <g id="distal-no-contact-point" data-active="1" style="display: none;">
        <path d="M8,44.75c1.13,1.9,2.53,4.04,3.92,6.02" data-active="1" style="fill: none; stroke: #aaa; stroke-miterlimit: 10; stroke-width: .5px;" />
        <path d="M8.79,51.25c.52-1.27.52-2.06.96-3.01.52-1.11.87-2.38,1.13-3.57" data-active="1" style="fill: none; stroke: #aaa; stroke-miterlimit: 10; stroke-width: .5px;" />
        </g>
      </g>
    </g>
  <g id="restorations" data-active="1">
    <path id="crown-leakage" d="M12.54,37.69c.67-3.32,3.36-4.35,6.37-3.78,1.49.29,3.03.97,4.39,2.01.68.54,1.32,1.14,1.9,1.77.59.57,1.11,1.12,1.55,1.64.96,1.13-3.49,1.45-7.73,1.12-2.12-.16-4.19-.49-5.5-.91-1.31-.42-1.88-1.02-.98-1.86" data-active="1" style="display: none; fill: #9e00e9; stroke: #9e00e9; stroke-miterlimit: 10;" />
    <g id="implant" data-active="1" style="display: none;">
      <path id="implant-locator-screw" d="M16.29,49.19c.78,1.19,3.31.71,4.71.79,2.79-.4,1.48-3.65,1.74-5.55,0-.55.17-1.27-.26-1.66-.17-.24-.61-.32-.87-.32-1.31,0-2.96-.16-4.27.16-1.13.24-1.22,1.03-1.22,1.98,0,1.58-.17,3.09.09,4.52v.16h0Z" data-active="1" style="fill: url(#toothgen-53-linear-gradient-13-17); stroke: #c8c9c9; stroke-miterlimit: 10; stroke-width: .2px;" />
      <path id="implant-connector" d="M13.76,43.88h0c.09,1.11.96,1.66,1.66,1.35,1.22-.55,1.4-1.58,2.96-1.66h2.88c.7,0,1.57,1.51,2.53,1.74.96.24,1.22-.48,1.13-1.27,0-1.51,0-4.41-.44-4.48-.44-.07-2.7,0-3.23,0h-3.92c-.87,0-2.35-.29-3.05.52-.7.87-.87,2.3-.7,3.17l.17.55h0Z" data-active="1" style="fill: url(#toothgen-53-linear-gradient-13-18);" />
      <path id="implant-bar" d="M8.44,54.02c5.06.24,18.31,0,23.89,0,5.58,0,2.44-1.74,2.62-3.25.17-1.51.17-2.54-.87-2.69-1.05-.16-4.19,0-5.49,0-3.14,0-5.84,0-8.81.16-3.31,0-10.55.16-11.07,0-.96,0-1.83.55-1.92,1.35-.17,1.51-.17,4.36,1.57,4.2h0v.24h0Z" data-active="1" style="fill: url(#toothgen-53-radial-gradient-13-0);" />
      <g id="implant-healing-abutment" data-active="1" style="display: none;">
        <path id="implant-healing-abutment-connector" d="M16.38,43.24c1.48.24,3.23-.16,4.71-.16,2.88,0,3.66-.95,2.96-4.37-.09-.43-.18-.92-.26-1.49-.08-.61-.16-1.26-.24-1.91-.15-1.26-.29-2.56-.44-3.89-.29-2.65-.63-5.37-1.05-7.89-.27-1.26-.56-2.52-1.08-3.55-1.23-2.58-2.39-2.09-3.28-.49-.86,1.6-1.39,4.32-1.5,6.21-.28,3.89-.23,6.76-.73,10.34-.12.81-.3,1.72-.48,2.53-.18.67-.34,1.33-.4,1.98-.12,1.32.16,2.43,1.52,2.66h.26Z" data-active="1" style="fill: #a0a0a0; stroke: #8c8c8c; stroke-miterlimit: 10; stroke-width: .5px;" />
        <path d="M25.62,40.47h-8.02c-1.22,0-4.36.16-4.36.16,0,0-.35.71-.61,1.35-.26.63-.26.95-.26,1.43v2.14c0,.24.17.4.17.55h.96c2.09-.24,4.27-.32,6.37-.32v-.16c.26,0-.61-.16-.78-.16.35.4-1.57,0-1.83,0-.44,0-.61-.4-.61-.79v-1.9c0-.48.52-.4.35-.48l-3.58.24c-.35,0-.61.16-.96,0l2.18-.4c2.79-.48,5.58-.24,8.28,0,.52,0,1.05,0,1.66.16h.44c.17,0,.35,0,.44.16-.17-.16,0-1.98,0-1.98h.17Z" data-active="1" style="fill: #475563;" />
        <path d="M20.04,45.62v-.16h.17v-.16c.44,0,1.74.24,2.27.16.09.24.44.16.61.16.52,0,2.01.16,2.18-.71.17-.87.17-1.43,0-2.14-.17-.71-.26-.32-.09-.48h.35c0,0,.17,0,.17.32v2.85c0,.16-.09.32-.17.48-.78,0-1.57-.16-2.44-.24h-3.14,0Z" data-active="1" style="fill: #8c8c8c;" />
        <path d="M19.78,42.29c-.09-.16-.26-.16-.44-.16l-.78.16c-.09-.16-.35-.16-.52,0-.09-.16-.78,0-.87,0l-3.58.24c-.35,0-.61.16-.96,0l2.18-.4c2.79-.48,5.58-.24,8.28,0,.09.24,0,.16.26.48.17.24.26.16.35.4.09.55,0,1.19,0,1.66,0,.48-.26.63-.61.71-.61,0-1.74.16-2.35,0-.61-.16-1.22-.16-1.22-.48v-.71c-.09-.32,0-1.19,0-1.58,0-.4.44-.55.26-.4h0Z" data-active="1" style="fill: #e8eef0;" />
        <path d="M22.48,45.46h.61c.35-.16.61-.48.61-.79v-1.51c0-.48-.78-.87-1.31-.87-.26-.32.78,0,.7-.16.52,0,1.05,0,1.66.16.61.16.26,0,.44,0-.17.16,0,.32.09.48.09.71.09,1.43,0,2.14-.09.71-1.66.79-2.18.71-.52-.08-.52,0-.61-.16h0Z" data-active="1" style="fill: #a0a0a0;" />
        <path d="M17.16,42.21c.09,0,.78-.16.87,0,.17-.16.44-.16.52,0,0,0-.17.16-.17.24,0,.79-.17,1.51,0,2.3.17.79.52.48.87.55.35.4-1.57,0-1.83,0-.44,0-.61-.4-.61-.79v-1.9c0-.63.52-.4.35-.48h0Z" data-active="1" style="fill: #6f7c86;" />
        <path d="M20.04,45.46c.26,0-.96-.24-.78-.16-.35,0-.78,0-.87-.55-.17-.71,0-1.51,0-2.3,0-.79.17-.16.17-.24l.78-.16c.17,0,.35,0,.44.16-.17.16-.26.32-.26.55v1.98c0,.71.44.48.61.55v.16h-.17c0,0,.09,0,0,0h0Z" data-active="1" style="fill: #a0a0a0;" />
        </g>
      <g id="implant-base" data-active="1">
        <path d="M16.55,40.47c-.04-.51-.09-1.01-.08-1.51.01-.56.08-1.22.25-1.94h4.89c.17.56.21,1.28.21,1.91,0,.55-.04,1.1-.04,1.54h-5.23Z" data-active="1" style="fill: #bbc3c6;" />
        <path d="M17.17,11.29c-.21,0,.07-2.52.07-2.75.23-1.49.94-2.75,1.96-3.44,1.01-.69.2,0,.2-.34,1.72,0,3.35,1.26,3.89,3.55.61,2.29.05,1.37.18,2.06h-1.36c-.02-.92-.06-2.41-.88-2.63-.82-.23-.71,0-.71.34.01.92.02,1.72.23,2.41l-3.69.69h0Z" data-active="1" style="fill: #bac3c7;" />
        <path d="M16.72,37.02c-.17.72-.23,1.37-.25,1.94-.01.5.03,1,.08,1.51l-3.31.16c0-.28-.07-1.08-.02-1.78.04-.83.19-1.71.63-1.6.96-.23,1.92-.23,2.88-.23Z" data-active="1" style="fill: #a0a4a5;" />
        <path d="M17.24,36.43l-.05-2.92c1.34-.34,2.69-.8,4.13-.8l.12,3.84h-4.2Z" data-active="1" style="fill: #bac3c6;" />
        <path d="M19.5,4.65c0,0-.1.23-.2.34-1.01.69-1.63,1.95-1.95,3.44-.35,1.49-.28,2.75-.07,2.75l-2.57.69c.17-1.26.13-2.52.5-3.78.34-1.26,1.15-2.52,2.17-3.09,1.01-.57,1.52-.46,2.23-.46h-.1Z" data-active="1" style="fill: #9ca3a6;" />
        <path d="M21.78,40.47c0-.44.04-.99.04-1.54,0-.63-.04-1.35-.21-1.91h2.36c.08.56.14,1.3.16,1.94.01.56-.03,1.11-.16,1.51h-2.18Z" data-active="1" style="fill: #e8eef0;" />
        <path d="M17.09,33.4l.06,2.91c.09,0-2.97.24-2.97.24-.02-.85-.06-1.66,0-2.35.96-.46,1.94-.57,2.82-.92h.09,0Z" data-active="1" style="fill: #9ea3a4;" />
        <path d="M23.96,40.55c.09-.4.13-.96.13-1.51,0-.62-.04-1.35-.12-1.9h1.22c.35.11.49.98.54,1.75.04.66-.02,1.38-.11,1.66h-1.66Z" data-active="1" style="fill: #bcc4c7;" />
        <path d="M21.44,36.43l-.12-3.83c.55-.23,1.18-.23,1.73-.23l.05,4.18h-1.66Z" data-active="1" style="fill: #e3eaeb;" />
        <path d="M23.1,36.55l-.05-4.18c.46-.11,1-.11,1.55-.11l.08,4.42h-1.57Z" data-active="1" style="fill: #b8c2c4;" />
        <path d="M17.12,31.34l-.04-1.26c1.4-.34,2.81-.69,4.23-.8l-.03,1.26-4.16.8Z" data-active="1" style="fill: #b7c0c3;" />
        <path d="M17.09,28.01c-.11-.46-.03-.92-.05-1.37,1.47-.34,2.86-.57,4.25-.8l-.03,1.37-4.26.8h.1Z" data-active="1" style="fill: #b9c0c4;" />
        <path d="M17.07,24.69c-.32-.46-.02-.57-.25-1.26,1.43-.46,2.88-.69,4.45-.92l-.03,1.37c-1.33.23-2.76.46-4.17.8Z" data-active="1" style="fill: #b8c0c3;" />
        <path d="M16.85,21.26l-.03-1.26c1.39-.34,2.89-.69,4.39-.8l-.02,1.26-4.34.8Z" data-active="1" style="fill: #b7bfc3;" />
        <path d="M16.89,17.94l-.01-1.26c1.41-.34,2.83-.57,4.25-.8v1.37l-4.34.69c0,0,.11,0,0,0h.11Z" data-active="1" style="fill: #b9c1c5;" />
        <path d="M16.9,13.35c1.3-.34,2.59-.69,3.98-.8l.01,1.37c-1.3.11-2.6.46-4.02.69l.02-1.26Z" data-active="1" style="fill: #bac3c5;" />
        <path d="M17.16,32.83c-.01-.23-.02-.57-.12-.8-.17.23-.44.34-.55,0,1.54-.46,3.19-.8,4.85-1.03.09.23-.01.57-.02.92l-4.17.8h0Z" data-active="1" style="fill: #b7c0c3;" />
        <path d="M17.15,29.5c-.2-.23-.02-.57-.03-.92,1.43-.34,2.87-.69,4.32-.8l-.02.92-4.17.8c0,0-.09,0,0,0,0,0-.09,0,0,0h-.09Z" data-active="1" style="fill: #b9c0c3;" />
        <path d="M17.07,30.08l.04,1.26-2.88.92-.09-1.26c.89-.46,1.91-.57,2.83-.8h.09Z" data-active="1" style="fill: #9a9fa1;" />
        <path d="M17.12,26.07c-.11-.34-.22-.46-.23-.8,1.5-.34,2.91-.69,4.34-.8l-.02.92-4.18.8h.1Z" data-active="1" style="fill: #bac0c3;" />
        <path d="M17.04,26.64c.02.46-.06.92.05,1.37l-2.92.8-.11-1.37c.94-.46,1.91-.57,2.89-.8,0,0,.1,0,0,0,0,0,.1,0,0,0h.1Z" data-active="1" style="fill: #999fa1;" />
        <path d="M16.9,22.75l-.03-.92c1.46-.34,2.94-.57,4.42-.8l-.02.92c0,0-4.38.8-4.38.8Z" data-active="1" style="fill: #bac1c4;" />
        <path d="M16.81,19.43l-.02-.8c1.4-.34,2.91-.57,4.32-.8l-.01.92-4.41.69c0,0,.11,0,.11,0Z" data-active="1" style="fill: #b9c0c3;" />
        <path d="M16.87,16.1v-.92c1.31-.46,2.72-.57,4.14-.8,0,.23.11.57,0,.92l-4.25.8c0,0,.11,0,0,0h.11Z" data-active="1" style="fill: #bbc2c4;" />
        <path d="M16.82,23.43c.13.69.03.8.25,1.26l-2.87.8-.1-1.26c.88-.57,1.81-.46,2.73-.69h0Z" data-active="1" style="fill: #9ba0a2;" />
        <path d="M16.42,32.14c.1.23.37.23.55,0,.1.23.11.57.12.8-1.07.34-2.13.57-3.18,1.03-1.04.46-.37-.23-.47-.46-.05-.69,2.37-1.15,2.82-1.26h.18Z" data-active="1" style="fill: #a8aeb1;" />
        <path d="M17.02,28.59l.03.92-3.22,1.03c-.19,0-.4-.34-.41-.46-.06-.69,3.03-1.26,3.5-1.37h.1Z" data-active="1" style="fill: #a6abad;" />
        <path d="M16.82,20l.03,1.26-2.8.8-.08-1.37c.94-.46,1.89-.57,2.74-.69,0,0,.11,0,0,0,0,0,.11,0,0,0,0,0,.11,0,.11,0Z" data-active="1" style="fill: #9ba0a3;" />
        <path d="M20.86,10.61c-.12-.8-.23-1.6-.23-2.41-.01-.8.51-.46.71-.34.82.23.75,1.72.88,2.63l-1.36.23h0Z" data-active="1" style="fill: #e4e9ea;" />
        <path d="M17.02,12.78l.02-.92c1.28-.34,2.55-.57,3.93-.69l.01.92-3.96.69Z" data-active="1" style="fill: #bcc2c4;" />
        <path d="M16.89,25.27c.01.34.02.57.23.8-1.18.23-2.14.57-3.3.92-1.14.34-.41-.23-.42-.34-.17-.8,2.99-1.26,3.49-1.37Z" data-active="1" style="fill: #a6abad;" />
        <path d="M16.88,16.68l.01,1.26-2.68.8c-.01-.34-.03-1.03.07-1.26.86-.46,1.73-.46,2.6-.69h0Z" data-active="1" style="fill: #9da2a4;" />
        <path d="M16.87,21.94l.03.92-3.25.92c-.2,0-.34-.34-.34-.46-.01-.11-.03-.34.17-.46,1.11-.46,2.25-.69,3.29-.92h.1Z" data-active="1" style="fill: #a5aaac;" />
        <path d="M16.9,13.35l-.02,1.26-2.62.69.03-1.26c.88-.34,1.75-.46,2.51-.69,0,0,.11,0,0,0h.11Z" data-active="1" style="fill: #9ca1a3;" />
        <path d="M16.79,18.62l.02.8-3.07.92c-.21,0-.44-.23-.45-.34-.26-.8,3.18-1.26,3.5-1.26h0Z" data-active="1" style="fill: #a5aaac;" />
        <path d="M16.77,15.19v.92l-3.04.8c-.22,0-.33-.23-.44-.34-.11-.11,0-.46.32-.46,1.09-.34,2.07-.69,3.16-.8h0Z" data-active="1" style="fill: #a2a7a9;" />
        <path d="M17.05,11.87l-.02.92c-.97.23-1.84.46-2.83.8-.99.34-.43-.11-.42-.34.01-.23.02-.34.24-.46.99-.46,1.95-.57,3.03-.92Z" data-active="1" style="fill: #a7abae;" />
        <path d="M21.37,30.53l.03-1.26c.48-.23,1.05-.23,1.62-.23.07.46-.05.92-.07,1.37l-1.68.23h0Z" data-active="1" style="fill: #e2e9eb;" />
        <path d="M21.36,27.21l.04-1.37,1.8-.23-.07,1.26c-.5.23-1.09.23-1.68.34h0Z" data-active="1" style="fill: #e1e8e9;" />
        <path d="M21.27,22.52c.62,0,1.26-.23,1.88-.23l-.06,1.37-1.75.23.03-1.37h0Z" data-active="1" style="fill: #e3e9ea;" />
        <path d="M21.19,20.57l.02-1.26c.54,0,1.19-.23,1.72-.23.2.46-.02.92.18,1.26-.64,0-1.28,0-1.92.23Z" data-active="1" style="fill: #e3e9ea;" />
        <path d="M23.05,30.31l.07-1.37c.48,0,1.05-.11,1.63-.11-.03.46.03.92-.01,1.37-.58.23-1.12,0-1.59.11h-.09Z" data-active="1" style="fill: #b7bfc3;" />
        <path d="M21.12,17.25c-.11-.46,0-.92,0-1.37l1.74-.23-.01,1.26c-.44.11-1.09.23-1.63.23h-.11Z" data-active="1" style="fill: #e4eaeb;" />
        <path d="M23.07,31.79l.04-.92c.46,0,2.36-.57,2.19.34-.16.92-1.69.57-2.24.57Z" data-active="1" style="fill: #b4bdc0;" />
        <path d="M23.14,28.47l.05-.92c.39,0,2.38-.57,2.21.23-.16.8-.23.46-.42.46h-1.83c0,0-.01.23-.01.23Z" data-active="1" style="fill: #b8c0c4;" />
        <path d="M20.88,12.55c.54,0,1.07-.23,1.6-.23.12.46.02.92.25,1.26-.54.11-1.08.23-1.73.23l-.02-1.37h-.11Z" data-active="1" style="fill: #e3e8e9;" />
        <path d="M23.13,26.87l.07-1.26c.4,0,.91-.11,1.41-.11-.03.46.03.92-.09,1.26-.51.23-1.08,0-1.48.11h.1Z" data-active="1" style="fill: #b8c0c3;" />
        <path d="M23.02,25.15l.04-.92c.41,0,2.28-.57,2.22.23-.06.8-1.76.57-2.27.69Z" data-active="1" style="fill: #b5bdc1;" />
        <path d="M23.09,23.66l.06-1.37c.52,0,.95-.23,1.47-.11l-.08,1.26c-.52.11-1.03,0-1.55.11h.1Z" data-active="1" style="fill: #b8c1c5;" />
        <path d="M23.07,21.72c-.1-.23.02-.57.03-.92.53,0,2.25-.46,2.32.23.06.69-1.62.69-2.25.69h-.11Z" data-active="1" style="fill: #bac0c3;" />
        <path d="M22.95,18.39c-.1-.23.01-.57-.09-.92.54,0,2.29-.57,2.27.23-.02.8-1.64.57-2.18.69Z" data-active="1" style="fill: #b6bec2;" />
        <path d="M23.01,20.34c-.09-.46.03-.92-.18-1.26.54,0,.98-.23,1.51-.11-.02.46.07.92-.05,1.26h-1.39.11Z" data-active="1" style="fill: #b9c2c6;" />
        <path d="M21.33,32.02l.02-.92c.65,0,1.21-.23,1.86-.23l-.04.92-1.74.23h-.09Z" data-active="1" style="fill: #e5e9eb;" />
        <path d="M22.76,15.07l-.01-.92c.33,0,2.37-.57,2.18.34-.2.92-1.52.46-2.06.57h-.11Z" data-active="1" style="fill: #bbc2c5;" />
        <path d="M22.86,16.91l.01-1.26c.33,0,.76-.11,1.31,0,0,.34.11.8-.01,1.26-.44.34-.98,0-1.42.11h0Z" data-active="1" style="fill: #b6bfc2;" />
        <path d="M21.32,28.59l.02-.92c.58,0,1.17-.23,1.76-.23l-.05.92-1.83.23h.1Z" data-active="1" style="fill: #e6ebec;" />
        <path d="M22.74,13.7c-.22-.34-.02-.92-.25-1.26.43,0,.85-.23,1.39,0,.01.34.14.8.05,1.26-.43.23-.87,0-1.3.11h.11Z" data-active="1" style="fill: #bdc3c6;" />
        <path d="M21.31,25.27l.02-.92c.61,0,1.23-.34,1.84-.23l-.04.92-1.82.23Z" data-active="1" style="fill: #e6eaeb;" />
        <path d="M22.47,11.87l-.03-.92c.42,0,2.18-.57,2.02.34-.17.92-1.46.46-1.99.46h0Z" data-active="1" style="fill: #bfc4c7;" />
        <path d="M21.28,21.94l.02-.92,1.81-.23-.03.92-1.9.23h0Z" data-active="1" style="fill: #e5eaeb;" />
        <path d="M21.11,18.62l.01-.92,1.85-.23c-.01.34-.01.57.09.92l-1.84.23h-.11Z" data-active="1" style="fill: #e6ebeb;" />
        <path d="M21.02,15.3v-.92c.54,0,1.08-.23,1.73-.23l.01.92-1.74.23Z" data-active="1" style="fill: #e6eaeb;" />
        <path d="M20.87,11.18c.53,0,1.05-.23,1.58-.23l.03.92-1.59.23-.01-.92Z" data-active="1" style="fill: #e1e5e6;" />
        </g>
      <path id="peri-implant-bone-loss" d="M12.1,32.71c.59,2,1.22,3.78,1.86,5.2.31.6.63,1.07.97,1.46.34.37.68.72,1.04,1.05,1.42,1.29,2.94,1.88,4.25,1.88,1.31,0,2.83-.59,4.25-1.88.35-.32.7-.67,1.04-1.05.34-.39.66-.86.97-1.46.64-1.42,1.28-3.2,1.9-5.2-1.08,2.29-2.25,4.08-3.58,5.18-1.31.91-2.83,1.29-4.58,1.29-1.74,0-3.27-.39-4.58-1.29-1.32-1.11-2.48-2.89-3.53-5.18Z" data-active="1" style="display: none; fill: #d9534f;" />
      </g>
    <g id="prosthesis-implant" data-active="1">
      <g id="prosthesis-implant-gum" data-active="1" style="display: none; opacity: .5;">
        <path d="M34.34,56.32v-9.27c0-.63-.78-1.19-1.74-1.19h-25.99c-8.11,0-1.74.48-1.74,1.11,0,2.14-.26,6.89-.35,9.27-.09,2.38.78,1.19,1.83,1.19h26.25c5.32,0,1.74-.55,1.74-1.19h0Z" data-active="1" style="fill: url(#toothgen-53-radial-gradient-13-1);" />
        <path d="M34.25,56.32c0-3.09-.35-6.26-.44-9.27,0-.55-.96-.71-1.48-.63-6.98,0-16.13-.4-23.19-.48h-2.62c-.44,0-.87.32-.87.71v.48h0v.16c0,3.01-.17,6.1-.35,9.11,0,0,0,.16.35.32.44.24,2.96.16,3.49.16l5.14.16c3.4,0,12.12.32,15.43.4h2.62c.78,0,1.83-.32,1.83-1.11,0,0,0,0,.09,0Zm.17,0c0,.87-1.13,1.27-2.01,1.27h-2.62c-3.23,0-12.03.32-15.43.4-1.66,0-6.1.16-7.76.16-1.13.16-3.31-.4-3.14-2.3v-.55c0-2.69,0-5.47.26-8.24,0-1.58,1.57-1.43,2.79-1.27,8.02,0,17.7-.48,25.72-.48,8.02,0,2.35.4,2.53,1.51,0,3.17-.26,6.26-.44,9.43h0Z" data-active="1" style="fill: #ffa46a;" />
        </g>
      <path id="prosthesis-implant-crown" d="M23.35,59.49c-1.74,5.71-6.28,6.1-7.85-.16-.52-1.98-.78-4.6.44-6.1,1.31-1.66,4.01-1.98,5.76-.95,2.35,1.43,2.35,4.83,1.66,7.13h0Z" data-active="1" style="display: none; fill: #f9ae94; stroke: #1b3f1c; stroke-miterlimit: 10;" />
      </g>
    <g id="prosthesis" data-active="1">
      <path id="prosthesis-connector" d="M32.68,55.13c2.53-.95,2.96-3.8.87-5.23-1.92-1.43-5.67-1.27-8.98-1.35-5.67,0-11.51-.32-17.09.32-3.4.48-5.23,3.88-3.05,6.02,1.4,1.27,4.88,1.35,7.41,1.35,2.53,0,6.54,0,9.94-.16,3.66,0,8.28,0,10.73-.95h.17Z" data-active="1" style="display: none; fill: url(#toothgen-53-linear-gradient-13-19); stroke: #1b3f1c; stroke-miterlimit: 10; stroke-width: .2px;" />
      <path id="prosthesis-crown" d="M28.41,54.5c-3.84,12.76-14.04,13.63-17.61-.4-1.22-4.44-1.83-10.22,1.05-13.71.74-.89,1.67-1.59,2.72-2.2,1.04-.7,2.19-1.21,3.38-1.46,1.19-.25,2.42-.22,3.59.09,1.17.3,2.3.85,3.3,1.56,5.23,3.13,5.23,10.73,3.66,15.89v.16h0Z" data-active="1" style="display: none; fill: #f9ae94; stroke: #1b3f1c; stroke-miterlimit: 10;" />
      </g>
    <g id="telescope" data-active="1">
      <path id="telescope-bridge-connector" d="M32.68,55.13c2.53-.95,2.96-3.8.87-5.23-1.92-1.43-5.67-1.27-8.98-1.35-5.67,0-11.51-.32-17.09.32-3.4.48-5.23,3.88-3.05,6.02,1.4,1.27,4.88,1.35,7.41,1.35,2.53,0,6.54,0,9.94-.16,3.66,0,8.28,0,10.73-.95h.17Z" data-active="1" style="display: none; fill: #0051bf; stroke: #1b3f1c; stroke-miterlimit: 10; stroke-width: .2px;" />
      <g id="telescope-crown" data-active="1" style="display: none;">
        <path id="telescope-crown-outside" d="M28.41,54.5c-3.84,12.76-14.04,13.63-17.61-.4-1.22-4.44-1.83-10.22,1.05-13.71.74-.89,1.67-1.59,2.72-2.2,1.04-.7,2.19-1.21,3.38-1.46,1.19-.25,2.42-.22,3.59.09,1.17.3,2.3.85,3.3,1.56,5.23,3.13,5.23,10.73,3.66,15.89v.16h0Z" data-active="1" style="fill: #0051bf; stroke: #1b3f1c; stroke-miterlimit: 10;" />
        <path id="telescope-crown-inside" d="M26.84,53.39c-3.14,10.46-11.42,11.17-14.39-.32-.96-3.65-1.48-8.32.87-11.17,2.35-2.94,7.41-3.52,10.64-1.66,4.27,2.54,4.27,8.88,2.96,13.08v.16h-.09,0Z" data-active="1" style="fill: #aaa; stroke: #ffffff; stroke-miterlimit: 10; stroke-width: 1.6; paint-order: stroke;" />
        </g>
      </g>
    <g id="zircon" data-active="1">
      <path id="zircon-bridge-connector" d="M32.68,55.13c2.53-.95,2.96-3.8.87-5.23-1.92-1.43-5.67-1.27-8.98-1.35-5.67,0-11.51-.32-17.09.32-3.4.48-5.23,3.88-3.05,6.02,1.4,1.27,4.88,1.35,7.41,1.35,2.53,0,6.54,0,9.94-.16,3.66,0,8.28,0,10.73-.95h.17Z" data-active="1" style="display: none; fill: #feffbf; stroke: #1b3f1c; stroke-miterlimit: 10; stroke-width: .2px;" />
      <path id="zircon-crown" d="M28.41,54.5c-3.84,12.76-14.04,13.63-17.61-.4-1.22-4.44-1.83-10.22,1.05-13.71.74-.89,1.67-1.59,2.72-2.2,1.04-.7,2.19-1.21,3.38-1.46,1.19-.25,2.42-.22,3.59.09,1.17.3,2.3.85,3.3,1.56,5.23,3.13,5.23,10.73,3.66,15.89v.16h0Z" data-active="1" style="display: none; fill: #feffbf; stroke: #1b3f1c; stroke-miterlimit: 10;" />
      <path id="zircon-inlay" d="M25.1,58.22c-2.35,7.85-8.63,8.4-10.81-.24-.78-2.77-1.13-6.26.61-8.48,1.83-2.3,5.58-2.69,8.02-1.27,3.23,1.98,3.23,6.66,2.27,9.83h0c0,0-.09.16-.09.16Z" data-active="1" style="display: none; fill: #feffbf; stroke: #1b3f1c; stroke-miterlimit: 10;" />
      <path id="zircon-veneer" d="M27.28,54.18c-3.31,10.86-11.95,11.65-15-.32-1.05-3.8-1.57-8.72.87-11.73,2.53-3.1,7.67-3.67,11.07-1.74,4.45,2.69,4.45,9.19,3.14,13.63v.16c0,0-.09,0,0,0h0Z" data-active="1" style="display: none; fill: #feffbf; stroke: #1b3f1c; stroke-miterlimit: 10;" />
      </g>
    <g id="metal" data-active="1">
      <path id="metal-bridge-connector" d="M32.68,55.13c2.53-.95,2.96-3.8.87-5.23-1.92-1.43-5.67-1.27-8.98-1.35-5.67,0-11.51-.32-17.09.32-3.4.48-5.23,3.88-3.05,6.02,1.4,1.27,4.88,1.35,7.41,1.35,2.53,0,6.54,0,9.94-.16,3.66,0,8.28,0,10.73-.95h.17Z" data-active="1" style="display: none; fill: #0051bf; stroke: #1b3f1c; stroke-miterlimit: 10; stroke-width: .2px;" />
      <path id="metal-crown" d="M28.41,54.5c-3.84,12.76-14.04,13.63-17.61-.4-1.22-4.44-1.83-10.22,1.05-13.71.74-.89,1.67-1.59,2.72-2.2,1.04-.7,2.19-1.21,3.38-1.46,1.19-.25,2.42-.22,3.59.09,1.17.3,2.3.85,3.3,1.56,5.23,3.13,5.23,10.73,3.66,15.89v.16h0Z" data-active="1" style="display: none; fill: #0051bf; stroke: #1b3f1c; stroke-miterlimit: 10;" />
      </g>
    <g id="metal-ceramic" data-active="1">
      <path id="metal-ceramic-bridge-connector" d="M32.68,55.13c2.53-.95,2.96-3.8.87-5.23-1.92-1.43-5.67-1.27-8.98-1.35-5.67,0-11.51-.32-17.09.32-3.4.48-5.23,3.88-3.05,6.02,1.4,1.27,4.88,1.35,7.41,1.35,2.53,0,6.54,0,9.94-.16,3.66,0,8.28,0,10.73-.95h.17Z" data-active="1" style="display: none; fill: url(#toothgen-53-radial-gradient-13-2); stroke: #1b3f1c; stroke-miterlimit: 10; stroke-width: .2px;" />
      <path id="metal-ceramic-crown" d="M28.41,54.5c-3.84,12.76-14.04,13.63-17.61-.4-1.22-4.44-1.83-10.22,1.05-13.71.74-.89,1.67-1.59,2.72-2.2,1.04-.7,2.19-1.21,3.38-1.46,1.19-.25,2.42-.22,3.59.09,1.17.3,2.3.85,3.3,1.56,5.23,3.13,5.23,10.73,3.66,15.89v.16h0Z" data-active="1" style="display: none; fill: url(#toothgen-53-radial-gradient-13-3); stroke: #1b3f1c; stroke-miterlimit: 10;" />
      </g>
    <g id="gold" data-active="1">
      <path id="gold-bridge-connector" d="M32.68,55.13c2.53-.95,2.96-3.8.87-5.23-1.92-1.43-5.67-1.27-8.98-1.35-5.67,0-11.51-.32-17.09.32-3.4.48-5.23,3.88-3.05,6.02,1.4,1.27,4.88,1.35,7.41,1.35,2.53,0,6.54,0,9.94-.16,3.66,0,8.28,0,10.73-.95h.17Z" data-active="1" style="display: none; fill: #ece614; stroke: #1b3f1c; stroke-miterlimit: 10; stroke-width: .2px;" />
      <path id="gold-crown" d="M28.41,54.5c-3.84,12.76-14.04,13.63-17.61-.4-1.22-4.44-1.83-10.22,1.05-13.71.74-.89,1.67-1.59,2.72-2.2,1.04-.7,2.19-1.21,3.38-1.46,1.19-.25,2.42-.22,3.59.09,1.17.3,2.3.85,3.3,1.56,5.23,3.13,5.23,10.73,3.66,15.89v.16h0Z" data-active="1" style="display: none; fill: #ece614; stroke: #1b3f1c; stroke-miterlimit: 10;" />
      <path id="gold-inlay" d="M25.1,58.22c-2.35,7.85-8.63,8.4-10.81-.24-.78-2.77-1.13-6.26.61-8.48,1.83-2.3,5.58-2.69,8.02-1.27,3.23,1.98,3.23,6.66,2.27,9.83h0c0,0-.09.16-.09.16Z" data-active="1" style="display: none; fill: #ece614; stroke: #1b3f1c; stroke-miterlimit: 10;" />
      <path id="gold-veneer" d="M27.28,54.18c-3.31,10.86-11.95,11.65-15-.32-1.05-3.8-1.57-8.72.87-11.73,2.53-3.1,7.67-3.67,11.07-1.74,4.45,2.69,4.45,9.19,3.14,13.63v.16c0,0-.09,0,0,0h0Z" data-active="1" style="display: none; fill: #ece614; stroke: #1b3f1c; stroke-miterlimit: 10;" />
      </g>
    <g id="emax" data-active="1">
      <path id="emax-bridge-connector" d="M32.68,55.13c2.53-.95,2.96-3.8.87-5.23-1.92-1.43-5.67-1.27-8.98-1.35-5.67,0-11.51-.32-17.09.32-3.4.48-5.23,3.88-3.05,6.02,1.4,1.27,4.88,1.35,7.41,1.35,2.53,0,6.54,0,9.94-.16,3.66,0,8.28,0,10.73-.95h.17Z" data-active="1" style="display: none; fill: url(#toothgen-53-radial-gradient-13-4); stroke: #1b3f1c; stroke-miterlimit: 10; stroke-width: .2px;" />
      <path id="emax-crown" d="M28.41,54.5c-3.84,12.76-14.04,13.63-17.61-.4-1.22-4.44-1.83-10.22,1.05-13.71.74-.89,1.67-1.59,2.72-2.2,1.04-.7,2.19-1.21,3.38-1.46,1.19-.25,2.42-.22,3.59.09,1.17.3,2.3.85,3.3,1.56,5.23,3.13,5.23,10.73,3.66,15.89v.16h0Z" data-active="1" style="display: none; fill: url(#toothgen-53-radial-gradient-13-5); stroke: #1b3f1c; stroke-miterlimit: 10;" />
      <path id="emax-inlay" d="M25.1,58.22c-2.35,7.85-8.63,8.4-10.81-.24-.78-2.77-1.13-6.26.61-8.48,1.83-2.3,5.58-2.69,8.02-1.27,3.23,1.98,3.23,6.66,2.27,9.83h0c0,0-.09.16-.09.16Z" data-active="1" style="display: none; fill: url(#toothgen-53-radial-gradient-13-6); stroke: #1b3f1c; stroke-miterlimit: 10;" />
      <path id="emax-veneer" d="M27.28,54.18c-3.31,10.86-11.95,11.65-15-.32-1.05-3.8-1.57-8.72.87-11.73,2.53-3.1,7.67-3.67,11.07-1.74,4.45,2.69,4.45,9.19,3.14,13.63v.16c0,0-.09,0,0,0h0Z" data-active="1" style="display: none; fill: url(#toothgen-53-radial-gradient-13-7); stroke: #1b3f1c; stroke-miterlimit: 10;" />
      </g>
    <g id="gradia" data-active="1">
      <path id="gradia-bridge-connector" d="M32.68,55.13c2.53-.95,2.96-3.8.87-5.23-1.92-1.43-5.67-1.27-8.98-1.35-5.67,0-11.51-.32-17.09.32-3.4.48-5.23,3.88-3.05,6.02,1.4,1.27,4.88,1.35,7.41,1.35,2.53,0,6.54,0,9.94-.16,3.66,0,8.28,0,10.73-.95h.17Z" data-active="1" style="display: none; fill: #55ff98; stroke: #1b3f1c; stroke-miterlimit: 10; stroke-width: .2px;" />
      <path id="gradia-crown" d="M28.41,54.5c-3.84,12.76-14.04,13.63-17.61-.4-1.22-4.44-1.83-10.22,1.05-13.71.74-.89,1.67-1.59,2.72-2.2,1.04-.7,2.19-1.21,3.38-1.46,1.19-.25,2.42-.22,3.59.09,1.17.3,2.3.85,3.3,1.56,5.23,3.13,5.23,10.73,3.66,15.89v.16h0Z" data-active="1" style="display: none; fill: #55ff98; stroke: #1b3f1c; stroke-miterlimit: 10;" />
      <path id="gradia-inlay" d="M25.1,58.22c-2.35,7.85-8.63,8.4-10.81-.24-.78-2.77-1.13-6.26.61-8.48,1.83-2.3,5.58-2.69,8.02-1.27,3.23,1.98,3.23,6.66,2.27,9.83h0c0,0-.09.16-.09.16Z" data-active="1" style="display: none; fill: #55ff98; stroke: #1b3f1c; stroke-miterlimit: 10;" />
      <path id="gradia-veneer" d="M27.28,54.18c-3.31,10.86-11.95,11.65-15-.32-1.05-3.8-1.57-8.72.87-11.73,2.53-3.1,7.67-3.67,11.07-1.74,4.45,2.69,4.45,9.19,3.14,13.63v.16c0,0-.09,0,0,0h0Z" data-active="1" style="display: none; fill: #55ff98; stroke: #1b3f1c; stroke-miterlimit: 10;" />
      </g>
    <g id="temporary-restorations" data-active="1">
      <path id="temporary-bridge-connector" d="M32.68,55.13c2.53-.95,2.96-3.8.87-5.23-1.92-1.43-5.67-1.27-8.98-1.35-5.67,0-11.51-.32-17.09.32-3.4.48-5.23,3.88-3.05,6.02,1.4,1.27,4.88,1.35,7.41,1.35,2.53,0,6.54,0,9.94-.16,3.66,0,8.28,0,10.73-.95h.17Z" data-active="1" style="display: none; fill: #fff; stroke: #1b3f1c; stroke-miterlimit: 10; stroke-width: .2px;" />
      <path id="temporary-crown" d="M28.41,54.5c-3.84,12.76-14.04,13.63-17.61-.4-1.22-4.44-1.83-10.22,1.05-13.71.74-.89,1.67-1.59,2.72-2.2,1.04-.7,2.19-1.21,3.38-1.46,1.19-.25,2.42-.22,3.59.09,1.17.3,2.3.85,3.3,1.56,5.23,3.13,5.23,10.73,3.66,15.89v.16h0Z" data-active="1" style="display: none; fill: #fff; stroke: #1b3f1c; stroke-miterlimit: 10;" />
      <path id="temporary-inlay" d="M25.1,58.22c-2.35,7.85-8.63,8.4-10.81-.24-.78-2.77-1.13-6.26.61-8.48,1.83-2.3,5.58-2.69,8.02-1.27,3.23,1.98,3.23,6.66,2.27,9.83h0c0,0-.09.16-.09.16Z" data-active="1" style="display: none; fill: #fff; stroke: #1b3f1c; stroke-miterlimit: 10;" />
      <path id="temporary-veneer" d="M27.28,54.18c-3.31,10.86-11.95,11.65-15-.32-1.05-3.8-1.57-8.72.87-11.73,2.53-3.1,7.67-3.67,11.07-1.74,4.45,2.69,4.45,9.19,3.14,13.63v.16c0,0-.09,0,0,0h0Z" data-active="1" style="display: none; fill: #fff; stroke: #1b3f1c; stroke-miterlimit: 10;" />
      </g>
    </g>
  <g id="ortho" data-active="1">
    <g id="missing-closed" data-active="1" style="display: none;">
      <path d="M3.19,10.26c1,1.19,1.95,2.4,2.88,3.62,1.01,1.23,2,2.47,2.95,3.73,1.96,2.52,3.61,5.11,4.93,7.73,1.25,2.63,2.14,5.3,2.7,7.99.26,1.35.44,2.73.54,4.12.05.61.08,1.15.1,1.63.02.43.02.87,0,1.34-.22,7.53-4.23,15.1-11.38,21.83" data-active="1" style="fill: none; stroke: #000; stroke-miterlimit: 10; stroke-width: 2px;" />
      <path d="M30.5,61.16c-8.07-6.5-11.71-13.95-11.56-21.46.01-.43.03-.89.07-1.4.04-.59.09-1.24.16-1.95.13-1.41.33-2.77.58-4.13.54-2.71,1.39-5.42,2.55-8.09,1.23-2.67,2.75-5.31,4.51-7.89.85-1.29,1.7-2.57,2.57-3.84.82-1.26,1.67-2.51,2.56-3.74" data-active="1" style="fill: none; stroke: #000; stroke-miterlimit: 10; stroke-width: 2px;" />
      </g>
    <g id="ortho-ring" style="display: none;" data-active="1">
      <ellipse cx="19.4" cy="47.92" rx="2.8" ry="11.1" transform="translate(-25.6 63.6) rotate(-89.3)" style="fill: #bfbfbf;" data-active="1" />
      <line x1="10.6" y1="47.5" x2="28.5" y2="47.5" style="fill: none; stroke: #737373; stroke-linecap: round; stroke-linejoin: round; stroke-width: .8px;" data-active="1" />
      <line x1="10.6" y1="41.9" x2="28.5" y2="41.9" style="fill: none; stroke: #737373; stroke-linecap: round; stroke-linejoin: round; stroke-width: .8px;" data-active="1" />
      <line x1="9.5" y1="45.5" x2="29.5" y2="45.5" style="fill: none; stroke: #000; stroke-linecap: round; stroke-linejoin: round; stroke-width: .8px;" data-active="1" />
      <line x1="9.5" y1="43.6" x2="29.5" y2="43.6" style="fill: none; stroke: #000; stroke-linecap: round; stroke-linejoin: round; stroke-width: .8px;" data-active="1" />
      <path d="M28.15,45.7c.61,0,1.13.16,1.13.55v3.33c0,.24-.35.48-.7.55h-.44" style="fill: none; stroke: #737373; stroke-linecap: round; stroke-linejoin: round; stroke-width: .8px;" data-active="1" />
      <path d="M10.88,50.06h-.44c-.35,0-.7-.24-.7-.55v-3.33c0-.32.52-.55.96-.55h.17" style="fill: none; stroke: #737373; stroke-linecap: round; stroke-linejoin: round; stroke-width: .8px;" data-active="1" />
      </g>
    <g id="ortho-bracket" style="display: none;" data-active="1">
      <ellipse cx="17.6" cy="52.12" rx="1.2" ry="4" style="fill: #bfbfbf;" data-active="1" />
      <ellipse cx="21.9" cy="52.04" rx="1.2" ry="4" style="fill: #bfbfbf;" data-active="1" />
      <line x1="18.7" y1="52.9" x2="20.8" y2="52.9" style="fill: none; stroke: #737373; stroke-linecap: round; stroke-linejoin: round; stroke-width: .8px;" data-active="1" />
      <line x1="18.7" y1="47.7" x2="20.8" y2="47.7" style="fill: none; stroke: #737373; stroke-linecap: round; stroke-linejoin: round; stroke-width: .8px;" data-active="1" />
      <path d="M20.82,51.41v-1.74c0-.4.35-.63.78-.63.44,0,.87.24.96.71v4.83c0,.48-.35.79-.87.79-.52,0-.87-.32-.87-.79v-1.58" style="fill: none; stroke: #737373; stroke-linecap: round; stroke-linejoin: round; stroke-width: .8px;" data-active="1" />
      <path d="M18.73,51.41v-1.74c0-.4-.35-.63-.78-.71-.44-.08-.87.24-.96.71v4.75c0,.48.35.79.87.79.52,0,.87-.32.87-.79v-1.58" style="fill: none; stroke: #737373; stroke-linecap: round; stroke-linejoin: round; stroke-width: .8px;" data-active="1" />
      <line x1="16.7" y1="51" x2="22.8" y2="51" style="fill: none; stroke: #000; stroke-linecap: round; stroke-linejoin: round; stroke-width: .8px;" data-active="1" />
      <line x1="16.7" y1="49.3" x2="22.8" y2="49.3" style="fill: none; stroke: #000; stroke-linecap: round; stroke-linejoin: round; stroke-width: .8px;" data-active="1" />
      <path d="M22.65,50.22c.44,0,.78.16.78.48v3.09c0,.24-.26.48-.52.48h-.35" style="fill: none; stroke: #737373; stroke-linecap: round; stroke-linejoin: round; stroke-width: .8px;" data-active="1" />
      <path d="M16.9,54.34h-.35c-.26,0-.52-.24-.52-.48v-3.09c0-.32.35-.55.7-.48h.17" style="fill: none; stroke: #737373; stroke-linecap: round; stroke-linejoin: round; stroke-width: .8px;" data-active="1" />
      </g>
    <g id="arrows" data-active="1">
      <g id="arrow-distal" style="display: none;" data-active="1">
        <line x1="4.4" y1="61.1" x2=".9" y2="64.7" style="fill: none; stroke: #2e3192; stroke-miterlimit: 10; stroke-width: .8px;" data-active="1" />
        <line x1="6.9" y1="64.8" x2=".8" y2="64.8" style="fill: none; stroke: #2e3192; stroke-miterlimit: 10; stroke-width: .8px;" data-active="1" />
        <line x1="4.4" y1="68.4" x2=".9" y2="64.8" style="fill: none; stroke: #2e3192; stroke-miterlimit: 10; stroke-width: .8px;" data-active="1" />
        </g>
      <g id="arrow-mesial" style="display: none;" data-active="1">
        <line x1="33.6" y1="68.9" x2="37.9" y2="65.3" style="fill: none; stroke: #2e3192; stroke-miterlimit: 10; stroke-width: .8px;" data-active="1" />
        <line x1="30.5" y1="65.1" x2="38.1" y2="65.1" style="fill: none; stroke: #2e3192; stroke-miterlimit: 10; stroke-width: .8px;" data-active="1" />
        <line x1="33.6" y1="61.5" x2="37.9" y2="65.1" style="fill: none; stroke: #2e3192; stroke-miterlimit: 10; stroke-width: .8px;" data-active="1" />
        </g>
      <g id="arrow-down" style="display: none;" data-active="1">
        <line x1="38.3" y1="40.4" x2="34.5" y2="34.4" style="fill: none; stroke: #2e3192; stroke-miterlimit: 10; stroke-width: .8px;" data-active="1" />
        <line x1="34.2" y1="44.6" x2="34.5" y2="34.1" style="fill: none; stroke: #2e3192; stroke-miterlimit: 10; stroke-width: .8px;" data-active="1" />
        <line x1="30.4" y1="40.2" x2="34.4" y2="34.2" style="fill: none; stroke: #2e3192; stroke-miterlimit: 10; stroke-width: .8px;" data-active="1" />
        </g>
      <g id="arrow-up" style="display: none;" data-active="1">
        <line x1="30.4" y1="38.3" x2="34.2" y2="44.5" style="fill: none; stroke: #2e3192; stroke-miterlimit: 10; stroke-width: .8px;" data-active="1" />
        <line x1="34.2" y1="34.1" x2="34.2" y2="44.6" style="fill: none; stroke: #2e3192; stroke-miterlimit: 10; stroke-width: .8px;" data-active="1" />
        <line x1="38.2" y1="38.5" x2="34.4" y2="44.5" style="fill: none; stroke: #2e3192; stroke-miterlimit: 10; stroke-width: .8px;" data-active="1" />
        </g>
      <g id="arrow-rotation" style="display: none;" data-active="1">
        <path d="M19.25,68.37c-.17,0-.7-.24-.96-.79-.26-.55-.17-.71-.09-.87" style="fill: none; stroke: #2e3192; stroke-miterlimit: 10; stroke-width: .8px;" data-active="1" />
        <path d="M17.68,64.8c.87-1.11,5.32-1.03,4.71,1.35-.09,2.77-6.98.71-2.96,0" style="fill: none; stroke: #2e3192; stroke-miterlimit: 10; stroke-width: .8px;" data-active="1" />
        </g>
      </g>
    </g>
  <g id="specials" data-active="1">
    <g id="fracture-vertical" style="display: none;" data-active="1">
      <line id="fracture-vertical-3" x1="26.8" y1="3.7" x2="11.5" y2="52.3" style="fill: none; stroke: #fdecc5; stroke-miterlimit: 10; stroke-width: 2px;" data-active="1" />
      <line id="fracture-vertical-2" x1="24.3" y1="11.6" x2="10.7" y2="54.7" style="fill: none; isolation: isolate; opacity: .6; stroke: #9e00e9; stroke-miterlimit: 10; stroke-width: .2px;" data-active="1" />
      <polyline id="fracture-vertical-1" points="25.70,15.65 21.89,16.22 23.45,22.52 20.43,22.52 21.60,25.72 19.20,25.84 21.19,30.31 17.35,29.85 19.60,35.94 15.83,36.31 17.51,41.98 15.24,41.58 15.94,46.02 14.20,45.86 14.63,49.03 12.97,49.19 14.37,52.12 11.67,51.80 12.80,54.97" style="fill: none; isolation: isolate; opacity: .4; stroke: #ed1c24; stroke-miterlimit: 10; stroke-width: .8px;" data-active="1" />
      </g>
    <g id="fracture-horizontal" style="display: none;" data-active="1">
      <line id="fracture-horizontal-3" x1="12" y1="12.5" x2="27.4" y2="28.9" style="fill: none; stroke: #fdecc5; stroke-miterlimit: 10; stroke-width: 2px;" data-active="1" />
      <line id="fracture-horizontal-2" x1="14.9" y1="15.6" x2="25.8" y2="27.2" style="fill: none; isolation: isolate; opacity: .6; stroke: #9e00e9; stroke-miterlimit: 10; stroke-width: .2px;" data-active="1" />
      <polyline id="fracture-horizontal-1" points="13.11,20.46 14.99,19.65 15.31,22.17 18.01,20.91 18.29,25.15 20.11,23.55 20.28,27.33 22.69,25.72 22.33,29.62 24.97,28.36 24.11,31.22 26.45,30.88" style="fill: none; isolation: isolate; opacity: .4; stroke: #ed1c24; stroke-miterlimit: 10; stroke-width: .8px;" data-active="1" />
      </g>
    <g id="parapulpal-pin" data-active="1" style="display: none;">
      <g id="parapulpal-pin-shape" data-active="1">
        <path d="M25.01,46.02c.09.4,0,.48,0,.63v.63c.09.32,0,.48,0,.63.09.24,0,.48,0,.63v1.9c.09.32.35.63.87.87.52.24.17.16.09.24-.09.08,0,.16,0,.24,0,.08,0,.16-.26.24-1.05.16-2.18.16-3.23,0-1.05-.16-.26,0-.26-.16v-.48c0-.16.78-.24.87-.79.09-.55,0-.55,0-.87l.17-3.96.17-3.49c0-.95.17-1.82.35-2.74.17-.92,0-.14.17-.22.09.14.09.22.17.36.26.93.35,1.88.44,2.83l.26,2.77v.16c.09.16,0,.4,0,.63h.17,0Z" data-active="1" style="fill: #0a0a0a;" />
        <path d="M23.7,48.87c-.09,0-.17-.16-.17-.24v-2.93l.17-3.09.17-1.74h.09v7.37c0,.24,0,.48-.26.63Z" data-active="1" style="fill: #f0edee;" />
        <path d="M24.48,48.4h0v-1.35h0v-.79h0v-5.15c0,.16.09.4.09.55v.4l.26,2.69v2.54l.17,1.43v.24h-.09c-.17-.16-.26-.32-.44-.48h0Z" data-active="1" style="fill: #eaeaea;" />
        <path d="M24.48,48.4v-.16c-.09,0-.26-8.32-.26-8.32v-.22l.17.53c0,0,.09.16,0,.16h0c-.09,0,0,.55,0,.63v4.91h0v2.22h0v.24c0,0,.09,0,0,0Z" data-active="1" style="fill: #9c9c9c;" />
        <path d="M23.7,49.74c.17.24.44.48.61.71.17.24,0,.24,0,.4-.17.32-.7.32-1.22.4.78-.55.17-.87.78-1.51h-.17Z" data-active="1" style="fill: #c7c7c7;" />
        <path d="M24.92,49.74c.44.32.26.55.35.79v.16c0,.16.26.4.52.55h-.78c-.61-.16-.7-.63-.61-.79.09-.16.35-.48.52-.63h0Z" data-active="1" style="fill: #b5b4b6;" />
        <path d="M24.48,51.33c.35,0,1.48,0,1.74.16v.4h-1.31c-.44,0-.35,0-.35-.16v-.32h-.09Z" data-active="1" style="fill: #bababa;" />
        <path d="M23.09,51.8v-.4h1.13c0,.16,0,.32-.17.4-.17.08-.7,0-1.05,0h.09Z" data-active="1" style="fill: #cdcdcd;" />
        <path d="M23.18,52.04h2.44-2.35c-.78,0,0,0-.09,0-.09,0,0,0,0,0Z" data-active="1" style="fill: #9da1a2;" />
        <path d="M23.18,51.41v.4h-.52v-.4c.17,0,.44,0,.61-.16h-.09v.16Z" data-active="1" style="fill: #8b8d8c;" />
        <path d="M23.96,49.19c.09,0,.17,0,.26.16l-.26.16c0,0-.17,0-.17-.16,0,0,.09,0,.17-.16Z" data-active="1" style="fill: #acaaac;" />
        <path d="M24.66,49.19h.17l-.17.16c-.09,0-.17,0-.26-.16h.26Z" data-active="1" style="fill: #b2b0b3;" />
        <path d="M23.7,49.35h.17c0,0-.09,0-.17.16h-.17c-.09,0,0,0,.17-.16Z" data-active="1" style="fill: #e4e1e2;" />
        <path d="M24.66,49.51c-.17.16-.09.16-.26.24v-.32l.26.16h0Z" data-active="1" style="fill: #8b8989;" />
        <path d="M23.7,49.03h.17v.16h-.26c0,0,0-.16.17-.16h-.09Z" data-active="1" style="fill: #e3e3e3;" />
        <path d="M24.83,49.43h.35c.09,0,0,0-.09.16,0,0-.17,0-.17-.16,0,0-.09,0,0,0Z" data-active="1" style="fill: #cacaca;" />
        <path d="M24.05,49.51c.09,0,.17,0,.26-.16v.32c-.09,0-.17,0-.26-.16Z" data-active="1" style="fill: #7a797b;" />
        <path d="M24.75,49.11h.26c0,0,0,.16-.09,0-.09-.16-.09,0-.17,0Z" data-active="1" style="fill: #d2d1d3;" />
        <path d="M24.05,49.11c.09,0,.17,0,.26-.16v.24h-.26Z" data-active="1" style="fill: #7f7e80;" />
        <path d="M24.4,49.19c0,0,0-.48,0-.16,0,0,.17,0,.09,0h-.17.09v.16Z" data-active="1" style="fill: #7c7b7f;" />
        </g>
      </g>
    <g id="calculus" data-active="1" style="display: none;">
      <path id="calculus-shape-8" d="M23,41.42c.35,0,.7-.16.78-.32.26-.16.35-.48-.09-.55-.61-.16-1.22.63-.7.87h0Z" data-active="1" style="fill: #c4ff98;" />
      <path id="calculus-shape-7" d="M15.85,40.95c-.09.32.17.63.35.71.17.24.52.32.61,0,.17-.55-.7-1.11-.96-.63h0Z" data-active="1" style="fill: #c4ff98;" />
      <path id="calculus-shape-6" d="M13.24,41.74c.44.16.96-.24,1.22-.48.35-.24.61-.71-.09-.87-.87-.24-1.83.95-1.13,1.35h0Z" data-active="1" style="fill: #9e1f63;" />
      <path id="calculus-shape-5" d="M15.85,42.85c-.44.16-.52.79-.61,1.03,0,.4,0,.87.7.63.78-.32.7-1.82-.17-1.66h0Z" data-active="1" style="fill: #9e1f63;" />
      <path id="calculus-shape-4" d="M13.32,44.27c.44-.16.61-.71.61-1.03.09-.4,0-.87-.7-.63-.87.32-.78,1.74,0,1.66h.09Z" data-active="1" style="fill: #9e1f63;" />
      <path id="calculus-shape-3" d="M24.66,40.23c-.09.4.35.87.52,1.03.35.32.78.48.96-.16.17-.79-1.13-1.55-1.57-.95h0Z" data-active="1" style="fill: #9e1f63;" />
      <path id="calculus-shape-2" d="M23.09,44.04c.44,0,.78-.55.96-.79.26-.4.35-.79-.44-.79-.78,0-1.4,1.43-.61,1.58h.09Z" data-active="1" style="fill: #9e1f63;" />
      <path id="calculus-shape-1" d="M26.05,44.27c.44,0,.61-.71.7-.95.17-.4,0-.87-.61-.71-.87.24-.87,1.74-.09,1.66h0Z" data-active="1" style="fill: #9e1f63;" />
      </g>
    </g>
  <g id="plan" data-active="1">
    <g id="extraction-plan" data-active="1" style="display: none;">
      <path d="M7.57,59.49c.31-.79,2-3.74,4.38-7.75,1.19-2,2.55-4.27,4-6.67.72-1.2,1.47-2.43,2.22-3.67.38-.62.76-1.25,1.14-1.84.38-.58.76-1.25,1.14-2.05.78-1.87,1.58-3.69,2.41-5.47.88-1.78,1.8-3.53,2.73-5.23,1.98-3.39,3.9-6.57,5.52-9.33.77-1.38,1.42-2.66,1.93-3.8.46-1.15.82-2.17,1.11-3.03.57-1.73.95-2.84,1.02-3.15" data-active="1" style="fill: none; stroke: #b70000; stroke-miterlimit: 10; stroke-width: 3px;" />
      <path d="M5.9,8.09c.29.5.73,1.58,1.28,3.11.29.76.62,1.64,1.01,2.61.43.97.94,2.04,1.51,3.18,1.22,2.29,2.62,4.89,4.09,7.67,1.4,2.78,2.76,5.74,4.01,8.75.59,1.5,1.15,3.08,1.71,4.55.27.61.55,1.14.82,1.62.27.49.54,1,.81,1.52,1.07,2.05,2.1,4.04,3.03,5.88,1.87,3.68,3.38,6.75,4.14,8.47.52,1.19,1.05,2.38,1.74,3.41" data-active="1" style="fill: none; stroke: #b70000; stroke-miterlimit: 10; stroke-width: 3px;" />
      </g>
    <g id="crown-needed" data-active="1" style="display: none;">
      <path id="crown-needed-shape" d="M28.41,54.5c-3.84,12.76-14.04,13.63-17.61-.4-1.22-4.44-1.83-10.22,1.05-13.71.74-.89,1.67-1.59,2.72-2.2,1.04-.7,2.19-1.21,3.38-1.46,1.19-.25,2.42-.22,3.59.09,1.17.3,2.3.85,3.3,1.56,5.23,3.13,5.23,10.73,3.66,15.89v.16h0Z" data-active="1" style="fill: #c83014; stroke: #000; stroke-miterlimit: 10;" />
      <path id="crown-needed-path" d="M17.51,37.14c-.35.88-.7,1.62-1.06,2.24-.36.6-.71,1.24-1.07,1.87-.71,1.28-1.41,2.55-2.06,3.81-.52,1.11-1.05,2.14-1.22,3.25,0,.24,0,.4.09.4.7,0,1.31-1.19,1.83-1.9,1.48-2.3,2.79-5.63,4.62-7.33.61-.56,1.33-1.13,1.86-1.36.53-.25.88-.07.75.77-1.31,5.79-6.71,10.31-8.28,15.93-.35,1.27-.78,3.09,0,3.49,1.48-.32,2.27-3.09,3.14-4.83,1.83-3.72,5.14-9.83,7.41-12.6,2.01-1.83,1.57,2.77.09,5.79-1.48,3.49-7.94,9.27-6.63,13.79,2.18.71,6.1-9.59,7.94-11.49,2.44-3.09,1.4,2.46,0,5.31-.78,1.82-2.09,3.57-2.79,5.47-.44,1.35.17,1.43.78.87,1.4-1.11,2.79-3.09,4.01-4.83" data-active="1" style="fill: #feffbf; stroke: #1b3f1c; stroke-miterlimit: 10;" />
      </g>
    <g id="crown-replace" data-active="1" style="display: none;">
      <path id="crown-replace-shape" d="M28.41,54.5c-3.84,12.76-14.04,13.63-17.61-.4-1.22-4.44-1.83-10.22,1.05-13.71.74-.89,1.67-1.59,2.72-2.2,1.04-.7,2.19-1.21,3.38-1.46,1.19-.25,2.42-.22,3.59.09,1.17.3,2.3.85,3.3,1.56,5.23,3.13,5.23,10.73,3.66,15.89v.16h0Z" data-active="1" style="fill: none; stroke: #c83014; stroke-miterlimit: 10; stroke-width: 3px;" />
      </g>
    </g>
  </svg>
